<svg width="24" height="25" viewBox="0 0 24 25" fill="none" xmlns="http://www.w3.org/2000/svg">
<path d="M4.20039 5.30078C3.723 5.30078 3.26516 5.49042 2.9276 5.82799C2.59003 6.16555 2.40039 6.62339 2.40039 7.10078V9.50078C2.40039 9.97817 2.59003 10.436 2.9276 10.7736C3.26516 11.1111 3.723 11.3008 4.20039 11.3008H6.60039C7.07778 11.3008 7.53562 11.1111 7.87318 10.7736C8.21075 10.436 8.40039 9.97817 8.40039 9.50078V7.10078C8.40039 6.62339 8.21075 6.16555 7.87318 5.82799C7.53562 5.49042 7.07778 5.30078 6.60039 5.30078H4.20039ZM3.60039 7.10078C3.60039 6.94165 3.6636 6.78904 3.77613 6.67652C3.88865 6.564 4.04126 6.50078 4.20039 6.50078H6.60039C6.75952 6.50078 6.91213 6.564 7.02465 6.67652C7.13718 6.78904 7.20039 6.94165 7.20039 7.10078V9.50078C7.20039 9.65991 7.13718 9.81252 7.02465 9.92505C6.91213 10.0376 6.75952 10.1008 6.60039 10.1008H4.20039C4.04126 10.1008 3.88865 10.0376 3.77613 9.92505C3.6636 9.81252 3.60039 9.65991 3.60039 9.50078V7.10078ZM11.4004 6.50078C11.2413 6.50078 11.0886 6.564 10.9761 6.67652C10.8636 6.78904 10.8004 6.94165 10.8004 7.10078C10.8004 7.25991 10.8636 7.41252 10.9761 7.52505C11.0886 7.63757 11.2413 7.70078 11.4004 7.70078H21.0004C21.1595 7.70078 21.3121 7.63757 21.4247 7.52505C21.5372 7.41252 21.6004 7.25991 21.6004 7.10078C21.6004 6.94165 21.5372 6.78904 21.4247 6.67652C21.3121 6.564 21.1595 6.50078 21.0004 6.50078H11.4004ZM11.4004 8.90078C11.2413 8.90078 11.0886 8.964 10.9761 9.07652C10.8636 9.18904 10.8004 9.34165 10.8004 9.50078C10.8004 9.65991 10.8636 9.81252 10.9761 9.92505C11.0886 10.0376 11.2413 10.1008 11.4004 10.1008H18.6004C18.7595 10.1008 18.9121 10.0376 19.0247 9.92505C19.1372 9.81252 19.2004 9.65991 19.2004 9.50078C19.2004 9.34165 19.1372 9.18904 19.0247 9.07652C18.9121 8.964 18.7595 8.90078 18.6004 8.90078H11.4004ZM4.20039 13.7008C3.723 13.7008 3.26516 13.8904 2.9276 14.228C2.59003 14.5656 2.40039 15.0234 2.40039 15.5008V17.9008C2.40039 18.3782 2.59003 18.836 2.9276 19.1736C3.26516 19.5111 3.723 19.7008 4.20039 19.7008H6.60039C7.07778 19.7008 7.53562 19.5111 7.87318 19.1736C8.21075 18.836 8.40039 18.3782 8.40039 17.9008V15.5008C8.40039 15.0234 8.21075 14.5656 7.87318 14.228C7.53562 13.8904 7.07778 13.7008 6.60039 13.7008H4.20039ZM3.60039 15.5008C3.60039 15.3417 3.6636 15.189 3.77613 15.0765C3.88865 14.964 4.04126 14.9008 4.20039 14.9008H6.60039C6.75952 14.9008 6.91213 14.964 7.02465 15.0765C7.13718 15.189 7.20039 15.3417 7.20039 15.5008V17.9008C7.20039 18.0599 7.13718 18.2125 7.02465 18.325C6.91213 18.4376 6.75952 18.5008 6.60039 18.5008H4.20039C4.04126 18.5008 3.88865 18.4376 3.77613 18.325C3.6636 18.2125 3.60039 18.0599 3.60039 17.9008V15.5008ZM11.4004 14.9008C11.2413 14.9008 11.0886 14.964 10.9761 15.0765C10.8636 15.189 10.8004 15.3417 10.8004 15.5008C10.8004 15.6599 10.8636 15.8125 10.9761 15.925C11.0886 16.0376 11.2413 16.1008 11.4004 16.1008H21.0004C21.1595 16.1008 21.3121 16.0376 21.4247 15.925C21.5372 15.8125 21.6004 15.6599 21.6004 15.5008C21.6004 15.3417 21.5372 15.189 21.4247 15.0765C21.3121 14.964 21.1595 14.9008 21.0004 14.9008H11.4004ZM11.4004 17.3008C11.2413 17.3008 11.0886 17.364 10.9761 17.4765C10.8636 17.589 10.8004 17.7417 10.8004 17.9008C10.8004 18.0599 10.8636 18.2125 10.9761 18.325C11.0886 18.4376 11.2413 18.5008 11.4004 18.5008H18.6004C18.7595 18.5008 18.9121 18.4376 19.0247 18.325C19.1372 18.2125 19.2004 18.0599 19.2004 17.9008C19.2004 17.7417 19.1372 17.589 19.0247 17.4765C18.9121 17.364 18.7595 17.3008 18.6004 17.3008H11.4004Z" fill="white"/>
</svg>
