<svg width="24" height="24" viewBox="0 0 24 24" fill="none" xmlns="http://www.w3.org/2000/svg">
<path d="M5 7.00012C5.53043 7.00012 6.03914 6.78941 6.41421 6.41434C6.78929 6.03926 7 5.53056 7 5.00012C7 4.46969 6.78929 3.96098 6.41421 3.58591C6.03914 3.21084 5.53043 3.00012 5 3.00012C4.46957 3.00012 3.96086 3.21084 3.58579 3.58591C3.21071 3.96098 3 4.46969 3 5.00012C3 5.53056 3.21071 6.03926 3.58579 6.41434C3.96086 6.78941 4.46957 7.00012 5 7.00012ZM12 7.00012C12.5304 7.00012 13.0391 6.78941 13.4142 6.41434C13.7893 6.03926 14 5.53056 14 5.00012C14 4.46969 13.7893 3.96098 13.4142 3.58591C13.0391 3.21084 12.5304 3.00012 12 3.00012C11.4696 3.00012 10.9609 3.21084 10.5858 3.58591C10.2107 3.96098 10 4.46969 10 5.00012C10 5.53056 10.2107 6.03926 10.5858 6.41434C10.9609 6.78941 11.4696 7.00012 12 7.00012ZM19 7.00012C19.5304 7.00012 20.0391 6.78941 20.4142 6.41434C20.7893 6.03926 21 5.53056 21 5.00012C21 4.46969 20.7893 3.96098 20.4142 3.58591C20.0391 3.21084 19.5304 3.00012 19 3.00012C18.4696 3.00012 17.9609 3.21084 17.5858 3.58591C17.2107 3.96098 17 4.46969 17 5.00012C17 5.53056 17.2107 6.03926 17.5858 6.41434C17.9609 6.78941 18.4696 7.00012 19 7.00012ZM5 14.0001C5.53043 14.0001 6.03914 13.7894 6.41421 13.4143C6.78929 13.0393 7 12.5306 7 12.0001C7 11.4697 6.78929 10.961 6.41421 10.5859C6.03914 10.2108 5.53043 10.0001 5 10.0001C4.46957 10.0001 3.96086 10.2108 3.58579 10.5859C3.21071 10.961 3 11.4697 3 12.0001C3 12.5306 3.21071 13.0393 3.58579 13.4143C3.96086 13.7894 4.46957 14.0001 5 14.0001ZM12 14.0001C12.5304 14.0001 13.0391 13.7894 13.4142 13.4143C13.7893 13.0393 14 12.5306 14 12.0001C14 11.4697 13.7893 10.961 13.4142 10.5859C13.0391 10.2108 12.5304 10.0001 12 10.0001C11.4696 10.0001 10.9609 10.2108 10.5858 10.5859C10.2107 10.961 10 11.4697 10 12.0001C10 12.5306 10.2107 13.0393 10.5858 13.4143C10.9609 13.7894 11.4696 14.0001 12 14.0001ZM19 14.0001C19.5304 14.0001 20.0391 13.7894 20.4142 13.4143C20.7893 13.0393 21 12.5306 21 12.0001C21 11.4697 20.7893 10.961 20.4142 10.5859C20.0391 10.2108 19.5304 10.0001 19 10.0001C18.4696 10.0001 17.9609 10.2108 17.5858 10.5859C17.2107 10.961 17 11.4697 17 12.0001C17 12.5306 17.2107 13.0393 17.5858 13.4143C17.9609 13.7894 18.4696 14.0001 19 14.0001ZM5 21.0001C5.53043 21.0001 6.03914 20.7894 6.41421 20.4143C6.78929 20.0393 7 19.5306 7 19.0001C7 18.4697 6.78929 17.961 6.41421 17.5859C6.03914 17.2108 5.53043 17.0001 5 17.0001C4.46957 17.0001 3.96086 17.2108 3.58579 17.5859C3.21071 17.961 3 18.4697 3 19.0001C3 19.5306 3.21071 20.0393 3.58579 20.4143C3.96086 20.7894 4.46957 21.0001 5 21.0001ZM12 21.0001C12.5304 21.0001 13.0391 20.7894 13.4142 20.4143C13.7893 20.0393 14 19.5306 14 19.0001C14 18.4697 13.7893 17.961 13.4142 17.5859C13.0391 17.2108 12.5304 17.0001 12 17.0001C11.4696 17.0001 10.9609 17.2108 10.5858 17.5859C10.2107 17.961 10 18.4697 10 19.0001C10 19.5306 10.2107 20.0393 10.5858 20.4143C10.9609 20.7894 11.4696 21.0001 12 21.0001ZM19 21.0001C19.5304 21.0001 20.0391 20.7894 20.4142 20.4143C20.7893 20.0393 21 19.5306 21 19.0001C21 18.4697 20.7893 17.961 20.4142 17.5859C20.0391 17.2108 19.5304 17.0001 19 17.0001C18.4696 17.0001 17.9609 17.2108 17.5858 17.5859C17.2107 17.961 17 18.4697 17 19.0001C17 19.5306 17.2107 20.0393 17.5858 20.4143C17.9609 20.7894 18.4696 21.0001 19 21.0001Z" fill="#6B7280"/>
</svg>
