<svg width="24" height="25" viewBox="0 0 24 25" fill="none" xmlns="http://www.w3.org/2000/svg">
<path d="M15 7.5H9M15 11.5H9M15 15.5H11M5 3.5H19V21.5L17.968 20.616C17.6055 20.3053 17.1439 20.1346 16.6665 20.1346C16.1891 20.1346 15.7275 20.3053 15.365 20.616L14.333 21.5L13.302 20.616C12.9395 20.3051 12.4776 20.1342 12 20.1342C11.5224 20.1342 11.0605 20.3051 10.698 20.616L9.667 21.5L8.635 20.616C8.27253 20.3053 7.81088 20.1346 7.3335 20.1346C6.85611 20.1346 6.39447 20.3053 6.032 20.616L5 21.5V3.5Z" stroke="white" stroke-linecap="round" stroke-linejoin="round"/>
</svg>
