<svg width="18" height="18" viewBox="0 0 18 18" fill="none" xmlns="http://www.w3.org/2000/svg">
<path fill-rule="evenodd" clip-rule="evenodd" d="M3.5999 2.3999C3.28164 2.3999 2.97642 2.52633 2.75137 2.75138C2.52633 2.97642 2.3999 3.28164 2.3999 3.5999V14.3999C2.3999 14.7182 2.52633 15.0234 2.75137 15.2484C2.97642 15.4735 3.28164 15.5999 3.5999 15.5999H14.3999C14.7182 15.5999 15.0234 15.4735 15.2484 15.2484C15.4735 15.0234 15.5999 14.7182 15.5999 14.3999V10.1999C15.5999 10.0408 15.5367 9.88816 15.4242 9.77564C15.3116 9.66312 15.159 9.59991 14.9999 9.59991C14.8408 9.59991 14.6882 9.66312 14.5756 9.77564C14.4631 9.88816 14.3999 10.0408 14.3999 10.1999V14.3999H3.5999V3.5999H7.7999C7.95903 3.5999 8.11164 3.53669 8.22417 3.42417C8.33669 3.31165 8.3999 3.15903 8.3999 2.9999C8.3999 2.84077 8.33669 2.68816 8.22417 2.57564C8.11164 2.46312 7.95903 2.3999 7.7999 2.3999H3.5999ZM15.4247 2.5751C15.5363 2.68696 15.5992 2.83831 15.5999 2.9963V6.5999C15.5999 6.75903 15.5367 6.91165 15.4242 7.02417C15.3116 7.13669 15.159 7.1999 14.9999 7.1999C14.8408 7.1999 14.6882 7.13669 14.5756 7.02417C14.4631 6.91165 14.3999 6.75903 14.3999 6.5999V4.4483L8.2247 10.6247C8.16892 10.6805 8.10269 10.7247 8.0298 10.7549C7.95692 10.7851 7.8788 10.8007 7.7999 10.8007C7.72101 10.8007 7.64289 10.7851 7.57 10.7549C7.49711 10.7247 7.43089 10.6805 7.3751 10.6247C7.31932 10.5689 7.27507 10.5027 7.24487 10.4298C7.21468 10.3569 7.19914 10.2788 7.19914 10.1999C7.19914 10.121 7.21468 10.0429 7.24487 9.97C7.27507 9.89712 7.31932 9.83089 7.3751 9.7751L13.5515 3.5999H11.3999C11.2408 3.5999 11.0882 3.53669 10.9756 3.42417C10.8631 3.31165 10.7999 3.15903 10.7999 2.9999C10.7999 2.84077 10.8631 2.68816 10.9756 2.57564C11.0882 2.46312 11.2408 2.3999 11.3999 2.3999H14.9999C15.0788 2.3997 15.1569 2.41507 15.2298 2.44513C15.3027 2.4752 15.3689 2.51937 15.4247 2.5751Z" fill="#9C9C9C"/>
</svg>
