<svg width="20" height="20" viewBox="0 0 20 20" fill="none" xmlns="http://www.w3.org/2000/svg">
<g opacity="0.5">
<path d="M13.1251 1.95837L13.1254 1.95836C13.9168 1.9555 14.696 2.15347 15.3901 2.53374L15.3905 2.53398L16.0151 2.87138L15.5069 3.37854L15.5066 3.37883L12.8316 6.07383L12.7731 6.13275L12.8318 6.19146L13.8081 7.16771L13.8668 7.22641L13.9257 7.16793L16.6213 4.49293L16.6216 4.49268L17.1281 3.98557L17.4656 4.60967L17.4658 4.61014C17.8468 5.30391 18.045 6.0832 18.0418 6.87469V6.87503C18.0418 9.59776 15.8478 11.7917 13.1251 11.7917C13.0155 11.7917 12.8745 11.7782 12.7303 11.7644C12.6886 11.7604 12.6466 11.7564 12.6051 11.7527L12.5662 11.7492L12.5387 11.7767L7.18744 17.1286L7.18725 17.1288C6.90455 17.4133 6.56837 17.6392 6.19805 17.7933C5.82773 17.9473 5.43059 18.0267 5.02949 18.0267C4.62839 18.0267 4.23125 17.9473 3.86093 17.7933C3.49062 17.6392 3.15443 17.4133 2.87174 17.1288L2.87135 17.1284C2.58681 16.8457 2.36099 16.5095 2.2069 16.1392C2.0528 15.7689 1.97347 15.3718 1.97347 14.9707C1.97347 14.5696 2.0528 14.1724 2.2069 13.8021C2.36099 13.4318 2.58681 13.0956 2.87135 12.8129L2.87154 12.8127L8.22342 7.46146L8.25096 7.43392L8.2475 7.39511C8.2437 7.35258 8.23959 7.30974 8.23552 7.26725C8.22179 7.12385 8.20845 6.98453 8.20845 6.87503C8.20845 4.1523 10.4024 1.95836 13.1251 1.95837ZM13.1251 3.0417H13.0906L13.0898 3.04247C10.9542 3.06041 9.29116 4.73496 9.29116 6.87566C9.29116 7.12238 9.29192 7.33346 9.33221 7.50135L9.33209 7.50138L9.33338 7.50571L9.41792 7.78929L9.19877 8.00791L9.1987 8.00798L3.63182 13.5742L3.69074 13.6332L3.63182 13.5742C2.83711 14.3689 2.83044 15.5461 3.61234 16.3476L3.61307 16.3483L3.63307 16.3683C4.43436 17.1696 5.62462 17.1696 6.42592 16.3683L11.9928 10.8015L11.9929 10.8014L12.2116 10.5821L12.4953 10.6656L12.4953 10.6657L12.4985 10.6665C12.6648 10.7084 12.8735 10.7084 13.1153 10.7084H13.1251C15.2774 10.7084 16.9585 9.0273 16.9585 6.87503C16.9585 6.71082 16.923 6.56897 16.8812 6.43717C16.8671 6.39266 16.8526 6.3504 16.8385 6.30906C16.8097 6.22456 16.7822 6.1439 16.7612 6.0557L16.7266 5.91074L16.6212 6.01609L14.2575 8.37859L14.2574 8.37869L13.8689 8.76824L13.4979 8.37996L13.4979 8.37994L13.4965 8.37861L11.6215 6.50361L11.6216 6.50359L11.6201 6.50224L11.2319 6.13176L11.6215 5.74208L13.984 3.37958L14.0895 3.27417L13.9444 3.2396C13.8561 3.21853 13.7753 3.19087 13.6905 3.16187C13.6494 3.1478 13.6073 3.1334 13.5631 3.1193C13.4313 3.07732 13.2894 3.0417 13.1251 3.0417Z" fill="#6B7280" stroke="white" stroke-width="0.166667"/>
</g>
</svg>
