<svg width="179" height="80" viewBox="0 0 179 80" fill="none" xmlns="http://www.w3.org/2000/svg">
<rect x="1.62693" y="10.9656" width="175.73" height="68.0689" rx="11.0344" stroke="white" stroke-opacity="0.1" stroke-width="1.9311"/>
<path d="M33.7148 50.5135C28.816 50.5135 24.8389 46.5363 24.8389 41.6376C24.8389 36.7389 28.8322 32.7617 33.7148 32.7617C38.5973 32.7617 42.5906 36.7389 42.5906 41.6376C42.5906 46.5363 38.6135 50.5135 33.7148 50.5135ZM33.7148 35.979C30.5945 35.979 28.0562 38.5173 28.0562 41.6376C28.0562 44.7579 30.5945 47.2962 33.7148 47.2962C36.8351 47.2962 39.3733 44.7579 39.3733 41.6376C39.3733 38.5173 36.8351 35.979 33.7148 35.979Z" fill="#712929"/>
<path d="M39.3733 52.6963C39.3733 55.8166 36.8351 58.3549 33.7148 58.3549C30.5945 58.3549 28.0562 55.8166 28.0562 52.6963L24.8389 52.6963C24.8389 57.595 28.816 61.5722 33.7148 61.5722C38.6135 61.5722 42.5906 57.595 42.5906 52.6963L39.3733 52.6963Z" fill="#712929"/>
<path d="M46.8748 35.4615L46.8748 28.4287L39.842 28.4287L39.842 31.355L43.9324 31.355L43.9324 35.4615L46.8748 35.4615Z" fill="#712929"/>
<path d="M72.8077 34.993C71.676 33.9098 69.9784 33.2954 68.5072 33.2954C64.8857 33.2954 62.6869 36.0439 62.6869 39.5199C62.6869 42.3007 64.3036 45.1623 68.5072 45.1623C69.8329 45.1623 70.9969 44.8713 72.3226 43.8042L72.3226 40.8133L68.006 40.8133L68.006 37.984L75.2489 37.984L75.2489 45.0976C73.5837 47.0054 71.4819 48.1371 68.5072 48.1371C62.1534 48.1371 59.5828 43.9659 59.5828 39.5199C59.5828 34.7667 62.5576 30.3691 68.5072 30.3691C70.7706 30.3691 73.0502 31.2422 74.7801 32.9559L72.8077 34.993Z" fill="white"/>
<path d="M95.0215 47.7656L91.2384 47.7656L86.3073 42.1231L83.2355 42.1231L83.2355 47.7656L80.0505 47.7656L80.0505 30.8545C82.7343 30.8545 85.4019 30.8868 88.0857 30.8868C92.0791 30.903 94.1808 33.5544 94.1808 36.4646C94.1808 38.7765 93.1138 41.1208 89.9126 41.7675L95.0377 47.5392L95.0215 47.7656ZM83.2355 33.8455L83.2355 39.2454L88.0857 39.2454C90.1066 39.2454 90.9797 37.8873 90.9797 36.5454C90.9797 35.2035 90.1066 33.8455 88.1019 33.8455L83.2355 33.8455Z" fill="white"/>
<path d="M111.706 44.58L102.862 44.58L101.407 47.765L97.9473 47.765L105.53 30.8701L109.006 30.8701L116.588 47.765L113.112 47.765L111.706 44.58ZM107.292 34.4269L104.156 41.6214L110.428 41.6214L107.292 34.4269Z" fill="white"/>
<path d="M130.606 30.8545L133.791 30.8545L133.791 47.7817L131.818 47.7817L131.818 47.7979L122.926 36.3837L122.926 47.7817L119.741 47.7817L119.741 30.8707L122.328 30.8707L130.606 41.3471L130.606 30.8545Z" fill="white"/>
<path d="M154 39.1801C154.081 43.4483 151.462 47.7812 145.544 47.7812L138.9 47.7812L138.9 30.8701L145.544 30.8701C151.349 30.8701 153.935 34.9928 154 39.1801ZM142.085 44.7094L145.561 44.7094C149.392 44.7094 150.928 41.9124 150.847 39.164C150.767 36.5287 149.231 33.9096 145.561 33.9096L142.085 33.9096L142.085 44.7094Z" fill="white"/>
<path d="M87.3074 61.001L86.3841 61.001L89.0546 53.7282L89.9636 53.7282L92.6341 61.001L91.7108 61.001L89.5375 54.8788L89.4807 54.8788L87.3074 61.001ZM87.6483 58.1601L91.3699 58.1601L91.3699 58.9413L87.6483 58.9413L87.6483 58.1601ZM99.2774 56.001L98.3967 56.001C98.3446 55.7477 98.2535 55.5251 98.1233 55.3334C97.9954 55.1416 97.8392 54.9806 97.6545 54.8504C97.4722 54.7178 97.2698 54.6184 97.0473 54.5521C96.8247 54.4858 96.5927 54.4527 96.3513 54.4527C95.9109 54.4527 95.512 54.5639 95.1545 54.7865C94.7994 55.009 94.5165 55.3369 94.3058 55.7702C94.0975 56.2034 93.9933 56.7349 93.9933 57.3646C93.9933 57.9943 94.0975 58.5258 94.3058 58.9591C94.5165 59.3923 94.7994 59.7202 95.1545 59.9427C95.512 60.1653 95.9109 60.2765 96.3513 60.2765C96.5927 60.2765 96.8247 60.2434 97.0473 60.1771C97.2698 60.1108 97.4722 60.0126 97.6545 59.8824C97.8392 59.7498 97.9954 59.5876 98.1233 59.3959C98.2535 59.2017 98.3446 58.9792 98.3967 58.7282L99.2774 58.7282C99.2111 59.0999 99.0904 59.4326 98.9152 59.7261C98.74 60.0197 98.5222 60.2694 98.2618 60.4754C98.0013 60.679 97.709 60.8341 97.3846 60.9406C97.0627 61.0471 96.7182 61.1004 96.3513 61.1004C95.731 61.1004 95.1794 60.9489 94.6964 60.6459C94.2135 60.3428 93.8335 59.912 93.5565 59.3532C93.2795 58.7945 93.141 58.1317 93.141 57.3646C93.141 56.5976 93.2795 55.9347 93.5565 55.376C93.8335 54.8173 94.2135 54.3864 94.6964 54.0834C95.1794 53.7803 95.731 53.6288 96.3513 53.6288C96.7182 53.6288 97.0627 53.6821 97.3846 53.7886C97.709 53.8952 98.0013 54.0514 98.2618 54.2574C98.5222 54.461 98.74 54.7095 98.9152 55.0031C99.0904 55.2943 99.2111 55.6269 99.2774 56.001ZM106.553 56.001L105.672 56.001C105.62 55.7477 105.529 55.5251 105.399 55.3334C105.271 55.1416 105.115 54.9806 104.93 54.8504C104.748 54.7178 104.545 54.6184 104.323 54.5521C104.1 54.4858 103.868 54.4527 103.627 54.4527C103.186 54.4527 102.787 54.5639 102.43 54.7865C102.075 55.009 101.792 55.3369 101.581 55.7702C101.373 56.2034 101.269 56.7349 101.269 57.3646C101.269 57.9943 101.373 58.5258 101.581 58.9591C101.792 59.3923 102.075 59.7202 102.43 59.9427C102.787 60.1653 103.186 60.2765 103.627 60.2765C103.868 60.2765 104.1 60.2434 104.323 60.1771C104.545 60.1108 104.748 60.0126 104.93 59.8824C105.115 59.7498 105.271 59.5876 105.399 59.3959C105.529 59.2017 105.62 58.9792 105.672 58.7282L106.553 58.7282C106.486 59.0999 106.366 59.4326 106.191 59.7261C106.015 60.0197 105.798 60.2694 105.537 60.4754C105.277 60.679 104.984 60.8341 104.66 60.9406C104.338 61.0471 103.994 61.1004 103.627 61.1004C103.006 61.1004 102.455 60.9489 101.972 60.6459C101.489 60.3428 101.109 59.912 100.832 59.3532C100.555 58.7945 100.416 58.1317 100.416 57.3646C100.416 56.5976 100.555 55.9347 100.832 55.376C101.109 54.8173 101.489 54.3864 101.972 54.0834C102.455 53.7803 103.006 53.6288 103.627 53.6288C103.994 53.6288 104.338 53.6821 104.66 53.7886C104.984 53.8952 105.277 54.0514 105.537 54.2574C105.798 54.461 106.015 54.7095 106.191 55.0031C106.366 55.2943 106.486 55.6269 106.553 56.001ZM114.112 57.3646C114.112 58.1317 113.974 58.7945 113.697 59.3532C113.42 59.912 113.04 60.3428 112.557 60.6459C112.074 60.9489 111.522 61.1004 110.902 61.1004C110.282 61.1004 109.73 60.9489 109.247 60.6459C108.764 60.3428 108.384 59.912 108.107 59.3532C107.83 58.7945 107.692 58.1317 107.692 57.3646C107.692 56.5976 107.83 55.9347 108.107 55.376C108.384 54.8173 108.764 54.3864 109.247 54.0834C109.73 53.7803 110.282 53.6288 110.902 53.6288C111.522 53.6288 112.074 53.7803 112.557 54.0834C113.04 54.3864 113.42 54.8173 113.697 55.376C113.974 55.9347 114.112 56.5976 114.112 57.3646ZM113.26 57.3646C113.26 56.7349 113.155 56.2034 112.944 55.7702C112.736 55.3369 112.453 55.009 112.095 54.7865C111.74 54.5639 111.342 54.4527 110.902 54.4527C110.462 54.4527 110.063 54.5639 109.705 54.7865C109.35 55.009 109.067 55.3369 108.857 55.7702C108.648 56.2034 108.544 56.7349 108.544 57.3646C108.544 57.9943 108.648 58.5258 108.857 58.9591C109.067 59.3923 109.35 59.7202 109.705 59.9427C110.063 60.1653 110.462 60.2765 110.902 60.2765C111.342 60.2765 111.74 60.1653 112.095 59.9427C112.453 59.7202 112.736 59.3923 112.944 58.9591C113.155 58.5258 113.26 57.9943 113.26 57.3646ZM120.366 53.7282L121.246 53.7282L121.246 58.5436C121.246 59.0407 121.129 59.4846 120.895 59.8753C120.663 60.2635 120.335 60.5701 119.911 60.795C119.487 61.0175 118.99 61.1288 118.42 61.1288C117.849 61.1288 117.352 61.0175 116.928 60.795C116.505 60.5701 116.175 60.2635 115.941 59.8753C115.709 59.4846 115.593 59.0407 115.593 58.5436L115.593 53.7282L116.474 53.7282L116.474 58.4726C116.474 58.8277 116.552 59.1437 116.708 59.4207C116.864 59.6953 117.087 59.912 117.376 60.0706C117.667 60.2268 118.015 60.305 118.42 60.305C118.825 60.305 119.173 60.2268 119.464 60.0706C119.755 59.912 119.978 59.6953 120.131 59.4207C120.288 59.1437 120.366 58.8277 120.366 58.4726L120.366 53.7282ZM128.772 53.7282L128.772 61.001L127.92 61.001L123.957 55.2907L123.886 55.2907L123.886 61.001L123.005 61.001L123.005 53.7282L123.857 53.7282L127.835 59.4527L127.906 59.4527L127.906 53.7282L128.772 53.7282ZM130.137 54.5095L130.137 53.7282L135.591 53.7282L135.591 54.5095L133.304 54.5095L133.304 61.001L132.424 61.001L132.424 54.5095L130.137 54.5095ZM137.831 53.7282L137.831 61.001L136.951 61.001L136.951 53.7282L137.831 53.7282ZM145.364 53.7282L145.364 61.001L144.512 61.001L140.549 55.2907L140.478 55.2907L140.478 61.001L139.597 61.001L139.597 53.7282L140.449 53.7282L144.427 59.4527L144.498 59.4527L144.498 53.7282L145.364 53.7282ZM152.098 56.001C152.02 55.7619 151.917 55.5476 151.789 55.3582C151.663 55.1665 151.513 55.0031 151.338 54.8682C151.165 54.7332 150.969 54.6302 150.748 54.5592C150.528 54.4882 150.287 54.4527 150.024 54.4527C149.593 54.4527 149.201 54.5639 148.849 54.7865C148.496 55.009 148.215 55.3369 148.007 55.7702C147.799 56.2034 147.694 56.7349 147.694 57.3646C147.694 57.9943 147.8 58.5258 148.011 58.9591C148.221 59.3923 148.506 59.7202 148.866 59.9427C149.226 60.1653 149.631 60.2765 150.081 60.2765C150.497 60.2765 150.864 60.1878 151.182 60.0102C151.501 59.8303 151.75 59.577 151.927 59.2503C152.107 58.9212 152.197 58.5341 152.197 58.089L152.467 58.1459L150.28 58.1459L150.28 57.3646L153.05 57.3646L153.05 58.1459C153.05 58.7448 152.922 59.2657 152.666 59.7084C152.413 60.1511 152.062 60.4943 151.615 60.7382C151.17 60.9797 150.658 61.1004 150.081 61.1004C149.437 61.1004 148.871 60.9489 148.383 60.6459C147.898 60.3428 147.519 59.912 147.247 59.3532C146.977 58.7945 146.842 58.1317 146.842 57.3646C146.842 56.7893 146.919 56.272 147.073 55.8128C147.229 55.3511 147.449 54.9581 147.734 54.6338C148.018 54.3095 148.354 54.0609 148.742 53.8881C149.13 53.7152 149.558 53.6288 150.024 53.6288C150.408 53.6288 150.765 53.6868 151.096 53.8028C151.43 53.9165 151.727 54.0786 151.988 54.2893C152.251 54.4977 152.47 54.7474 152.645 55.0386C152.82 55.3274 152.941 55.6482 153.007 56.001L152.098 56.001Z" fill="#712929"/>
<rect width="49" height="21" transform="translate(65.5002 0.626953)" fill="#121212"/>
<path d="M81.5601 9.0815C81.5118 8.5957 81.2973 8.20934 80.9166 7.92241C80.5359 7.63548 80.0572 7.49201 79.4805 7.49201C79.0743 7.49201 78.7163 7.56161 78.4067 7.70082C78.0999 7.84002 77.8584 8.0332 77.6822 8.28036C77.5089 8.52468 77.4223 8.80309 77.4223 9.11559C77.4223 9.3457 77.472 9.54741 77.5714 9.7207C77.6709 9.894 77.8044 10.0431 77.972 10.1681C78.1425 10.2903 78.33 10.3954 78.5345 10.4835C78.7419 10.5716 78.9507 10.6454 79.1609 10.7051L80.0814 10.9693C80.3598 11.046 80.6382 11.144 80.9166 11.2633C81.195 11.3826 81.4493 11.5332 81.6794 11.715C81.9124 11.894 82.0984 12.1142 82.2376 12.3755C82.3797 12.6341 82.4507 12.9451 82.4507 13.3088C82.4507 13.7747 82.33 14.1937 82.0885 14.5659C81.847 14.938 81.5004 15.2335 81.0487 15.4522C80.597 15.6681 80.0558 15.7761 79.4251 15.7761C78.8314 15.7761 78.3158 15.6781 77.8783 15.4821C77.4408 15.2832 77.097 15.0091 76.847 14.6596C76.597 14.3102 76.4564 13.9054 76.4251 13.4451H77.2433C77.2717 13.7889 77.3854 14.0801 77.5842 14.3187C77.7831 14.5574 78.0416 14.7392 78.3598 14.8642C78.678 14.9863 79.0331 15.0474 79.4251 15.0474C79.8598 15.0474 80.2462 14.975 80.5842 14.8301C80.9251 14.6824 81.1922 14.4778 81.3854 14.2164C81.5814 13.9522 81.6794 13.6454 81.6794 13.296C81.6794 13.0005 81.6027 12.7534 81.4493 12.5545C81.2959 12.3528 81.0814 12.1838 80.8058 12.0474C80.5331 11.911 80.2163 11.7903 79.8555 11.6852L78.8115 11.3784C78.1268 11.1738 77.5956 10.8912 77.2178 10.5304C76.8399 10.1696 76.651 9.70934 76.651 9.14968C76.651 8.68093 76.776 8.269 77.026 7.91388C77.2788 7.55593 77.6197 7.27752 78.0487 7.07866C78.4805 6.87695 78.9649 6.7761 79.5018 6.7761C80.0445 6.7761 80.5246 6.87553 80.9422 7.0744C81.3598 7.27326 81.6908 7.54741 81.9351 7.89684C82.1822 8.24343 82.3143 8.63832 82.3314 9.0815H81.5601ZM86.7547 15.7633C86.1893 15.7633 85.6893 15.6199 85.2547 15.3329C84.8229 15.046 84.4848 14.6497 84.2405 14.144C83.9962 13.6355 83.874 13.0488 83.874 12.3841C83.874 11.7136 83.9962 11.1241 84.2405 10.6156C84.4848 10.1042 84.8229 9.7065 85.2547 9.42241C85.6893 9.13548 86.1893 8.99201 86.7547 8.99201C87.32 8.99201 87.8186 9.13548 88.2504 9.42241C88.6822 9.70934 89.0203 10.1071 89.2646 10.6156C89.5118 11.1241 89.6354 11.7136 89.6354 12.3841C89.6354 13.0488 89.5132 13.6355 89.2689 14.144C89.0246 14.6497 88.6851 15.046 88.2504 15.3329C87.8186 15.6199 87.32 15.7633 86.7547 15.7633ZM86.7547 15.0687C87.2092 15.0687 87.5942 14.9466 87.9095 14.7022C88.2249 14.4579 88.4635 14.1326 88.6254 13.7264C88.7902 13.3201 88.8726 12.8727 88.8726 12.3841C88.8726 11.8954 88.7902 11.4466 88.6254 11.0375C88.4635 10.6284 88.2249 10.3002 87.9095 10.0531C87.5942 9.80593 87.2092 9.68235 86.7547 9.68235C86.303 9.68235 85.918 9.80593 85.5999 10.0531C85.2845 10.3002 85.0445 10.6284 84.8797 11.0375C84.7178 11.4466 84.6368 11.8954 84.6368 12.3841C84.6368 12.8727 84.7178 13.3201 84.8797 13.7264C85.0445 14.1326 85.2845 14.4579 85.5999 14.7022C85.9152 14.9466 86.3001 15.0687 86.7547 15.0687ZM93.8445 15.7633C93.2792 15.7633 92.7792 15.6199 92.3445 15.3329C91.9127 15.046 91.5746 14.6497 91.3303 14.144C91.086 13.6355 90.9638 13.0488 90.9638 12.3841C90.9638 11.7136 91.086 11.1241 91.3303 10.6156C91.5746 10.1042 91.9127 9.7065 92.3445 9.42241C92.7792 9.13548 93.2792 8.99201 93.8445 8.99201C94.4099 8.99201 94.9084 9.13548 95.3403 9.42241C95.7721 9.70934 96.1102 10.1071 96.3545 10.6156C96.6016 11.1241 96.7252 11.7136 96.7252 12.3841C96.7252 13.0488 96.603 13.6355 96.3587 14.144C96.1144 14.6497 95.7749 15.046 95.3403 15.3329C94.9084 15.6199 94.4099 15.7633 93.8445 15.7633ZM93.8445 15.0687C94.2991 15.0687 94.684 14.9466 94.9994 14.7022C95.3147 14.4579 95.5533 14.1326 95.7153 13.7264C95.88 13.3201 95.9624 12.8727 95.9624 12.3841C95.9624 11.8954 95.88 11.4466 95.7153 11.0375C95.5533 10.6284 95.3147 10.3002 94.9994 10.0531C94.684 9.80593 94.2991 9.68235 93.8445 9.68235C93.3928 9.68235 93.0079 9.80593 92.6897 10.0531C92.3744 10.3002 92.1343 10.6284 91.9695 11.0375C91.8076 11.4466 91.7266 11.8954 91.7266 12.3841C91.7266 12.8727 91.8076 13.3201 91.9695 13.7264C92.1343 14.1326 92.3744 14.4579 92.6897 14.7022C93.005 14.9466 93.39 15.0687 93.8445 15.0687ZM99.1489 11.536V15.627H98.3903V9.0815H99.1276V10.1085H99.1957C99.3491 9.77326 99.5878 9.50479 99.9116 9.30309C100.238 9.09854 100.642 8.99627 101.122 8.99627C101.562 8.99627 101.949 9.0886 102.281 9.27326C102.616 9.45508 102.876 9.72354 103.061 10.0787C103.248 10.4338 103.342 10.8699 103.342 11.3869V15.627H102.584V11.4338C102.584 10.8968 102.433 10.4721 102.132 10.1596C101.834 9.84712 101.433 9.69087 100.93 9.69087C100.586 9.69087 100.281 9.76474 100.014 9.91246C99.7469 10.0602 99.5352 10.2733 99.379 10.5517C99.2256 10.8272 99.1489 11.1554 99.1489 11.536Z" fill="white"/>
</svg>
