<svg width="179" height="80" viewBox="0 0 179 80" fill="none" xmlns="http://www.w3.org/2000/svg">
<rect x="1.62693" y="10.9656" width="175.73" height="68.0689" rx="11.0344" stroke="white" stroke-opacity="0.1" stroke-width="1.9311"/>
<path d="M33.7792 50.5135C28.8805 50.5135 24.9033 46.5363 24.9033 41.6376C24.9033 36.7389 28.8805 32.7617 33.7792 32.7617C38.6779 32.7617 42.6551 36.7389 42.6551 41.6376C42.6551 46.5363 38.6779 50.5135 33.7792 50.5135ZM33.7792 35.979C30.6589 35.979 28.1206 38.5173 28.1206 41.6376C28.1206 44.7579 30.6589 47.2962 33.7792 47.2962C36.8995 47.2962 39.4378 44.7579 39.4378 41.6376C39.4378 38.5173 36.8995 35.979 33.7792 35.979Z" fill="#860D90"/>
<path d="M39.4377 52.6963C39.4377 55.8166 36.8995 58.3549 33.7792 58.3549C30.6589 58.3549 28.1206 55.8166 28.1206 52.6963L24.9194 52.6963C24.9194 57.595 28.8966 61.5722 33.7953 61.5722C38.694 61.5722 42.6712 57.595 42.6712 52.6963L39.4377 52.6963Z" fill="#860D90"/>
<path d="M46.9395 35.4615L46.9395 28.4287L39.9067 28.4287L39.9067 31.355L44.0132 31.355L44.0132 35.4615L46.9395 35.4615Z" fill="#860D90"/>
<path d="M72.888 34.993C71.7563 33.9098 70.0587 33.2954 68.5875 33.2954C64.966 33.2954 62.7672 36.0439 62.7672 39.5199C62.7672 42.3007 64.384 45.1623 68.5875 45.1623C69.9132 45.1623 71.0772 44.8713 72.403 43.8042L72.403 40.8133L68.0863 40.8133L68.0863 37.984L75.3293 37.984L75.3293 45.0976C73.664 47.0054 71.5623 48.1371 68.5875 48.1371C62.2337 48.1371 59.6631 43.9659 59.6631 39.5199C59.6631 34.7667 62.6379 30.3691 68.5875 30.3691C70.8509 30.3691 73.1305 31.2422 74.8604 32.9559L72.888 34.993Z" fill="white"/>
<path d="M95.0862 47.7656L91.3031 47.7656L86.372 42.1231L83.3002 42.1231L83.3002 47.7656L80.1152 47.7656L80.1152 30.8545C82.799 30.8545 85.4666 30.8868 88.1504 30.8868C92.1276 30.9192 94.2293 33.5706 94.2293 36.4807C94.2293 38.7927 93.1623 41.1369 89.9612 41.7836L95.0862 47.5554L95.0862 47.7656ZM83.3164 33.8455L83.3164 39.2454L88.1666 39.2454C90.1875 39.2454 91.0605 37.8873 91.0605 36.5454C91.0605 35.2035 90.1713 33.8455 88.1666 33.8455L83.3164 33.8455Z" fill="white"/>
<path d="M111.771 44.58L102.927 44.58L101.472 47.765L98.0122 47.765L105.595 30.8701L109.071 30.8701L116.653 47.765L113.177 47.765L111.771 44.58ZM107.357 34.4269L104.22 41.6214L110.493 41.6214L107.357 34.4269Z" fill="white"/>
<path d="M130.686 30.8545L133.871 30.8545L133.871 47.7817L131.899 47.7817L131.899 47.7979L123.007 36.3837L123.007 47.7817L119.822 47.7817L119.822 30.8707L122.409 30.8707L130.686 41.3471L130.686 30.8545Z" fill="white"/>
<path d="M154.081 39.1801C154.161 43.4483 151.542 47.7812 145.625 47.7812L138.98 47.7812L138.98 30.8701L145.625 30.8701C151.413 30.8701 154 34.9928 154.081 39.1801ZM142.149 44.7094L145.625 44.7094C149.457 44.7094 150.993 41.9124 150.912 39.164C150.831 36.5287 149.295 33.9096 145.625 33.9096L142.149 33.9096L142.149 44.7094Z" fill="white"/>
<path d="M97.8991 61.5074C96.7674 61.5074 95.8944 61.1679 95.28 60.505C94.6656 59.826 94.3585 59.0176 94.3423 58.0314C94.3423 57.4009 94.4555 56.835 94.7141 56.3015C94.9728 55.7842 95.3608 55.3476 95.9267 54.992C96.4764 54.6524 97.1392 54.4746 97.8991 54.4746C98.8691 54.4746 99.6937 54.8141 100.389 55.4932L99.8069 56.0428C99.2895 55.5417 98.659 55.283 97.8991 55.283C97.0261 55.283 96.3632 55.5417 95.8944 56.0752C95.4255 56.6087 95.183 57.2554 95.1992 58.0153C95.2153 58.7751 95.4417 59.4057 95.9105 59.923C96.3794 60.4404 97.0422 60.699 97.9153 60.699C98.6751 60.699 99.3218 60.4404 99.8554 59.9068L100.454 60.4889C99.7584 61.1679 98.9177 61.5074 97.8991 61.5074Z" fill="#860D90"/>
<path d="M105.676 54.5713L108.731 61.3939L107.81 61.3939L107.131 59.8904L103.235 59.8904L102.572 61.3939L101.65 61.3939L104.706 54.5713L105.676 54.5713ZM105.191 55.4443L103.574 59.1305L106.808 59.1305L105.191 55.4443Z" fill="#860D90"/>
<path d="M111.432 60.6017L115.15 60.6017L115.15 61.3939L110.591 61.3939L110.591 54.5713L111.432 54.5713L111.432 60.6017Z" fill="#860D90"/>
<path d="M116.993 54.5713L121.779 54.5713L121.779 55.3473L117.818 55.3473L117.818 57.4814L121.601 57.4814L121.601 58.2736L117.818 58.2736L117.818 60.5855L121.924 60.5855L121.924 61.3939L116.977 61.3939L116.977 54.5713L116.993 54.5713Z" fill="#860D90"/>
<path d="M124.705 54.5713L128.876 59.7933L128.876 54.5713L129.717 54.5713L129.717 61.3939L129.135 61.3939L124.947 56.188L124.947 61.3939L124.107 61.3939L124.107 54.5713L124.705 54.5713Z" fill="#860D90"/>
<path d="M132.32 54.5713L134.809 54.5713C135.375 54.5713 135.876 54.6683 136.313 54.8623C136.749 55.0563 137.121 55.2988 137.396 55.6222C137.671 55.9455 137.881 56.3012 138.027 56.6892C138.172 57.0772 138.237 57.4976 138.237 57.9179C138.237 58.3383 138.172 58.791 138.027 59.1952C137.897 59.5993 137.687 59.9712 137.412 60.3107C137.138 60.6502 136.782 60.9089 136.329 61.1029C135.876 61.2969 135.359 61.3939 134.793 61.3939L132.303 61.3939L132.303 54.5713L132.32 54.5713ZM136.717 59.761C137.154 59.2437 137.38 58.6131 137.38 57.9018C137.38 57.1904 137.154 56.6245 136.701 56.1234C136.248 55.6222 135.618 55.3797 134.793 55.3797L133.16 55.3797L133.16 60.537L134.793 60.537C135.65 60.5532 136.281 60.2945 136.717 59.761Z" fill="#860D90"/>
<path d="M143.378 54.5713L146.434 61.3939L145.512 61.3939L144.833 59.8904L140.937 59.8904L140.274 61.3939L139.352 61.3939L142.408 54.5713L143.378 54.5713ZM142.893 55.4443L141.276 59.1305L144.51 59.1305L142.893 55.4443Z" fill="#860D90"/>
<path d="M150.783 58.9365L149.134 58.9365L149.134 61.3939L148.293 61.3939L148.293 54.5713L151.397 54.5713C152.125 54.5713 152.69 54.7815 153.095 55.218C153.499 55.6545 153.709 56.1557 153.709 56.7539C153.709 57.3036 153.564 57.7886 153.224 58.1928C152.885 58.597 152.399 58.8233 151.737 58.8718L153.984 61.3939L152.917 61.3939L150.783 58.9365ZM152.464 57.7886C152.723 57.5299 152.852 57.1904 152.852 56.7862C152.852 56.4144 152.739 56.0749 152.48 55.7838C152.222 55.4928 151.866 55.3473 151.397 55.3473L149.15 55.3473L149.15 58.1928L151.365 58.1928C151.834 58.1766 152.205 58.0473 152.464 57.7886Z" fill="#860D90"/>
<rect width="70" height="21" transform="translate(55.0002 0.626953)" fill="#121212"/>
<path d="M66.469 15.627H65.6338L68.8085 6.89968H69.6608L72.8355 15.627H72.0002L69.2644 7.93519H69.2048L66.469 15.627ZM67.0698 12.2818H71.3994V12.9977H67.0698V12.2818ZM78.42 9.0815L76.0294 15.627H75.2197L72.8291 9.0815H73.6515L75.5947 14.6255H75.6544L77.5975 9.0815H78.42ZM81.5329 15.7761C81.138 15.7761 80.7772 15.6994 80.4505 15.546C80.1238 15.3897 79.8639 15.1653 79.6707 14.8727C79.4775 14.5772 79.3809 14.2193 79.3809 13.7988C79.3809 13.475 79.442 13.2022 79.5642 12.9806C79.6863 12.7591 79.8596 12.5772 80.0841 12.4352C80.3085 12.2931 80.5741 12.1809 80.8809 12.0985C81.1877 12.0162 81.5258 11.9522 81.8951 11.9068C82.2616 11.8613 82.5713 11.8216 82.8241 11.7875C83.0798 11.7534 83.2744 11.6994 83.4079 11.6255C83.5414 11.5517 83.6082 11.4324 83.6082 11.2676V11.1142C83.6082 10.6681 83.4747 10.3173 83.2076 10.0616C82.9434 9.80309 82.5627 9.67383 82.0656 9.67383C81.594 9.67383 81.2091 9.77752 80.9108 9.98491C80.6153 10.1923 80.4079 10.4366 80.2886 10.7179L79.5684 10.4579C79.7162 10.1 79.9207 9.81445 80.1821 9.60138C80.4434 9.38548 80.736 9.23065 81.0599 9.1369C81.3838 9.04031 81.7119 8.99201 82.0443 8.99201C82.2943 8.99201 82.5542 9.02468 82.8241 9.09002C83.0968 9.15536 83.3497 9.269 83.5826 9.43093C83.8156 9.59002 84.0045 9.81303 84.1494 10.1C84.2943 10.3841 84.3667 10.7449 84.3667 11.1824V15.627H83.6082V14.5914H83.5613C83.4704 14.7846 83.3355 14.9721 83.1565 15.1539C82.9775 15.3358 82.7531 15.4849 82.4832 15.6014C82.2133 15.7179 81.8966 15.7761 81.5329 15.7761ZM81.6352 15.0815C82.0386 15.0815 82.388 14.992 82.6835 14.813C82.9789 14.6341 83.2062 14.3968 83.3653 14.1014C83.5272 13.8031 83.6082 13.475 83.6082 13.117V12.171C83.5514 12.225 83.4562 12.2733 83.3227 12.3159C83.192 12.3585 83.04 12.3968 82.8667 12.4309C82.6963 12.4622 82.5258 12.4892 82.3554 12.5119C82.1849 12.5346 82.0315 12.5545 81.8951 12.5716C81.5258 12.617 81.2105 12.688 80.9491 12.7846C80.6877 12.8812 80.4875 13.0147 80.3483 13.1852C80.2091 13.3528 80.1394 13.5687 80.1394 13.8329C80.1394 14.2306 80.2815 14.5389 80.5656 14.7576C80.8497 14.9735 81.2062 15.0815 81.6352 15.0815ZM86.393 15.627V9.0815H87.1558V15.627H86.393ZM86.7808 7.9565C86.6245 7.9565 86.491 7.90394 86.3802 7.79883C86.2694 7.69087 86.214 7.56161 86.214 7.41104C86.214 7.26048 86.2694 7.13263 86.3802 7.02752C86.491 6.91957 86.6245 6.86559 86.7808 6.86559C86.937 6.86559 87.0706 6.91957 87.1814 7.02752C87.2921 7.13263 87.3475 7.26048 87.3475 7.41104C87.3475 7.56161 87.2921 7.69087 87.1814 7.79883C87.0706 7.90394 86.937 7.9565 86.7808 7.9565ZM89.9203 6.89968V15.627H89.1618V6.89968H89.9203ZM93.7556 15.7761C93.3607 15.7761 92.9999 15.6994 92.6732 15.546C92.3465 15.3897 92.0865 15.1653 91.8934 14.8727C91.7002 14.5772 91.6036 14.2193 91.6036 13.7988C91.6036 13.475 91.6647 13.2022 91.7868 12.9806C91.909 12.7591 92.0823 12.5772 92.3067 12.4352C92.5311 12.2931 92.7968 12.1809 93.1036 12.0985C93.4104 12.0162 93.7485 11.9522 94.1178 11.9068C94.4843 11.8613 94.7939 11.8216 95.0468 11.7875C95.3024 11.7534 95.497 11.6994 95.6306 11.6255C95.7641 11.5517 95.8309 11.4324 95.8309 11.2676V11.1142C95.8309 10.6681 95.6973 10.3173 95.4303 10.0616C95.1661 9.80309 94.7854 9.67383 94.2882 9.67383C93.8167 9.67383 93.4317 9.77752 93.1334 9.98491C92.838 10.1923 92.6306 10.4366 92.5113 10.7179L91.7911 10.4579C91.9388 10.1 92.1434 9.81445 92.4047 9.60138C92.6661 9.38548 92.9587 9.23065 93.2826 9.1369C93.6064 9.04031 93.9345 8.99201 94.2669 8.99201C94.5169 8.99201 94.7769 9.02468 95.0468 9.09002C95.3195 9.15536 95.5723 9.269 95.8053 9.43093C96.0382 9.59002 96.2272 9.81303 96.372 10.1C96.5169 10.3841 96.5894 10.7449 96.5894 11.1824V15.627H95.8309V14.5914H95.784C95.6931 14.7846 95.5581 14.9721 95.3792 15.1539C95.2002 15.3358 94.9757 15.4849 94.7059 15.6014C94.436 15.7179 94.1192 15.7761 93.7556 15.7761ZM93.8578 15.0815C94.2613 15.0815 94.6107 14.992 94.9061 14.813C95.2016 14.6341 95.4289 14.3968 95.588 14.1014C95.7499 13.8031 95.8309 13.475 95.8309 13.117V12.171C95.774 12.225 95.6789 12.2733 95.5453 12.3159C95.4147 12.3585 95.2627 12.3968 95.0894 12.4309C94.9189 12.4622 94.7485 12.4892 94.578 12.5119C94.4076 12.5346 94.2542 12.5545 94.1178 12.5716C93.7485 12.617 93.4331 12.688 93.1718 12.7846C92.9104 12.8812 92.7101 13.0147 92.5709 13.1852C92.4317 13.3528 92.3621 13.5687 92.3621 13.8329C92.3621 14.2306 92.5042 14.5389 92.7882 14.7576C93.0723 14.9735 93.4289 15.0815 93.8578 15.0815ZM98.7648 15.627V6.89968H99.5276V10.3301H99.5958C99.681 10.1341 99.8032 9.93235 99.9622 9.72496C100.124 9.51758 100.336 9.34428 100.597 9.20508C100.861 9.06303 101.194 8.99201 101.594 8.99201C102.131 8.99201 102.603 9.13406 103.009 9.41815C103.415 9.6994 103.732 10.0943 103.959 10.6028C104.187 11.1085 104.3 11.698 104.3 12.3713C104.3 13.0474 104.187 13.6397 103.959 14.1483C103.735 14.6568 103.42 15.0531 103.013 15.3372C102.61 15.6213 102.141 15.7633 101.607 15.7633C101.209 15.7633 100.877 15.6923 100.61 15.5502C100.346 15.4082 100.133 15.2335 99.9708 15.0261C99.8088 14.8159 99.6838 14.6113 99.5958 14.4125H99.502V15.627H98.7648ZM99.5148 12.3585C99.5148 12.8869 99.5929 13.3556 99.7492 13.7647C99.9083 14.171 100.136 14.4906 100.431 14.7235C100.729 14.9537 101.09 15.0687 101.513 15.0687C101.948 15.0687 102.316 14.9494 102.617 14.7108C102.918 14.4693 103.147 14.144 103.303 13.7349C103.459 13.3258 103.538 12.867 103.538 12.3585C103.538 11.8556 103.459 11.4025 103.303 10.9991C103.15 10.5957 102.922 10.2761 102.621 10.0403C102.32 9.80167 101.951 9.68235 101.513 9.68235C101.087 9.68235 100.725 9.79741 100.427 10.0275C100.131 10.2548 99.9054 10.5701 99.7492 10.9735C99.5929 11.3741 99.5148 11.8358 99.5148 12.3585ZM106.725 6.89968V15.627H105.967V6.89968H106.725ZM111.378 15.7633C110.768 15.7633 110.239 15.6213 109.793 15.3372C109.347 15.0502 109.002 14.6539 108.758 14.1483C108.516 13.6397 108.395 13.0545 108.395 12.3926C108.395 11.7335 108.516 11.1483 108.758 10.6369C109.002 10.1227 109.339 9.7207 109.768 9.43093C110.199 9.13832 110.698 8.99201 111.263 8.99201C111.618 8.99201 111.961 9.05735 112.29 9.18803C112.62 9.31587 112.915 9.51332 113.177 9.78036C113.441 10.0446 113.65 10.3784 113.803 10.7818C113.957 11.1824 114.033 11.6568 114.033 12.2051V12.5801H108.92V11.911H113.258C113.258 11.4906 113.172 11.1127 113.002 10.7775C112.834 10.4395 112.6 10.1724 112.299 9.97638C112.001 9.78036 111.655 9.68235 111.263 9.68235C110.849 9.68235 110.484 9.79315 110.168 10.0147C109.853 10.2363 109.606 10.5289 109.427 10.8926C109.251 11.2562 109.161 11.6539 109.158 12.0858V12.4863C109.158 13.0062 109.248 13.4608 109.427 13.85C109.609 14.2363 109.866 14.536 110.198 14.7491C110.53 14.9622 110.924 15.0687 111.378 15.0687C111.688 15.0687 111.959 15.0204 112.192 14.9238C112.428 14.8272 112.626 14.698 112.785 14.536C112.947 14.3713 113.069 14.1909 113.151 13.9949L113.871 14.2292C113.772 14.5048 113.609 14.7591 113.381 14.992C113.157 15.225 112.876 15.4125 112.538 15.5545C112.202 15.6937 111.816 15.7633 111.378 15.7633Z" fill="#00A010"/>
</svg>
