<svg width="178" height="80" viewBox="0 0 178 80" fill="none" xmlns="http://www.w3.org/2000/svg">
<rect x="0.965551" y="10.9656" width="175.73" height="68.0689" rx="11.0344" stroke="white" stroke-opacity="0.1" stroke-width="1.9311"/>
<path d="M28.8654 50.9349C23.5969 50.9349 19.311 46.649 19.311 41.3806C19.311 36.1121 23.5969 31.8262 28.8654 31.8262C34.1338 31.8262 38.4197 36.1121 38.4197 41.3806C38.4197 46.649 34.1338 50.9349 28.8654 50.9349ZM28.8654 35.2967C25.5098 35.2967 22.7815 38.025 22.7815 41.3806C22.7815 44.7361 25.5098 47.4644 28.8654 47.4644C32.2209 47.4644 34.9492 44.7361 34.9492 41.3806C34.9492 38.025 32.2156 35.2967 28.8654 35.2967Z" fill="#D75100"/>
<path d="M34.9492 53.2764C34.9492 56.6319 32.2209 59.3602 28.8654 59.3602C25.5098 59.3602 22.7815 56.6319 22.7815 53.2764L19.311 53.2764C19.311 58.5449 23.5969 62.8307 28.8654 62.8307C34.1338 62.8307 38.4197 58.5449 38.4197 53.2764L34.9492 53.2764Z" fill="#D75100"/>
<path d="M43.0193 34.7322L43.0193 27.1693L35.4563 27.1693L35.4563 30.321L39.8676 30.321L39.8676 34.7322L43.0193 34.7322Z" fill="#D75100"/>
<path d="M70.9503 34.2357C69.7273 33.0649 67.9084 32.4168 66.3247 32.4168C62.4256 32.4168 60.0632 35.3803 60.0632 39.1226C60.0632 42.1123 61.8036 45.2012 66.3247 45.2012C67.7516 45.2012 69.0007 44.8876 70.4329 43.7482L70.4329 40.5234L65.7811 40.5234L65.7811 37.4553L73.5793 37.4553L73.5793 45.1228C71.7866 47.1769 69.5234 48.3947 66.3299 48.3947C59.4935 48.3947 56.7129 43.8998 56.7129 39.1174C56.7129 34.0005 59.9116 29.2704 66.3299 29.2704C68.7708 29.2704 71.2168 30.206 73.088 32.051L70.9555 34.2357L70.9503 34.2357Z" fill="white"/>
<path d="M94.8571 47.9818L90.7751 47.9818L85.4752 41.9032L82.1772 41.9032L82.1772 47.9818L78.7485 47.9818L78.7485 29.7669C81.6336 29.7669 84.5188 29.7931 87.4039 29.7931C91.6897 29.8192 93.9529 32.6782 93.9529 35.8246C93.9529 38.3177 92.8082 40.8422 89.3534 41.5426L94.8623 47.7518L94.8623 47.987L94.8571 47.9818ZM82.1772 32.9865L82.1772 38.809L87.3986 38.809C89.5834 38.809 90.519 37.356 90.519 35.8978C90.519 34.4395 89.5573 32.9865 87.3986 32.9865L82.1772 32.9865Z" fill="white"/>
<path d="M112.821 44.5531L103.309 44.5531L101.751 47.9818L98.0349 47.9818L106.194 29.793L109.936 29.793L118.095 47.9818L114.353 47.9818L112.821 44.5531ZM108.065 33.6137L104.688 41.3596L111.446 41.3596L108.07 33.6137L108.065 33.6137Z" fill="white"/>
<path d="M133.169 29.7669L136.597 29.7669L136.597 47.9818L134.465 47.9818L134.465 48.0079L124.9 35.7149L124.9 47.9818L121.471 47.9818L121.471 29.7931L124.252 29.7931L133.163 41.0722L133.163 29.7669L133.169 29.7669Z" fill="white"/>
<path d="M158.351 38.7306C158.429 43.3301 155.622 47.9818 149.256 47.9818L142.111 47.9818L142.111 29.793L149.256 29.793C155.492 29.793 158.272 34.2357 158.351 38.7306ZM145.514 44.6838L149.256 44.6838C153.385 44.6838 155.026 41.668 154.948 38.7045C154.87 35.8716 153.208 33.0388 149.256 33.0388L145.514 33.0388L145.514 44.6785L145.514 44.6838Z" fill="white"/>
<path d="M123.724 62.0001L123.724 54.7274L128.085 54.7274L128.085 55.5086L124.605 55.5086L124.605 57.966L127.759 57.966L127.759 58.7473L124.605 58.7473L124.605 62.0001L123.724 62.0001ZM135.73 58.3638C135.73 59.1308 135.591 59.7937 135.314 60.3524C135.037 60.9111 134.657 61.342 134.175 61.645C133.692 61.948 133.14 62.0996 132.52 62.0996C131.899 62.0996 131.348 61.948 130.865 61.645C130.382 61.342 130.002 60.9111 129.725 60.3524C129.448 59.7937 129.309 59.1308 129.309 58.3638C129.309 57.5967 129.448 56.9338 129.725 56.3751C130.002 55.8164 130.382 55.3855 130.865 55.0825C131.348 54.7795 131.899 54.628 132.52 54.628C133.14 54.628 133.692 54.7795 134.175 55.0825C134.657 55.3855 135.037 55.8164 135.314 56.3751C135.591 56.9338 135.73 57.5967 135.73 58.3638ZM134.878 58.3638C134.878 57.734 134.772 57.2025 134.562 56.7693C134.353 56.3361 134.07 56.0082 133.713 55.7856C133.358 55.5631 132.96 55.4518 132.52 55.4518C132.079 55.4518 131.68 55.5631 131.323 55.7856C130.968 56.0082 130.685 56.3361 130.474 56.7693C130.266 57.2025 130.162 57.734 130.162 58.3638C130.162 58.9935 130.266 59.525 130.474 59.9582C130.685 60.3915 130.968 60.7193 131.323 60.9419C131.68 61.1644 132.079 61.2757 132.52 61.2757C132.96 61.2757 133.358 61.1644 133.713 60.9419C134.07 60.7193 134.353 60.3915 134.562 59.9582C134.772 59.525 134.878 58.9935 134.878 58.3638ZM137.211 62.0001L137.211 54.7274L139.668 54.7274C140.236 54.7274 140.703 54.8245 141.067 55.0186C141.432 55.2103 141.702 55.4743 141.877 55.8105C142.052 56.1467 142.14 56.529 142.14 56.9575C142.14 57.386 142.052 57.766 141.877 58.0974C141.702 58.4289 141.433 58.6893 141.071 58.8787C140.709 59.0657 140.246 59.1592 139.682 59.1592L137.694 59.1592L137.694 58.3638L139.654 58.3638C140.042 58.3638 140.355 58.3069 140.591 58.1933C140.831 58.0797 141.003 57.9187 141.11 57.7103C141.219 57.4996 141.273 57.2487 141.273 56.9575C141.273 56.6663 141.219 56.4118 141.11 56.194C141.001 55.9762 140.827 55.8081 140.588 55.6898C140.349 55.569 140.033 55.5086 139.64 55.5086L138.091 55.5086L138.091 62.0001L137.211 62.0001ZM140.634 58.7331L142.424 62.0001L141.401 62.0001L139.64 58.7331L140.634 58.7331ZM143.607 54.7274L144.658 54.7274L147.13 60.7643L147.215 60.7643L149.687 54.7274L150.738 54.7274L150.738 62.0001L149.914 62.0001L149.914 56.4746L149.843 56.4746L147.57 62.0001L146.775 62.0001L144.502 56.4746L144.431 56.4746L144.431 62.0001L143.607 62.0001L143.607 54.7274ZM156.481 56.5456C156.438 56.1857 156.266 55.9064 155.963 55.7075C155.66 55.5086 155.288 55.4092 154.847 55.4092C154.526 55.4092 154.244 55.4613 154.002 55.5655C153.763 55.6696 153.576 55.8129 153.441 55.9952C153.309 56.1774 153.242 56.3846 153.242 56.6166C153.242 56.8107 153.289 56.9776 153.381 57.1173C153.476 57.2546 153.596 57.3694 153.743 57.4618C153.89 57.5517 154.044 57.6263 154.205 57.6855C154.366 57.7423 154.514 57.7885 154.649 57.824L155.387 58.0228C155.577 58.0726 155.787 58.1412 156.019 58.2288C156.254 58.3164 156.477 58.436 156.691 58.5875C156.906 58.7366 157.084 58.9284 157.223 59.1628C157.363 59.3971 157.433 59.6848 157.433 60.0257C157.433 60.4187 157.33 60.7738 157.124 61.091C156.92 61.4083 156.622 61.6604 156.229 61.8474C155.838 62.0344 155.364 62.128 154.805 62.128C154.284 62.128 153.833 62.0439 153.452 61.8758C153.073 61.7077 152.775 61.4734 152.557 61.1727C152.342 60.872 152.22 60.5228 152.191 60.1251L153.1 60.1251C153.124 60.3997 153.216 60.627 153.377 60.8069C153.541 60.9845 153.747 61.1171 153.995 61.2047C154.246 61.2899 154.516 61.3325 154.805 61.3325C155.141 61.3325 155.443 61.2781 155.71 61.1692C155.978 61.0579 156.19 60.904 156.346 60.7075C156.502 60.5086 156.58 60.2766 156.58 60.0115C156.58 59.77 156.513 59.5735 156.378 59.422C156.243 59.2705 156.066 59.1474 155.845 59.0527C155.625 58.958 155.387 58.8751 155.132 58.8041L154.237 58.5484C153.669 58.3851 153.219 58.1519 152.887 57.8488C152.556 57.5458 152.39 57.1493 152.39 56.6592C152.39 56.252 152.5 55.8969 152.72 55.5939C152.943 55.2885 153.241 55.0517 153.615 54.8836C153.992 54.7132 154.412 54.628 154.876 54.628C155.345 54.628 155.761 54.712 156.126 54.8801C156.49 55.0458 156.779 55.2731 156.992 55.5619C157.208 55.8507 157.321 56.1786 157.333 56.5456L156.481 56.5456Z" fill="#D75100"/>
<rect width="49" height="21" transform="translate(64.5 0.626953)" fill="#121212"/>
<path d="M80.5598 9.0815C80.5115 8.5957 80.2971 8.20934 79.9164 7.92241C79.5357 7.63548 79.057 7.49201 78.4803 7.49201C78.074 7.49201 77.7161 7.56161 77.4064 7.70082C77.0996 7.84002 76.8581 8.0332 76.682 8.28036C76.5087 8.52468 76.4221 8.80309 76.4221 9.11559C76.4221 9.3457 76.4718 9.54741 76.5712 9.7207C76.6706 9.894 76.8042 10.0431 76.9718 10.1681C77.1422 10.2903 77.3297 10.3954 77.5343 10.4835C77.7417 10.5716 77.9505 10.6454 78.1607 10.7051L79.0811 10.9693C79.3596 11.046 79.638 11.144 79.9164 11.2633C80.1948 11.3826 80.449 11.5332 80.6792 11.715C80.9121 11.894 81.0982 12.1142 81.2374 12.3755C81.3794 12.6341 81.4505 12.9451 81.4505 13.3088C81.4505 13.7747 81.3297 14.1937 81.0882 14.5659C80.8468 14.938 80.5002 15.2335 80.0485 15.4522C79.5968 15.6681 79.0556 15.7761 78.4249 15.7761C77.8311 15.7761 77.3155 15.6781 76.878 15.4821C76.4405 15.2832 76.0968 15.0091 75.8468 14.6596C75.5968 14.3102 75.4561 13.9054 75.4249 13.4451H76.2431C76.2715 13.7889 76.3851 14.0801 76.584 14.3187C76.7828 14.5574 77.0414 14.7392 77.3596 14.8642C77.6777 14.9863 78.0328 15.0474 78.4249 15.0474C78.8596 15.0474 79.2459 14.975 79.584 14.8301C79.9249 14.6824 80.1919 14.4778 80.3851 14.2164C80.5811 13.9522 80.6792 13.6454 80.6792 13.296C80.6792 13.0005 80.6025 12.7534 80.449 12.5545C80.2956 12.3528 80.0811 12.1838 79.8056 12.0474C79.5328 11.911 79.2161 11.7903 78.8553 11.6852L77.8113 11.3784C77.1266 11.1738 76.5953 10.8912 76.2175 10.5304C75.8397 10.1696 75.6507 9.70934 75.6507 9.14968C75.6507 8.68093 75.7757 8.269 76.0257 7.91388C76.2786 7.55593 76.6195 7.27752 77.0485 7.07866C77.4803 6.87695 77.9647 6.7761 78.5016 6.7761C79.0442 6.7761 79.5243 6.87553 79.9419 7.0744C80.3596 7.27326 80.6905 7.54741 80.9348 7.89684C81.182 8.24343 81.3141 8.63832 81.3311 9.0815H80.5598ZM85.7544 15.7633C85.1891 15.7633 84.6891 15.6199 84.2544 15.3329C83.8226 15.046 83.4846 14.6497 83.2402 14.144C82.9959 13.6355 82.8738 13.0488 82.8738 12.3841C82.8738 11.7136 82.9959 11.1241 83.2402 10.6156C83.4846 10.1042 83.8226 9.7065 84.2544 9.42241C84.6891 9.13548 85.1891 8.99201 85.7544 8.99201C86.3198 8.99201 86.8184 9.13548 87.2502 9.42241C87.682 9.70934 88.0201 10.1071 88.2644 10.6156C88.5115 11.1241 88.6351 11.7136 88.6351 12.3841C88.6351 13.0488 88.513 13.6355 88.2686 14.144C88.0243 14.6497 87.6848 15.046 87.2502 15.3329C86.8184 15.6199 86.3198 15.7633 85.7544 15.7633ZM85.7544 15.0687C86.209 15.0687 86.5939 14.9466 86.9093 14.7022C87.2246 14.4579 87.4632 14.1326 87.6252 13.7264C87.79 13.3201 87.8723 12.8727 87.8723 12.3841C87.8723 11.8954 87.79 11.4466 87.6252 11.0375C87.4632 10.6284 87.2246 10.3002 86.9093 10.0531C86.5939 9.80593 86.209 9.68235 85.7544 9.68235C85.3027 9.68235 84.9178 9.80593 84.5996 10.0531C84.2843 10.3002 84.0442 10.6284 83.8794 11.0375C83.7175 11.4466 83.6365 11.8954 83.6365 12.3841C83.6365 12.8727 83.7175 13.3201 83.8794 13.7264C84.0442 14.1326 84.2843 14.4579 84.5996 14.7022C84.915 14.9466 85.2999 15.0687 85.7544 15.0687ZM92.8443 15.7633C92.2789 15.7633 91.7789 15.6199 91.3443 15.3329C90.9125 15.046 90.5744 14.6497 90.3301 14.144C90.0858 13.6355 89.9636 13.0488 89.9636 12.3841C89.9636 11.7136 90.0858 11.1241 90.3301 10.6156C90.5744 10.1042 90.9125 9.7065 91.3443 9.42241C91.7789 9.13548 92.2789 8.99201 92.8443 8.99201C93.4096 8.99201 93.9082 9.13548 94.34 9.42241C94.7718 9.70934 95.1099 10.1071 95.3542 10.6156C95.6014 11.1241 95.725 11.7136 95.725 12.3841C95.725 13.0488 95.6028 13.6355 95.3585 14.144C95.1142 14.6497 94.7747 15.046 94.34 15.3329C93.9082 15.6199 93.4096 15.7633 92.8443 15.7633ZM92.8443 15.0687C93.2988 15.0687 93.6838 14.9466 93.9991 14.7022C94.3145 14.4579 94.5531 14.1326 94.715 13.7264C94.8798 13.3201 94.9622 12.8727 94.9622 12.3841C94.9622 11.8954 94.8798 11.4466 94.715 11.0375C94.5531 10.6284 94.3145 10.3002 93.9991 10.0531C93.6838 9.80593 93.2988 9.68235 92.8443 9.68235C92.3926 9.68235 92.0076 9.80593 91.6895 10.0531C91.3741 10.3002 91.1341 10.6284 90.9693 11.0375C90.8074 11.4466 90.7264 11.8954 90.7264 12.3841C90.7264 12.8727 90.8074 13.3201 90.9693 13.7264C91.1341 14.1326 91.3741 14.4579 91.6895 14.7022C92.0048 14.9466 92.3897 15.0687 92.8443 15.0687ZM98.1486 11.536V15.627H97.3901V9.0815H98.1273V10.1085H98.1955C98.3489 9.77326 98.5875 9.50479 98.9114 9.30309C99.2381 9.09854 99.6415 8.99627 100.122 8.99627C100.562 8.99627 100.948 9.0886 101.281 9.27326C101.616 9.45508 101.876 9.72354 102.061 10.0787C102.248 10.4338 102.342 10.8699 102.342 11.3869V15.627H101.583V11.4338C101.583 10.8968 101.433 10.4721 101.132 10.1596C100.833 9.84712 100.433 9.69087 99.9299 9.69087C99.5861 9.69087 99.2807 9.76474 99.0137 9.91246C98.7466 10.0602 98.535 10.2733 98.3787 10.5517C98.2253 10.8272 98.1486 11.1554 98.1486 11.536Z" fill="white"/>
</svg>
