<svg width="179" height="80" viewBox="0 0 179 80" fill="none" xmlns="http://www.w3.org/2000/svg">
<rect x="1.62693" y="10.9656" width="175.73" height="68.0689" rx="11.0344" stroke="white" stroke-opacity="0.1" stroke-width="1.9311"/>
<path d="M33.7792 50.5135C28.8805 50.5135 24.9033 46.5363 24.9033 41.6376C24.9033 36.7389 28.8805 32.7617 33.7792 32.7617C38.6779 32.7617 42.6551 36.7389 42.6551 41.6376C42.6551 46.5363 38.6779 50.5135 33.7792 50.5135ZM33.7792 35.979C30.6589 35.979 28.1206 38.5173 28.1206 41.6376C28.1206 44.7579 30.6589 47.2962 33.7792 47.2962C36.8995 47.2962 39.4378 44.7579 39.4378 41.6376C39.4378 38.5173 36.8995 35.979 33.7792 35.979Z" fill="#4230CC"/>
<path d="M39.4377 52.6963C39.4377 55.8166 36.8995 58.3549 33.7792 58.3549C30.6589 58.3549 28.1206 55.8166 28.1206 52.6963L24.9194 52.6963C24.9194 57.595 28.8966 61.5722 33.7953 61.5722C38.694 61.5722 42.6712 57.595 42.6712 52.6963L39.4377 52.6963Z" fill="#4230CC"/>
<path d="M46.9395 35.4615L46.9395 28.4287L39.9067 28.4287L39.9067 31.355L44.0132 31.355L44.0132 35.4615L46.9395 35.4615Z" fill="#4230CC"/>
<path d="M72.888 34.993C71.7563 33.9098 70.0587 33.2954 68.5875 33.2954C64.966 33.2954 62.7672 36.0439 62.7672 39.5199C62.7672 42.3007 64.384 45.1623 68.5875 45.1623C69.9132 45.1623 71.0772 44.8713 72.403 43.8042L72.403 40.8133L68.0863 40.8133L68.0863 37.984L75.3293 37.984L75.3293 45.0976C73.664 47.0054 71.5623 48.1371 68.5875 48.1371C62.2337 48.1371 59.6631 43.9659 59.6631 39.5199C59.6631 34.7667 62.6379 30.3691 68.5875 30.3691C70.8509 30.3691 73.1305 31.2422 74.8604 32.9559L72.888 34.993Z" fill="white"/>
<path d="M95.0857 47.7656L91.3026 47.7656L86.3715 42.1231L83.2997 42.1231L83.2997 47.7656L80.1147 47.7656L80.1147 30.8545C82.7985 30.8545 85.4661 30.8868 88.1499 30.8868C92.1271 30.9192 94.2289 33.5706 94.2289 36.4807C94.2289 38.7927 93.1618 41.1369 89.9607 41.7836L95.0857 47.5554L95.0857 47.7656ZM83.3159 33.8455L83.3159 39.2454L88.1661 39.2454C90.187 39.2454 91.0601 37.8873 91.0601 36.5454C91.0601 35.2035 90.1708 33.8455 88.1661 33.8455L83.3159 33.8455Z" fill="white"/>
<path d="M111.771 44.58L102.927 44.58L101.472 47.765L98.0122 47.765L105.595 30.8701L109.071 30.8701L116.653 47.765L113.177 47.765L111.771 44.58ZM107.357 34.4269L104.22 41.6214L110.493 41.6214L107.357 34.4269Z" fill="white"/>
<path d="M130.686 30.8545L133.871 30.8545L133.871 47.7817L131.899 47.7817L131.899 47.7979L123.007 36.3837L123.007 47.7817L119.822 47.7817L119.822 30.8707L122.409 30.8707L130.686 41.3471L130.686 30.8545Z" fill="white"/>
<path d="M154.081 39.1801C154.161 43.4483 151.542 47.7812 145.625 47.7812L138.98 47.7812L138.98 30.8701L145.625 30.8701C151.413 30.8701 154 34.9928 154.081 39.1801ZM142.149 44.7094L145.625 44.7094C149.457 44.7094 150.993 41.9124 150.912 39.164C150.831 36.5287 149.295 33.9096 145.625 33.9096L142.149 33.9096L142.149 44.7094Z" fill="white"/>
<path d="M126.117 61.001L126.117 53.7282L130.478 53.7282L130.478 54.5095L126.998 54.5095L126.998 56.9669L130.151 56.9669L130.151 57.7481L126.998 57.7481L126.998 61.001L126.117 61.001ZM138.123 57.3646C138.123 58.1317 137.984 58.7945 137.707 59.3532C137.43 59.912 137.05 60.3428 136.567 60.6459C136.084 60.9489 135.533 61.1004 134.912 61.1004C134.292 61.1004 133.74 60.9489 133.257 60.6459C132.775 60.3428 132.395 59.912 132.118 59.3532C131.841 58.7945 131.702 58.1317 131.702 57.3646C131.702 56.5976 131.841 55.9347 132.118 55.376C132.395 54.8173 132.775 54.3864 133.257 54.0834C133.74 53.7803 134.292 53.6288 134.912 53.6288C135.533 53.6288 136.084 53.7803 136.567 54.0834C137.05 54.3864 137.43 54.8173 137.707 55.376C137.984 55.9347 138.123 56.5976 138.123 57.3646ZM137.27 57.3646C137.27 56.7349 137.165 56.2034 136.954 55.7702C136.746 55.3369 136.463 55.009 136.105 54.7865C135.75 54.5639 135.353 54.4527 134.912 54.4527C134.472 54.4527 134.073 54.5639 133.716 54.7865C133.36 55.009 133.078 55.3369 132.867 55.7702C132.658 56.2034 132.554 56.7349 132.554 57.3646C132.554 57.9943 132.658 58.5258 132.867 58.9591C133.078 59.3923 133.36 59.7202 133.716 59.9427C134.073 60.1653 134.472 60.2765 134.912 60.2765C135.353 60.2765 135.75 60.1653 136.105 59.9427C136.463 59.7202 136.746 59.3923 136.954 58.9591C137.165 58.5258 137.27 57.9943 137.27 57.3646ZM139.603 61.001L139.603 53.7282L142.061 53.7282C142.629 53.7282 143.095 53.8253 143.46 54.0194C143.824 54.2112 144.094 54.4752 144.27 54.8113C144.445 55.1475 144.532 55.5299 144.532 55.9584C144.532 56.3869 144.445 56.7668 144.27 57.0983C144.094 57.4297 143.826 57.6901 143.463 57.8795C143.101 58.0666 142.638 58.1601 142.075 58.1601L140.086 58.1601L140.086 57.3646L142.047 57.3646C142.435 57.3646 142.747 57.3078 142.984 57.1942C143.223 57.0805 143.396 56.9195 143.502 56.7112C143.611 56.5005 143.666 56.2496 143.666 55.9584C143.666 55.6672 143.611 55.4127 143.502 55.1949C143.394 54.9771 143.22 54.809 142.98 54.6906C142.741 54.5699 142.425 54.5095 142.032 54.5095L140.484 54.5095L140.484 61.001L139.603 61.001ZM143.027 57.7339L144.816 61.001L143.794 61.001L142.032 57.7339L143.027 57.7339ZM146 53.7282L147.051 53.7282L149.523 59.7652L149.608 59.7652L152.079 53.7282L153.131 53.7282L153.131 61.001L152.307 61.001L152.307 55.4754L152.236 55.4754L149.963 61.001L149.167 61.001L146.895 55.4754L146.824 55.4754L146.824 61.001L146 61.001L146 53.7282Z" fill="#4230CC"/>
<rect width="49" height="21" transform="translate(65.5002 0.626953)" fill="#121212"/>
<path d="M81.5601 9.0815C81.5118 8.5957 81.2973 8.20934 80.9166 7.92241C80.5359 7.63548 80.0572 7.49201 79.4805 7.49201C79.0743 7.49201 78.7163 7.56161 78.4067 7.70082C78.0999 7.84002 77.8584 8.0332 77.6822 8.28036C77.5089 8.52468 77.4223 8.80309 77.4223 9.11559C77.4223 9.3457 77.472 9.54741 77.5714 9.7207C77.6709 9.894 77.8044 10.0431 77.972 10.1681C78.1425 10.2903 78.33 10.3954 78.5345 10.4835C78.7419 10.5716 78.9507 10.6454 79.1609 10.7051L80.0814 10.9693C80.3598 11.046 80.6382 11.144 80.9166 11.2633C81.195 11.3826 81.4493 11.5332 81.6794 11.715C81.9124 11.894 82.0984 12.1142 82.2376 12.3755C82.3797 12.6341 82.4507 12.9451 82.4507 13.3088C82.4507 13.7747 82.33 14.1937 82.0885 14.5659C81.847 14.938 81.5004 15.2335 81.0487 15.4522C80.597 15.6681 80.0558 15.7761 79.4251 15.7761C78.8314 15.7761 78.3158 15.6781 77.8783 15.4821C77.4408 15.2832 77.097 15.0091 76.847 14.6596C76.597 14.3102 76.4564 13.9054 76.4251 13.4451H77.2433C77.2717 13.7889 77.3854 14.0801 77.5842 14.3187C77.7831 14.5574 78.0416 14.7392 78.3598 14.8642C78.678 14.9863 79.0331 15.0474 79.4251 15.0474C79.8598 15.0474 80.2462 14.975 80.5842 14.8301C80.9251 14.6824 81.1922 14.4778 81.3854 14.2164C81.5814 13.9522 81.6794 13.6454 81.6794 13.296C81.6794 13.0005 81.6027 12.7534 81.4493 12.5545C81.2959 12.3528 81.0814 12.1838 80.8058 12.0474C80.5331 11.911 80.2163 11.7903 79.8555 11.6852L78.8115 11.3784C78.1268 11.1738 77.5956 10.8912 77.2178 10.5304C76.8399 10.1696 76.651 9.70934 76.651 9.14968C76.651 8.68093 76.776 8.269 77.026 7.91388C77.2788 7.55593 77.6197 7.27752 78.0487 7.07866C78.4805 6.87695 78.9649 6.7761 79.5018 6.7761C80.0445 6.7761 80.5246 6.87553 80.9422 7.0744C81.3598 7.27326 81.6908 7.54741 81.9351 7.89684C82.1822 8.24343 82.3143 8.63832 82.3314 9.0815H81.5601ZM86.7547 15.7633C86.1893 15.7633 85.6893 15.6199 85.2547 15.3329C84.8229 15.046 84.4848 14.6497 84.2405 14.144C83.9962 13.6355 83.874 13.0488 83.874 12.3841C83.874 11.7136 83.9962 11.1241 84.2405 10.6156C84.4848 10.1042 84.8229 9.7065 85.2547 9.42241C85.6893 9.13548 86.1893 8.99201 86.7547 8.99201C87.32 8.99201 87.8186 9.13548 88.2504 9.42241C88.6822 9.70934 89.0203 10.1071 89.2646 10.6156C89.5118 11.1241 89.6354 11.7136 89.6354 12.3841C89.6354 13.0488 89.5132 13.6355 89.2689 14.144C89.0246 14.6497 88.6851 15.046 88.2504 15.3329C87.8186 15.6199 87.32 15.7633 86.7547 15.7633ZM86.7547 15.0687C87.2092 15.0687 87.5942 14.9466 87.9095 14.7022C88.2249 14.4579 88.4635 14.1326 88.6254 13.7264C88.7902 13.3201 88.8726 12.8727 88.8726 12.3841C88.8726 11.8954 88.7902 11.4466 88.6254 11.0375C88.4635 10.6284 88.2249 10.3002 87.9095 10.0531C87.5942 9.80593 87.2092 9.68235 86.7547 9.68235C86.303 9.68235 85.918 9.80593 85.5999 10.0531C85.2845 10.3002 85.0445 10.6284 84.8797 11.0375C84.7178 11.4466 84.6368 11.8954 84.6368 12.3841C84.6368 12.8727 84.7178 13.3201 84.8797 13.7264C85.0445 14.1326 85.2845 14.4579 85.5999 14.7022C85.9152 14.9466 86.3001 15.0687 86.7547 15.0687ZM93.8445 15.7633C93.2792 15.7633 92.7792 15.6199 92.3445 15.3329C91.9127 15.046 91.5746 14.6497 91.3303 14.144C91.086 13.6355 90.9638 13.0488 90.9638 12.3841C90.9638 11.7136 91.086 11.1241 91.3303 10.6156C91.5746 10.1042 91.9127 9.7065 92.3445 9.42241C92.7792 9.13548 93.2792 8.99201 93.8445 8.99201C94.4099 8.99201 94.9084 9.13548 95.3403 9.42241C95.7721 9.70934 96.1102 10.1071 96.3545 10.6156C96.6016 11.1241 96.7252 11.7136 96.7252 12.3841C96.7252 13.0488 96.603 13.6355 96.3587 14.144C96.1144 14.6497 95.7749 15.046 95.3403 15.3329C94.9084 15.6199 94.4099 15.7633 93.8445 15.7633ZM93.8445 15.0687C94.2991 15.0687 94.684 14.9466 94.9994 14.7022C95.3147 14.4579 95.5533 14.1326 95.7153 13.7264C95.88 13.3201 95.9624 12.8727 95.9624 12.3841C95.9624 11.8954 95.88 11.4466 95.7153 11.0375C95.5533 10.6284 95.3147 10.3002 94.9994 10.0531C94.684 9.80593 94.2991 9.68235 93.8445 9.68235C93.3928 9.68235 93.0079 9.80593 92.6897 10.0531C92.3744 10.3002 92.1343 10.6284 91.9695 11.0375C91.8076 11.4466 91.7266 11.8954 91.7266 12.3841C91.7266 12.8727 91.8076 13.3201 91.9695 13.7264C92.1343 14.1326 92.3744 14.4579 92.6897 14.7022C93.005 14.9466 93.39 15.0687 93.8445 15.0687ZM99.1489 11.536V15.627H98.3903V9.0815H99.1276V10.1085H99.1957C99.3491 9.77326 99.5878 9.50479 99.9116 9.30309C100.238 9.09854 100.642 8.99627 101.122 8.99627C101.562 8.99627 101.949 9.0886 102.281 9.27326C102.616 9.45508 102.876 9.72354 103.061 10.0787C103.248 10.4338 103.342 10.8699 103.342 11.3869V15.627H102.584V11.4338C102.584 10.8968 102.433 10.4721 102.132 10.1596C101.834 9.84712 101.433 9.69087 100.93 9.69087C100.586 9.69087 100.281 9.76474 100.014 9.91246C99.7469 10.0602 99.5352 10.2733 99.379 10.5517C99.2256 10.8272 99.1489 11.1554 99.1489 11.536Z" fill="white"/>
</svg>
