<svg width="150" viewBox="0 0 437 114" fill="none" xmlns="http://www.w3.org/2000/svg">
<path d="M30.0035 76.0198C13.4442 76.0198 0 62.5756 0 46.0163C0 29.457 13.4442 16.0128 30.0035 16.0128C46.5628 16.0128 60.007 29.457 60.007 46.0163C60.007 62.5756 46.5628 76.0198 30.0035 76.0198ZM30.0035 26.943C19.4558 26.943 10.8756 35.5233 10.8756 46.0709C10.8756 56.6186 19.4558 65.1988 30.0035 65.1988C40.5512 65.1988 49.1314 56.6186 49.1314 46.0709C49.1314 35.5233 40.5512 26.943 30.0035 26.943Z" fill="#860D90"/>
<path d="M49.1314 83.3977C49.1314 93.9453 40.5512 102.526 30.0035 102.526C19.4559 102.526 10.8756 93.9453 10.8756 83.3977H0.0546875C0.0546875 99.957 13.4989 113.401 30.0582 113.401C46.6175 113.401 60.0617 99.957 60.0617 83.3977H49.1314Z" fill="#5B13B8"/>
<path d="M74.4896 25.1395V1.42093H50.7163V11.3128H64.5977V25.1395H74.4896Z" fill="#BF105C"/>
<path d="M162.205 15.6302C158.379 11.9686 152.641 9.89187 147.667 9.89187C135.426 9.89187 127.993 19.1826 127.993 30.9326C127.993 40.3326 133.458 50.0058 147.667 50.0058C152.149 50.0058 156.084 49.0221 160.565 45.4151V35.3593H145.973V25.7407H170.457V49.7872C164.828 56.2361 157.723 60.0616 147.667 60.0616C126.19 60.0616 117.5 45.9616 117.5 30.9326C117.5 14.8651 127.556 7.62939e-06 147.667 7.62939e-06C155.319 7.62939e-06 163.024 2.95117 168.872 8.74419L162.205 15.6302Z" fill="white"/>
<path d="M237.241 58.8047H224.452L207.784 39.7314H197.4V58.8047H186.634V1.58489C195.706 1.58489 204.723 1.63954 213.795 1.63954C227.24 1.69419 234.344 10.7116 234.344 20.5488C234.344 28.364 230.737 36.2884 219.916 38.4744L237.241 57.9849V58.8047ZM197.455 11.6954V29.9488H213.85C220.681 29.9488 223.633 25.3581 223.633 20.8221C223.633 16.2861 220.627 11.6954 213.85 11.6954H197.455Z" fill="white"/>
<path d="M293.641 48.0384H263.747L258.828 58.8047H247.133L272.764 1.6942H284.514L310.145 58.8047H298.395L293.641 48.0384ZM278.721 13.6628L268.119 37.9826H289.323L278.721 13.6628Z" fill="white"/>
<path d="M357.583 1.58489H368.349V58.8047H361.681V58.8593L331.623 20.2756V58.8047H320.857V1.69419H329.601L357.583 37.1082V1.58489Z" fill="white"/>
<path d="M436.663 29.7849C436.936 44.2128 428.083 58.8593 408.08 58.8593H385.619V1.6942H408.08C427.645 1.6942 436.39 15.6302 436.663 29.7849ZM396.33 48.4209H408.08C421.033 48.4209 426.224 38.9663 425.951 29.6756C425.678 20.7675 420.486 11.914 408.08 11.914H396.33V48.4209Z" fill="white"/>
<path d="M136.628 76.3477L151.056 108.483H146.738L143.569 101.433H125.206L122.091 108.483H117.719L132.147 76.3477H136.628ZM134.387 80.3919L126.736 97.7163H141.984L134.387 80.3919Z" fill="#535353"/>
<path d="M181.442 76.4023V95.6942C181.442 99.957 180.185 103.236 177.671 105.586C175.157 107.936 172.097 109.084 168.38 109.084C164.664 109.084 161.604 107.936 159.035 105.586C156.466 103.236 155.209 99.957 155.209 95.6942V76.4023H159.144V95.6942C159.144 98.7547 160.019 101.159 161.822 102.853C163.571 104.548 165.757 105.422 168.38 105.422C171.004 105.422 173.135 104.548 174.884 102.799C176.633 101.05 177.507 98.6454 177.507 95.6395V76.3477L181.442 76.4023Z" fill="#535353"/>
<path d="M186.852 79.9V76.293H212.757V79.9H201.772V108.428H197.837V79.9H186.852Z" fill="#535353"/>
<path d="M243.744 80.7744C246.586 84.0535 248.007 87.9884 248.007 92.5244C248.007 94.6558 247.679 96.7326 246.969 98.7C246.258 100.667 245.274 102.416 243.963 104.001C242.651 105.586 240.957 106.843 238.826 107.772C236.694 108.701 234.344 109.193 231.666 109.193C228.988 109.193 226.638 108.701 224.507 107.772C222.376 106.843 220.681 105.586 219.37 104.001C218.058 102.416 217.074 100.667 216.364 98.7C215.653 96.7326 215.326 94.7105 215.326 92.5244C215.326 87.7698 216.801 83.7802 219.807 80.6105C222.813 77.4407 226.748 75.8558 231.721 75.8558C236.858 75.8012 240.848 77.4954 243.744 80.7744ZM242.76 86.2395C241.886 84.3267 240.52 82.7419 238.607 81.4302C236.694 80.1186 234.399 79.4628 231.721 79.4628C227.786 79.4628 224.78 80.7198 222.594 83.2337C220.408 85.7477 219.315 88.8081 219.315 92.5244C219.315 96.2407 220.408 99.0826 222.54 101.597C224.671 104.11 227.731 105.367 231.721 105.367C235.71 105.367 238.716 104.11 240.793 101.542C242.924 99.0279 243.963 95.9674 243.963 92.4698C244.017 90.2291 243.58 88.1523 242.76 86.2395Z" fill="#535353"/>
<path d="M271.671 98.3721H270.851L259.211 82.0314V108.483H255.276V76.3477H260.03L271.343 92.8523L282.547 76.3477H287.301V108.483H283.366V82.1407L271.671 98.3721Z" fill="#535353"/>
<path d="M311.949 76.3477L326.377 108.483H322.059L318.89 101.433H300.527L297.412 108.483H293.04L307.467 76.3477H311.949ZM309.708 80.3919L302.112 97.7163H317.359L309.708 80.3919Z" fill="#535353"/>
<path d="M325.721 79.9V76.293H351.626V79.9H340.641V108.428H336.706V79.9H325.721Z" fill="#535353"/>
<path d="M357.364 76.3477H361.354V108.483H357.364V76.3477Z" fill="#535353"/>
<path d="M397.041 80.7744C399.883 84.0535 401.304 87.9884 401.304 92.5244C401.304 94.6558 400.976 96.7326 400.265 98.7C399.555 100.667 398.571 102.416 397.259 104.001C395.948 105.586 394.254 106.843 392.122 107.772C389.991 108.701 387.641 109.193 384.963 109.193C382.285 109.193 379.935 108.701 377.749 107.772C375.563 106.843 373.923 105.586 372.612 104.001C371.3 102.416 370.316 100.667 369.606 98.7C368.895 96.7326 368.568 94.7105 368.568 92.5244C368.568 87.7698 370.043 83.7802 373.049 80.6105C376.055 77.4407 379.99 75.8558 384.963 75.8558C390.155 75.8012 394.144 77.4954 397.041 80.7744ZM396.057 86.2395C395.183 84.3267 393.816 82.7419 391.904 81.4302C389.991 80.1186 387.695 79.4628 385.017 79.4628C381.083 79.4628 378.077 80.7198 375.891 83.2337C373.705 85.7477 372.612 88.8081 372.612 92.5244C372.612 96.2407 373.705 99.0826 375.836 101.597C377.967 104.11 381.028 105.367 385.017 105.367C389.007 105.367 392.013 104.11 394.09 101.542C396.166 98.9733 397.259 95.9674 397.259 92.4698C397.314 90.2291 396.877 88.1523 396.057 86.2395Z" fill="#535353"/>
<path d="M411.305 76.3477L430.979 100.941V76.3477H434.914V108.483H432.181L412.452 83.9442V108.483H408.517V76.3477H411.305Z" fill="#535353"/>
</svg>
