<svg width="149" height="40" viewBox="0 0 149 40" fill="none" xmlns="http://www.w3.org/2000/svg">
<path d="M10.2378 26.5229C4.58742 26.5229 0 21.9355 0 16.2851C0 10.6348 4.58742 6.04736 10.2378 6.04736C15.8881 6.04736 20.4756 10.6348 20.4756 16.2851C20.4756 21.9355 15.8881 26.5229 10.2378 26.5229ZM10.2378 9.77698C6.63871 9.77698 3.71096 12.7047 3.71096 16.3038C3.71096 19.9029 6.63871 22.8306 10.2378 22.8306C13.8369 22.8306 16.7646 19.9029 16.7646 16.3038C16.7646 12.7047 13.8369 9.77698 10.2378 9.77698Z" fill="#860D90"/>
<path d="M16.765 29.0404C16.765 32.6395 13.8373 35.5672 10.2382 35.5672C6.63911 35.5672 3.71136 32.6395 3.71136 29.0404H0.019043C0.019043 34.6908 4.60647 39.2782 10.2568 39.2782C15.9072 39.2782 20.4946 34.6908 20.4946 29.0404H16.765Z" fill="#5B13B8"/>
<path d="M25.4176 9.16162V1.06836H17.3057V4.44366H22.0423V9.16162H25.4176Z" fill="#BF105C"/>
<path d="M55.3474 5.91684C54.042 4.66742 52.084 3.9588 50.387 3.9588C46.2098 3.9588 43.6737 7.12897 43.6737 11.1383C43.6737 14.3458 45.5385 17.6465 50.387 17.6465C51.9161 17.6465 53.2588 17.3108 54.7879 16.08V12.6488H49.8089V9.36673H58.1632V17.5719C56.2425 19.7724 53.8182 21.0777 50.387 21.0777C43.0583 21.0777 40.0933 16.2665 40.0933 11.1383C40.0933 5.65577 43.5245 0.583496 50.387 0.583496C52.9977 0.583496 55.6271 1.59049 57.6224 3.56719L55.3474 5.91684Z" fill="white"/>
<path d="M80.9512 20.6488H76.5876L70.8999 14.1407H67.3568V20.6488H63.6831V1.12433C66.7787 1.12433 69.8556 1.14298 72.9512 1.14298C77.5386 1.16162 79.9629 4.23855 79.9629 7.59521C79.9629 10.2619 78.7321 12.9658 75.0398 13.7118L80.9512 20.3691V20.6488ZM67.3754 4.57422V10.8027H72.9698C75.3008 10.8027 76.3078 9.23624 76.3078 7.68845C76.3078 6.14066 75.2822 4.57422 72.9698 4.57422H67.3754Z" fill="white"/>
<path d="M100.196 16.9752H89.9952L88.3169 20.6488H84.3262L93.0721 1.16162H97.0814L105.827 20.6488H101.818L100.196 16.9752ZM95.1047 5.24555L91.487 13.5439H98.7225L95.1047 5.24555Z" fill="white"/>
<path d="M122.014 1.12433H125.688V20.6488H123.413V20.6675L113.157 7.50197V20.6488H109.483V1.16162H112.467L122.014 13.2456V1.12433Z" fill="white"/>
<path d="M148.998 10.7467C149.091 15.6698 146.07 20.6675 139.245 20.6675H131.581V1.16162H139.245C145.921 1.16162 148.905 5.91688 148.998 10.7467ZM135.236 17.1057H139.245C143.665 17.1057 145.436 13.8796 145.343 10.7094C145.25 7.66979 143.478 4.64881 139.245 4.64881H135.236V17.1057Z" fill="white"/>
</svg>
