<svg width="179" height="80" viewBox="0 0 179 80" fill="none" xmlns="http://www.w3.org/2000/svg">
<rect x="1.62693" y="10.9656" width="175.73" height="68.0689" rx="11.0344" stroke="white" stroke-opacity="0.1" stroke-width="1.9311"/>
<path d="M33.7795 50.3514C28.8807 50.3514 24.9036 46.3742 24.9036 41.4755C24.9036 36.5768 28.8807 32.5996 33.7795 32.5996C38.6782 32.5996 42.6553 36.5768 42.6553 41.4755C42.6553 46.3742 38.6782 50.3514 33.7795 50.3514ZM33.7795 35.8169C30.6591 35.8169 28.1209 38.3552 28.1209 41.4755C28.1209 44.5958 30.6591 47.1341 33.7795 47.1341C36.8998 47.1341 39.438 44.5958 39.438 41.4755C39.438 38.3552 36.8998 35.8169 33.7795 35.8169Z" fill="#BF9910"/>
<path d="M39.4377 52.5176C39.4377 55.6379 36.4144 58.1762 33.2941 58.1762C30.1738 58.1762 28.1206 55.6379 28.1206 52.5176L24.9194 52.5176C24.9194 57.4163 28.4116 61.3935 33.3103 61.3935C38.209 61.3935 42.6712 57.4163 42.6712 52.5176L39.4377 52.5176Z" fill="#BF9910"/>
<path d="M46.9395 35.2994L46.9395 28.2666L39.9067 28.2666L39.9067 31.1929L44.0132 31.1929L44.0132 35.2994L46.9395 35.2994Z" fill="#BF9910"/>
<path d="M72.8882 34.8309C71.7565 33.7477 70.059 33.1333 68.5877 33.1333C64.9662 33.1333 62.7675 35.8818 62.7675 39.3578C62.7675 42.1385 64.3842 45.0002 68.5877 45.0002C69.9134 45.0002 71.0775 44.7092 72.4032 43.6421L72.4032 40.6512L68.0865 40.6512L68.0865 37.8219L75.3295 37.8219L75.3295 44.9355C73.6643 46.8433 71.5625 47.975 68.5877 47.975C62.2339 47.975 59.6633 43.8038 59.6633 39.3578C59.6633 34.6046 62.6381 30.207 68.5877 30.207C70.8512 30.207 73.1307 31.0801 74.8607 32.7938L72.8882 34.8309Z" fill="white"/>
<path d="M95.0862 47.6035L91.3031 47.6035L86.372 41.961L83.3002 41.961L83.3002 47.6035L80.1152 47.6035L80.1152 30.6924C82.799 30.6924 85.4666 30.7247 88.1504 30.7247C92.1276 30.7571 94.2293 33.4085 94.2293 36.3186C94.2293 38.6306 93.1623 40.9748 89.9612 41.6215L95.0862 47.3933L95.0862 47.6035ZM83.3164 33.6833L83.3164 39.0832L88.1666 39.0832C90.1875 39.0832 91.0605 37.7252 91.0605 36.3833C91.0605 35.0414 90.1713 33.6833 88.1666 33.6833L83.3164 33.6833Z" fill="white"/>
<path d="M111.771 44.4179L102.927 44.4179L101.472 47.6029L98.0125 47.6029L105.595 30.708L109.071 30.708L116.653 47.6029L113.177 47.6029L111.771 44.4179ZM107.357 34.2648L104.221 41.4593L110.494 41.4593L107.357 34.2648Z" fill="white"/>
<path d="M130.687 30.6924L133.872 30.6924L133.872 47.6196L131.899 47.6196L131.899 47.6358L123.007 36.2216L123.007 47.6196L119.822 47.6196L119.822 30.7085L122.409 30.7085L130.687 41.185L130.687 30.6924Z" fill="white"/>
<path d="M154.081 39.018C154.162 43.2862 151.543 47.6191 145.625 47.6191L138.98 47.6191L138.98 30.708L145.625 30.708C151.413 30.708 154 34.8307 154.081 39.018ZM142.149 44.5311L145.625 44.5311C149.457 44.5311 150.993 41.7342 150.912 38.9857C150.831 36.3504 149.295 33.7313 145.625 33.7313L142.149 33.7313L142.149 44.5311Z" fill="white"/>
<path d="M132.524 61L132.524 53.7273L133.405 53.7273L133.405 56.9659L137.283 56.9659L137.283 53.7273L138.163 53.7273L138.163 61L137.283 61L137.283 57.7472L133.405 57.7472L133.405 61L132.524 61ZM139.926 61L139.926 53.7273L142.384 53.7273C142.952 53.7273 143.418 53.8243 143.783 54.0185C144.147 54.2102 144.417 54.4742 144.593 54.8104C144.768 55.1465 144.855 55.5289 144.855 55.9574C144.855 56.3859 144.768 56.7659 144.593 57.0973C144.417 57.4287 144.149 57.6892 143.786 57.8786C143.424 58.0656 142.961 58.1591 142.398 58.1591L140.409 58.1591L140.409 57.3636L142.37 57.3636C142.758 57.3636 143.07 57.3068 143.307 57.1932C143.546 57.0795 143.719 56.9186 143.825 56.7102C143.934 56.4995 143.989 56.2486 143.989 55.9574C143.989 55.6662 143.934 55.4117 143.825 55.1939C143.717 54.9761 143.543 54.808 143.303 54.6896C143.064 54.5689 142.748 54.5085 142.355 54.5085L140.807 54.5085L140.807 61L139.926 61ZM143.35 57.733L145.139 61L144.117 61L142.355 57.733L143.35 57.733ZM146.323 53.7273L147.374 53.7273L149.846 59.7642L149.931 59.7642L152.402 53.7273L153.454 53.7273L153.454 61L152.63 61L152.63 55.4744L152.559 55.4744L150.286 61L149.49 61L147.218 55.4744L147.147 55.4744L147.147 61L146.323 61L146.323 53.7273Z" fill="#BF9910"/>
<rect width="49" height="21" transform="translate(65.5002 0.626953)" fill="#121212"/>
<path d="M81.5601 9.0815C81.5118 8.5957 81.2973 8.20934 80.9166 7.92241C80.5359 7.63548 80.0572 7.49201 79.4805 7.49201C79.0743 7.49201 78.7163 7.56161 78.4067 7.70082C78.0999 7.84002 77.8584 8.0332 77.6822 8.28036C77.5089 8.52468 77.4223 8.80309 77.4223 9.11559C77.4223 9.3457 77.472 9.54741 77.5714 9.7207C77.6709 9.894 77.8044 10.0431 77.972 10.1681C78.1425 10.2903 78.33 10.3954 78.5345 10.4835C78.7419 10.5716 78.9507 10.6454 79.1609 10.7051L80.0814 10.9693C80.3598 11.046 80.6382 11.144 80.9166 11.2633C81.195 11.3826 81.4493 11.5332 81.6794 11.715C81.9124 11.894 82.0984 12.1142 82.2376 12.3755C82.3797 12.6341 82.4507 12.9451 82.4507 13.3088C82.4507 13.7747 82.33 14.1937 82.0885 14.5659C81.847 14.938 81.5004 15.2335 81.0487 15.4522C80.597 15.6681 80.0558 15.7761 79.4251 15.7761C78.8314 15.7761 78.3158 15.6781 77.8783 15.4821C77.4408 15.2832 77.097 15.0091 76.847 14.6596C76.597 14.3102 76.4564 13.9054 76.4251 13.4451H77.2433C77.2717 13.7889 77.3854 14.0801 77.5842 14.3187C77.7831 14.5574 78.0416 14.7392 78.3598 14.8642C78.678 14.9863 79.0331 15.0474 79.4251 15.0474C79.8598 15.0474 80.2462 14.975 80.5842 14.8301C80.9251 14.6824 81.1922 14.4778 81.3854 14.2164C81.5814 13.9522 81.6794 13.6454 81.6794 13.296C81.6794 13.0005 81.6027 12.7534 81.4493 12.5545C81.2959 12.3528 81.0814 12.1838 80.8058 12.0474C80.5331 11.911 80.2163 11.7903 79.8555 11.6852L78.8115 11.3784C78.1268 11.1738 77.5956 10.8912 77.2178 10.5304C76.8399 10.1696 76.651 9.70934 76.651 9.14968C76.651 8.68093 76.776 8.269 77.026 7.91388C77.2788 7.55593 77.6197 7.27752 78.0487 7.07866C78.4805 6.87695 78.9649 6.7761 79.5018 6.7761C80.0445 6.7761 80.5246 6.87553 80.9422 7.0744C81.3598 7.27326 81.6908 7.54741 81.9351 7.89684C82.1822 8.24343 82.3143 8.63832 82.3314 9.0815H81.5601ZM86.7547 15.7633C86.1893 15.7633 85.6893 15.6199 85.2547 15.3329C84.8229 15.046 84.4848 14.6497 84.2405 14.144C83.9962 13.6355 83.874 13.0488 83.874 12.3841C83.874 11.7136 83.9962 11.1241 84.2405 10.6156C84.4848 10.1042 84.8229 9.7065 85.2547 9.42241C85.6893 9.13548 86.1893 8.99201 86.7547 8.99201C87.32 8.99201 87.8186 9.13548 88.2504 9.42241C88.6822 9.70934 89.0203 10.1071 89.2646 10.6156C89.5118 11.1241 89.6354 11.7136 89.6354 12.3841C89.6354 13.0488 89.5132 13.6355 89.2689 14.144C89.0246 14.6497 88.6851 15.046 88.2504 15.3329C87.8186 15.6199 87.32 15.7633 86.7547 15.7633ZM86.7547 15.0687C87.2092 15.0687 87.5942 14.9466 87.9095 14.7022C88.2249 14.4579 88.4635 14.1326 88.6254 13.7264C88.7902 13.3201 88.8726 12.8727 88.8726 12.3841C88.8726 11.8954 88.7902 11.4466 88.6254 11.0375C88.4635 10.6284 88.2249 10.3002 87.9095 10.0531C87.5942 9.80593 87.2092 9.68235 86.7547 9.68235C86.303 9.68235 85.918 9.80593 85.5999 10.0531C85.2845 10.3002 85.0445 10.6284 84.8797 11.0375C84.7178 11.4466 84.6368 11.8954 84.6368 12.3841C84.6368 12.8727 84.7178 13.3201 84.8797 13.7264C85.0445 14.1326 85.2845 14.4579 85.5999 14.7022C85.9152 14.9466 86.3001 15.0687 86.7547 15.0687ZM93.8445 15.7633C93.2792 15.7633 92.7792 15.6199 92.3445 15.3329C91.9127 15.046 91.5746 14.6497 91.3303 14.144C91.086 13.6355 90.9638 13.0488 90.9638 12.3841C90.9638 11.7136 91.086 11.1241 91.3303 10.6156C91.5746 10.1042 91.9127 9.7065 92.3445 9.42241C92.7792 9.13548 93.2792 8.99201 93.8445 8.99201C94.4099 8.99201 94.9084 9.13548 95.3403 9.42241C95.7721 9.70934 96.1102 10.1071 96.3545 10.6156C96.6016 11.1241 96.7252 11.7136 96.7252 12.3841C96.7252 13.0488 96.603 13.6355 96.3587 14.144C96.1144 14.6497 95.7749 15.046 95.3403 15.3329C94.9084 15.6199 94.4099 15.7633 93.8445 15.7633ZM93.8445 15.0687C94.2991 15.0687 94.684 14.9466 94.9994 14.7022C95.3147 14.4579 95.5533 14.1326 95.7153 13.7264C95.88 13.3201 95.9624 12.8727 95.9624 12.3841C95.9624 11.8954 95.88 11.4466 95.7153 11.0375C95.5533 10.6284 95.3147 10.3002 94.9994 10.0531C94.684 9.80593 94.2991 9.68235 93.8445 9.68235C93.3928 9.68235 93.0079 9.80593 92.6897 10.0531C92.3744 10.3002 92.1343 10.6284 91.9695 11.0375C91.8076 11.4466 91.7266 11.8954 91.7266 12.3841C91.7266 12.8727 91.8076 13.3201 91.9695 13.7264C92.1343 14.1326 92.3744 14.4579 92.6897 14.7022C93.005 14.9466 93.39 15.0687 93.8445 15.0687ZM99.1489 11.536V15.627H98.3903V9.0815H99.1276V10.1085H99.1957C99.3491 9.77326 99.5878 9.50479 99.9116 9.30309C100.238 9.09854 100.642 8.99627 101.122 8.99627C101.562 8.99627 101.949 9.0886 102.281 9.27326C102.616 9.45508 102.876 9.72354 103.061 10.0787C103.248 10.4338 103.342 10.8699 103.342 11.3869V15.627H102.584V11.4338C102.584 10.8968 102.433 10.4721 102.132 10.1596C101.834 9.84712 101.433 9.69087 100.93 9.69087C100.586 9.69087 100.281 9.76474 100.014 9.91246C99.7469 10.0602 99.5352 10.2733 99.379 10.5517C99.2256 10.8272 99.1489 11.1554 99.1489 11.536Z" fill="white"/>
</svg>
