<svg width="178" height="80" viewBox="0 0 178 80" fill="none" xmlns="http://www.w3.org/2000/svg">
<rect x="0.965551" y="10.9656" width="175.73" height="68.0689" rx="11.0344" stroke="white" stroke-opacity="0.1" stroke-width="1.9311"/>
<path d="M33.0534 50.5135C28.1547 50.5135 24.1775 46.5363 24.1775 41.6376C24.1775 36.7389 28.1708 32.7617 33.0534 32.7617C37.9359 32.7617 41.9293 36.7389 41.9293 41.6376C41.9293 46.5363 37.9521 50.5135 33.0534 50.5135ZM33.0534 35.979C29.9331 35.979 27.3948 38.5173 27.3948 41.6376C27.3948 44.7579 29.9331 47.2962 33.0534 47.2962C36.1737 47.2962 38.712 44.7579 38.712 41.6376C38.712 38.5173 36.1737 35.979 33.0534 35.979Z" fill="#3A717D"/>
<path d="M38.712 52.6963C38.712 55.8166 36.1737 58.3549 33.0534 58.3549C29.9331 58.3549 27.3948 55.8166 27.3948 52.6963L24.1775 52.6963C24.1775 57.595 28.1547 61.5722 33.0534 61.5722C37.9521 61.5722 41.9293 57.595 41.9293 52.6963L38.712 52.6963Z" fill="#3A717D"/>
<path d="M46.2135 35.4615L46.2135 28.4287L39.1807 28.4287L39.1807 31.355L43.271 31.355L43.271 35.4615L46.2135 35.4615Z" fill="#3A717D"/>
<path d="M72.1463 34.993C71.0146 33.9098 69.317 33.2954 67.8458 33.2954C64.2243 33.2954 62.0255 36.0439 62.0255 39.5199C62.0255 42.3007 63.6423 45.1623 67.8458 45.1623C69.1715 45.1623 70.3355 44.8713 71.6613 43.8042L71.6613 40.8133L67.3446 40.8133L67.3446 37.984L74.5876 37.984L74.5876 45.0976C72.9223 47.0054 70.8206 48.1371 67.8458 48.1371C61.492 48.1371 58.9214 43.9659 58.9214 39.5199C58.9214 34.7667 61.8962 30.3691 67.8458 30.3691C70.1092 30.3691 72.3888 31.2422 74.1187 32.9559L72.1463 34.993Z" fill="white"/>
<path d="M94.3601 47.7656L90.577 47.7656L85.6459 42.1231L82.5741 42.1231L82.5741 47.7656L79.3892 47.7656L79.3892 30.8545C82.0729 30.8545 84.7406 30.8868 87.4243 30.8868C91.4177 30.903 93.5194 33.5544 93.5194 36.4646C93.5194 38.7765 92.4524 41.1208 89.2513 41.7675L94.3763 47.5392L94.3601 47.7656ZM82.5741 33.8455L82.5741 39.2454L87.4243 39.2454C89.4453 39.2454 90.3183 37.8873 90.3183 36.5454C90.3183 35.2035 89.4453 33.8455 87.4405 33.8455L82.5741 33.8455Z" fill="white"/>
<path d="M111.044 44.58L102.201 44.58L100.746 47.765L97.2859 47.765L104.868 30.8701L108.344 30.8701L115.927 47.765L112.451 47.765L111.044 44.58ZM106.631 34.4269L103.494 41.6214L109.767 41.6214L106.631 34.4269Z" fill="white"/>
<path d="M129.945 30.8545L133.13 30.8545L133.13 47.7817L131.157 47.7817L131.157 47.7979L122.265 36.3837L122.265 47.7817L119.08 47.7817L119.08 30.8707L121.667 30.8707L129.945 41.3471L129.945 30.8545Z" fill="white"/>
<path d="M153.339 39.1801C153.419 43.4483 150.8 47.7812 144.883 47.7812L138.238 47.7812L138.238 30.8701L144.883 30.8701C150.687 30.8701 153.274 34.9928 153.339 39.1801ZM141.423 44.7094L144.899 44.7094C148.731 44.7094 150.267 41.9124 150.186 39.164C150.105 36.5287 148.569 33.9096 144.899 33.9096L141.423 33.9096L141.423 44.7094Z" fill="white"/>
<path d="M102.061 61.001L102.061 53.7282L104.518 53.7282C105.089 53.7282 105.555 53.8312 105.917 54.0372C106.282 54.2408 106.552 54.5166 106.727 54.8646C106.902 55.2126 106.99 55.6009 106.99 56.0294C106.99 56.4579 106.902 56.8473 106.727 57.1977C106.554 57.5481 106.286 57.8274 105.924 58.0358C105.562 58.2417 105.098 58.3447 104.532 58.3447L102.771 58.3447L102.771 57.5635L104.504 57.5635C104.894 57.5635 105.208 57.496 105.445 57.3611C105.682 57.2261 105.853 57.0438 105.96 56.8142C106.069 56.5822 106.123 56.3206 106.123 56.0294C106.123 55.7382 106.069 55.4778 105.96 55.2481C105.853 55.0185 105.68 54.8386 105.441 54.7084C105.202 54.5758 104.885 54.5095 104.49 54.5095L102.941 54.5095L102.941 61.001L102.061 61.001ZM108.408 61.001L108.408 53.7282L110.866 53.7282C111.434 53.7282 111.9 53.8253 112.265 54.0194C112.629 54.2112 112.899 54.4752 113.074 54.8113C113.25 55.1475 113.337 55.5299 113.337 55.9584C113.337 56.3869 113.25 56.7668 113.074 57.0983C112.899 57.4297 112.631 57.6901 112.268 57.8795C111.906 58.0666 111.443 58.1601 110.88 58.1601L108.891 58.1601L108.891 57.3646L110.851 57.3646C111.24 57.3646 111.552 57.3078 111.789 57.1942C112.028 57.0805 112.201 56.9195 112.307 56.7112C112.416 56.5005 112.471 56.2496 112.471 55.9584C112.471 55.6672 112.416 55.4127 112.307 55.1949C112.199 54.9771 112.025 54.809 111.785 54.6906C111.546 54.5699 111.23 54.5095 110.837 54.5095L109.289 54.5095L109.289 61.001L108.408 61.001ZM111.832 57.7339L113.621 61.001L112.599 61.001L110.837 57.7339L111.832 57.7339ZM120.941 57.3646C120.941 58.1317 120.803 58.7945 120.526 59.3532C120.249 59.912 119.869 60.3428 119.386 60.6459C118.903 60.9489 118.351 61.1004 117.731 61.1004C117.111 61.1004 116.559 60.9489 116.076 60.6459C115.593 60.3428 115.213 59.912 114.936 59.3532C114.659 58.7945 114.521 58.1317 114.521 57.3646C114.521 56.5976 114.659 55.9347 114.936 55.376C115.213 54.8173 115.593 54.3864 116.076 54.0834C116.559 53.7803 117.111 53.6288 117.731 53.6288C118.351 53.6288 118.903 53.7803 119.386 54.0834C119.869 54.3864 120.249 54.8173 120.526 55.376C120.803 55.9347 120.941 56.5976 120.941 57.3646ZM120.089 57.3646C120.089 56.7349 119.983 56.2034 119.773 55.7702C119.564 55.3369 119.282 55.009 118.924 54.7865C118.569 54.5639 118.171 54.4527 117.731 54.4527C117.291 54.4527 116.892 54.5639 116.534 54.7865C116.179 55.009 115.896 55.3369 115.685 55.7702C115.477 56.2034 115.373 56.7349 115.373 57.3646C115.373 57.9943 115.477 58.5258 115.685 58.9591C115.896 59.3923 116.179 59.7202 116.534 59.9427C116.892 60.1653 117.291 60.2765 117.731 60.2765C118.171 60.2765 118.569 60.1653 118.924 59.9427C119.282 59.7202 119.564 59.3923 119.773 58.9591C119.983 58.5258 120.089 57.9943 120.089 57.3646ZM125.206 53.7282L126.087 53.7282L126.087 58.9271C126.087 59.3911 126.001 59.7853 125.831 60.1096C125.661 60.434 125.42 60.6802 125.11 60.8483C124.8 61.0164 124.434 61.1004 124.013 61.1004C123.615 61.1004 123.261 61.0282 122.951 60.8838C122.641 60.737 122.397 60.5287 122.22 60.2588C122.042 59.9889 121.953 59.6681 121.953 59.2964L122.82 59.2964C122.82 59.5024 122.871 59.6823 122.972 59.8362C123.077 59.9877 123.219 60.1061 123.399 60.1913C123.578 60.2765 123.783 60.3192 124.013 60.3192C124.266 60.3192 124.482 60.2659 124.659 60.1594C124.837 60.0528 124.972 59.8966 125.064 59.6906C125.159 59.4823 125.206 59.2278 125.206 58.9271L125.206 53.7282ZM127.852 61.001L127.852 53.7282L132.241 53.7282L132.241 54.5095L128.732 54.5095L128.732 56.9669L132.014 56.9669L132.014 57.7481L128.732 57.7481L128.732 60.2197L132.298 60.2197L132.298 61.001L127.852 61.001ZM139.68 56.001L138.8 56.001C138.748 55.7477 138.657 55.5251 138.526 55.3334C138.399 55.1416 138.242 54.9806 138.058 54.8504C137.875 54.7178 137.673 54.6184 137.45 54.5521C137.228 54.4858 136.996 54.4527 136.754 54.4527C136.314 54.4527 135.915 54.5639 135.558 54.7865C135.202 55.009 134.92 55.3369 134.709 55.7702C134.501 56.2034 134.396 56.7349 134.396 57.3646C134.396 57.9943 134.501 58.5258 134.709 58.9591C134.92 59.3923 135.202 59.7202 135.558 59.9427C135.915 60.1653 136.314 60.2765 136.754 60.2765C136.996 60.2765 137.228 60.2434 137.45 60.1771C137.673 60.1108 137.875 60.0126 138.058 59.8824C138.242 59.7498 138.399 59.5876 138.526 59.3959C138.657 59.2017 138.748 58.9792 138.8 58.7282L139.68 58.7282C139.614 59.0999 139.493 59.4326 139.318 59.7261C139.143 60.0197 138.925 60.2694 138.665 60.4754C138.404 60.679 138.112 60.8341 137.788 60.9406C137.466 61.0471 137.121 61.1004 136.754 61.1004C136.134 61.1004 135.582 60.9489 135.099 60.6459C134.617 60.3428 134.237 59.912 133.96 59.3532C133.683 58.7945 133.544 58.1317 133.544 57.3646C133.544 56.5976 133.683 55.9347 133.96 55.376C134.237 54.8173 134.617 54.3864 135.099 54.0834C135.582 53.7803 136.134 53.6288 136.754 53.6288C137.121 53.6288 137.466 53.6821 137.788 53.7886C138.112 53.8952 138.404 54.0514 138.665 54.2574C138.925 54.461 139.143 54.7095 139.318 55.0031C139.493 55.2943 139.614 55.6269 139.68 56.001ZM140.706 54.5095L140.706 53.7282L146.16 53.7282L146.16 54.5095L143.873 54.5095L143.873 61.001L142.993 61.001L142.993 54.5095L140.706 54.5095ZM151.497 55.5464C151.454 55.1866 151.281 54.9072 150.978 54.7084C150.675 54.5095 150.304 54.4101 149.863 54.4101C149.541 54.4101 149.26 54.4622 149.018 54.5663C148.779 54.6705 148.592 54.8137 148.457 54.996C148.325 55.1783 148.258 55.3854 148.258 55.6175C148.258 55.8116 148.304 55.9785 148.397 56.1182C148.491 56.2555 148.612 56.3703 148.759 56.4626C148.906 56.5526 149.06 56.6272 149.221 56.6863C149.382 56.7432 149.53 56.7893 149.664 56.8248L150.403 57.0237C150.593 57.0734 150.803 57.1421 151.035 57.2297C151.27 57.3173 151.493 57.4368 151.706 57.5883C151.922 57.7375 152.099 57.9292 152.239 58.1636C152.379 58.398 152.449 58.6856 152.449 59.0265C152.449 59.4195 152.346 59.7747 152.14 60.0919C151.936 60.4091 151.638 60.6613 151.245 60.8483C150.854 61.0353 150.379 61.1288 149.821 61.1288C149.3 61.1288 148.849 61.0448 148.468 60.8767C148.089 60.7086 147.791 60.4742 147.573 60.1736C147.357 59.8729 147.236 59.5237 147.207 59.126L148.116 59.126C148.14 59.4006 148.232 59.6279 148.393 59.8078C148.557 59.9854 148.762 60.1179 149.011 60.2055C149.262 60.2907 149.532 60.3334 149.821 60.3334C150.157 60.3334 150.459 60.2789 150.726 60.17C150.994 60.0587 151.206 59.9049 151.362 59.7084C151.518 59.5095 151.596 59.2775 151.596 59.0123C151.596 58.7709 151.529 58.5744 151.394 58.4229C151.259 58.2713 151.081 58.1482 150.861 58.0535C150.641 57.9588 150.403 57.876 150.147 57.805L149.253 57.5493C148.684 57.3859 148.235 57.1527 147.903 56.8497C147.572 56.5467 147.406 56.1501 147.406 55.6601C147.406 55.2529 147.516 54.8978 147.736 54.5947C147.959 54.2893 148.257 54.0526 148.631 53.8845C149.008 53.714 149.428 53.6288 149.892 53.6288C150.361 53.6288 150.777 53.7129 151.142 53.8809C151.506 54.0467 151.795 54.2739 152.008 54.5628C152.224 54.8516 152.337 55.1795 152.349 55.5464L151.497 55.5464Z" fill="#3A717D"/>
<rect width="49" height="21" transform="translate(64.5 0.626953)" fill="#121212"/>
<path d="M80.5598 9.0815C80.5115 8.5957 80.2971 8.20934 79.9164 7.92241C79.5357 7.63548 79.057 7.49201 78.4803 7.49201C78.074 7.49201 77.7161 7.56161 77.4064 7.70082C77.0996 7.84002 76.8581 8.0332 76.682 8.28036C76.5087 8.52468 76.4221 8.80309 76.4221 9.11559C76.4221 9.3457 76.4718 9.54741 76.5712 9.7207C76.6706 9.894 76.8042 10.0431 76.9718 10.1681C77.1422 10.2903 77.3297 10.3954 77.5343 10.4835C77.7417 10.5716 77.9505 10.6454 78.1607 10.7051L79.0811 10.9693C79.3596 11.046 79.638 11.144 79.9164 11.2633C80.1948 11.3826 80.449 11.5332 80.6792 11.715C80.9121 11.894 81.0982 12.1142 81.2374 12.3755C81.3794 12.6341 81.4505 12.9451 81.4505 13.3088C81.4505 13.7747 81.3297 14.1937 81.0882 14.5659C80.8468 14.938 80.5002 15.2335 80.0485 15.4522C79.5968 15.6681 79.0556 15.7761 78.4249 15.7761C77.8311 15.7761 77.3155 15.6781 76.878 15.4821C76.4405 15.2832 76.0968 15.0091 75.8468 14.6596C75.5968 14.3102 75.4561 13.9054 75.4249 13.4451H76.2431C76.2715 13.7889 76.3851 14.0801 76.584 14.3187C76.7828 14.5574 77.0414 14.7392 77.3596 14.8642C77.6777 14.9863 78.0328 15.0474 78.4249 15.0474C78.8596 15.0474 79.2459 14.975 79.584 14.8301C79.9249 14.6824 80.1919 14.4778 80.3851 14.2164C80.5811 13.9522 80.6792 13.6454 80.6792 13.296C80.6792 13.0005 80.6025 12.7534 80.449 12.5545C80.2956 12.3528 80.0811 12.1838 79.8056 12.0474C79.5328 11.911 79.2161 11.7903 78.8553 11.6852L77.8113 11.3784C77.1266 11.1738 76.5953 10.8912 76.2175 10.5304C75.8397 10.1696 75.6507 9.70934 75.6507 9.14968C75.6507 8.68093 75.7757 8.269 76.0257 7.91388C76.2786 7.55593 76.6195 7.27752 77.0485 7.07866C77.4803 6.87695 77.9647 6.7761 78.5016 6.7761C79.0442 6.7761 79.5243 6.87553 79.9419 7.0744C80.3596 7.27326 80.6905 7.54741 80.9348 7.89684C81.182 8.24343 81.3141 8.63832 81.3311 9.0815H80.5598ZM85.7544 15.7633C85.1891 15.7633 84.6891 15.6199 84.2544 15.3329C83.8226 15.046 83.4846 14.6497 83.2402 14.144C82.9959 13.6355 82.8738 13.0488 82.8738 12.3841C82.8738 11.7136 82.9959 11.1241 83.2402 10.6156C83.4846 10.1042 83.8226 9.7065 84.2544 9.42241C84.6891 9.13548 85.1891 8.99201 85.7544 8.99201C86.3198 8.99201 86.8184 9.13548 87.2502 9.42241C87.682 9.70934 88.0201 10.1071 88.2644 10.6156C88.5115 11.1241 88.6351 11.7136 88.6351 12.3841C88.6351 13.0488 88.513 13.6355 88.2686 14.144C88.0243 14.6497 87.6848 15.046 87.2502 15.3329C86.8184 15.6199 86.3198 15.7633 85.7544 15.7633ZM85.7544 15.0687C86.209 15.0687 86.5939 14.9466 86.9093 14.7022C87.2246 14.4579 87.4632 14.1326 87.6252 13.7264C87.79 13.3201 87.8723 12.8727 87.8723 12.3841C87.8723 11.8954 87.79 11.4466 87.6252 11.0375C87.4632 10.6284 87.2246 10.3002 86.9093 10.0531C86.5939 9.80593 86.209 9.68235 85.7544 9.68235C85.3027 9.68235 84.9178 9.80593 84.5996 10.0531C84.2843 10.3002 84.0442 10.6284 83.8794 11.0375C83.7175 11.4466 83.6365 11.8954 83.6365 12.3841C83.6365 12.8727 83.7175 13.3201 83.8794 13.7264C84.0442 14.1326 84.2843 14.4579 84.5996 14.7022C84.915 14.9466 85.2999 15.0687 85.7544 15.0687ZM92.8443 15.7633C92.2789 15.7633 91.7789 15.6199 91.3443 15.3329C90.9125 15.046 90.5744 14.6497 90.3301 14.144C90.0858 13.6355 89.9636 13.0488 89.9636 12.3841C89.9636 11.7136 90.0858 11.1241 90.3301 10.6156C90.5744 10.1042 90.9125 9.7065 91.3443 9.42241C91.7789 9.13548 92.2789 8.99201 92.8443 8.99201C93.4096 8.99201 93.9082 9.13548 94.34 9.42241C94.7718 9.70934 95.1099 10.1071 95.3542 10.6156C95.6014 11.1241 95.725 11.7136 95.725 12.3841C95.725 13.0488 95.6028 13.6355 95.3585 14.144C95.1142 14.6497 94.7747 15.046 94.34 15.3329C93.9082 15.6199 93.4096 15.7633 92.8443 15.7633ZM92.8443 15.0687C93.2988 15.0687 93.6838 14.9466 93.9991 14.7022C94.3145 14.4579 94.5531 14.1326 94.715 13.7264C94.8798 13.3201 94.9622 12.8727 94.9622 12.3841C94.9622 11.8954 94.8798 11.4466 94.715 11.0375C94.5531 10.6284 94.3145 10.3002 93.9991 10.0531C93.6838 9.80593 93.2988 9.68235 92.8443 9.68235C92.3926 9.68235 92.0076 9.80593 91.6895 10.0531C91.3741 10.3002 91.1341 10.6284 90.9693 11.0375C90.8074 11.4466 90.7264 11.8954 90.7264 12.3841C90.7264 12.8727 90.8074 13.3201 90.9693 13.7264C91.1341 14.1326 91.3741 14.4579 91.6895 14.7022C92.0048 14.9466 92.3897 15.0687 92.8443 15.0687ZM98.1486 11.536V15.627H97.3901V9.0815H98.1273V10.1085H98.1955C98.3489 9.77326 98.5875 9.50479 98.9114 9.30309C99.2381 9.09854 99.6415 8.99627 100.122 8.99627C100.562 8.99627 100.948 9.0886 101.281 9.27326C101.616 9.45508 101.876 9.72354 102.061 10.0787C102.248 10.4338 102.342 10.8699 102.342 11.3869V15.627H101.583V11.4338C101.583 10.8968 101.433 10.4721 101.132 10.1596C100.833 9.84712 100.433 9.69087 99.9299 9.69087C99.5861 9.69087 99.2807 9.76474 99.0137 9.91246C98.7466 10.0602 98.535 10.2733 98.3787 10.5517C98.2253 10.8272 98.1486 11.1554 98.1486 11.536Z" fill="white"/>
</svg>
