<svg width="178" height="80" viewBox="0 0 178 80" fill="none" xmlns="http://www.w3.org/2000/svg">
<rect x="0.965551" y="10.9656" width="175.73" height="68.0689" rx="11.0344" stroke="white" stroke-opacity="0.1" stroke-width="1.9311"/>
<path d="M33.0534 50.5135C28.1547 50.5135 24.1775 46.5363 24.1775 41.6376C24.1775 36.7389 28.1708 32.7617 33.0534 32.7617C37.9359 32.7617 41.9293 36.7389 41.9293 41.6376C41.9293 46.5363 37.9521 50.5135 33.0534 50.5135ZM33.0534 35.979C29.9331 35.979 27.3948 38.5173 27.3948 41.6376C27.3948 44.7579 29.9331 47.2962 33.0534 47.2962C36.1737 47.2962 38.712 44.7579 38.712 41.6376C38.712 38.5173 36.1737 35.979 33.0534 35.979Z" fill="#5B13B8"/>
<path d="M38.712 52.6963C38.712 55.8166 36.1737 58.3549 33.0534 58.3549C29.9331 58.3549 27.3948 55.8166 27.3948 52.6963L24.1775 52.6963C24.1775 57.595 28.1547 61.5722 33.0534 61.5722C37.9521 61.5722 41.9293 57.595 41.9293 52.6963L38.712 52.6963Z" fill="#5B13B8"/>
<path d="M46.2135 35.4615L46.2135 28.4287L39.1807 28.4287L39.1807 31.355L43.271 31.355L43.271 35.4615L46.2135 35.4615Z" fill="#5B13B8"/>
<path d="M72.1463 34.993C71.0146 33.9098 69.317 33.2954 67.8458 33.2954C64.2243 33.2954 62.0255 36.0439 62.0255 39.5199C62.0255 42.3007 63.6423 45.1623 67.8458 45.1623C69.1715 45.1623 70.3355 44.8713 71.6613 43.8042L71.6613 40.8133L67.3446 40.8133L67.3446 37.984L74.5876 37.984L74.5876 45.0976C72.9223 47.0054 70.8206 48.1371 67.8458 48.1371C61.492 48.1371 58.9214 43.9659 58.9214 39.5199C58.9214 34.7667 61.8962 30.3691 67.8458 30.3691C70.1092 30.3691 72.3888 31.2422 74.1187 32.9559L72.1463 34.993Z" fill="white"/>
<path d="M94.3601 47.7656L90.577 47.7656L85.6459 42.1231L82.5741 42.1231L82.5741 47.7656L79.3892 47.7656L79.3892 30.8545C82.0729 30.8545 84.7406 30.8868 87.4243 30.8868C91.4177 30.903 93.5194 33.5544 93.5194 36.4646C93.5194 38.7765 92.4524 41.1208 89.2513 41.7675L94.3763 47.5392L94.3601 47.7656ZM82.5741 33.8455L82.5741 39.2454L87.4243 39.2454C89.4453 39.2454 90.3183 37.8873 90.3183 36.5454C90.3183 35.2035 89.4453 33.8455 87.4405 33.8455L82.5741 33.8455Z" fill="white"/>
<path d="M111.044 44.58L102.201 44.58L100.746 47.765L97.2859 47.765L104.868 30.8701L108.344 30.8701L115.927 47.765L112.451 47.765L111.044 44.58ZM106.631 34.4269L103.494 41.6214L109.767 41.6214L106.631 34.4269Z" fill="white"/>
<path d="M129.945 30.8545L133.13 30.8545L133.13 47.7817L131.157 47.7817L131.157 47.7979L122.265 36.3837L122.265 47.7817L119.08 47.7817L119.08 30.8707L121.667 30.8707L129.945 41.3471L129.945 30.8545Z" fill="white"/>
<path d="M153.339 39.1801C153.419 43.4483 150.8 47.7812 144.883 47.7812L138.238 47.7812L138.238 30.8701L144.883 30.8701C150.687 30.8701 153.274 34.9928 153.339 39.1801ZM141.423 44.7094L144.899 44.7094C148.731 44.7094 150.267 41.9124 150.186 39.164C150.105 36.5287 148.569 33.9096 144.899 33.9096L141.423 33.9096L141.423 44.7094Z" fill="white"/>
<path d="M101.78 55.5464C101.737 55.1866 101.565 54.9072 101.262 54.7084C100.959 54.5095 100.587 54.4101 100.147 54.4101C99.8246 54.4101 99.5429 54.4622 99.3014 54.5663C99.0623 54.6705 98.8752 54.8137 98.7403 54.996C98.6077 55.1783 98.5414 55.3854 98.5414 55.6175C98.5414 55.8116 98.5876 55.9785 98.6799 56.1182C98.7746 56.2555 98.8954 56.3703 99.0421 56.4626C99.1889 56.5526 99.3428 56.6272 99.5038 56.6863C99.6648 56.7432 99.8127 56.7893 99.9477 56.8248L100.686 57.0237C100.876 57.0734 101.086 57.1421 101.318 57.2297C101.553 57.3173 101.777 57.4368 101.99 57.5883C102.205 57.7375 102.383 57.9292 102.522 58.1636C102.662 58.398 102.732 58.6856 102.732 59.0265C102.732 59.4195 102.629 59.7747 102.423 60.0919C102.219 60.4091 101.921 60.6613 101.528 60.8483C101.137 61.0353 100.663 61.1288 100.104 61.1288C99.5831 61.1288 99.1321 61.0448 98.751 60.8767C98.3722 60.7086 98.0739 60.4742 97.8561 60.1736C97.6406 59.8729 97.5187 59.5237 97.4903 59.126L98.3994 59.126C98.4231 59.4006 98.5154 59.6279 98.6764 59.8078C98.8397 59.9854 99.0457 60.1179 99.2943 60.2055C99.5452 60.2907 99.8151 60.3334 100.104 60.3334C100.44 60.3334 100.742 60.2789 101.009 60.17C101.277 60.0587 101.489 59.9049 101.645 59.7084C101.801 59.5095 101.88 59.2775 101.88 59.0123C101.88 58.7709 101.812 58.5744 101.677 58.4229C101.542 58.2713 101.365 58.1482 101.144 58.0535C100.924 57.9588 100.686 57.876 100.431 57.805L99.5358 57.5493C98.9676 57.3859 98.5178 57.1527 98.1863 56.8497C97.8549 56.5467 97.6892 56.1501 97.6892 55.6601C97.6892 55.2529 97.7992 54.8978 98.0194 54.5947C98.242 54.2893 98.5403 54.0526 98.9143 53.8845C99.2907 53.714 99.7109 53.6288 100.175 53.6288C100.644 53.6288 101.06 53.7129 101.425 53.8809C101.79 54.0467 102.078 54.2739 102.291 54.5628C102.507 54.8516 102.621 55.1795 102.632 55.5464L101.78 55.5464ZM105.06 53.7282L105.06 61.001L104.18 61.001L104.18 53.7282L105.06 53.7282ZM111.798 56.001C111.72 55.7619 111.617 55.5476 111.489 55.3582C111.363 55.1665 111.213 55.0031 111.038 54.8682C110.865 54.7332 110.669 54.6302 110.448 54.5592C110.228 54.4882 109.987 54.4527 109.724 54.4527C109.293 54.4527 108.901 54.5639 108.549 54.7865C108.196 55.009 107.915 55.3369 107.707 55.7702C107.499 56.2034 107.394 56.7349 107.394 57.3646C107.394 57.9943 107.5 58.5258 107.71 58.9591C107.921 59.3923 108.206 59.7202 108.566 59.9427C108.926 60.1653 109.331 60.2765 109.781 60.2765C110.197 60.2765 110.564 60.1878 110.882 60.0102C111.201 59.8303 111.45 59.577 111.627 59.2503C111.807 58.9212 111.897 58.5341 111.897 58.089L112.167 58.1459L109.98 58.1459L109.98 57.3646L112.75 57.3646L112.75 58.1459C112.75 58.7448 112.622 59.2657 112.366 59.7084C112.113 60.1511 111.762 60.4943 111.315 60.7382C110.87 60.9797 110.358 61.1004 109.781 61.1004C109.137 61.1004 108.571 60.9489 108.083 60.6459C107.598 60.3428 107.219 59.912 106.947 59.3532C106.677 58.7945 106.542 58.1317 106.542 57.3646C106.542 56.7893 106.619 56.272 106.773 55.8128C106.929 55.3511 107.149 54.9581 107.433 54.6338C107.718 54.3095 108.054 54.0609 108.442 53.8881C108.83 53.7152 109.258 53.6288 109.724 53.6288C110.107 53.6288 110.465 53.6868 110.796 53.8028C111.13 53.9165 111.427 54.0786 111.688 54.2893C111.951 54.4977 112.17 54.7474 112.345 55.0386C112.52 55.3274 112.641 55.6482 112.707 56.001L111.798 56.001ZM120.025 53.7282L120.025 61.001L119.173 61.001L115.21 55.2907L115.139 55.2907L115.139 61.001L114.258 61.001L114.258 53.7282L115.11 53.7282L119.087 59.4527L119.158 59.4527L119.158 53.7282L120.025 53.7282ZM122.085 61.001L121.162 61.001L123.833 53.7282L124.742 53.7282L127.412 61.001L126.489 61.001L124.316 54.8788L124.259 54.8788L122.085 61.001ZM122.426 58.1601L126.148 58.1601L126.148 58.9413L122.426 58.9413L122.426 58.1601ZM127.298 54.5095L127.298 53.7282L132.752 53.7282L132.752 54.5095L130.465 54.5095L130.465 61.001L129.585 61.001L129.585 54.5095L127.298 54.5095ZM138.884 53.7282L139.765 53.7282L139.765 58.5436C139.765 59.0407 139.648 59.4846 139.413 59.8753C139.181 60.2635 138.853 60.5701 138.43 60.795C138.006 61.0175 137.509 61.1288 136.938 61.1288C136.368 61.1288 135.87 61.0175 135.447 60.795C135.023 60.5701 134.694 60.2635 134.459 59.8753C134.227 59.4846 134.111 59.0407 134.111 58.5436L134.111 53.7282L134.992 53.7282L134.992 58.4726C134.992 58.8277 135.07 59.1437 135.226 59.4207C135.383 59.6953 135.605 59.912 135.894 60.0706C136.185 60.2268 136.533 60.305 136.938 60.305C137.343 60.305 137.691 60.2268 137.982 60.0706C138.273 59.912 138.496 59.6953 138.65 59.4207C138.806 59.1437 138.884 58.8277 138.884 58.4726L138.884 53.7282ZM141.524 61.001L141.524 53.7282L143.981 53.7282C144.549 53.7282 145.015 53.8253 145.38 54.0194C145.745 54.2112 146.015 54.4752 146.19 54.8113C146.365 55.1475 146.452 55.5299 146.452 55.9584C146.452 56.3869 146.365 56.7668 146.19 57.0983C146.015 57.4297 145.746 57.6901 145.384 57.8795C145.021 58.0666 144.559 58.1601 143.995 58.1601L142.006 58.1601L142.006 57.3646L143.967 57.3646C144.355 57.3646 144.667 57.3078 144.904 57.1942C145.143 57.0805 145.316 56.9195 145.423 56.7112C145.532 56.5005 145.586 56.2496 145.586 55.9584C145.586 55.6672 145.532 55.4127 145.423 55.1949C145.314 54.9771 145.14 54.809 144.901 54.6906C144.662 54.5699 144.345 54.5095 143.952 54.5095L142.404 54.5095L142.404 61.001L141.524 61.001ZM144.947 57.7339L146.737 61.001L145.714 61.001L143.952 57.7339L144.947 57.7339ZM147.92 61.001L147.92 53.7282L152.309 53.7282L152.309 54.5095L148.801 54.5095L148.801 56.9669L152.082 56.9669L152.082 57.7481L148.801 57.7481L148.801 60.2197L152.366 60.2197L152.366 61.001L147.92 61.001Z" fill="#5B13B8"/>
<rect width="49" height="21" transform="translate(64.5 0.626953)" fill="#121212"/>
<path d="M80.5598 9.0815C80.5115 8.5957 80.2971 8.20934 79.9164 7.92241C79.5357 7.63548 79.057 7.49201 78.4803 7.49201C78.074 7.49201 77.7161 7.56161 77.4064 7.70082C77.0996 7.84002 76.8581 8.0332 76.682 8.28036C76.5087 8.52468 76.4221 8.80309 76.4221 9.11559C76.4221 9.3457 76.4718 9.54741 76.5712 9.7207C76.6706 9.894 76.8042 10.0431 76.9718 10.1681C77.1422 10.2903 77.3297 10.3954 77.5343 10.4835C77.7417 10.5716 77.9505 10.6454 78.1607 10.7051L79.0811 10.9693C79.3596 11.046 79.638 11.144 79.9164 11.2633C80.1948 11.3826 80.449 11.5332 80.6792 11.715C80.9121 11.894 81.0982 12.1142 81.2374 12.3755C81.3794 12.6341 81.4505 12.9451 81.4505 13.3088C81.4505 13.7747 81.3297 14.1937 81.0882 14.5659C80.8468 14.938 80.5002 15.2335 80.0485 15.4522C79.5968 15.6681 79.0556 15.7761 78.4249 15.7761C77.8311 15.7761 77.3155 15.6781 76.878 15.4821C76.4405 15.2832 76.0968 15.0091 75.8468 14.6596C75.5968 14.3102 75.4561 13.9054 75.4249 13.4451H76.2431C76.2715 13.7889 76.3851 14.0801 76.584 14.3187C76.7828 14.5574 77.0414 14.7392 77.3596 14.8642C77.6777 14.9863 78.0328 15.0474 78.4249 15.0474C78.8596 15.0474 79.2459 14.975 79.584 14.8301C79.9249 14.6824 80.1919 14.4778 80.3851 14.2164C80.5811 13.9522 80.6792 13.6454 80.6792 13.296C80.6792 13.0005 80.6025 12.7534 80.449 12.5545C80.2956 12.3528 80.0811 12.1838 79.8056 12.0474C79.5328 11.911 79.2161 11.7903 78.8553 11.6852L77.8113 11.3784C77.1266 11.1738 76.5953 10.8912 76.2175 10.5304C75.8397 10.1696 75.6507 9.70934 75.6507 9.14968C75.6507 8.68093 75.7757 8.269 76.0257 7.91388C76.2786 7.55593 76.6195 7.27752 77.0485 7.07866C77.4803 6.87695 77.9647 6.7761 78.5016 6.7761C79.0442 6.7761 79.5243 6.87553 79.9419 7.0744C80.3596 7.27326 80.6905 7.54741 80.9348 7.89684C81.182 8.24343 81.3141 8.63832 81.3311 9.0815H80.5598ZM85.7544 15.7633C85.1891 15.7633 84.6891 15.6199 84.2544 15.3329C83.8226 15.046 83.4846 14.6497 83.2402 14.144C82.9959 13.6355 82.8738 13.0488 82.8738 12.3841C82.8738 11.7136 82.9959 11.1241 83.2402 10.6156C83.4846 10.1042 83.8226 9.7065 84.2544 9.42241C84.6891 9.13548 85.1891 8.99201 85.7544 8.99201C86.3198 8.99201 86.8184 9.13548 87.2502 9.42241C87.682 9.70934 88.0201 10.1071 88.2644 10.6156C88.5115 11.1241 88.6351 11.7136 88.6351 12.3841C88.6351 13.0488 88.513 13.6355 88.2686 14.144C88.0243 14.6497 87.6848 15.046 87.2502 15.3329C86.8184 15.6199 86.3198 15.7633 85.7544 15.7633ZM85.7544 15.0687C86.209 15.0687 86.5939 14.9466 86.9093 14.7022C87.2246 14.4579 87.4632 14.1326 87.6252 13.7264C87.79 13.3201 87.8723 12.8727 87.8723 12.3841C87.8723 11.8954 87.79 11.4466 87.6252 11.0375C87.4632 10.6284 87.2246 10.3002 86.9093 10.0531C86.5939 9.80593 86.209 9.68235 85.7544 9.68235C85.3027 9.68235 84.9178 9.80593 84.5996 10.0531C84.2843 10.3002 84.0442 10.6284 83.8794 11.0375C83.7175 11.4466 83.6365 11.8954 83.6365 12.3841C83.6365 12.8727 83.7175 13.3201 83.8794 13.7264C84.0442 14.1326 84.2843 14.4579 84.5996 14.7022C84.915 14.9466 85.2999 15.0687 85.7544 15.0687ZM92.8443 15.7633C92.2789 15.7633 91.7789 15.6199 91.3443 15.3329C90.9125 15.046 90.5744 14.6497 90.3301 14.144C90.0858 13.6355 89.9636 13.0488 89.9636 12.3841C89.9636 11.7136 90.0858 11.1241 90.3301 10.6156C90.5744 10.1042 90.9125 9.7065 91.3443 9.42241C91.7789 9.13548 92.2789 8.99201 92.8443 8.99201C93.4096 8.99201 93.9082 9.13548 94.34 9.42241C94.7718 9.70934 95.1099 10.1071 95.3542 10.6156C95.6014 11.1241 95.725 11.7136 95.725 12.3841C95.725 13.0488 95.6028 13.6355 95.3585 14.144C95.1142 14.6497 94.7747 15.046 94.34 15.3329C93.9082 15.6199 93.4096 15.7633 92.8443 15.7633ZM92.8443 15.0687C93.2988 15.0687 93.6838 14.9466 93.9991 14.7022C94.3145 14.4579 94.5531 14.1326 94.715 13.7264C94.8798 13.3201 94.9622 12.8727 94.9622 12.3841C94.9622 11.8954 94.8798 11.4466 94.715 11.0375C94.5531 10.6284 94.3145 10.3002 93.9991 10.0531C93.6838 9.80593 93.2988 9.68235 92.8443 9.68235C92.3926 9.68235 92.0076 9.80593 91.6895 10.0531C91.3741 10.3002 91.1341 10.6284 90.9693 11.0375C90.8074 11.4466 90.7264 11.8954 90.7264 12.3841C90.7264 12.8727 90.8074 13.3201 90.9693 13.7264C91.1341 14.1326 91.3741 14.4579 91.6895 14.7022C92.0048 14.9466 92.3897 15.0687 92.8443 15.0687ZM98.1486 11.536V15.627H97.3901V9.0815H98.1273V10.1085H98.1955C98.3489 9.77326 98.5875 9.50479 98.9114 9.30309C99.2381 9.09854 99.6415 8.99627 100.122 8.99627C100.562 8.99627 100.948 9.0886 101.281 9.27326C101.616 9.45508 101.876 9.72354 102.061 10.0787C102.248 10.4338 102.342 10.8699 102.342 11.3869V15.627H101.583V11.4338C101.583 10.8968 101.433 10.4721 101.132 10.1596C100.833 9.84712 100.433 9.69087 99.9299 9.69087C99.5861 9.69087 99.2807 9.76474 99.0137 9.91246C98.7466 10.0602 98.535 10.2733 98.3787 10.5517C98.2253 10.8272 98.1486 11.1554 98.1486 11.536Z" fill="white"/>
</svg>
