<svg width="178" height="80" viewBox="0 0 178 80" fill="none" xmlns="http://www.w3.org/2000/svg">
<rect x="0.965551" y="10.9656" width="175.73" height="68.0689" rx="11.0344" stroke="white" stroke-opacity="0.1" stroke-width="1.9311"/>
<path d="M33.1178 50.5135C28.2191 50.5135 24.2419 46.5363 24.2419 41.6376C24.2419 36.7389 28.2191 32.7617 33.1178 32.7617C38.0165 32.7617 41.9937 36.7389 41.9937 41.6376C41.9937 46.5363 38.0165 50.5135 33.1178 50.5135ZM33.1178 35.979C29.9975 35.979 27.4593 38.5173 27.4593 41.6376C27.4593 44.7579 29.9975 47.2962 33.1178 47.2962C36.2381 47.2962 38.7764 44.7579 38.7764 41.6376C38.7764 38.5173 36.2381 35.979 33.1178 35.979Z" fill="#0D9032"/>
<path d="M38.7764 52.6963C38.7764 55.8166 36.2381 58.3549 33.1178 58.3549C29.9975 58.3549 27.4592 55.8166 27.4592 52.6963L24.2581 52.6963C24.2581 57.595 28.2352 61.5722 33.1339 61.5722C38.0327 61.5722 42.0098 57.595 42.0098 52.6963L38.7764 52.6963Z" fill="#0D9032"/>
<path d="M46.2782 35.4615L46.2782 28.4287L39.2454 28.4287L39.2454 31.355L43.3519 31.355L43.3519 35.4615L46.2782 35.4615Z" fill="#0D9032"/>
<path d="M72.2266 34.993C71.0949 33.9098 69.3973 33.2954 67.9261 33.2954C64.3046 33.2954 62.1058 36.0439 62.1058 39.5199C62.1058 42.3007 63.7226 45.1623 67.9261 45.1623C69.2518 45.1623 70.4159 44.8713 71.7416 43.8042L71.7416 40.8133L67.4249 40.8133L67.4249 37.984L74.6679 37.984L74.6679 45.0976C73.0027 47.0054 70.9009 48.1371 67.9261 48.1371C61.5723 48.1371 59.0017 43.9659 59.0017 39.5199C59.0017 34.7667 61.9765 30.3691 67.9261 30.3691C70.1895 30.3691 72.4691 31.2422 74.199 32.9559L72.2266 34.993Z" fill="white"/>
<path d="M94.4248 47.7656L90.6417 47.7656L85.7106 42.1231L82.6388 42.1231L82.6388 47.7656L79.4539 47.7656L79.4539 30.8545C82.1376 30.8545 84.8053 30.8868 87.489 30.8868C91.4662 30.9192 93.568 33.5706 93.568 36.4807C93.568 38.7927 92.5009 41.1369 89.2998 41.7836L94.4248 47.5554L94.4248 47.7656ZM82.655 33.8455L82.655 39.2454L87.5052 39.2454C89.5261 39.2454 90.3992 37.8873 90.3992 36.5454C90.3992 35.2035 89.51 33.8455 87.5052 33.8455L82.655 33.8455Z" fill="white"/>
<path d="M111.109 44.58L102.266 44.58L100.811 47.765L97.3508 47.765L104.933 30.8701L108.409 30.8701L115.992 47.765L112.516 47.765L111.109 44.58ZM106.696 34.4269L103.559 41.6214L109.832 41.6214L106.696 34.4269Z" fill="white"/>
<path d="M130.025 30.8545L133.21 30.8545L133.21 47.7817L131.238 47.7817L131.238 47.7979L122.346 36.3837L122.346 47.7817L119.161 47.7817L119.161 30.8707L121.747 30.8707L130.025 41.3471L130.025 30.8545Z" fill="white"/>
<path d="M153.419 39.1801C153.5 43.4483 150.881 47.7812 144.964 47.7812L138.319 47.7812L138.319 30.8701L144.964 30.8701C150.752 30.8701 153.338 34.9928 153.419 39.1801ZM141.488 44.7094L144.964 44.7094C148.795 44.7094 150.331 41.9124 150.25 39.164C150.17 36.5287 148.634 33.9096 144.964 33.9096L141.488 33.9096L141.488 44.7094Z" fill="white"/>
<path d="M85.6087 56.5464C85.5661 56.1866 85.3933 55.9072 85.0902 55.7084C84.7872 55.5095 84.4155 55.4101 83.9752 55.4101C83.6532 55.4101 83.3715 55.4622 83.13 55.5663C82.8909 55.6705 82.7039 55.8137 82.5689 55.996C82.4363 56.1783 82.3701 56.3854 82.3701 56.6175C82.3701 56.8116 82.4162 56.9785 82.5085 57.1182C82.6032 57.2555 82.724 57.3703 82.8708 57.4626C83.0175 57.5526 83.1714 57.6272 83.3324 57.6863C83.4934 57.7432 83.6414 57.7893 83.7763 57.8248L84.5149 58.0237C84.7043 58.0734 84.915 58.1421 85.147 58.2297C85.3814 58.3173 85.6051 58.4368 85.8182 58.5883C86.0336 58.7375 86.2112 58.9292 86.3509 59.1636C86.4906 59.398 86.5604 59.6856 86.5604 60.0265C86.5604 60.4195 86.4574 60.7747 86.2514 61.0919C86.0478 61.4091 85.7495 61.6613 85.3566 61.8483C84.9659 62.0353 84.4913 62.1288 83.9326 62.1288C83.4117 62.1288 82.9607 62.0448 82.5796 61.8767C82.2008 61.7086 81.9025 61.4742 81.6847 61.1736C81.4692 60.8729 81.3473 60.5237 81.3189 60.126L82.228 60.126C82.2517 60.4006 82.344 60.6279 82.505 60.8078C82.6683 60.9854 82.8743 61.1179 83.1229 61.2055C83.3738 61.2907 83.6437 61.3334 83.9326 61.3334C84.2687 61.3334 84.5706 61.2789 84.8381 61.17C85.1056 61.0587 85.3175 60.9049 85.4737 60.7084C85.63 60.5095 85.7081 60.2775 85.7081 60.0123C85.7081 59.7709 85.6406 59.5744 85.5057 59.4229C85.3708 59.2713 85.1932 59.1482 84.973 59.0535C84.7529 58.9588 84.5149 58.876 84.2593 58.805L83.3644 58.5493C82.7962 58.3859 82.3464 58.1527 82.0149 57.8497C81.6835 57.5467 81.5178 57.1501 81.5178 56.6601C81.5178 56.2529 81.6279 55.8978 81.848 55.5947C82.0706 55.2893 82.3689 55.0526 82.7429 54.8845C83.1193 54.714 83.5396 54.6288 84.0036 54.6288C84.4723 54.6288 84.889 54.7129 85.2536 54.8809C85.6182 55.0467 85.907 55.2739 86.1201 55.5628C86.3355 55.8516 86.4491 56.1795 86.461 56.5464L85.6087 56.5464ZM92.7811 54.7282L93.6618 54.7282L93.6618 59.5436C93.6618 60.0407 93.5446 60.4846 93.3102 60.8753C93.0782 61.2635 92.7503 61.5701 92.3265 61.795C91.9028 62.0175 91.4056 62.1288 90.8351 62.1288C90.2645 62.1288 89.7674 62.0175 89.3436 61.795C88.9198 61.5701 88.5908 61.2635 88.3564 60.8753C88.1244 60.4846 88.0084 60.0407 88.0084 59.5436L88.0084 54.7282L88.889 54.7282L88.889 59.4726C88.889 59.8277 88.9672 60.1437 89.1234 60.4207C89.2797 60.6953 89.5022 60.912 89.791 61.0706C90.0822 61.2268 90.4302 61.305 90.8351 61.305C91.2399 61.305 91.5879 61.2268 91.8791 61.0706C92.1703 60.912 92.3928 60.6953 92.5467 60.4207C92.703 60.1437 92.7811 59.8277 92.7811 59.4726L92.7811 54.7282ZM95.4205 62.001L95.4205 54.7282L97.8779 54.7282C98.4484 54.7282 98.9148 54.8312 99.277 55.0372C99.6416 55.2408 99.9115 55.5166 100.087 55.8646C100.262 56.2126 100.349 56.6009 100.349 57.0294C100.349 57.4579 100.262 57.8473 100.087 58.1977C99.9138 58.5481 99.6463 58.8274 99.2841 59.0358C98.9219 59.2417 98.4579 59.3447 97.8921 59.3447L96.1307 59.3447L96.1307 58.5635L97.8637 58.5635C98.2543 58.5635 98.568 58.496 98.8047 58.3611C99.0415 58.2261 99.2131 58.0438 99.3196 57.8142C99.4285 57.5822 99.483 57.3206 99.483 57.0294C99.483 56.7382 99.4285 56.4778 99.3196 56.2481C99.2131 56.0185 99.0403 55.8386 98.8012 55.7084C98.562 55.5758 98.2448 55.5095 97.8495 55.5095L96.3012 55.5095L96.3012 62.001L95.4205 62.001ZM101.768 62.001L101.768 54.7282L104.226 54.7282C104.796 54.7282 105.262 54.8312 105.625 55.0372C105.989 55.2408 106.259 55.5166 106.434 55.8646C106.61 56.2126 106.697 56.6009 106.697 57.0294C106.697 57.4579 106.61 57.8473 106.434 58.1977C106.262 58.5481 105.994 58.8274 105.632 59.0358C105.27 59.2417 104.806 59.3447 104.24 59.3447L102.478 59.3447L102.478 58.5635L104.211 58.5635C104.602 58.5635 104.916 58.496 105.152 58.3611C105.389 58.2261 105.561 58.0438 105.667 57.8142C105.776 57.5822 105.831 57.3206 105.831 57.0294C105.831 56.7382 105.776 56.4778 105.667 56.2481C105.561 56.0185 105.388 55.8386 105.149 55.7084C104.91 55.5758 104.592 55.5095 104.197 55.5095L102.649 55.5095L102.649 62.001L101.768 62.001ZM114.252 58.3646C114.252 59.1317 114.114 59.7945 113.837 60.3532C113.56 60.912 113.18 61.3428 112.697 61.6459C112.214 61.9489 111.662 62.1004 111.042 62.1004C110.422 62.1004 109.87 61.9489 109.387 61.6459C108.904 61.3428 108.524 60.912 108.247 60.3532C107.97 59.7945 107.832 59.1317 107.832 58.3646C107.832 57.5976 107.97 56.9347 108.247 56.376C108.524 55.8173 108.904 55.3864 109.387 55.0834C109.87 54.7803 110.422 54.6288 111.042 54.6288C111.662 54.6288 112.214 54.7803 112.697 55.0834C113.18 55.3864 113.56 55.8173 113.837 56.376C114.114 56.9347 114.252 57.5976 114.252 58.3646ZM113.4 58.3646C113.4 57.7349 113.295 57.2034 113.084 56.7702C112.875 56.3369 112.593 56.009 112.235 55.7865C111.88 55.5639 111.482 55.4527 111.042 55.4527C110.602 55.4527 110.203 55.5639 109.845 55.7865C109.49 56.009 109.207 56.3369 108.996 56.7702C108.788 57.2034 108.684 57.7349 108.684 58.3646C108.684 58.9943 108.788 59.5258 108.996 59.9591C109.207 60.3923 109.49 60.7202 109.845 60.9427C110.203 61.1653 110.602 61.2765 111.042 61.2765C111.482 61.2765 111.88 61.1653 112.235 60.9427C112.593 60.7202 112.875 60.3923 113.084 59.9591C113.295 59.5258 113.4 58.9943 113.4 58.3646ZM115.733 62.001L115.733 54.7282L118.19 54.7282C118.759 54.7282 119.225 54.8253 119.59 55.0194C119.954 55.2112 120.224 55.4752 120.399 55.8113C120.574 56.1475 120.662 56.5299 120.662 56.9584C120.662 57.3869 120.574 57.7668 120.399 58.0983C120.224 58.4297 119.955 58.6901 119.593 58.8795C119.231 59.0666 118.768 59.1601 118.205 59.1601L116.216 59.1601L116.216 58.3646L118.176 58.3646C118.564 58.3646 118.877 58.3078 119.114 58.1942C119.353 58.0805 119.526 57.9195 119.632 57.7112C119.741 57.5005 119.795 57.2496 119.795 56.9584C119.795 56.6672 119.741 56.4127 119.632 56.1949C119.523 55.9771 119.349 55.809 119.11 55.6906C118.871 55.5699 118.555 55.5095 118.162 55.5095L116.614 55.5095L116.614 62.001L115.733 62.001ZM119.156 58.7339L120.946 62.001L119.923 62.001L118.162 58.7339L119.156 58.7339ZM121.732 55.5095L121.732 54.7282L127.186 54.7282L127.186 55.5095L124.899 55.5095L124.899 62.001L124.019 62.001L124.019 55.5095L121.732 55.5095ZM130.96 55.5095L130.96 54.7282L136.415 54.7282L136.415 55.5095L134.128 55.5095L134.128 62.001L133.247 62.001L133.247 55.5095L130.96 55.5095ZM138.655 54.7282L138.655 62.001L137.774 62.001L137.774 54.7282L138.655 54.7282ZM146.273 57.001L145.392 57.001C145.34 56.7477 145.249 56.5251 145.119 56.3334C144.991 56.1416 144.835 55.9806 144.65 55.8504C144.468 55.7178 144.265 55.6184 144.043 55.5521C143.82 55.4858 143.588 55.4527 143.347 55.4527C142.906 55.4527 142.507 55.5639 142.15 55.7865C141.795 56.009 141.512 56.3369 141.301 56.7702C141.093 57.2034 140.989 57.7349 140.989 58.3646C140.989 58.9943 141.093 59.5258 141.301 59.9591C141.512 60.3923 141.795 60.7202 142.15 60.9427C142.507 61.1653 142.906 61.2765 143.347 61.2765C143.588 61.2765 143.82 61.2434 144.043 61.1771C144.265 61.1108 144.468 61.0126 144.65 60.8824C144.835 60.7498 144.991 60.5876 145.119 60.3959C145.249 60.2017 145.34 59.9792 145.392 59.7282L146.273 59.7282C146.206 60.0999 146.086 60.4326 145.911 60.7261C145.735 61.0197 145.518 61.2694 145.257 61.4754C144.997 61.679 144.704 61.8341 144.38 61.9406C144.058 62.0471 143.714 62.1004 143.347 62.1004C142.726 62.1004 142.175 61.9489 141.692 61.6459C141.209 61.3428 140.829 60.912 140.552 60.3532C140.275 59.7945 140.136 59.1317 140.136 58.3646C140.136 57.5976 140.275 56.9347 140.552 56.376C140.829 55.8173 141.209 55.3864 141.692 55.0834C142.175 54.7803 142.726 54.6288 143.347 54.6288C143.714 54.6288 144.058 54.6821 144.38 54.7886C144.704 54.8952 144.997 55.0514 145.257 55.2574C145.518 55.461 145.735 55.7095 145.911 56.0031C146.086 56.2943 146.206 56.6269 146.273 57.001ZM147.696 62.001L147.696 54.7282L148.577 54.7282L148.577 58.3362L148.662 58.3362L151.929 54.7282L153.079 54.7282L150.025 58.0095L153.079 62.001L152.014 62.001L149.486 58.6203L148.577 59.643L148.577 62.001L147.696 62.001Z" fill="#0D9032"/>
<rect width="49" height="21" transform="translate(64.5 0.626953)" fill="#121212"/>
<path d="M80.5598 9.0815C80.5115 8.5957 80.2971 8.20934 79.9164 7.92241C79.5357 7.63548 79.057 7.49201 78.4803 7.49201C78.074 7.49201 77.7161 7.56161 77.4064 7.70082C77.0996 7.84002 76.8581 8.0332 76.682 8.28036C76.5087 8.52468 76.4221 8.80309 76.4221 9.11559C76.4221 9.3457 76.4718 9.54741 76.5712 9.7207C76.6706 9.894 76.8042 10.0431 76.9718 10.1681C77.1422 10.2903 77.3297 10.3954 77.5343 10.4835C77.7417 10.5716 77.9505 10.6454 78.1607 10.7051L79.0811 10.9693C79.3596 11.046 79.638 11.144 79.9164 11.2633C80.1948 11.3826 80.449 11.5332 80.6792 11.715C80.9121 11.894 81.0982 12.1142 81.2374 12.3755C81.3794 12.6341 81.4505 12.9451 81.4505 13.3088C81.4505 13.7747 81.3297 14.1937 81.0882 14.5659C80.8468 14.938 80.5002 15.2335 80.0485 15.4522C79.5968 15.6681 79.0556 15.7761 78.4249 15.7761C77.8311 15.7761 77.3155 15.6781 76.878 15.4821C76.4405 15.2832 76.0968 15.0091 75.8468 14.6596C75.5968 14.3102 75.4561 13.9054 75.4249 13.4451H76.2431C76.2715 13.7889 76.3851 14.0801 76.584 14.3187C76.7828 14.5574 77.0414 14.7392 77.3596 14.8642C77.6777 14.9863 78.0328 15.0474 78.4249 15.0474C78.8596 15.0474 79.2459 14.975 79.584 14.8301C79.9249 14.6824 80.1919 14.4778 80.3851 14.2164C80.5811 13.9522 80.6792 13.6454 80.6792 13.296C80.6792 13.0005 80.6025 12.7534 80.449 12.5545C80.2956 12.3528 80.0811 12.1838 79.8056 12.0474C79.5328 11.911 79.2161 11.7903 78.8553 11.6852L77.8113 11.3784C77.1266 11.1738 76.5953 10.8912 76.2175 10.5304C75.8397 10.1696 75.6507 9.70934 75.6507 9.14968C75.6507 8.68093 75.7757 8.269 76.0257 7.91388C76.2786 7.55593 76.6195 7.27752 77.0485 7.07866C77.4803 6.87695 77.9647 6.7761 78.5016 6.7761C79.0442 6.7761 79.5243 6.87553 79.9419 7.0744C80.3596 7.27326 80.6905 7.54741 80.9348 7.89684C81.182 8.24343 81.3141 8.63832 81.3311 9.0815H80.5598ZM85.7544 15.7633C85.1891 15.7633 84.6891 15.6199 84.2544 15.3329C83.8226 15.046 83.4846 14.6497 83.2402 14.144C82.9959 13.6355 82.8738 13.0488 82.8738 12.3841C82.8738 11.7136 82.9959 11.1241 83.2402 10.6156C83.4846 10.1042 83.8226 9.7065 84.2544 9.42241C84.6891 9.13548 85.1891 8.99201 85.7544 8.99201C86.3198 8.99201 86.8184 9.13548 87.2502 9.42241C87.682 9.70934 88.0201 10.1071 88.2644 10.6156C88.5115 11.1241 88.6351 11.7136 88.6351 12.3841C88.6351 13.0488 88.513 13.6355 88.2686 14.144C88.0243 14.6497 87.6848 15.046 87.2502 15.3329C86.8184 15.6199 86.3198 15.7633 85.7544 15.7633ZM85.7544 15.0687C86.209 15.0687 86.5939 14.9466 86.9093 14.7022C87.2246 14.4579 87.4632 14.1326 87.6252 13.7264C87.79 13.3201 87.8723 12.8727 87.8723 12.3841C87.8723 11.8954 87.79 11.4466 87.6252 11.0375C87.4632 10.6284 87.2246 10.3002 86.9093 10.0531C86.5939 9.80593 86.209 9.68235 85.7544 9.68235C85.3027 9.68235 84.9178 9.80593 84.5996 10.0531C84.2843 10.3002 84.0442 10.6284 83.8794 11.0375C83.7175 11.4466 83.6365 11.8954 83.6365 12.3841C83.6365 12.8727 83.7175 13.3201 83.8794 13.7264C84.0442 14.1326 84.2843 14.4579 84.5996 14.7022C84.915 14.9466 85.2999 15.0687 85.7544 15.0687ZM92.8443 15.7633C92.2789 15.7633 91.7789 15.6199 91.3443 15.3329C90.9125 15.046 90.5744 14.6497 90.3301 14.144C90.0858 13.6355 89.9636 13.0488 89.9636 12.3841C89.9636 11.7136 90.0858 11.1241 90.3301 10.6156C90.5744 10.1042 90.9125 9.7065 91.3443 9.42241C91.7789 9.13548 92.2789 8.99201 92.8443 8.99201C93.4096 8.99201 93.9082 9.13548 94.34 9.42241C94.7718 9.70934 95.1099 10.1071 95.3542 10.6156C95.6014 11.1241 95.725 11.7136 95.725 12.3841C95.725 13.0488 95.6028 13.6355 95.3585 14.144C95.1142 14.6497 94.7747 15.046 94.34 15.3329C93.9082 15.6199 93.4096 15.7633 92.8443 15.7633ZM92.8443 15.0687C93.2988 15.0687 93.6838 14.9466 93.9991 14.7022C94.3145 14.4579 94.5531 14.1326 94.715 13.7264C94.8798 13.3201 94.9622 12.8727 94.9622 12.3841C94.9622 11.8954 94.8798 11.4466 94.715 11.0375C94.5531 10.6284 94.3145 10.3002 93.9991 10.0531C93.6838 9.80593 93.2988 9.68235 92.8443 9.68235C92.3926 9.68235 92.0076 9.80593 91.6895 10.0531C91.3741 10.3002 91.1341 10.6284 90.9693 11.0375C90.8074 11.4466 90.7264 11.8954 90.7264 12.3841C90.7264 12.8727 90.8074 13.3201 90.9693 13.7264C91.1341 14.1326 91.3741 14.4579 91.6895 14.7022C92.0048 14.9466 92.3897 15.0687 92.8443 15.0687ZM98.1486 11.536V15.627H97.3901V9.0815H98.1273V10.1085H98.1955C98.3489 9.77326 98.5875 9.50479 98.9114 9.30309C99.2381 9.09854 99.6415 8.99627 100.122 8.99627C100.562 8.99627 100.948 9.0886 101.281 9.27326C101.616 9.45508 101.876 9.72354 102.061 10.0787C102.248 10.4338 102.342 10.8699 102.342 11.3869V15.627H101.583V11.4338C101.583 10.8968 101.433 10.4721 101.132 10.1596C100.833 9.84712 100.433 9.69087 99.9299 9.69087C99.5861 9.69087 99.2807 9.76474 99.0137 9.91246C98.7466 10.0602 98.535 10.2733 98.3787 10.5517C98.2253 10.8272 98.1486 11.1554 98.1486 11.536Z" fill="white"/>
</svg>
