<svg width="178" height="80" viewBox="0 0 178 80" fill="none" xmlns="http://www.w3.org/2000/svg">
<rect x="0.965551" y="10.9656" width="175.73" height="68.0689" rx="11.0344" stroke="white" stroke-opacity="0.1" stroke-width="1.9311"/>
<path d="M33.1181 50.3514C28.2194 50.3514 24.2422 46.3742 24.2422 41.4755C24.2422 36.5768 28.2194 32.5996 33.1181 32.5996C38.0168 32.5996 41.994 36.5768 41.994 41.4755C41.994 46.3742 38.0168 50.3514 33.1181 50.3514ZM33.1181 35.8169C29.9978 35.8169 27.4595 38.3552 27.4595 41.4755C27.4595 44.5958 29.9978 47.1341 33.1181 47.1341C36.2384 47.1341 38.7767 44.5958 38.7767 41.4755C38.7767 38.3552 36.2384 35.8169 33.1181 35.8169Z" fill="#BF105C"/>
<path d="M38.7764 52.5176C38.7764 55.6379 35.7531 58.1762 32.6328 58.1762C29.5125 58.1762 27.4592 55.6379 27.4592 52.5176L24.2581 52.5176C24.2581 57.4163 27.7502 61.3935 32.6489 61.3935C37.5476 61.3935 42.0098 57.4163 42.0098 52.5176L38.7764 52.5176Z" fill="#BF105C"/>
<path d="M46.2782 35.2994L46.2782 28.2666L39.2454 28.2666L39.2454 31.1929L43.3519 31.1929L43.3519 35.2994L46.2782 35.2994Z" fill="#BF105C"/>
<path d="M72.2269 34.8309C71.0951 33.7477 69.3976 33.1333 67.9263 33.1333C64.3049 33.1333 62.1061 35.8818 62.1061 39.3578C62.1061 42.1385 63.7228 45.0002 67.9263 45.0002C69.2521 45.0002 70.4161 44.7092 71.7418 43.6421L71.7418 40.6512L67.4252 40.6512L67.4252 37.8219L74.6681 37.8219L74.6681 44.9355C73.0029 46.8433 70.9011 47.975 67.9263 47.975C61.5726 47.975 59.002 43.8038 59.002 39.3578C59.002 34.6046 61.9768 30.207 67.9263 30.207C70.1898 30.207 72.4694 31.0801 74.1993 32.7938L72.2269 34.8309Z" fill="white"/>
<path d="M94.4248 47.6035L90.6417 47.6035L85.7106 41.961L82.6388 41.961L82.6388 47.6035L79.4539 47.6035L79.4539 30.6924C82.1376 30.6924 84.8053 30.7247 87.489 30.7247C91.4662 30.7571 93.568 33.4085 93.568 36.3186C93.568 38.6306 92.5009 40.9748 89.2998 41.6215L94.4248 47.3933L94.4248 47.6035ZM82.655 33.6833L82.655 39.0832L87.5052 39.0832C89.5261 39.0832 90.3992 37.7252 90.3992 36.3833C90.3992 35.0414 89.51 33.6833 87.5052 33.6833L82.655 33.6833Z" fill="white"/>
<path d="M111.11 44.4179L102.266 44.4179L100.811 47.6029L97.3511 47.6029L104.934 30.708L108.41 30.708L115.992 47.6029L112.516 47.6029L111.11 44.4179ZM106.696 34.2648L103.559 41.4593L109.832 41.4593L106.696 34.2648Z" fill="white"/>
<path d="M130.025 30.6924L133.21 30.6924L133.21 47.6196L131.238 47.6196L131.238 47.6358L122.346 36.2216L122.346 47.6196L119.161 47.6196L119.161 30.7085L121.748 30.7085L130.025 41.185L130.025 30.6924Z" fill="white"/>
<path d="M153.419 39.018C153.5 43.2862 150.881 47.6191 144.964 47.6191L138.319 47.6191L138.319 30.708L144.964 30.708C150.752 30.708 153.339 34.8307 153.419 39.018ZM141.488 44.5311L144.964 44.5311C148.796 44.5311 150.331 41.7342 150.251 38.9857C150.17 36.3504 148.634 33.7313 144.964 33.7313L141.488 33.7313L141.488 44.5311Z" fill="white"/>
<path d="M102.441 54.5085L102.441 53.7273L107.896 53.7273L107.896 54.5085L105.609 54.5085L105.609 61L104.728 61L104.728 54.5085L102.441 54.5085ZM109.255 61L109.255 53.7273L111.713 53.7273C112.281 53.7273 112.747 53.8243 113.112 54.0185C113.476 54.2102 113.746 54.4742 113.921 54.8104C114.097 55.1465 114.184 55.5289 114.184 55.9574C114.184 56.3859 114.097 56.7659 113.921 57.0973C113.746 57.4287 113.477 57.6892 113.115 57.8786C112.753 58.0656 112.29 58.1591 111.727 58.1591L109.738 58.1591L109.738 57.3636L111.698 57.3636C112.087 57.3636 112.399 57.3068 112.636 57.1932C112.875 57.0795 113.048 56.9186 113.154 56.7102C113.263 56.4995 113.318 56.2486 113.318 55.9574C113.318 55.6662 113.263 55.4117 113.154 55.1939C113.045 54.9761 112.871 54.808 112.632 54.6896C112.393 54.5689 112.077 54.5085 111.684 54.5085L110.136 54.5085L110.136 61L109.255 61ZM112.678 57.733L114.468 61L113.446 61L111.684 57.733L112.678 57.733ZM115.95 61L115.027 61L117.697 53.7273L118.606 53.7273L121.277 61L120.353 61L118.18 54.8778L118.123 54.8778L115.95 61ZM116.291 58.1591L120.012 58.1591L120.012 58.9403L116.291 58.9403L116.291 58.1591ZM128.177 53.7273L128.177 61L127.324 61L123.361 55.2898L123.29 55.2898L123.29 61L122.409 61L122.409 53.7273L123.262 53.7273L127.239 59.4517L127.31 59.4517L127.31 53.7273L128.177 53.7273ZM133.916 55.5455C133.873 55.1856 133.701 54.9063 133.398 54.7074C133.095 54.5085 132.723 54.4091 132.283 54.4091C131.961 54.4091 131.679 54.4612 131.437 54.5653C131.198 54.6695 131.011 54.8127 130.876 54.995C130.744 55.1773 130.677 55.3845 130.677 55.6165C130.677 55.8106 130.724 55.9775 130.816 56.1172C130.911 56.2545 131.031 56.3693 131.178 56.4616C131.325 56.5516 131.479 56.6262 131.64 56.6854C131.801 56.7422 131.949 56.7884 132.084 56.8239L132.822 57.0227C133.012 57.0724 133.222 57.1411 133.454 57.2287C133.689 57.3163 133.913 57.4358 134.126 57.5874C134.341 57.7365 134.519 57.9283 134.658 58.1626C134.798 58.397 134.868 58.6847 134.868 59.0256C134.868 59.4186 134.765 59.7737 134.559 60.0909C134.355 60.4081 134.057 60.6603 133.664 60.8473C133.273 61.0343 132.799 61.1278 132.24 61.1278C131.719 61.1278 131.268 61.0438 130.887 60.8757C130.508 60.7076 130.21 60.4732 129.992 60.1726C129.777 59.8719 129.655 59.5227 129.626 59.125L130.535 59.125C130.559 59.3996 130.651 59.6269 130.812 59.8068C130.976 59.9844 131.182 60.117 131.43 60.2045C131.681 60.2898 131.951 60.3324 132.24 60.3324C132.576 60.3324 132.878 60.2779 133.145 60.169C133.413 60.0578 133.625 59.9039 133.781 59.7074C133.937 59.5085 134.015 59.2765 134.015 59.0114C134.015 58.7699 133.948 58.5734 133.813 58.4219C133.678 58.2704 133.501 58.1473 133.28 58.0526C133.06 57.9579 132.822 57.875 132.567 57.804L131.672 57.5483C131.104 57.3849 130.654 57.1518 130.322 56.8487C129.991 56.5457 129.825 56.1491 129.825 55.6591C129.825 55.2519 129.935 54.8968 130.155 54.5938C130.378 54.2884 130.676 54.0516 131.05 53.8835C131.427 53.7131 131.847 53.6278 132.311 53.6278C132.78 53.6278 133.196 53.7119 133.561 53.88C133.926 54.0457 134.214 54.273 134.427 54.5618C134.643 54.8506 134.756 55.1785 134.768 55.5455L133.916 55.5455ZM136.316 61L136.316 53.7273L140.677 53.7273L140.677 54.5085L137.196 54.5085L137.196 56.9659L140.35 56.9659L140.35 57.7472L137.196 57.7472L137.196 61L136.316 61ZM142.185 61L142.185 53.7273L146.574 53.7273L146.574 54.5085L143.066 54.5085L143.066 56.9659L146.347 56.9659L146.347 57.7472L143.066 57.7472L143.066 60.2188L146.631 60.2188L146.631 61L142.185 61ZM148.161 61L148.161 53.7273L150.619 53.7273C151.187 53.7273 151.653 53.8243 152.018 54.0185C152.383 54.2102 152.652 54.4742 152.828 54.8104C153.003 55.1465 153.09 55.5289 153.09 55.9574C153.09 56.3859 153.003 56.7659 152.828 57.0973C152.652 57.4287 152.384 57.6892 152.022 57.8786C151.659 58.0656 151.196 58.1591 150.633 58.1591L148.644 58.1591L148.644 57.3636L150.605 57.3636C150.993 57.3636 151.305 57.3068 151.542 57.1932C151.781 57.0795 151.954 56.9186 152.061 56.7102C152.169 56.4995 152.224 56.2486 152.224 55.9574C152.224 55.6662 152.169 55.4117 152.061 55.1939C151.952 54.9761 151.778 54.808 151.539 54.6896C151.299 54.5689 150.983 54.5085 150.59 54.5085L149.042 54.5085L149.042 61L148.161 61ZM151.585 57.733L153.375 61L152.352 61L150.59 57.733L151.585 57.733Z" fill="#BF105C"/>
<rect width="70" height="21" transform="translate(54 0.626953)" fill="#121212"/>
<path d="M65.4688 15.627H64.6335L67.8082 6.89968H68.6605L71.8352 15.627H71L68.2642 7.93519H68.2045L65.4688 15.627ZM66.0696 12.2818H70.3991V12.9977H66.0696V12.2818ZM77.4197 9.0815L75.0291 15.627H74.2195L71.8288 9.0815H72.6513L74.5945 14.6255H74.6541L76.5973 9.0815H77.4197ZM80.5327 15.7761C80.1378 15.7761 79.777 15.6994 79.4503 15.546C79.1236 15.3897 78.8636 15.1653 78.6705 14.8727C78.4773 14.5772 78.3807 14.2193 78.3807 13.7988C78.3807 13.475 78.4418 13.2022 78.5639 12.9806C78.6861 12.7591 78.8594 12.5772 79.0838 12.4352C79.3082 12.2931 79.5739 12.1809 79.8807 12.0985C80.1875 12.0162 80.5256 11.9522 80.8949 11.9068C81.2614 11.8613 81.571 11.8216 81.8239 11.7875C82.0795 11.7534 82.2741 11.6994 82.4077 11.6255C82.5412 11.5517 82.608 11.4324 82.608 11.2676V11.1142C82.608 10.6681 82.4744 10.3173 82.2074 10.0616C81.9432 9.80309 81.5625 9.67383 81.0653 9.67383C80.5938 9.67383 80.2088 9.77752 79.9105 9.98491C79.6151 10.1923 79.4077 10.4366 79.2884 10.7179L78.5682 10.4579C78.7159 10.1 78.9205 9.81445 79.1818 9.60138C79.4432 9.38548 79.7358 9.23065 80.0597 9.1369C80.3835 9.04031 80.7116 8.99201 81.044 8.99201C81.294 8.99201 81.554 9.02468 81.8239 9.09002C82.0966 9.15536 82.3494 9.269 82.5824 9.43093C82.8153 9.59002 83.0043 9.81303 83.1491 10.1C83.294 10.3841 83.3665 10.7449 83.3665 11.1824V15.627H82.608V14.5914H82.5611C82.4702 14.7846 82.3352 14.9721 82.1562 15.1539C81.9773 15.3358 81.7528 15.4849 81.483 15.6014C81.2131 15.7179 80.8963 15.7761 80.5327 15.7761ZM80.6349 15.0815C81.0384 15.0815 81.3878 14.992 81.6832 14.813C81.9787 14.6341 82.206 14.3968 82.3651 14.1014C82.527 13.8031 82.608 13.475 82.608 13.117V12.171C82.5511 12.225 82.456 12.2733 82.3224 12.3159C82.1918 12.3585 82.0398 12.3968 81.8665 12.4309C81.696 12.4622 81.5256 12.4892 81.3551 12.5119C81.1847 12.5346 81.0312 12.5545 80.8949 12.5716C80.5256 12.617 80.2102 12.688 79.9489 12.7846C79.6875 12.8812 79.4872 13.0147 79.348 13.1852C79.2088 13.3528 79.1392 13.5687 79.1392 13.8329C79.1392 14.2306 79.2812 14.5389 79.5653 14.7576C79.8494 14.9735 80.206 15.0815 80.6349 15.0815ZM85.3928 15.627V9.0815H86.1555V15.627H85.3928ZM85.7805 7.9565C85.6243 7.9565 85.4908 7.90394 85.38 7.79883C85.2692 7.69087 85.2138 7.56161 85.2138 7.41104C85.2138 7.26048 85.2692 7.13263 85.38 7.02752C85.4908 6.91957 85.6243 6.86559 85.7805 6.86559C85.9368 6.86559 86.0703 6.91957 86.1811 7.02752C86.2919 7.13263 86.3473 7.26048 86.3473 7.41104C86.3473 7.56161 86.2919 7.69087 86.1811 7.79883C86.0703 7.90394 85.9368 7.9565 85.7805 7.9565ZM88.9201 6.89968V15.627H88.1616V6.89968H88.9201ZM92.7553 15.7761C92.3604 15.7761 91.9996 15.6994 91.6729 15.546C91.3462 15.3897 91.0863 15.1653 90.8931 14.8727C90.6999 14.5772 90.6033 14.2193 90.6033 13.7988C90.6033 13.475 90.6644 13.2022 90.7866 12.9806C90.9087 12.7591 91.082 12.5772 91.3065 12.4352C91.5309 12.2931 91.7965 12.1809 92.1033 12.0985C92.4102 12.0162 92.7482 11.9522 93.1175 11.9068C93.484 11.8613 93.7937 11.8216 94.0465 11.7875C94.3022 11.7534 94.4968 11.6994 94.6303 11.6255C94.7638 11.5517 94.8306 11.4324 94.8306 11.2676V11.1142C94.8306 10.6681 94.6971 10.3173 94.43 10.0616C94.1658 9.80309 93.7852 9.67383 93.288 9.67383C92.8164 9.67383 92.4315 9.77752 92.1332 9.98491C91.8377 10.1923 91.6303 10.4366 91.511 10.7179L90.7908 10.4579C90.9386 10.1 91.1431 9.81445 91.4045 9.60138C91.6658 9.38548 91.9585 9.23065 92.2823 9.1369C92.6062 9.04031 92.9343 8.99201 93.2667 8.99201C93.5167 8.99201 93.7766 9.02468 94.0465 9.09002C94.3192 9.15536 94.5721 9.269 94.805 9.43093C95.038 9.59002 95.2269 9.81303 95.3718 10.1C95.5167 10.3841 95.5891 10.7449 95.5891 11.1824V15.627H94.8306V14.5914H94.7837C94.6928 14.7846 94.5579 14.9721 94.3789 15.1539C94.1999 15.3358 93.9755 15.4849 93.7056 15.6014C93.4357 15.7179 93.119 15.7761 92.7553 15.7761ZM92.8576 15.0815C93.261 15.0815 93.6104 14.992 93.9059 14.813C94.2013 14.6341 94.4286 14.3968 94.5877 14.1014C94.7496 13.8031 94.8306 13.475 94.8306 13.117V12.171C94.7738 12.225 94.6786 12.2733 94.5451 12.3159C94.4144 12.3585 94.2624 12.3968 94.0891 12.4309C93.9187 12.4622 93.7482 12.4892 93.5778 12.5119C93.4073 12.5346 93.2539 12.5545 93.1175 12.5716C92.7482 12.617 92.4329 12.688 92.1715 12.7846C91.9102 12.8812 91.7099 13.0147 91.5707 13.1852C91.4315 13.3528 91.3619 13.5687 91.3619 13.8329C91.3619 14.2306 91.5039 14.5389 91.788 14.7576C92.0721 14.9735 92.4286 15.0815 92.8576 15.0815ZM97.7646 15.627V6.89968H98.5273V10.3301H98.5955C98.6808 10.1341 98.8029 9.93235 98.962 9.72496C99.1239 9.51758 99.3356 9.34428 99.5969 9.20508C99.8612 9.06303 100.194 8.99201 100.594 8.99201C101.131 8.99201 101.603 9.13406 102.009 9.41815C102.415 9.6994 102.732 10.0943 102.959 10.6028C103.186 11.1085 103.3 11.698 103.3 12.3713C103.3 13.0474 103.186 13.6397 102.959 14.1483C102.735 14.6568 102.419 15.0531 102.013 15.3372C101.61 15.6213 101.141 15.7633 100.607 15.7633C100.209 15.7633 99.8768 15.6923 99.6097 15.5502C99.3455 15.4082 99.1325 15.2335 98.9705 15.0261C98.8086 14.8159 98.6836 14.6113 98.5955 14.4125H98.5018V15.627H97.7646ZM98.5146 12.3585C98.5146 12.8869 98.5927 13.3556 98.7489 13.7647C98.908 14.171 99.1353 14.4906 99.4308 14.7235C99.729 14.9537 100.09 15.0687 100.513 15.0687C100.948 15.0687 101.316 14.9494 101.617 14.7108C101.918 14.4693 102.147 14.144 102.303 13.7349C102.459 13.3258 102.537 12.867 102.537 12.3585C102.537 11.8556 102.459 11.4025 102.303 10.9991C102.15 10.5957 101.922 10.2761 101.621 10.0403C101.32 9.80167 100.951 9.68235 100.513 9.68235C100.087 9.68235 99.7248 9.79741 99.4265 10.0275C99.131 10.2548 98.9052 10.5701 98.7489 10.9735C98.5927 11.3741 98.5146 11.8358 98.5146 12.3585ZM105.725 6.89968V15.627H104.966V6.89968H105.725ZM110.378 15.7633C109.767 15.7633 109.239 15.6213 108.793 15.3372C108.347 15.0502 108.002 14.6539 107.757 14.1483C107.516 13.6397 107.395 13.0545 107.395 12.3926C107.395 11.7335 107.516 11.1483 107.757 10.6369C108.002 10.1227 108.338 9.7207 108.767 9.43093C109.199 9.13832 109.698 8.99201 110.263 8.99201C110.618 8.99201 110.961 9.05735 111.29 9.18803C111.62 9.31587 111.915 9.51332 112.176 9.78036C112.441 10.0446 112.65 10.3784 112.803 10.7818C112.956 11.1824 113.033 11.6568 113.033 12.2051V12.5801H107.919V11.911H112.257C112.257 11.4906 112.172 11.1127 112.002 10.7775C111.834 10.4395 111.6 10.1724 111.299 9.97638C111 9.78036 110.655 9.68235 110.263 9.68235C109.848 9.68235 109.483 9.79315 109.168 10.0147C108.853 10.2363 108.605 10.5289 108.426 10.8926C108.25 11.2562 108.161 11.6539 108.158 12.0858V12.4863C108.158 13.0062 108.248 13.4608 108.426 13.85C108.608 14.2363 108.865 14.536 109.198 14.7491C109.53 14.9622 109.924 15.0687 110.378 15.0687C110.688 15.0687 110.959 15.0204 111.192 14.9238C111.428 14.8272 111.625 14.698 111.784 14.536C111.946 14.3713 112.069 14.1909 112.151 13.9949L112.871 14.2292C112.772 14.5048 112.608 14.7591 112.381 14.992C112.157 15.225 111.875 15.4125 111.537 15.5545C111.202 15.6937 110.816 15.7633 110.378 15.7633Z" fill="#00A010"/>
</svg>
