<svg width="179" height="80" viewBox="0 0 179 80" fill="none" xmlns="http://www.w3.org/2000/svg">
<rect x="1.62693" y="10.9656" width="175.73" height="68.0689" rx="11.0344" stroke="white" stroke-opacity="0.1" stroke-width="1.9311"/>
<path d="M33.7792 50.5135C28.8805 50.5135 24.9033 46.5363 24.9033 41.6376C24.9033 36.7389 28.8805 32.7617 33.7792 32.7617C38.6779 32.7617 42.6551 36.7389 42.6551 41.6376C42.6551 46.5363 38.6779 50.5135 33.7792 50.5135ZM33.7792 35.979C30.6589 35.979 28.1206 38.5173 28.1206 41.6376C28.1206 44.7579 30.6589 47.2962 33.7792 47.2962C36.8995 47.2962 39.4378 44.7579 39.4378 41.6376C39.4378 38.5173 36.8995 35.979 33.7792 35.979Z" fill="#503A7D"/>
<path d="M39.4377 52.6963C39.4377 55.8166 36.8995 58.3549 33.7792 58.3549C30.6589 58.3549 28.1206 55.8166 28.1206 52.6963L24.9194 52.6963C24.9194 57.595 28.8966 61.5722 33.7953 61.5722C38.694 61.5722 42.6712 57.595 42.6712 52.6963L39.4377 52.6963Z" fill="#503A7D"/>
<path d="M46.9395 35.4615L46.9395 28.4287L39.9067 28.4287L39.9067 31.355L44.0132 31.355L44.0132 35.4615L46.9395 35.4615Z" fill="#503A7D"/>
<path d="M72.888 34.993C71.7563 33.9098 70.0587 33.2954 68.5875 33.2954C64.966 33.2954 62.7672 36.0439 62.7672 39.5199C62.7672 42.3007 64.384 45.1623 68.5875 45.1623C69.9132 45.1623 71.0772 44.8713 72.403 43.8042L72.403 40.8133L68.0863 40.8133L68.0863 37.984L75.3293 37.984L75.3293 45.0976C73.664 47.0054 71.5623 48.1371 68.5875 48.1371C62.2337 48.1371 59.6631 43.9659 59.6631 39.5199C59.6631 34.7667 62.6379 30.3691 68.5875 30.3691C70.8509 30.3691 73.1305 31.2422 74.8604 32.9559L72.888 34.993Z" fill="white"/>
<path d="M95.0857 47.7656L91.3026 47.7656L86.3715 42.1231L83.2997 42.1231L83.2997 47.7656L80.1147 47.7656L80.1147 30.8545C82.7985 30.8545 85.4661 30.8868 88.1499 30.8868C92.1271 30.9192 94.2289 33.5706 94.2289 36.4807C94.2289 38.7927 93.1618 41.1369 89.9607 41.7836L95.0857 47.5554L95.0857 47.7656ZM83.3159 33.8455L83.3159 39.2454L88.1661 39.2454C90.187 39.2454 91.0601 37.8873 91.0601 36.5454C91.0601 35.2035 90.1708 33.8455 88.1661 33.8455L83.3159 33.8455Z" fill="white"/>
<path d="M111.771 44.58L102.927 44.58L101.472 47.765L98.0122 47.765L105.595 30.8701L109.071 30.8701L116.653 47.765L113.177 47.765L111.771 44.58ZM107.357 34.4269L104.22 41.6214L110.493 41.6214L107.357 34.4269Z" fill="white"/>
<path d="M130.686 30.8545L133.871 30.8545L133.871 47.7817L131.899 47.7817L131.899 47.7979L123.007 36.3837L123.007 47.7817L119.822 47.7817L119.822 30.8707L122.409 30.8707L130.686 41.3471L130.686 30.8545Z" fill="white"/>
<path d="M154.081 39.1801C154.161 43.4483 151.542 47.7812 145.625 47.7812L138.98 47.7812L138.98 30.8701L145.625 30.8701C151.413 30.8701 154 34.9928 154.081 39.1801ZM142.149 44.7094L145.625 44.7094C149.457 44.7094 150.993 41.9124 150.912 39.164C150.831 36.5287 149.295 33.9096 145.625 33.9096L142.149 33.9096L142.149 44.7094Z" fill="white"/>
<path d="M61.6528 54.4745L63.6622 60.1723L63.7415 60.1723L65.751 54.4745L66.6103 54.4745L64.1249 61.2432L63.2788 61.2432L60.7935 54.4745L61.6528 54.4745ZM68.4842 54.4745L68.4842 61.2432L67.6646 61.2432L67.6646 54.4745L68.4842 54.4745ZM72.2164 61.2432L70.1277 61.2432L70.1277 54.4745L72.309 54.4745C72.9656 54.4745 73.5274 54.61 73.9945 54.881C74.4616 55.1498 74.8197 55.5365 75.0687 56.0411C75.3176 56.5434 75.4421 57.1449 75.4421 57.8456C75.4421 58.5507 75.3165 59.1577 75.0654 59.6667C74.8142 60.1734 74.4484 60.5634 73.9681 60.8366C73.4878 61.1077 72.9039 61.2432 72.2164 61.2432ZM70.9473 60.5161L72.1636 60.5161C72.7232 60.5161 73.187 60.4081 73.555 60.1922C73.9229 59.9762 74.1972 59.6689 74.3779 59.2701C74.5586 58.8713 74.6489 58.3964 74.6489 57.8456C74.6489 57.2992 74.5597 56.8288 74.3812 56.4344C74.2027 56.0378 73.9361 55.7337 73.5814 55.5222C73.2267 55.3085 72.7849 55.2016 72.2561 55.2016L70.9473 55.2016L70.9473 60.5161ZM76.817 61.2432L76.817 54.4745L80.902 54.4745L80.902 55.2016L77.6367 55.2016L77.6367 57.4887L80.6905 57.4887L80.6905 58.2158L77.6367 58.2158L77.6367 60.5161L80.9549 60.5161L80.9549 61.2432L76.817 61.2432ZM88.0904 57.8588C88.0904 58.5727 87.9615 59.1896 87.7037 59.7096C87.446 60.2296 87.0923 60.6306 86.6428 60.9127C86.1934 61.1947 85.68 61.3357 85.1027 61.3357C84.5254 61.3357 84.012 61.1947 83.5626 60.9127C83.1131 60.6306 82.7594 60.2296 82.5016 59.7096C82.2439 59.1896 82.115 58.5727 82.115 57.8588C82.115 57.1449 82.2439 56.528 82.5016 56.008C82.7594 55.488 83.1131 55.087 83.5626 54.805C84.012 54.523 84.5254 54.3819 85.1027 54.3819C85.68 54.3819 86.1934 54.523 86.6428 54.805C87.0923 55.087 87.446 55.488 87.7037 56.008C87.9615 56.528 88.0904 57.1449 88.0904 57.8588ZM87.2972 57.8588C87.2972 57.2727 87.1992 56.7781 87.0031 56.3749C86.8092 55.9717 86.5459 55.6665 86.2132 55.4594C85.8827 55.2523 85.5125 55.1487 85.1027 55.1487C84.6929 55.1487 84.3216 55.2523 83.9889 55.4594C83.6584 55.6665 83.3951 55.9717 83.199 56.3749C83.0051 56.7781 82.9082 57.2727 82.9082 57.8588C82.9082 58.4449 83.0051 58.9396 83.199 59.3428C83.3951 59.746 83.6584 60.0512 83.9889 60.2583C84.3216 60.4654 84.6929 60.5689 85.1027 60.5689C85.5125 60.5689 85.8827 60.4654 86.2132 60.2583C86.5459 60.0512 86.8092 59.746 87.0031 59.3428C87.1992 58.9396 87.2972 58.4449 87.2972 57.8588ZM97.5329 56.5897L96.7132 56.5897C96.6648 56.3539 96.5799 56.1468 96.4587 55.9684C96.3398 55.7899 96.1943 55.6401 96.0225 55.5189C95.8528 55.3955 95.6644 55.3029 95.4573 55.2413C95.2502 55.1796 95.0343 55.1487 94.8095 55.1487C94.3997 55.1487 94.0284 55.2523 93.6957 55.4594C93.3652 55.6665 93.1019 55.9717 92.9058 56.3749C92.712 56.7781 92.615 57.2727 92.615 57.8588C92.615 58.4449 92.712 58.9396 92.9058 59.3428C93.1019 59.746 93.3652 60.0512 93.6957 60.2583C94.0284 60.4654 94.3997 60.5689 94.8095 60.5689C95.0343 60.5689 95.2502 60.5381 95.4573 60.4764C95.6644 60.4147 95.8528 60.3233 96.0225 60.2021C96.1943 60.0787 96.3398 59.9278 96.4587 59.7493C96.5799 59.5686 96.6648 59.3615 96.7132 59.128L97.5329 59.128C97.4712 59.4739 97.3588 59.7834 97.1958 60.0567C97.0327 60.3299 96.83 60.5623 96.5876 60.754C96.3453 60.9435 96.0732 61.0878 95.7713 61.187C95.4716 61.2861 95.1511 61.3357 94.8095 61.3357C94.2323 61.3357 93.7189 61.1947 93.2694 60.9127C92.8199 60.6306 92.4663 60.2296 92.2085 59.7096C91.9507 59.1896 91.8218 58.5727 91.8218 57.8588C91.8218 57.1449 91.9507 56.528 92.2085 56.008C92.4663 55.488 92.8199 55.087 93.2694 54.805C93.7189 54.523 94.2323 54.3819 94.8095 54.3819C95.1511 54.3819 95.4716 54.4315 95.7713 54.5307C96.0732 54.6298 96.3453 54.7752 96.5876 54.9669C96.83 55.1564 97.0327 55.3878 97.1958 55.661C97.3588 55.932 97.4712 56.2416 97.5329 56.5897ZM104.568 57.8588C104.568 58.5727 104.44 59.1896 104.182 59.7096C103.924 60.2296 103.57 60.6306 103.121 60.9127C102.671 61.1947 102.158 61.3357 101.581 61.3357C101.003 61.3357 100.49 61.1947 100.041 60.9127C99.5911 60.6306 99.2374 60.2296 98.9796 59.7096C98.7219 59.1896 98.593 58.5727 98.593 57.8588C98.593 57.1449 98.7219 56.528 98.9796 56.008C99.2374 55.488 99.5911 55.087 100.041 54.805C100.49 54.523 101.003 54.3819 101.581 54.3819C102.158 54.3819 102.671 54.523 103.121 54.805C103.57 55.087 103.924 55.488 104.182 56.008C104.44 56.528 104.568 57.1449 104.568 57.8588ZM103.775 57.8588C103.775 57.2727 103.677 56.7781 103.481 56.3749C103.287 55.9717 103.024 55.6665 102.691 55.4594C102.361 55.2523 101.991 55.1487 101.581 55.1487C101.171 55.1487 100.8 55.2523 100.467 55.4594C100.136 55.6665 99.8731 55.9717 99.677 56.3749C99.4831 56.7781 99.3862 57.2727 99.3862 57.8588C99.3862 58.4449 99.4831 58.9396 99.677 59.3428C99.8731 59.746 100.136 60.0512 100.467 60.2583C100.8 60.4654 101.171 60.5689 101.581 60.5689C101.991 60.5689 102.361 60.4654 102.691 60.2583C103.024 60.0512 103.287 59.746 103.481 59.3428C103.677 58.9396 103.775 58.4449 103.775 57.8588ZM111.314 54.4745L111.314 61.2432L110.521 61.2432L106.832 55.9287L106.766 55.9287L106.766 61.2432L105.947 61.2432L105.947 54.4745L106.74 54.4745L110.441 59.8022L110.508 59.8022L110.508 54.4745L111.314 54.4745ZM112.954 61.2432L112.954 54.4745L117.013 54.4745L117.013 55.2016L113.774 55.2016L113.774 57.4887L116.709 57.4887L116.709 58.2158L113.774 58.2158L113.774 61.2432L112.954 61.2432ZM118.416 61.2432L118.416 54.4745L122.501 54.4745L122.501 55.2016L119.236 55.2016L119.236 57.4887L122.29 57.4887L122.29 58.2158L119.236 58.2158L119.236 60.5161L122.554 60.5161L122.554 61.2432L118.416 61.2432ZM123.979 61.2432L123.979 54.4745L126.266 54.4745C126.795 54.4745 127.229 54.5648 127.568 54.7455C127.907 54.924 128.159 55.1696 128.322 55.4825C128.485 55.7954 128.566 56.1512 128.566 56.55C128.566 56.9488 128.485 57.3025 128.322 57.6109C128.159 57.9194 127.908 58.1618 127.571 58.3381C127.234 58.5121 126.803 58.5991 126.279 58.5991L124.428 58.5991L124.428 57.8588L126.253 57.8588C126.614 57.8588 126.905 57.8059 127.125 57.7002C127.348 57.5944 127.509 57.4446 127.608 57.2507C127.709 57.0546 127.76 56.821 127.76 56.55C127.76 56.279 127.709 56.0422 127.608 55.8395C127.506 55.6368 127.344 55.4803 127.122 55.3701C126.899 55.2578 126.605 55.2016 126.239 55.2016L124.798 55.2016L124.798 61.2432L123.979 61.2432ZM127.165 58.2025L128.831 61.2432L127.879 61.2432L126.239 58.2025L127.165 58.2025ZM129.932 61.2432L129.932 54.4745L134.017 54.4745L134.017 55.2016L130.752 55.2016L130.752 57.4887L133.805 57.4887L133.805 58.2158L130.752 58.2158L130.752 60.5161L134.07 60.5161L134.07 61.2432L129.932 61.2432ZM140.862 54.4745L140.862 61.2432L140.068 61.2432L136.38 55.9287L136.314 55.9287L136.314 61.2432L135.494 61.2432L135.494 54.4745L136.288 54.4745L139.989 59.8022L140.055 59.8022L140.055 54.4745L140.862 54.4745ZM147.948 56.5897L147.129 56.5897C147.08 56.3539 146.995 56.1468 146.874 55.9684C146.755 55.7899 146.61 55.6401 146.438 55.5189C146.268 55.3955 146.08 55.3029 145.873 55.2413C145.666 55.1796 145.45 55.1487 145.225 55.1487C144.815 55.1487 144.444 55.2523 144.111 55.4594C143.781 55.6665 143.518 55.9717 143.321 56.3749C143.128 56.7781 143.031 57.2727 143.031 57.8588C143.031 58.4449 143.128 58.9396 143.321 59.3428C143.518 59.746 143.781 60.0512 144.111 60.2583C144.444 60.4654 144.815 60.5689 145.225 60.5689C145.45 60.5689 145.666 60.5381 145.873 60.4764C146.08 60.4147 146.268 60.3233 146.438 60.2021C146.61 60.0787 146.755 59.9278 146.874 59.7493C146.995 59.5686 147.08 59.3615 147.129 59.128L147.948 59.128C147.887 59.4739 147.774 59.7834 147.611 60.0567C147.448 60.3299 147.246 60.5623 147.003 60.754C146.761 60.9435 146.489 61.0878 146.187 61.187C145.887 61.2861 145.567 61.3357 145.225 61.3357C144.648 61.3357 144.134 61.1947 143.685 60.9127C143.235 60.6306 142.882 60.2296 142.624 59.7096C142.366 59.1896 142.237 58.5727 142.237 57.8588C142.237 57.1449 142.366 56.528 142.624 56.008C142.882 55.488 143.235 55.087 143.685 54.805C144.134 54.523 144.648 54.3819 145.225 54.3819C145.567 54.3819 145.887 54.4315 146.187 54.5307C146.489 54.6298 146.761 54.7752 147.003 54.9669C147.246 55.1564 147.448 55.3878 147.611 55.661C147.774 55.932 147.887 56.2416 147.948 56.5897ZM149.273 61.2432L149.273 54.4745L153.358 54.4745L153.358 55.2016L150.093 55.2016L150.093 57.4887L153.146 57.4887L153.146 58.2158L150.093 58.2158L150.093 60.5161L153.411 60.5161L153.411 61.2432L149.273 61.2432Z" fill="#503A7D"/>
<rect width="49" height="21" transform="translate(65.5002 0.626953)" fill="#121212"/>
<path d="M81.5601 9.0815C81.5118 8.5957 81.2973 8.20934 80.9166 7.92241C80.5359 7.63548 80.0572 7.49201 79.4805 7.49201C79.0743 7.49201 78.7163 7.56161 78.4067 7.70082C78.0999 7.84002 77.8584 8.0332 77.6822 8.28036C77.5089 8.52468 77.4223 8.80309 77.4223 9.11559C77.4223 9.3457 77.472 9.54741 77.5714 9.7207C77.6709 9.894 77.8044 10.0431 77.972 10.1681C78.1425 10.2903 78.33 10.3954 78.5345 10.4835C78.7419 10.5716 78.9507 10.6454 79.1609 10.7051L80.0814 10.9693C80.3598 11.046 80.6382 11.144 80.9166 11.2633C81.195 11.3826 81.4493 11.5332 81.6794 11.715C81.9124 11.894 82.0984 12.1142 82.2376 12.3755C82.3797 12.6341 82.4507 12.9451 82.4507 13.3088C82.4507 13.7747 82.33 14.1937 82.0885 14.5659C81.847 14.938 81.5004 15.2335 81.0487 15.4522C80.597 15.6681 80.0558 15.7761 79.4251 15.7761C78.8314 15.7761 78.3158 15.6781 77.8783 15.4821C77.4408 15.2832 77.097 15.0091 76.847 14.6596C76.597 14.3102 76.4564 13.9054 76.4251 13.4451H77.2433C77.2717 13.7889 77.3854 14.0801 77.5842 14.3187C77.7831 14.5574 78.0416 14.7392 78.3598 14.8642C78.678 14.9863 79.0331 15.0474 79.4251 15.0474C79.8598 15.0474 80.2462 14.975 80.5842 14.8301C80.9251 14.6824 81.1922 14.4778 81.3854 14.2164C81.5814 13.9522 81.6794 13.6454 81.6794 13.296C81.6794 13.0005 81.6027 12.7534 81.4493 12.5545C81.2959 12.3528 81.0814 12.1838 80.8058 12.0474C80.5331 11.911 80.2163 11.7903 79.8555 11.6852L78.8115 11.3784C78.1268 11.1738 77.5956 10.8912 77.2178 10.5304C76.8399 10.1696 76.651 9.70934 76.651 9.14968C76.651 8.68093 76.776 8.269 77.026 7.91388C77.2788 7.55593 77.6197 7.27752 78.0487 7.07866C78.4805 6.87695 78.9649 6.7761 79.5018 6.7761C80.0445 6.7761 80.5246 6.87553 80.9422 7.0744C81.3598 7.27326 81.6908 7.54741 81.9351 7.89684C82.1822 8.24343 82.3143 8.63832 82.3314 9.0815H81.5601ZM86.7547 15.7633C86.1893 15.7633 85.6893 15.6199 85.2547 15.3329C84.8229 15.046 84.4848 14.6497 84.2405 14.144C83.9962 13.6355 83.874 13.0488 83.874 12.3841C83.874 11.7136 83.9962 11.1241 84.2405 10.6156C84.4848 10.1042 84.8229 9.7065 85.2547 9.42241C85.6893 9.13548 86.1893 8.99201 86.7547 8.99201C87.32 8.99201 87.8186 9.13548 88.2504 9.42241C88.6822 9.70934 89.0203 10.1071 89.2646 10.6156C89.5118 11.1241 89.6354 11.7136 89.6354 12.3841C89.6354 13.0488 89.5132 13.6355 89.2689 14.144C89.0246 14.6497 88.6851 15.046 88.2504 15.3329C87.8186 15.6199 87.32 15.7633 86.7547 15.7633ZM86.7547 15.0687C87.2092 15.0687 87.5942 14.9466 87.9095 14.7022C88.2249 14.4579 88.4635 14.1326 88.6254 13.7264C88.7902 13.3201 88.8726 12.8727 88.8726 12.3841C88.8726 11.8954 88.7902 11.4466 88.6254 11.0375C88.4635 10.6284 88.2249 10.3002 87.9095 10.0531C87.5942 9.80593 87.2092 9.68235 86.7547 9.68235C86.303 9.68235 85.918 9.80593 85.5999 10.0531C85.2845 10.3002 85.0445 10.6284 84.8797 11.0375C84.7178 11.4466 84.6368 11.8954 84.6368 12.3841C84.6368 12.8727 84.7178 13.3201 84.8797 13.7264C85.0445 14.1326 85.2845 14.4579 85.5999 14.7022C85.9152 14.9466 86.3001 15.0687 86.7547 15.0687ZM93.8445 15.7633C93.2792 15.7633 92.7792 15.6199 92.3445 15.3329C91.9127 15.046 91.5746 14.6497 91.3303 14.144C91.086 13.6355 90.9638 13.0488 90.9638 12.3841C90.9638 11.7136 91.086 11.1241 91.3303 10.6156C91.5746 10.1042 91.9127 9.7065 92.3445 9.42241C92.7792 9.13548 93.2792 8.99201 93.8445 8.99201C94.4099 8.99201 94.9084 9.13548 95.3403 9.42241C95.7721 9.70934 96.1102 10.1071 96.3545 10.6156C96.6016 11.1241 96.7252 11.7136 96.7252 12.3841C96.7252 13.0488 96.603 13.6355 96.3587 14.144C96.1144 14.6497 95.7749 15.046 95.3403 15.3329C94.9084 15.6199 94.4099 15.7633 93.8445 15.7633ZM93.8445 15.0687C94.2991 15.0687 94.684 14.9466 94.9994 14.7022C95.3147 14.4579 95.5533 14.1326 95.7153 13.7264C95.88 13.3201 95.9624 12.8727 95.9624 12.3841C95.9624 11.8954 95.88 11.4466 95.7153 11.0375C95.5533 10.6284 95.3147 10.3002 94.9994 10.0531C94.684 9.80593 94.2991 9.68235 93.8445 9.68235C93.3928 9.68235 93.0079 9.80593 92.6897 10.0531C92.3744 10.3002 92.1343 10.6284 91.9695 11.0375C91.8076 11.4466 91.7266 11.8954 91.7266 12.3841C91.7266 12.8727 91.8076 13.3201 91.9695 13.7264C92.1343 14.1326 92.3744 14.4579 92.6897 14.7022C93.005 14.9466 93.39 15.0687 93.8445 15.0687ZM99.1489 11.536V15.627H98.3903V9.0815H99.1276V10.1085H99.1957C99.3491 9.77326 99.5878 9.50479 99.9116 9.30309C100.238 9.09854 100.642 8.99627 101.122 8.99627C101.562 8.99627 101.949 9.0886 102.281 9.27326C102.616 9.45508 102.876 9.72354 103.061 10.0787C103.248 10.4338 103.342 10.8699 103.342 11.3869V15.627H102.584V11.4338C102.584 10.8968 102.433 10.4721 102.132 10.1596C101.834 9.84712 101.433 9.69087 100.93 9.69087C100.586 9.69087 100.281 9.76474 100.014 9.91246C99.7469 10.0602 99.5352 10.2733 99.379 10.5517C99.2256 10.8272 99.1489 11.1554 99.1489 11.536Z" fill="white"/>
</svg>
