<svg width="179" height="80" viewBox="0 0 179 80" fill="none" xmlns="http://www.w3.org/2000/svg">
<rect x="1.62693" y="10.9656" width="175.73" height="68.0689" rx="11.0344" stroke="white" stroke-opacity="0.1" stroke-width="1.9311"/>
<path d="M29.5267 50.9348C24.2583 50.9348 19.9724 46.649 19.9724 41.3805C19.9724 36.112 24.2583 31.8262 29.5267 31.8262C34.7952 31.8262 39.081 36.112 39.081 41.3805C39.081 46.649 34.7952 50.9348 29.5267 50.9348ZM29.5267 35.2967C26.1712 35.2967 23.4429 38.025 23.4429 41.3805C23.4429 44.736 26.1712 47.4643 29.5267 47.4643C32.8822 47.4643 35.6106 44.736 35.6106 41.3805C35.6106 38.025 32.877 35.2967 29.5267 35.2967Z" fill="#0097D7"/>
<path d="M35.6106 53.2764C35.6106 56.6319 32.8822 59.3602 29.5267 59.3602C26.1712 59.3602 23.4429 56.6319 23.4429 53.2764L19.9724 53.2764C19.9724 58.5448 24.2583 62.8307 29.5267 62.8307C34.7952 62.8307 39.081 58.5448 39.081 53.2764L35.6106 53.2764Z" fill="#0097D7"/>
<path d="M43.6806 34.7319L43.6806 27.1689L36.1177 27.1689L36.1177 30.3206L40.529 30.3206L40.529 34.7319L43.6806 34.7319Z" fill="#0097D7"/>
<path d="M71.6117 34.2358C70.3886 33.0651 68.5698 32.417 66.9861 32.417C63.087 32.417 60.7246 35.3805 60.7246 39.1227C60.7246 42.1124 62.465 45.2013 66.9861 45.2013C68.413 45.2013 69.6621 44.8877 71.0942 43.7483L71.0942 40.5235L66.4425 40.5235L66.4425 37.4554L74.2407 37.4554L74.2407 45.1229C72.4479 47.177 70.1848 48.3948 66.9913 48.3948C60.1548 48.3948 57.3743 43.8999 57.3743 39.1175C57.3743 34.0006 60.573 29.2705 66.9913 29.2705C69.4322 29.2705 71.8782 30.2061 73.7494 32.0511L71.6169 34.2358L71.6117 34.2358Z" fill="white"/>
<path d="M95.5184 47.9815L91.4364 47.9815L86.1366 41.9029L82.8386 41.9029L82.8386 47.9815L79.4099 47.9815L79.4099 29.7666C82.295 29.7666 85.1801 29.7927 88.0652 29.7927C92.3511 29.8189 94.6142 32.6778 94.6142 35.8243C94.6142 38.3174 93.4696 40.8419 90.0148 41.5422L95.5237 47.7515L95.5237 47.9867L95.5184 47.9815ZM82.8386 32.9862L82.8386 38.8087L88.06 38.8087C90.2448 38.8087 91.1803 37.3557 91.1803 35.8975C91.1803 34.4392 90.2186 32.9862 88.06 32.9862L82.8386 32.9862Z" fill="white"/>
<path d="M113.482 44.553L103.97 44.553L102.412 47.9817L98.6963 47.9817L106.855 29.793L110.597 29.793L118.756 47.9817L115.014 47.9817L113.482 44.553ZM108.726 33.6137L105.35 41.3595L112.108 41.3595L108.731 33.6137L108.726 33.6137Z" fill="white"/>
<path d="M133.83 29.7666L137.259 29.7666L137.259 47.9815L135.126 47.9815L135.126 48.0076L125.561 35.7145L125.561 47.9815L122.133 47.9815L122.133 29.7927L124.913 29.7927L133.825 41.0718L133.825 29.7666L133.83 29.7666Z" fill="white"/>
<path d="M159.012 38.7305C159.09 43.33 156.284 47.9817 149.918 47.9817L142.773 47.9817L142.773 29.793L149.918 29.793C156.153 29.793 158.934 34.2356 159.012 38.7305ZM146.175 44.6837L149.918 44.6837C154.047 44.6837 155.688 41.6679 155.609 38.7044C155.531 35.8716 153.869 33.0387 149.918 33.0387L146.175 33.0387L146.175 44.6785L146.175 44.6837Z" fill="white"/>
<path d="M102.855 62L100.867 54.7273L101.762 54.7273L103.281 60.6506L103.352 60.6506L104.901 54.7273L105.895 54.7273L107.443 60.6506L107.514 60.6506L109.034 54.7273L109.929 54.7273L107.94 62L107.031 62L105.426 56.2045L105.369 56.2045L103.764 62L102.855 62ZM116.821 58.3636C116.821 59.1307 116.683 59.7936 116.406 60.3523C116.129 60.911 115.749 61.3419 115.266 61.6449C114.783 61.9479 114.231 62.0994 113.611 62.0994C112.991 62.0994 112.439 61.9479 111.956 61.6449C111.473 61.3419 111.093 60.911 110.816 60.3523C110.539 59.7936 110.401 59.1307 110.401 58.3636C110.401 57.5966 110.539 56.9337 110.816 56.375C111.093 55.8163 111.473 55.3854 111.956 55.0824C112.439 54.7794 112.991 54.6278 113.611 54.6278C114.231 54.6278 114.783 54.7794 115.266 55.0824C115.749 55.3854 116.129 55.8163 116.406 56.375C116.683 56.9337 116.821 57.5966 116.821 58.3636ZM115.969 58.3636C115.969 57.7339 115.863 57.2024 115.653 56.7692C115.444 56.3359 115.161 56.008 114.804 55.7855C114.449 55.563 114.051 55.4517 113.611 55.4517C113.17 55.4517 112.772 55.563 112.414 55.7855C112.059 56.008 111.776 56.3359 111.565 56.7692C111.357 57.2024 111.253 57.7339 111.253 58.3636C111.253 58.9934 111.357 59.5249 111.565 59.9581C111.776 60.3913 112.059 60.7192 112.414 60.9418C112.772 61.1643 113.17 61.2756 113.611 61.2756C114.051 61.2756 114.449 61.1643 114.804 60.9418C115.161 60.7192 115.444 60.3913 115.653 59.9581C115.863 59.5249 115.969 58.9934 115.969 58.3636ZM118.302 62L118.302 54.7273L120.759 54.7273C121.327 54.7273 121.794 54.8243 122.158 55.0185C122.523 55.2102 122.793 55.4742 122.968 55.8104C123.143 56.1465 123.231 56.5289 123.231 56.9574C123.231 57.3859 123.143 57.7659 122.968 58.0973C122.793 58.4287 122.524 58.6892 122.162 58.8786C121.8 59.0656 121.337 59.1591 120.773 59.1591L118.785 59.1591L118.785 58.3636L120.745 58.3636C121.133 58.3636 121.446 58.3068 121.683 58.1932C121.922 58.0795 122.094 57.9186 122.201 57.7102C122.31 57.4995 122.364 57.2486 122.364 56.9574C122.364 56.6662 122.31 56.4117 122.201 56.1939C122.092 55.9761 121.918 55.808 121.679 55.6896C121.44 55.5689 121.124 55.5085 120.731 55.5085L119.183 55.5085L119.183 62L118.302 62ZM121.725 58.733L123.515 62L122.492 62L120.731 58.733L121.725 58.733ZM124.698 62L124.698 54.7273L125.579 54.7273L125.579 58.3352L125.664 58.3352L128.931 54.7273L130.082 54.7273L127.028 58.0085L130.082 62L129.016 62L126.488 58.6193L125.579 59.642L125.579 62L124.698 62ZM131.222 62L131.222 54.7273L135.583 54.7273L135.583 55.5085L132.102 55.5085L132.102 57.9659L135.256 57.9659L135.256 58.7472L132.102 58.7472L132.102 62L131.222 62ZM137.091 62L137.091 54.7273L137.972 54.7273L137.972 61.2188L141.352 61.2188L141.352 62L137.091 62ZM148.569 58.3636C148.569 59.1307 148.431 59.7936 148.154 60.3523C147.877 60.911 147.497 61.3419 147.014 61.6449C146.531 61.9479 145.979 62.0994 145.359 62.0994C144.739 62.0994 144.187 61.9479 143.704 61.6449C143.221 61.3419 142.841 60.911 142.564 60.3523C142.287 59.7936 142.149 59.1307 142.149 58.3636C142.149 57.5966 142.287 56.9337 142.564 56.375C142.841 55.8163 143.221 55.3854 143.704 55.0824C144.187 54.7794 144.739 54.6278 145.359 54.6278C145.979 54.6278 146.531 54.7794 147.014 55.0824C147.497 55.3854 147.877 55.8163 148.154 56.375C148.431 56.9337 148.569 57.5966 148.569 58.3636ZM147.717 58.3636C147.717 57.7339 147.611 57.2024 147.401 56.7692C147.192 56.3359 146.909 56.008 146.552 55.7855C146.197 55.563 145.799 55.4517 145.359 55.4517C144.918 55.4517 144.52 55.563 144.162 55.7855C143.807 56.008 143.524 56.3359 143.313 56.7692C143.105 57.2024 143.001 57.7339 143.001 58.3636C143.001 58.9934 143.105 59.5249 143.313 59.9581C143.524 60.3913 143.807 60.7192 144.162 60.9418C144.52 61.1643 144.918 61.2756 145.359 61.2756C145.799 61.2756 146.197 61.1643 146.552 60.9418C146.909 60.7192 147.192 60.3913 147.401 59.9581C147.611 59.5249 147.717 58.9934 147.717 58.3636ZM151.371 62L149.382 54.7273L150.277 54.7273L151.797 60.6506L151.868 60.6506L153.416 54.7273L154.411 54.7273L155.959 60.6506L156.03 60.6506L157.55 54.7273L158.445 54.7273L156.456 62L155.547 62L153.942 56.2045L153.885 56.2045L152.28 62L151.371 62Z" fill="#0097D7"/>
<rect width="49" height="21" transform="translate(65.5002 0.626953)" fill="#121212"/>
<path d="M81.5601 9.0815C81.5118 8.5957 81.2973 8.20934 80.9166 7.92241C80.5359 7.63548 80.0572 7.49201 79.4805 7.49201C79.0743 7.49201 78.7163 7.56161 78.4067 7.70082C78.0999 7.84002 77.8584 8.0332 77.6822 8.28036C77.5089 8.52468 77.4223 8.80309 77.4223 9.11559C77.4223 9.3457 77.472 9.54741 77.5714 9.7207C77.6709 9.894 77.8044 10.0431 77.972 10.1681C78.1425 10.2903 78.33 10.3954 78.5345 10.4835C78.7419 10.5716 78.9507 10.6454 79.1609 10.7051L80.0814 10.9693C80.3598 11.046 80.6382 11.144 80.9166 11.2633C81.195 11.3826 81.4493 11.5332 81.6794 11.715C81.9124 11.894 82.0984 12.1142 82.2376 12.3755C82.3797 12.6341 82.4507 12.9451 82.4507 13.3088C82.4507 13.7747 82.33 14.1937 82.0885 14.5659C81.847 14.938 81.5004 15.2335 81.0487 15.4522C80.597 15.6681 80.0558 15.7761 79.4251 15.7761C78.8314 15.7761 78.3158 15.6781 77.8783 15.4821C77.4408 15.2832 77.097 15.0091 76.847 14.6596C76.597 14.3102 76.4564 13.9054 76.4251 13.4451H77.2433C77.2717 13.7889 77.3854 14.0801 77.5842 14.3187C77.7831 14.5574 78.0416 14.7392 78.3598 14.8642C78.678 14.9863 79.0331 15.0474 79.4251 15.0474C79.8598 15.0474 80.2462 14.975 80.5842 14.8301C80.9251 14.6824 81.1922 14.4778 81.3854 14.2164C81.5814 13.9522 81.6794 13.6454 81.6794 13.296C81.6794 13.0005 81.6027 12.7534 81.4493 12.5545C81.2959 12.3528 81.0814 12.1838 80.8058 12.0474C80.5331 11.911 80.2163 11.7903 79.8555 11.6852L78.8115 11.3784C78.1268 11.1738 77.5956 10.8912 77.2178 10.5304C76.8399 10.1696 76.651 9.70934 76.651 9.14968C76.651 8.68093 76.776 8.269 77.026 7.91388C77.2788 7.55593 77.6197 7.27752 78.0487 7.07866C78.4805 6.87695 78.9649 6.7761 79.5018 6.7761C80.0445 6.7761 80.5246 6.87553 80.9422 7.0744C81.3598 7.27326 81.6908 7.54741 81.9351 7.89684C82.1822 8.24343 82.3143 8.63832 82.3314 9.0815H81.5601ZM86.7547 15.7633C86.1893 15.7633 85.6893 15.6199 85.2547 15.3329C84.8229 15.046 84.4848 14.6497 84.2405 14.144C83.9962 13.6355 83.874 13.0488 83.874 12.3841C83.874 11.7136 83.9962 11.1241 84.2405 10.6156C84.4848 10.1042 84.8229 9.7065 85.2547 9.42241C85.6893 9.13548 86.1893 8.99201 86.7547 8.99201C87.32 8.99201 87.8186 9.13548 88.2504 9.42241C88.6822 9.70934 89.0203 10.1071 89.2646 10.6156C89.5118 11.1241 89.6354 11.7136 89.6354 12.3841C89.6354 13.0488 89.5132 13.6355 89.2689 14.144C89.0246 14.6497 88.6851 15.046 88.2504 15.3329C87.8186 15.6199 87.32 15.7633 86.7547 15.7633ZM86.7547 15.0687C87.2092 15.0687 87.5942 14.9466 87.9095 14.7022C88.2249 14.4579 88.4635 14.1326 88.6254 13.7264C88.7902 13.3201 88.8726 12.8727 88.8726 12.3841C88.8726 11.8954 88.7902 11.4466 88.6254 11.0375C88.4635 10.6284 88.2249 10.3002 87.9095 10.0531C87.5942 9.80593 87.2092 9.68235 86.7547 9.68235C86.303 9.68235 85.918 9.80593 85.5999 10.0531C85.2845 10.3002 85.0445 10.6284 84.8797 11.0375C84.7178 11.4466 84.6368 11.8954 84.6368 12.3841C84.6368 12.8727 84.7178 13.3201 84.8797 13.7264C85.0445 14.1326 85.2845 14.4579 85.5999 14.7022C85.9152 14.9466 86.3001 15.0687 86.7547 15.0687ZM93.8445 15.7633C93.2792 15.7633 92.7792 15.6199 92.3445 15.3329C91.9127 15.046 91.5746 14.6497 91.3303 14.144C91.086 13.6355 90.9638 13.0488 90.9638 12.3841C90.9638 11.7136 91.086 11.1241 91.3303 10.6156C91.5746 10.1042 91.9127 9.7065 92.3445 9.42241C92.7792 9.13548 93.2792 8.99201 93.8445 8.99201C94.4099 8.99201 94.9084 9.13548 95.3403 9.42241C95.7721 9.70934 96.1102 10.1071 96.3545 10.6156C96.6016 11.1241 96.7252 11.7136 96.7252 12.3841C96.7252 13.0488 96.603 13.6355 96.3587 14.144C96.1144 14.6497 95.7749 15.046 95.3403 15.3329C94.9084 15.6199 94.4099 15.7633 93.8445 15.7633ZM93.8445 15.0687C94.2991 15.0687 94.684 14.9466 94.9994 14.7022C95.3147 14.4579 95.5533 14.1326 95.7153 13.7264C95.88 13.3201 95.9624 12.8727 95.9624 12.3841C95.9624 11.8954 95.88 11.4466 95.7153 11.0375C95.5533 10.6284 95.3147 10.3002 94.9994 10.0531C94.684 9.80593 94.2991 9.68235 93.8445 9.68235C93.3928 9.68235 93.0079 9.80593 92.6897 10.0531C92.3744 10.3002 92.1343 10.6284 91.9695 11.0375C91.8076 11.4466 91.7266 11.8954 91.7266 12.3841C91.7266 12.8727 91.8076 13.3201 91.9695 13.7264C92.1343 14.1326 92.3744 14.4579 92.6897 14.7022C93.005 14.9466 93.39 15.0687 93.8445 15.0687ZM99.1489 11.536V15.627H98.3903V9.0815H99.1276V10.1085H99.1957C99.3491 9.77326 99.5878 9.50479 99.9116 9.30309C100.238 9.09854 100.642 8.99627 101.122 8.99627C101.562 8.99627 101.949 9.0886 102.281 9.27326C102.616 9.45508 102.876 9.72354 103.061 10.0787C103.248 10.4338 103.342 10.8699 103.342 11.3869V15.627H102.584V11.4338C102.584 10.8968 102.433 10.4721 102.132 10.1596C101.834 9.84712 101.433 9.69087 100.93 9.69087C100.586 9.69087 100.281 9.76474 100.014 9.91246C99.7469 10.0602 99.5352 10.2733 99.379 10.5517C99.2256 10.8272 99.1489 11.1554 99.1489 11.536Z" fill="white"/>
</svg>
