<svg width="150" height="70" viewBox="0 0 179 80" fill="none" xmlns="http://www.w3.org/2000/svg">
<rect x="1.62668" y="10.9656" width="175.73" height="68.0689" rx="11.0344" stroke="black" stroke-opacity="0.1" stroke-width="1.9311"/>
<path d="M33.779 50.513C28.8802 50.513 24.9031 46.5358 24.9031 41.6371C24.9031 36.7384 28.8802 32.7612 33.779 32.7612C38.6777 32.7612 42.6548 36.7384 42.6548 41.6371C42.6548 46.5358 38.6777 50.513 33.779 50.513ZM33.779 35.9785C30.6587 35.9785 28.1204 38.5168 28.1204 41.6371C28.1204 44.7574 30.6587 47.2957 33.779 47.2957C36.8993 47.2957 39.4375 44.7574 39.4375 41.6371C39.4375 38.5168 36.8993 35.9785 33.779 35.9785Z" fill="#860D90"/>
<path d="M39.4375 52.6953C39.4375 55.8156 36.8992 58.3539 33.7789 58.3539C30.6586 58.3539 28.1203 55.8156 28.1203 52.6953L24.9192 52.6953C24.9192 57.594 28.8964 61.5712 33.7951 61.5712C38.6938 61.5712 42.671 57.594 42.671 52.6953L39.4375 52.6953Z" fill="#860D90"/>
<path d="M46.9393 35.461L46.9393 28.4282L39.9065 28.4282L39.9065 31.3545L44.013 31.3545L44.013 35.461L46.9393 35.461Z" fill="#860D90"/>
<path d="M72.8877 34.992C71.756 33.9088 70.0585 33.2945 68.5872 33.2945C64.9657 33.2945 62.767 36.0429 62.767 39.5189C62.767 42.2997 64.3837 45.1613 68.5872 45.1613C69.913 45.1613 71.077 44.8703 72.4027 43.8032L72.4027 40.8123L68.086 40.8123L68.086 37.983L75.329 37.983L75.329 45.0966C73.6638 47.0044 71.562 48.1361 68.5872 48.1361C62.2335 48.1361 59.6628 43.9649 59.6628 39.5189C59.6628 34.7657 62.6376 30.3682 68.5872 30.3682C70.8507 30.3682 73.1303 31.2412 74.8602 32.9549L72.8877 34.992Z" fill="black"/>
<path d="M95.086 47.7641L91.3028 47.7641L86.3718 42.1217L83.3 42.1217L83.3 47.7641L80.115 47.7641L80.115 30.853C82.7988 30.853 85.4664 30.8854 88.1502 30.8854C92.1273 30.9177 94.2291 33.5691 94.2291 36.4793C94.2291 38.7912 93.1621 41.1355 89.9609 41.7822L95.086 47.5539L95.086 47.7641ZM83.3161 33.844L83.3161 39.2439L88.1663 39.2439C90.1873 39.2439 91.0603 37.8858 91.0603 36.5439C91.0603 35.202 90.1711 33.844 88.1663 33.844L83.3161 33.844Z" fill="black"/>
<path d="M111.77 44.5791L102.927 44.5791L101.472 47.764L98.012 47.764L105.594 30.8691L109.07 30.8691L116.653 47.764L113.177 47.764L111.77 44.5791ZM107.357 34.426L104.22 41.6204L110.493 41.6204L107.357 34.426Z" fill="black"/>
<path d="M130.686 30.853L133.871 30.853L133.871 47.7803L131.899 47.7803L131.899 47.7964L123.007 36.3823L123.007 47.7803L119.822 47.7803L119.822 30.8692L122.409 30.8692L130.686 41.3456L130.686 30.853Z" fill="black"/>
<path d="M154.08 39.1792C154.161 43.4474 151.542 47.7802 145.625 47.7802L138.98 47.7802L138.98 30.8691L145.625 30.8691C151.413 30.8691 153.999 34.9918 154.08 39.1792ZM142.149 44.7084L145.625 44.7084C149.456 44.7084 150.992 41.9115 150.912 39.163C150.831 36.5277 149.295 33.9086 145.625 33.9086L142.149 33.9086L142.149 44.7084Z" fill="black"/>
<path d="M97.8989 61.5064C96.7671 61.5064 95.8941 61.1669 95.2797 60.5041C94.6654 59.825 94.3582 59.0167 94.342 58.0305C94.342 57.3999 94.4552 56.8341 94.7139 56.3005C94.9726 55.7832 95.3606 55.3467 95.9264 54.991C96.4761 54.6515 97.139 54.4736 97.8989 54.4736C98.8689 54.4736 99.6934 54.8131 100.389 55.4922L99.8066 56.0419C99.2893 55.5407 98.6587 55.282 97.8989 55.282C97.0258 55.282 96.363 55.5407 95.8941 56.0742C95.4253 56.6077 95.1827 57.2544 95.1989 58.0143C95.2151 58.7742 95.4414 59.4047 95.9103 59.922C96.3791 60.4394 97.042 60.6981 97.915 60.6981C98.6749 60.6981 99.3216 60.4394 99.8551 59.9059L100.453 60.4879C99.7581 61.1669 98.9174 61.5064 97.8989 61.5064Z" fill="#860D90"/>
<path d="M105.676 54.5708L108.731 61.3934L107.81 61.3934L107.131 59.8899L103.234 59.8899L102.571 61.3934L101.65 61.3934L104.706 54.5708L105.676 54.5708ZM105.191 55.4438L103.574 59.13L106.807 59.13L105.191 55.4438Z" fill="#860D90"/>
<path d="M111.431 60.6012L115.15 60.6012L115.15 61.3934L110.591 61.3934L110.591 54.5708L111.431 54.5708L111.431 60.6012Z" fill="#860D90"/>
<path d="M116.993 54.5708L121.778 54.5708L121.778 55.3468L117.817 55.3468L117.817 57.4809L121.6 57.4809L121.6 58.2731L117.817 58.2731L117.817 60.5851L121.924 60.5851L121.924 61.3934L116.977 61.3934L116.977 54.5708L116.993 54.5708Z" fill="#860D90"/>
<path d="M124.705 54.5708L128.876 59.7929L128.876 54.5708L129.717 54.5708L129.717 61.3934L129.135 61.3934L124.947 56.1875L124.947 61.3934L124.106 61.3934L124.106 54.5708L124.705 54.5708Z" fill="#860D90"/>
<path d="M132.319 54.5708L134.809 54.5708C135.375 54.5708 135.876 54.6678 136.313 54.8618C136.749 55.0558 137.121 55.2983 137.396 55.6217C137.671 55.945 137.881 56.3007 138.026 56.6887C138.172 57.0767 138.237 57.4971 138.237 57.9174C138.237 58.3378 138.172 58.7905 138.026 59.1947C137.897 59.5989 137.687 59.9707 137.412 60.3102C137.137 60.6497 136.782 60.9084 136.329 61.1024C135.876 61.2964 135.359 61.3934 134.793 61.3934L132.303 61.3934L132.303 54.5708L132.319 54.5708ZM136.717 59.7605C137.153 59.2432 137.38 58.6126 137.38 57.9013C137.38 57.1899 137.153 56.6241 136.701 56.1229C136.248 55.6217 135.618 55.3792 134.793 55.3792L133.16 55.3792L133.16 60.5366L134.793 60.5366C135.65 60.5527 136.28 60.2941 136.717 59.7605Z" fill="#860D90"/>
<path d="M143.378 54.5708L146.433 61.3934L145.512 61.3934L144.833 59.8899L140.936 59.8899L140.274 61.3934L139.352 61.3934L142.408 54.5708L143.378 54.5708ZM142.893 55.4438L141.276 59.13L144.509 59.13L142.893 55.4438Z" fill="#860D90"/>
<path d="M150.782 58.936L149.133 58.936L149.133 61.3934L148.293 61.3934L148.293 54.5708L151.397 54.5708C152.124 54.5708 152.69 54.781 153.094 55.2175C153.499 55.654 153.709 56.1552 153.709 56.7534C153.709 57.3031 153.563 57.7881 153.224 58.1923C152.884 58.5965 152.399 58.8228 151.736 58.8713L153.984 61.3934L152.917 61.3934L150.782 58.936ZM152.464 57.7881C152.723 57.5294 152.852 57.1899 152.852 56.7857C152.852 56.4139 152.739 56.0744 152.48 55.7834C152.221 55.4923 151.866 55.3468 151.397 55.3468L149.15 55.3468L149.15 58.1923L151.365 58.1923C151.833 58.1761 152.205 58.0468 152.464 57.7881Z" fill="#860D90"/>
<rect width="70" height="21" transform="translate(55 0.626953)" fill="white"/>
<path d="M66.4688 15.627H65.6335L68.8082 6.89968H69.6605L72.8352 15.627H72L69.2642 7.93519H69.2045L66.4688 15.627ZM67.0696 12.2818H71.3991V12.9977H67.0696V12.2818ZM78.4197 9.0815L76.0291 15.627H75.2195L72.8288 9.0815H73.6513L75.5945 14.6255H75.6541L77.5973 9.0815H78.4197ZM81.5327 15.7761C81.1378 15.7761 80.777 15.6994 80.4503 15.546C80.1236 15.3897 79.8636 15.1653 79.6705 14.8727C79.4773 14.5772 79.3807 14.2193 79.3807 13.7988C79.3807 13.475 79.4418 13.2022 79.5639 12.9806C79.6861 12.7591 79.8594 12.5772 80.0838 12.4352C80.3082 12.2931 80.5739 12.1809 80.8807 12.0985C81.1875 12.0162 81.5256 11.9522 81.8949 11.9068C82.2614 11.8613 82.571 11.8216 82.8239 11.7875C83.0795 11.7534 83.2741 11.6994 83.4077 11.6255C83.5412 11.5517 83.608 11.4324 83.608 11.2676V11.1142C83.608 10.6681 83.4744 10.3173 83.2074 10.0616C82.9432 9.80309 82.5625 9.67383 82.0653 9.67383C81.5938 9.67383 81.2088 9.77752 80.9105 9.98491C80.6151 10.1923 80.4077 10.4366 80.2884 10.7179L79.5682 10.4579C79.7159 10.1 79.9205 9.81445 80.1818 9.60138C80.4432 9.38548 80.7358 9.23065 81.0597 9.1369C81.3835 9.04031 81.7116 8.99201 82.044 8.99201C82.294 8.99201 82.554 9.02468 82.8239 9.09002C83.0966 9.15536 83.3494 9.269 83.5824 9.43093C83.8153 9.59002 84.0043 9.81303 84.1491 10.1C84.294 10.3841 84.3665 10.7449 84.3665 11.1824V15.627H83.608V14.5914H83.5611C83.4702 14.7846 83.3352 14.9721 83.1562 15.1539C82.9773 15.3358 82.7528 15.4849 82.483 15.6014C82.2131 15.7179 81.8963 15.7761 81.5327 15.7761ZM81.6349 15.0815C82.0384 15.0815 82.3878 14.992 82.6832 14.813C82.9787 14.6341 83.206 14.3968 83.3651 14.1014C83.527 13.8031 83.608 13.475 83.608 13.117V12.171C83.5511 12.225 83.456 12.2733 83.3224 12.3159C83.1918 12.3585 83.0398 12.3968 82.8665 12.4309C82.696 12.4622 82.5256 12.4892 82.3551 12.5119C82.1847 12.5346 82.0312 12.5545 81.8949 12.5716C81.5256 12.617 81.2102 12.688 80.9489 12.7846C80.6875 12.8812 80.4872 13.0147 80.348 13.1852C80.2088 13.3528 80.1392 13.5687 80.1392 13.8329C80.1392 14.2306 80.2812 14.5389 80.5653 14.7576C80.8494 14.9735 81.206 15.0815 81.6349 15.0815ZM86.3928 15.627V9.0815H87.1555V15.627H86.3928ZM86.7805 7.9565C86.6243 7.9565 86.4908 7.90394 86.38 7.79883C86.2692 7.69087 86.2138 7.56161 86.2138 7.41104C86.2138 7.26048 86.2692 7.13263 86.38 7.02752C86.4908 6.91957 86.6243 6.86559 86.7805 6.86559C86.9368 6.86559 87.0703 6.91957 87.1811 7.02752C87.2919 7.13263 87.3473 7.26048 87.3473 7.41104C87.3473 7.56161 87.2919 7.69087 87.1811 7.79883C87.0703 7.90394 86.9368 7.9565 86.7805 7.9565ZM89.9201 6.89968V15.627H89.1616V6.89968H89.9201ZM93.7553 15.7761C93.3604 15.7761 92.9996 15.6994 92.6729 15.546C92.3462 15.3897 92.0863 15.1653 91.8931 14.8727C91.6999 14.5772 91.6033 14.2193 91.6033 13.7988C91.6033 13.475 91.6644 13.2022 91.7866 12.9806C91.9087 12.7591 92.082 12.5772 92.3065 12.4352C92.5309 12.2931 92.7965 12.1809 93.1033 12.0985C93.4102 12.0162 93.7482 11.9522 94.1175 11.9068C94.484 11.8613 94.7937 11.8216 95.0465 11.7875C95.3022 11.7534 95.4968 11.6994 95.6303 11.6255C95.7638 11.5517 95.8306 11.4324 95.8306 11.2676V11.1142C95.8306 10.6681 95.6971 10.3173 95.43 10.0616C95.1658 9.80309 94.7852 9.67383 94.288 9.67383C93.8164 9.67383 93.4315 9.77752 93.1332 9.98491C92.8377 10.1923 92.6303 10.4366 92.511 10.7179L91.7908 10.4579C91.9386 10.1 92.1431 9.81445 92.4045 9.60138C92.6658 9.38548 92.9585 9.23065 93.2823 9.1369C93.6062 9.04031 93.9343 8.99201 94.2667 8.99201C94.5167 8.99201 94.7766 9.02468 95.0465 9.09002C95.3192 9.15536 95.5721 9.269 95.805 9.43093C96.038 9.59002 96.2269 9.81303 96.3718 10.1C96.5167 10.3841 96.5891 10.7449 96.5891 11.1824V15.627H95.8306V14.5914H95.7837C95.6928 14.7846 95.5579 14.9721 95.3789 15.1539C95.1999 15.3358 94.9755 15.4849 94.7056 15.6014C94.4357 15.7179 94.119 15.7761 93.7553 15.7761ZM93.8576 15.0815C94.261 15.0815 94.6104 14.992 94.9059 14.813C95.2013 14.6341 95.4286 14.3968 95.5877 14.1014C95.7496 13.8031 95.8306 13.475 95.8306 13.117V12.171C95.7738 12.225 95.6786 12.2733 95.5451 12.3159C95.4144 12.3585 95.2624 12.3968 95.0891 12.4309C94.9187 12.4622 94.7482 12.4892 94.5778 12.5119C94.4073 12.5346 94.2539 12.5545 94.1175 12.5716C93.7482 12.617 93.4329 12.688 93.1715 12.7846C92.9102 12.8812 92.7099 13.0147 92.5707 13.1852C92.4315 13.3528 92.3619 13.5687 92.3619 13.8329C92.3619 14.2306 92.5039 14.5389 92.788 14.7576C93.0721 14.9735 93.4286 15.0815 93.8576 15.0815ZM98.7646 15.627V6.89968H99.5273V10.3301H99.5955C99.6808 10.1341 99.8029 9.93235 99.962 9.72496C100.124 9.51758 100.336 9.34428 100.597 9.20508C100.861 9.06303 101.194 8.99201 101.594 8.99201C102.131 8.99201 102.603 9.13406 103.009 9.41815C103.415 9.6994 103.732 10.0943 103.959 10.6028C104.186 11.1085 104.3 11.698 104.3 12.3713C104.3 13.0474 104.186 13.6397 103.959 14.1483C103.735 14.6568 103.419 15.0531 103.013 15.3372C102.61 15.6213 102.141 15.7633 101.607 15.7633C101.209 15.7633 100.877 15.6923 100.61 15.5502C100.346 15.4082 100.132 15.2335 99.9705 15.0261C99.8086 14.8159 99.6836 14.6113 99.5955 14.4125H99.5018V15.627H98.7646ZM99.5146 12.3585C99.5146 12.8869 99.5927 13.3556 99.7489 13.7647C99.908 14.171 100.135 14.4906 100.431 14.7235C100.729 14.9537 101.09 15.0687 101.513 15.0687C101.948 15.0687 102.316 14.9494 102.617 14.7108C102.918 14.4693 103.147 14.144 103.303 13.7349C103.459 13.3258 103.537 12.867 103.537 12.3585C103.537 11.8556 103.459 11.4025 103.303 10.9991C103.15 10.5957 102.922 10.2761 102.621 10.0403C102.32 9.80167 101.951 9.68235 101.513 9.68235C101.087 9.68235 100.725 9.79741 100.426 10.0275C100.131 10.2548 99.9052 10.5701 99.7489 10.9735C99.5927 11.3741 99.5146 11.8358 99.5146 12.3585ZM106.725 6.89968V15.627H105.966V6.89968H106.725ZM111.378 15.7633C110.767 15.7633 110.239 15.6213 109.793 15.3372C109.347 15.0502 109.002 14.6539 108.757 14.1483C108.516 13.6397 108.395 13.0545 108.395 12.3926C108.395 11.7335 108.516 11.1483 108.757 10.6369C109.002 10.1227 109.338 9.7207 109.767 9.43093C110.199 9.13832 110.698 8.99201 111.263 8.99201C111.618 8.99201 111.961 9.05735 112.29 9.18803C112.62 9.31587 112.915 9.51332 113.176 9.78036C113.441 10.0446 113.65 10.3784 113.803 10.7818C113.956 11.1824 114.033 11.6568 114.033 12.2051V12.5801H108.919V11.911H113.257C113.257 11.4906 113.172 11.1127 113.002 10.7775C112.834 10.4395 112.6 10.1724 112.299 9.97638C112 9.78036 111.655 9.68235 111.263 9.68235C110.848 9.68235 110.483 9.79315 110.168 10.0147C109.853 10.2363 109.605 10.5289 109.426 10.8926C109.25 11.2562 109.161 11.6539 109.158 12.0858V12.4863C109.158 13.0062 109.248 13.4608 109.426 13.85C109.608 14.2363 109.865 14.536 110.198 14.7491C110.53 14.9622 110.924 15.0687 111.378 15.0687C111.688 15.0687 111.959 15.0204 112.192 14.9238C112.428 14.8272 112.625 14.698 112.784 14.536C112.946 14.3713 113.069 14.1909 113.151 13.9949L113.871 14.2292C113.772 14.5048 113.608 14.7591 113.381 14.992C113.157 15.225 112.875 15.4125 112.537 15.5545C112.202 15.6937 111.816 15.7633 111.378 15.7633Z" fill="#00A010"/>
</svg>
