<svg width="150" height="70" viewBox="0 0 178 80" fill="none" xmlns="http://www.w3.org/2000/svg">
<rect x="0.965551" y="10.9656" width="175.73" height="68.0689" rx="11.0344" stroke="black" stroke-opacity="0.1" stroke-width="1.9311"/>
<path d="M28.8654 50.9348C23.5969 50.9348 19.311 46.649 19.311 41.3805C19.311 36.112 23.5969 31.8262 28.8654 31.8262C34.1338 31.8262 38.4197 36.112 38.4197 41.3805C38.4197 46.649 34.1338 50.9348 28.8654 50.9348ZM28.8654 35.2967C25.5098 35.2967 22.7815 38.025 22.7815 41.3805C22.7815 44.736 25.5098 47.4643 28.8654 47.4643C32.2209 47.4643 34.9492 44.736 34.9492 41.3805C34.9492 38.025 32.2156 35.2967 28.8654 35.2967Z" fill="#D75100"/>
<path d="M34.9492 53.2764C34.9492 56.6319 32.2209 59.3602 28.8654 59.3602C25.5098 59.3602 22.7815 56.6319 22.7815 53.2764L19.311 53.2764C19.311 58.5448 23.5969 62.8307 28.8654 62.8307C34.1338 62.8307 38.4197 58.5448 38.4197 53.2764L34.9492 53.2764Z" fill="#D75100"/>
<path d="M43.0193 34.7324L43.0193 27.1694L35.4563 27.1694L35.4563 30.3211L39.8676 30.3211L39.8676 34.7324L43.0193 34.7324Z" fill="#D75100"/>
<path d="M70.9503 34.2358C69.7273 33.0651 67.9084 32.417 66.3247 32.417C62.4256 32.417 60.0632 35.3805 60.0632 39.1227C60.0632 42.1124 61.8036 45.2013 66.3247 45.2013C67.7516 45.2013 69.0007 44.8877 70.4329 43.7483L70.4329 40.5235L65.7811 40.5235L65.7811 37.4554L73.5793 37.4554L73.5793 45.1229C71.7866 47.177 69.5234 48.3948 66.3299 48.3948C59.4935 48.3948 56.7129 43.8999 56.7129 39.1175C56.7129 34.0006 59.9116 29.2705 66.3299 29.2705C68.7708 29.2705 71.2168 30.2061 73.088 32.0511L70.9555 34.2358L70.9503 34.2358Z" fill="black"/>
<path d="M94.8571 47.982L90.7751 47.982L85.4752 41.9034L82.1772 41.9034L82.1772 47.982L78.7485 47.982L78.7485 29.7671C81.6336 29.7671 84.5188 29.7932 87.4039 29.7932C91.6897 29.8194 93.9529 32.6783 93.9529 35.8248C93.9529 38.3179 92.8082 40.8424 89.3534 41.5427L94.8623 47.752L94.8623 47.9872L94.8571 47.982ZM82.1772 32.9867L82.1772 38.8092L87.3986 38.8092C89.5834 38.8092 90.519 37.3562 90.519 35.898C90.519 34.4397 89.5573 32.9867 87.3986 32.9867L82.1772 32.9867Z" fill="black"/>
<path d="M112.821 44.553L103.309 44.553L101.751 47.9817L98.0349 47.9817L106.194 29.793L109.936 29.793L118.095 47.9817L114.353 47.9817L112.821 44.553ZM108.065 33.6137L104.688 41.3595L111.446 41.3595L108.07 33.6137L108.065 33.6137Z" fill="black"/>
<path d="M133.169 29.7671L136.597 29.7671L136.597 47.982L134.465 47.982L134.465 48.0081L124.9 35.715L124.9 47.982L121.471 47.982L121.471 29.7932L124.252 29.7932L133.163 41.0723L133.163 29.7671L133.169 29.7671Z" fill="black"/>
<path d="M158.351 38.7305C158.429 43.33 155.622 47.9817 149.256 47.9817L142.111 47.9817L142.111 29.793L149.256 29.793C155.492 29.793 158.272 34.2356 158.351 38.7305ZM145.514 44.6837L149.256 44.6837C153.385 44.6837 155.026 41.6679 154.948 38.7044C154.87 35.8716 153.208 33.0387 149.256 33.0387L145.514 33.0387L145.514 44.6785L145.514 44.6837Z" fill="black"/>
<path d="M123.724 62.0005L123.724 54.7278L128.085 54.7278L128.085 55.509L124.605 55.509L124.605 57.9664L127.759 57.9664L127.759 58.7476L124.605 58.7476L124.605 62.0005L123.724 62.0005ZM135.73 58.3641C135.73 59.1312 135.591 59.794 135.314 60.3528C135.037 60.9115 134.657 61.3423 134.175 61.6454C133.692 61.9484 133.14 62.0999 132.52 62.0999C131.899 62.0999 131.348 61.9484 130.865 61.6454C130.382 61.3423 130.002 60.9115 129.725 60.3528C129.448 59.794 129.309 59.1312 129.309 58.3641C129.309 57.5971 129.448 56.9342 129.725 56.3755C130.002 55.8168 130.382 55.3859 130.865 55.0829C131.348 54.7798 131.899 54.6283 132.52 54.6283C133.14 54.6283 133.692 54.7798 134.175 55.0829C134.657 55.3859 135.037 55.8168 135.314 56.3755C135.591 56.9342 135.73 57.5971 135.73 58.3641ZM134.878 58.3641C134.878 57.7344 134.772 57.2029 134.562 56.7697C134.353 56.3364 134.07 56.0085 133.713 55.786C133.358 55.5635 132.96 55.4522 132.52 55.4522C132.079 55.4522 131.68 55.5635 131.323 55.786C130.968 56.0085 130.685 56.3364 130.474 56.7697C130.266 57.2029 130.162 57.7344 130.162 58.3641C130.162 58.9939 130.266 59.5253 130.474 59.9586C130.685 60.3918 130.968 60.7197 131.323 60.9422C131.68 61.1648 132.079 61.2761 132.52 61.2761C132.96 61.2761 133.358 61.1648 133.713 60.9422C134.07 60.7197 134.353 60.3918 134.562 59.9586C134.772 59.5253 134.878 58.9939 134.878 58.3641ZM137.211 62.0005L137.211 54.7278L139.668 54.7278C140.236 54.7278 140.703 54.8248 141.067 55.019C141.432 55.2107 141.702 55.4747 141.877 55.8109C142.052 56.147 142.14 56.5294 142.14 56.9579C142.14 57.3864 142.052 57.7663 141.877 58.0978C141.702 58.4292 141.433 58.6896 141.071 58.879C140.709 59.0661 140.246 59.1596 139.682 59.1596L137.694 59.1596L137.694 58.3641L139.654 58.3641C140.042 58.3641 140.355 58.3073 140.591 58.1937C140.831 58.08 141.003 57.919 141.11 57.7107C141.219 57.5 141.273 57.2491 141.273 56.9579C141.273 56.6667 141.219 56.4122 141.11 56.1944C141.001 55.9766 140.827 55.8085 140.588 55.6901C140.349 55.5694 140.033 55.509 139.64 55.509L138.091 55.509L138.091 62.0005L137.211 62.0005ZM140.634 58.7334L142.424 62.0005L141.401 62.0005L139.64 58.7334L140.634 58.7334ZM143.607 54.7278L144.658 54.7278L147.13 60.7647L147.215 60.7647L149.687 54.7278L150.738 54.7278L150.738 62.0005L149.914 62.0005L149.914 56.4749L149.843 56.4749L147.57 62.0005L146.775 62.0005L144.502 56.4749L144.431 56.4749L144.431 62.0005L143.607 62.0005L143.607 54.7278ZM156.481 56.5459C156.438 56.1861 156.266 55.9067 155.963 55.7079C155.66 55.509 155.288 55.4096 154.847 55.4096C154.526 55.4096 154.244 55.4617 154.002 55.5658C153.763 55.67 153.576 55.8132 153.441 55.9955C153.309 56.1778 153.242 56.385 153.242 56.617C153.242 56.8111 153.289 56.978 153.381 57.1177C153.476 57.255 153.596 57.3698 153.743 57.4621C153.89 57.5521 154.044 57.6267 154.205 57.6859C154.366 57.7427 154.514 57.7888 154.649 57.8244L155.387 58.0232C155.577 58.0729 155.787 58.1416 156.019 58.2292C156.254 58.3168 156.477 58.4363 156.691 58.5878C156.906 58.737 157.084 58.9288 157.223 59.1631C157.363 59.3975 157.433 59.6851 157.433 60.0261C157.433 60.419 157.33 60.7742 157.124 61.0914C156.92 61.4086 156.622 61.6608 156.229 61.8478C155.838 62.0348 155.364 62.1283 154.805 62.1283C154.284 62.1283 153.833 62.0443 153.452 61.8762C153.073 61.7081 152.775 61.4737 152.557 61.1731C152.342 60.8724 152.22 60.5232 152.191 60.1255L153.1 60.1255C153.124 60.4001 153.216 60.6274 153.377 60.8073C153.541 60.9849 153.747 61.1174 153.995 61.205C154.246 61.2903 154.516 61.3329 154.805 61.3329C155.141 61.3329 155.443 61.2784 155.71 61.1695C155.978 61.0583 156.19 60.9044 156.346 60.7079C156.502 60.509 156.58 60.277 156.58 60.0119C156.58 59.7704 156.513 59.5739 156.378 59.4224C156.243 59.2708 156.066 59.1477 155.845 59.053C155.625 58.9583 155.387 58.8755 155.132 58.8045L154.237 58.5488C153.669 58.3854 153.219 58.1522 152.887 57.8492C152.556 57.5462 152.39 57.1496 152.39 56.6596C152.39 56.2524 152.5 55.8973 152.72 55.5942C152.943 55.2888 153.241 55.0521 153.615 54.884C153.992 54.7136 154.412 54.6283 154.876 54.6283C155.345 54.6283 155.761 54.7124 156.126 54.8805C156.49 55.0462 156.779 55.2735 156.992 55.5623C157.208 55.8511 157.321 56.179 157.333 56.5459L156.481 56.5459Z" fill="#D75100"/>
<rect width="49" height="21" transform="translate(64.5 0.626953)" fill="white"/>
<path d="M80.5598 9.0815C80.5115 8.5957 80.2971 8.20934 79.9164 7.92241C79.5357 7.63548 79.057 7.49201 78.4803 7.49201C78.074 7.49201 77.7161 7.56161 77.4064 7.70082C77.0996 7.84002 76.8581 8.0332 76.682 8.28036C76.5087 8.52468 76.4221 8.80309 76.4221 9.11559C76.4221 9.3457 76.4718 9.54741 76.5712 9.7207C76.6706 9.894 76.8042 10.0431 76.9718 10.1681C77.1422 10.2903 77.3297 10.3954 77.5343 10.4835C77.7417 10.5716 77.9505 10.6454 78.1607 10.7051L79.0811 10.9693C79.3596 11.046 79.638 11.144 79.9164 11.2633C80.1948 11.3826 80.449 11.5332 80.6792 11.715C80.9121 11.894 81.0982 12.1142 81.2374 12.3755C81.3794 12.6341 81.4505 12.9451 81.4505 13.3088C81.4505 13.7747 81.3297 14.1937 81.0882 14.5659C80.8468 14.938 80.5002 15.2335 80.0485 15.4522C79.5968 15.6681 79.0556 15.7761 78.4249 15.7761C77.8311 15.7761 77.3155 15.6781 76.878 15.4821C76.4405 15.2832 76.0968 15.0091 75.8468 14.6596C75.5968 14.3102 75.4561 13.9054 75.4249 13.4451H76.2431C76.2715 13.7889 76.3851 14.0801 76.584 14.3187C76.7828 14.5574 77.0414 14.7392 77.3596 14.8642C77.6777 14.9863 78.0328 15.0474 78.4249 15.0474C78.8596 15.0474 79.2459 14.975 79.584 14.8301C79.9249 14.6824 80.1919 14.4778 80.3851 14.2164C80.5811 13.9522 80.6792 13.6454 80.6792 13.296C80.6792 13.0005 80.6025 12.7534 80.449 12.5545C80.2956 12.3528 80.0811 12.1838 79.8056 12.0474C79.5328 11.911 79.2161 11.7903 78.8553 11.6852L77.8113 11.3784C77.1266 11.1738 76.5953 10.8912 76.2175 10.5304C75.8397 10.1696 75.6507 9.70934 75.6507 9.14968C75.6507 8.68093 75.7757 8.269 76.0257 7.91388C76.2786 7.55593 76.6195 7.27752 77.0485 7.07866C77.4803 6.87695 77.9647 6.7761 78.5016 6.7761C79.0442 6.7761 79.5243 6.87553 79.9419 7.0744C80.3596 7.27326 80.6905 7.54741 80.9348 7.89684C81.182 8.24343 81.3141 8.63832 81.3311 9.0815H80.5598ZM85.7544 15.7633C85.1891 15.7633 84.6891 15.6199 84.2544 15.3329C83.8226 15.046 83.4846 14.6497 83.2402 14.144C82.9959 13.6355 82.8738 13.0488 82.8738 12.3841C82.8738 11.7136 82.9959 11.1241 83.2402 10.6156C83.4846 10.1042 83.8226 9.7065 84.2544 9.42241C84.6891 9.13548 85.1891 8.99201 85.7544 8.99201C86.3198 8.99201 86.8184 9.13548 87.2502 9.42241C87.682 9.70934 88.0201 10.1071 88.2644 10.6156C88.5115 11.1241 88.6351 11.7136 88.6351 12.3841C88.6351 13.0488 88.513 13.6355 88.2686 14.144C88.0243 14.6497 87.6848 15.046 87.2502 15.3329C86.8184 15.6199 86.3198 15.7633 85.7544 15.7633ZM85.7544 15.0687C86.209 15.0687 86.5939 14.9466 86.9093 14.7022C87.2246 14.4579 87.4632 14.1326 87.6252 13.7264C87.79 13.3201 87.8723 12.8727 87.8723 12.3841C87.8723 11.8954 87.79 11.4466 87.6252 11.0375C87.4632 10.6284 87.2246 10.3002 86.9093 10.0531C86.5939 9.80593 86.209 9.68235 85.7544 9.68235C85.3027 9.68235 84.9178 9.80593 84.5996 10.0531C84.2843 10.3002 84.0442 10.6284 83.8794 11.0375C83.7175 11.4466 83.6365 11.8954 83.6365 12.3841C83.6365 12.8727 83.7175 13.3201 83.8794 13.7264C84.0442 14.1326 84.2843 14.4579 84.5996 14.7022C84.915 14.9466 85.2999 15.0687 85.7544 15.0687ZM92.8443 15.7633C92.2789 15.7633 91.7789 15.6199 91.3443 15.3329C90.9125 15.046 90.5744 14.6497 90.3301 14.144C90.0858 13.6355 89.9636 13.0488 89.9636 12.3841C89.9636 11.7136 90.0858 11.1241 90.3301 10.6156C90.5744 10.1042 90.9125 9.7065 91.3443 9.42241C91.7789 9.13548 92.2789 8.99201 92.8443 8.99201C93.4096 8.99201 93.9082 9.13548 94.34 9.42241C94.7718 9.70934 95.1099 10.1071 95.3542 10.6156C95.6014 11.1241 95.725 11.7136 95.725 12.3841C95.725 13.0488 95.6028 13.6355 95.3585 14.144C95.1142 14.6497 94.7747 15.046 94.34 15.3329C93.9082 15.6199 93.4096 15.7633 92.8443 15.7633ZM92.8443 15.0687C93.2988 15.0687 93.6838 14.9466 93.9991 14.7022C94.3145 14.4579 94.5531 14.1326 94.715 13.7264C94.8798 13.3201 94.9622 12.8727 94.9622 12.3841C94.9622 11.8954 94.8798 11.4466 94.715 11.0375C94.5531 10.6284 94.3145 10.3002 93.9991 10.0531C93.6838 9.80593 93.2988 9.68235 92.8443 9.68235C92.3926 9.68235 92.0076 9.80593 91.6895 10.0531C91.3741 10.3002 91.1341 10.6284 90.9693 11.0375C90.8074 11.4466 90.7264 11.8954 90.7264 12.3841C90.7264 12.8727 90.8074 13.3201 90.9693 13.7264C91.1341 14.1326 91.3741 14.4579 91.6895 14.7022C92.0048 14.9466 92.3897 15.0687 92.8443 15.0687ZM98.1486 11.536V15.627H97.3901V9.0815H98.1273V10.1085H98.1955C98.3489 9.77326 98.5875 9.50479 98.9114 9.30309C99.2381 9.09854 99.6415 8.99627 100.122 8.99627C100.562 8.99627 100.948 9.0886 101.281 9.27326C101.616 9.45508 101.876 9.72354 102.061 10.0787C102.248 10.4338 102.342 10.8699 102.342 11.3869V15.627H101.583V11.4338C101.583 10.8968 101.433 10.4721 101.132 10.1596C100.833 9.84712 100.433 9.69087 99.9299 9.69087C99.5861 9.69087 99.2807 9.76474 99.0137 9.91246C98.7466 10.0602 98.535 10.2733 98.3787 10.5517C98.2253 10.8272 98.1486 11.1554 98.1486 11.536Z" fill="#18181B"/>
</svg>
