<svg width="150" height="70" viewBox="0 0 179 80" fill="none" xmlns="http://www.w3.org/2000/svg">
<rect x="1.62668" y="10.9656" width="175.73" height="68.0689" rx="11.0344" stroke="black" stroke-opacity="0.1" stroke-width="1.9311"/>
<path d="M33.779 50.513C28.8802 50.513 24.9031 46.5358 24.9031 41.6371C24.9031 36.7384 28.8802 32.7612 33.779 32.7612C38.6777 32.7612 42.6548 36.7384 42.6548 41.6371C42.6548 46.5358 38.6777 50.513 33.779 50.513ZM33.779 35.9785C30.6587 35.9785 28.1204 38.5168 28.1204 41.6371C28.1204 44.7574 30.6587 47.2957 33.779 47.2957C36.8993 47.2957 39.4375 44.7574 39.4375 41.6371C39.4375 38.5168 36.8993 35.9785 33.779 35.9785Z" fill="#4230CC"/>
<path d="M39.4375 52.6953C39.4375 55.8156 36.8992 58.3539 33.7789 58.3539C30.6586 58.3539 28.1203 55.8156 28.1203 52.6953L24.9192 52.6953C24.9192 57.594 28.8964 61.5712 33.7951 61.5712C38.6938 61.5712 42.671 57.594 42.671 52.6953L39.4375 52.6953Z" fill="#4230CC"/>
<path d="M46.9393 35.461L46.9393 28.4282L39.9065 28.4282L39.9065 31.3545L44.013 31.3545L44.013 35.461L46.9393 35.461Z" fill="#4230CC"/>
<path d="M72.8877 34.992C71.756 33.9088 70.0585 33.2945 68.5872 33.2945C64.9657 33.2945 62.767 36.0429 62.767 39.5189C62.767 42.2997 64.3837 45.1613 68.5872 45.1613C69.913 45.1613 71.077 44.8703 72.4027 43.8032L72.4027 40.8123L68.086 40.8123L68.086 37.983L75.329 37.983L75.329 45.0966C73.6638 47.0044 71.562 48.1361 68.5872 48.1361C62.2335 48.1361 59.6628 43.9649 59.6628 39.5189C59.6628 34.7657 62.6376 30.3682 68.5872 30.3682C70.8507 30.3682 73.1303 31.2412 74.8602 32.9549L72.8877 34.992Z" fill="black"/>
<path d="M95.0855 47.7641L91.3023 47.7641L86.3713 42.1217L83.2995 42.1217L83.2995 47.7641L80.1145 47.7641L80.1145 30.853C82.7983 30.853 85.4659 30.8854 88.1497 30.8854C92.1269 30.9177 94.2286 33.5691 94.2286 36.4793C94.2286 38.7912 93.1616 41.1355 89.9604 41.7822L95.0855 47.5539L95.0855 47.7641ZM83.3156 33.844L83.3156 39.2439L88.1658 39.2439C90.1868 39.2439 91.0598 37.8858 91.0598 36.5439C91.0598 35.202 90.1706 33.844 88.1658 33.844L83.3156 33.844Z" fill="black"/>
<path d="M111.77 44.5791L102.927 44.5791L101.472 47.764L98.012 47.764L105.594 30.8691L109.07 30.8691L116.653 47.764L113.177 47.764L111.77 44.5791ZM107.357 34.426L104.22 41.6204L110.493 41.6204L107.357 34.426Z" fill="black"/>
<path d="M130.686 30.853L133.871 30.853L133.871 47.7803L131.899 47.7803L131.899 47.7964L123.007 36.3823L123.007 47.7803L119.822 47.7803L119.822 30.8692L122.409 30.8692L130.686 41.3456L130.686 30.853Z" fill="black"/>
<path d="M154.08 39.1792C154.161 43.4474 151.542 47.7802 145.625 47.7802L138.98 47.7802L138.98 30.8691L145.625 30.8691C151.413 30.8691 153.999 34.9918 154.08 39.1792ZM142.149 44.7084L145.625 44.7084C149.456 44.7084 150.992 41.9115 150.912 39.163C150.831 36.5277 149.295 33.9086 145.625 33.9086L142.149 33.9086L142.149 44.7084Z" fill="black"/>
<path d="M126.117 60.9995L126.117 53.7268L130.478 53.7268L130.478 54.508L126.997 54.508L126.997 56.9654L130.151 56.9654L130.151 57.7467L126.997 57.7467L126.997 60.9995L126.117 60.9995ZM138.122 57.3631C138.122 58.1302 137.984 58.7931 137.707 59.3518C137.43 59.9105 137.05 60.3414 136.567 60.6444C136.084 60.9474 135.532 61.0989 134.912 61.0989C134.292 61.0989 133.74 60.9474 133.257 60.6444C132.774 60.3414 132.394 59.9105 132.117 59.3518C131.84 58.7931 131.702 58.1302 131.702 57.3631C131.702 56.5961 131.84 55.9332 132.117 55.3745C132.394 54.8158 132.774 54.3849 133.257 54.0819C133.74 53.7789 134.292 53.6274 134.912 53.6274C135.532 53.6274 136.084 53.7789 136.567 54.0819C137.05 54.3849 137.43 54.8158 137.707 55.3745C137.984 55.9332 138.122 56.5961 138.122 57.3631ZM137.27 57.3631C137.27 56.7334 137.165 56.2019 136.954 55.7687C136.746 55.3354 136.463 55.0076 136.105 54.785C135.75 54.5625 135.352 54.4512 134.912 54.4512C134.472 54.4512 134.073 54.5625 133.715 54.785C133.36 55.0076 133.077 55.3354 132.867 55.7687C132.658 56.2019 132.554 56.7334 132.554 57.3631C132.554 57.9929 132.658 58.5244 132.867 58.9576C133.077 59.3908 133.36 59.7187 133.715 59.9413C134.073 60.1638 134.472 60.2751 134.912 60.2751C135.352 60.2751 135.75 60.1638 136.105 59.9413C136.463 59.7187 136.746 59.3908 136.954 58.9576C137.165 58.5244 137.27 57.9929 137.27 57.3631ZM139.603 60.9995L139.603 53.7268L142.06 53.7268C142.629 53.7268 143.095 53.8238 143.46 54.018C143.824 54.2097 144.094 54.4737 144.269 54.8099C144.444 55.1461 144.532 55.5284 144.532 55.9569C144.532 56.3854 144.444 56.7654 144.269 57.0968C144.094 57.4283 143.825 57.6887 143.463 57.8781C143.101 58.0651 142.638 58.1586 142.075 58.1586L140.086 58.1586L140.086 57.3631L142.046 57.3631C142.435 57.3631 142.747 57.3063 142.984 57.1927C143.223 57.0791 143.396 56.9181 143.502 56.7097C143.611 56.499 143.666 56.2481 143.666 55.9569C143.666 55.6657 143.611 55.4112 143.502 55.1934C143.393 54.9756 143.219 54.8075 142.98 54.6891C142.741 54.5684 142.425 54.508 142.032 54.508L140.484 54.508L140.484 60.9995L139.603 60.9995ZM143.026 57.7325L144.816 60.9995L143.793 60.9995L142.032 57.7325L143.026 57.7325ZM146 53.7268L147.051 53.7268L149.522 59.7637L149.608 59.7637L152.079 53.7268L153.13 53.7268L153.13 60.9995L152.306 60.9995L152.306 55.4739L152.235 55.4739L149.963 60.9995L149.167 60.9995L146.894 55.4739L146.823 55.4739L146.823 60.9995L146 60.9995L146 53.7268Z" fill="#4230CC"/>
<rect width="49" height="21" transform="translate(65.5 0.626953)" fill="white"/>
<path d="M81.5598 9.0815C81.5115 8.5957 81.2971 8.20934 80.9164 7.92241C80.5357 7.63548 80.057 7.49201 79.4803 7.49201C79.074 7.49201 78.7161 7.56161 78.4064 7.70082C78.0996 7.84002 77.8581 8.0332 77.682 8.28036C77.5087 8.52468 77.4221 8.80309 77.4221 9.11559C77.4221 9.3457 77.4718 9.54741 77.5712 9.7207C77.6706 9.894 77.8042 10.0431 77.9718 10.1681C78.1422 10.2903 78.3297 10.3954 78.5343 10.4835C78.7417 10.5716 78.9505 10.6454 79.1607 10.7051L80.0811 10.9693C80.3596 11.046 80.638 11.144 80.9164 11.2633C81.1948 11.3826 81.449 11.5332 81.6792 11.715C81.9121 11.894 82.0982 12.1142 82.2374 12.3755C82.3794 12.6341 82.4505 12.9451 82.4505 13.3088C82.4505 13.7747 82.3297 14.1937 82.0882 14.5659C81.8468 14.938 81.5002 15.2335 81.0485 15.4522C80.5968 15.6681 80.0556 15.7761 79.4249 15.7761C78.8311 15.7761 78.3155 15.6781 77.878 15.4821C77.4405 15.2832 77.0968 15.0091 76.8468 14.6596C76.5968 14.3102 76.4561 13.9054 76.4249 13.4451H77.2431C77.2715 13.7889 77.3851 14.0801 77.584 14.3187C77.7828 14.5574 78.0414 14.7392 78.3596 14.8642C78.6777 14.9863 79.0328 15.0474 79.4249 15.0474C79.8596 15.0474 80.2459 14.975 80.584 14.8301C80.9249 14.6824 81.1919 14.4778 81.3851 14.2164C81.5811 13.9522 81.6792 13.6454 81.6792 13.296C81.6792 13.0005 81.6025 12.7534 81.449 12.5545C81.2956 12.3528 81.0811 12.1838 80.8056 12.0474C80.5328 11.911 80.2161 11.7903 79.8553 11.6852L78.8113 11.3784C78.1266 11.1738 77.5953 10.8912 77.2175 10.5304C76.8397 10.1696 76.6507 9.70934 76.6507 9.14968C76.6507 8.68093 76.7757 8.269 77.0257 7.91388C77.2786 7.55593 77.6195 7.27752 78.0485 7.07866C78.4803 6.87695 78.9647 6.7761 79.5016 6.7761C80.0442 6.7761 80.5243 6.87553 80.9419 7.0744C81.3596 7.27326 81.6905 7.54741 81.9348 7.89684C82.182 8.24343 82.3141 8.63832 82.3311 9.0815H81.5598ZM86.7544 15.7633C86.1891 15.7633 85.6891 15.6199 85.2544 15.3329C84.8226 15.046 84.4846 14.6497 84.2402 14.144C83.9959 13.6355 83.8738 13.0488 83.8738 12.3841C83.8738 11.7136 83.9959 11.1241 84.2402 10.6156C84.4846 10.1042 84.8226 9.7065 85.2544 9.42241C85.6891 9.13548 86.1891 8.99201 86.7544 8.99201C87.3198 8.99201 87.8184 9.13548 88.2502 9.42241C88.682 9.70934 89.0201 10.1071 89.2644 10.6156C89.5115 11.1241 89.6351 11.7136 89.6351 12.3841C89.6351 13.0488 89.513 13.6355 89.2686 14.144C89.0243 14.6497 88.6848 15.046 88.2502 15.3329C87.8184 15.6199 87.3198 15.7633 86.7544 15.7633ZM86.7544 15.0687C87.209 15.0687 87.5939 14.9466 87.9093 14.7022C88.2246 14.4579 88.4632 14.1326 88.6252 13.7264C88.79 13.3201 88.8723 12.8727 88.8723 12.3841C88.8723 11.8954 88.79 11.4466 88.6252 11.0375C88.4632 10.6284 88.2246 10.3002 87.9093 10.0531C87.5939 9.80593 87.209 9.68235 86.7544 9.68235C86.3027 9.68235 85.9178 9.80593 85.5996 10.0531C85.2843 10.3002 85.0442 10.6284 84.8794 11.0375C84.7175 11.4466 84.6365 11.8954 84.6365 12.3841C84.6365 12.8727 84.7175 13.3201 84.8794 13.7264C85.0442 14.1326 85.2843 14.4579 85.5996 14.7022C85.915 14.9466 86.2999 15.0687 86.7544 15.0687ZM93.8443 15.7633C93.2789 15.7633 92.7789 15.6199 92.3443 15.3329C91.9125 15.046 91.5744 14.6497 91.3301 14.144C91.0858 13.6355 90.9636 13.0488 90.9636 12.3841C90.9636 11.7136 91.0858 11.1241 91.3301 10.6156C91.5744 10.1042 91.9125 9.7065 92.3443 9.42241C92.7789 9.13548 93.2789 8.99201 93.8443 8.99201C94.4096 8.99201 94.9082 9.13548 95.34 9.42241C95.7718 9.70934 96.1099 10.1071 96.3542 10.6156C96.6014 11.1241 96.725 11.7136 96.725 12.3841C96.725 13.0488 96.6028 13.6355 96.3585 14.144C96.1142 14.6497 95.7747 15.046 95.34 15.3329C94.9082 15.6199 94.4096 15.7633 93.8443 15.7633ZM93.8443 15.0687C94.2988 15.0687 94.6838 14.9466 94.9991 14.7022C95.3145 14.4579 95.5531 14.1326 95.715 13.7264C95.8798 13.3201 95.9622 12.8727 95.9622 12.3841C95.9622 11.8954 95.8798 11.4466 95.715 11.0375C95.5531 10.6284 95.3145 10.3002 94.9991 10.0531C94.6838 9.80593 94.2988 9.68235 93.8443 9.68235C93.3926 9.68235 93.0076 9.80593 92.6895 10.0531C92.3741 10.3002 92.1341 10.6284 91.9693 11.0375C91.8074 11.4466 91.7264 11.8954 91.7264 12.3841C91.7264 12.8727 91.8074 13.3201 91.9693 13.7264C92.1341 14.1326 92.3741 14.4579 92.6895 14.7022C93.0048 14.9466 93.3897 15.0687 93.8443 15.0687ZM99.1486 11.536V15.627H98.3901V9.0815H99.1273V10.1085H99.1955C99.3489 9.77326 99.5875 9.50479 99.9114 9.30309C100.238 9.09854 100.642 8.99627 101.122 8.99627C101.562 8.99627 101.948 9.0886 102.281 9.27326C102.616 9.45508 102.876 9.72354 103.061 10.0787C103.248 10.4338 103.342 10.8699 103.342 11.3869V15.627H102.583V11.4338C102.583 10.8968 102.433 10.4721 102.132 10.1596C101.833 9.84712 101.433 9.69087 100.93 9.69087C100.586 9.69087 100.281 9.76474 100.014 9.91246C99.7466 10.0602 99.535 10.2733 99.3787 10.5517C99.2253 10.8272 99.1486 11.1554 99.1486 11.536Z" fill="#18181B"/>
</svg>
