<svg width="150" height="70" viewBox="0 0 179 80" fill="none" xmlns="http://www.w3.org/2000/svg">
<rect x="1.62668" y="10.9656" width="175.73" height="68.0689" rx="11.0344" stroke="black" stroke-opacity="0.1" stroke-width="1.9311"/>
<path d="M33.7145 50.513C28.8158 50.513 24.8386 46.5358 24.8386 41.6371C24.8386 36.7384 28.832 32.7612 33.7145 32.7612C38.5971 32.7612 42.5904 36.7384 42.5904 41.6371C42.5904 46.5358 38.6132 50.513 33.7145 50.513ZM33.7145 35.9785C30.5942 35.9785 28.0559 38.5168 28.0559 41.6371C28.0559 44.7574 30.5942 47.2957 33.7145 47.2957C36.8348 47.2957 39.3731 44.7574 39.3731 41.6371C39.3731 38.5168 36.8348 35.9785 33.7145 35.9785Z" fill="#712929"/>
<path d="M39.3731 52.6953C39.3731 55.8156 36.8348 58.3539 33.7145 58.3539C30.5942 58.3539 28.0559 55.8156 28.0559 52.6953L24.8386 52.6953C24.8386 57.594 28.8158 61.5712 33.7145 61.5712C38.6132 61.5712 42.5904 57.594 42.5904 52.6953L39.3731 52.6953Z" fill="#712929"/>
<path d="M46.8746 35.461L46.8746 28.4282L39.8418 28.4282L39.8418 31.3545L43.9321 31.3545L43.9321 35.461L46.8746 35.461Z" fill="#712929"/>
<path d="M72.8074 34.992C71.6757 33.9088 69.9781 33.2945 68.5069 33.2945C64.8854 33.2945 62.6867 36.0429 62.6867 39.5189C62.6867 42.2997 64.3034 45.1613 68.5069 45.1613C69.8326 45.1613 70.9967 44.8703 72.3224 43.8032L72.3224 40.8123L68.0057 40.8123L68.0057 37.983L75.2487 37.983L75.2487 45.0966C73.5835 47.0044 71.4817 48.1361 68.5069 48.1361C62.1531 48.1361 59.5825 43.9649 59.5825 39.5189C59.5825 34.7657 62.5573 30.3682 68.5069 30.3682C70.7703 30.3682 73.0499 31.2412 74.7798 32.9549L72.8074 34.992Z" fill="black"/>
<path d="M95.0213 47.7641L91.2381 47.7641L86.3071 42.1217L83.2353 42.1217L83.2353 47.7641L80.0503 47.7641L80.0503 30.853C82.7341 30.853 85.4017 30.8854 88.0855 30.8854C92.0788 30.9015 94.1806 33.553 94.1806 36.4631C94.1806 38.775 93.1135 41.1193 89.9124 41.766L95.0374 47.5378L95.0213 47.7641ZM83.2353 33.844L83.2353 39.2439L88.0855 39.2439C90.1064 39.2439 90.9794 37.8858 90.9794 36.5439C90.9794 35.202 90.1064 33.844 88.1016 33.844L83.2353 33.844Z" fill="black"/>
<path d="M111.705 44.5796L102.862 44.5796L101.407 47.7645L97.947 47.7645L105.53 30.8696L109.006 30.8696L116.588 47.7645L113.112 47.7645L111.705 44.5796ZM107.292 34.4264L104.155 41.6209L110.428 41.6209L107.292 34.4264Z" fill="black"/>
<path d="M130.606 30.853L133.791 30.853L133.791 47.7803L131.818 47.7803L131.818 47.7964L122.926 36.3823L122.926 47.7803L119.741 47.7803L119.741 30.8692L122.328 30.8692L130.606 41.3456L130.606 30.853Z" fill="black"/>
<path d="M154 39.1792C154.081 43.4474 151.461 47.7802 145.544 47.7802L138.899 47.7802L138.899 30.8691L145.544 30.8691C151.348 30.8691 153.935 34.9918 154 39.1792ZM142.084 44.7084L145.56 44.7084C149.392 44.7084 150.928 41.9115 150.847 39.163C150.766 36.5277 149.23 33.9086 145.56 33.9086L142.084 33.9086L142.084 44.7084Z" fill="black"/>
<path d="M87.3072 60.9995L86.3839 60.9995L89.0543 53.7268L89.9634 53.7268L92.6339 60.9995L91.7106 60.9995L89.5373 54.8774L89.4804 54.8774L87.3072 60.9995ZM87.6481 58.1586L91.3697 58.1586L91.3697 58.9399L87.6481 58.9399L87.6481 58.1586ZM99.2771 55.9995L98.3965 55.9995C98.3444 55.7462 98.2532 55.5237 98.123 55.3319C97.9952 55.1401 97.8389 54.9792 97.6543 54.8489C97.472 54.7164 97.2696 54.6169 97.047 54.5506C96.8245 54.4844 96.5925 54.4512 96.351 54.4512C95.9107 54.4512 95.5118 54.5625 95.1543 54.785C94.7992 55.0076 94.5163 55.3354 94.3056 55.7687C94.0972 56.2019 93.9931 56.7334 93.9931 57.3631C93.9931 57.9929 94.0972 58.5244 94.3056 58.9576C94.5163 59.3908 94.7992 59.7187 95.1543 59.9413C95.5118 60.1638 95.9107 60.2751 96.351 60.2751C96.5925 60.2751 96.8245 60.2419 97.047 60.1756C97.2696 60.1094 97.472 60.0111 97.6543 59.8809C97.8389 59.7483 97.9952 59.5862 98.123 59.3944C98.2532 59.2003 98.3444 58.9777 98.3965 58.7268L99.2771 58.7268C99.2109 59.0985 99.0901 59.4311 98.9149 59.7247C98.7397 60.0182 98.5219 60.268 98.2615 60.4739C98.0011 60.6775 97.7087 60.8326 97.3844 60.9391C97.0624 61.0457 96.718 61.0989 96.351 61.0989C95.7307 61.0989 95.1791 60.9474 94.6962 60.6444C94.2132 60.3414 93.8333 59.9105 93.5563 59.3518C93.2793 58.7931 93.1408 58.1302 93.1408 57.3631C93.1408 56.5961 93.2793 55.9332 93.5563 55.3745C93.8333 54.8158 94.2132 54.3849 94.6962 54.0819C95.1791 53.7789 95.7307 53.6274 96.351 53.6274C96.718 53.6274 97.0624 53.6806 97.3844 53.7872C97.7087 53.8937 98.0011 54.0499 98.2615 54.2559C98.5219 54.4595 98.7397 54.7081 98.9149 55.0016C99.0901 55.2928 99.2109 55.6255 99.2771 55.9995ZM106.553 55.9995L105.672 55.9995C105.62 55.7462 105.529 55.5237 105.398 55.3319C105.271 55.1401 105.114 54.9792 104.93 54.8489C104.747 54.7164 104.545 54.6169 104.322 54.5506C104.1 54.4844 103.868 54.4512 103.626 54.4512C103.186 54.4512 102.787 54.5625 102.43 54.785C102.075 55.0076 101.792 55.3354 101.581 55.7687C101.373 56.2019 101.268 56.7334 101.268 57.3631C101.268 57.9929 101.373 58.5244 101.581 58.9576C101.792 59.3908 102.075 59.7187 102.43 59.9413C102.787 60.1638 103.186 60.2751 103.626 60.2751C103.868 60.2751 104.1 60.2419 104.322 60.1756C104.545 60.1094 104.747 60.0111 104.93 59.8809C105.114 59.7483 105.271 59.5862 105.398 59.3944C105.529 59.2003 105.62 58.9777 105.672 58.7268L106.553 58.7268C106.486 59.0985 106.366 59.4311 106.19 59.7247C106.015 60.0182 105.797 60.268 105.537 60.4739C105.276 60.6775 104.984 60.8326 104.66 60.9391C104.338 61.0457 103.993 61.0989 103.626 61.0989C103.006 61.0989 102.455 60.9474 101.972 60.6444C101.489 60.3414 101.109 59.9105 100.832 59.3518C100.555 58.7931 100.416 58.1302 100.416 57.3631C100.416 56.5961 100.555 55.9332 100.832 55.3745C101.109 54.8158 101.489 54.3849 101.972 54.0819C102.455 53.7789 103.006 53.6274 103.626 53.6274C103.993 53.6274 104.338 53.6806 104.66 53.7872C104.984 53.8937 105.276 54.0499 105.537 54.2559C105.797 54.4595 106.015 54.7081 106.19 55.0016C106.366 55.2928 106.486 55.6255 106.553 55.9995ZM114.112 57.3631C114.112 58.1302 113.974 58.7931 113.697 59.3518C113.42 59.9105 113.04 60.3414 112.557 60.6444C112.074 60.9474 111.522 61.0989 110.902 61.0989C110.282 61.0989 109.73 60.9474 109.247 60.6444C108.764 60.3414 108.384 59.9105 108.107 59.3518C107.83 58.7931 107.692 58.1302 107.692 57.3631C107.692 56.5961 107.83 55.9332 108.107 55.3745C108.384 54.8158 108.764 54.3849 109.247 54.0819C109.73 53.7789 110.282 53.6274 110.902 53.6274C111.522 53.6274 112.074 53.7789 112.557 54.0819C113.04 54.3849 113.42 54.8158 113.697 55.3745C113.974 55.9332 114.112 56.5961 114.112 57.3631ZM113.26 57.3631C113.26 56.7334 113.154 56.2019 112.944 55.7687C112.735 55.3354 112.452 55.0076 112.095 54.785C111.74 54.5625 111.342 54.4512 110.902 54.4512C110.461 54.4512 110.063 54.5625 109.705 54.785C109.35 55.0076 109.067 55.3354 108.856 55.7687C108.648 56.2019 108.544 56.7334 108.544 57.3631C108.544 57.9929 108.648 58.5244 108.856 58.9576C109.067 59.3908 109.35 59.7187 109.705 59.9413C110.063 60.1638 110.461 60.2751 110.902 60.2751C111.342 60.2751 111.74 60.1638 112.095 59.9413C112.452 59.7187 112.735 59.3908 112.944 58.9576C113.154 58.5244 113.26 57.9929 113.26 57.3631ZM120.366 53.7268L121.246 53.7268L121.246 58.5421C121.246 59.0393 121.129 59.4832 120.895 59.8738C120.663 60.2621 120.335 60.5686 119.911 60.7935C119.487 61.0161 118.99 61.1274 118.42 61.1274C117.849 61.1274 117.352 61.0161 116.928 60.7935C116.504 60.5686 116.175 60.2621 115.941 59.8738C115.709 59.4832 115.593 59.0393 115.593 58.5421L115.593 53.7268L116.474 53.7268L116.474 58.4711C116.474 58.8262 116.552 59.1423 116.708 59.4193C116.864 59.6939 117.087 59.9105 117.376 60.0691C117.667 60.2254 118.015 60.3035 118.42 60.3035C118.824 60.3035 119.172 60.2254 119.464 60.0691C119.755 59.9105 119.977 59.6939 120.131 59.4193C120.287 59.1423 120.366 58.8262 120.366 58.4711L120.366 53.7268ZM128.772 53.7268L128.772 60.9995L127.92 60.9995L123.957 55.2893L123.886 55.2893L123.886 60.9995L123.005 60.9995L123.005 53.7268L123.857 53.7268L127.834 59.4512L127.906 59.4512L127.906 53.7268L128.772 53.7268ZM130.137 54.508L130.137 53.7268L135.591 53.7268L135.591 54.508L133.304 54.508L133.304 60.9995L132.423 60.9995L132.423 54.508L130.137 54.508ZM137.831 53.7268L137.831 60.9995L136.95 60.9995L136.95 53.7268L137.831 53.7268ZM145.364 53.7268L145.364 60.9995L144.512 60.9995L140.548 55.2893L140.477 55.2893L140.477 60.9995L139.597 60.9995L139.597 53.7268L140.449 53.7268L144.426 59.4512L144.497 59.4512L144.497 53.7268L145.364 53.7268ZM152.098 55.9995C152.02 55.7604 151.917 55.5461 151.789 55.3568C151.663 55.165 151.513 55.0016 151.338 54.8667C151.165 54.7318 150.968 54.6288 150.748 54.5577C150.528 54.4867 150.287 54.4512 150.024 54.4512C149.593 54.4512 149.201 54.5625 148.848 54.785C148.496 55.0076 148.215 55.3354 148.007 55.7687C147.798 56.2019 147.694 56.7334 147.694 57.3631C147.694 57.9929 147.8 58.5244 148.01 58.9576C148.221 59.3908 148.506 59.7187 148.866 59.9413C149.226 60.1638 149.631 60.2751 150.081 60.2751C150.497 60.2751 150.864 60.1863 151.181 60.0087C151.501 59.8288 151.75 59.5755 151.927 59.2488C152.107 58.9197 152.197 58.5327 152.197 58.0876L152.467 58.1444L150.279 58.1444L150.279 57.3631L153.049 57.3631L153.049 58.1444C153.049 58.7434 152.921 59.2642 152.666 59.7069C152.413 60.1496 152.062 60.4929 151.615 60.7367C151.17 60.9782 150.658 61.0989 150.081 61.0989C149.437 61.0989 148.871 60.9474 148.383 60.6444C147.898 60.3414 147.519 59.9105 147.247 59.3518C146.977 58.7931 146.842 58.1302 146.842 57.3631C146.842 56.7879 146.919 56.2706 147.073 55.8113C147.229 55.3497 147.449 54.9567 147.733 54.6323C148.017 54.308 148.354 54.0594 148.742 53.8866C149.13 53.7138 149.557 53.6274 150.024 53.6274C150.407 53.6274 150.765 53.6854 151.096 53.8014C151.43 53.915 151.727 54.0772 151.988 54.2879C152.25 54.4962 152.469 54.746 152.645 55.0372C152.82 55.326 152.94 55.6468 153.007 55.9995L152.098 55.9995Z" fill="#712929"/>
<rect width="49" height="21" transform="translate(65.5 0.626953)" fill="white"/>
<path d="M81.5598 9.0815C81.5115 8.5957 81.2971 8.20934 80.9164 7.92241C80.5357 7.63548 80.057 7.49201 79.4803 7.49201C79.074 7.49201 78.7161 7.56161 78.4064 7.70082C78.0996 7.84002 77.8581 8.0332 77.682 8.28036C77.5087 8.52468 77.4221 8.80309 77.4221 9.11559C77.4221 9.3457 77.4718 9.54741 77.5712 9.7207C77.6706 9.894 77.8042 10.0431 77.9718 10.1681C78.1422 10.2903 78.3297 10.3954 78.5343 10.4835C78.7417 10.5716 78.9505 10.6454 79.1607 10.7051L80.0811 10.9693C80.3596 11.046 80.638 11.144 80.9164 11.2633C81.1948 11.3826 81.449 11.5332 81.6792 11.715C81.9121 11.894 82.0982 12.1142 82.2374 12.3755C82.3794 12.6341 82.4505 12.9451 82.4505 13.3088C82.4505 13.7747 82.3297 14.1937 82.0882 14.5659C81.8468 14.938 81.5002 15.2335 81.0485 15.4522C80.5968 15.6681 80.0556 15.7761 79.4249 15.7761C78.8311 15.7761 78.3155 15.6781 77.878 15.4821C77.4405 15.2832 77.0968 15.0091 76.8468 14.6596C76.5968 14.3102 76.4561 13.9054 76.4249 13.4451H77.2431C77.2715 13.7889 77.3851 14.0801 77.584 14.3187C77.7828 14.5574 78.0414 14.7392 78.3596 14.8642C78.6777 14.9863 79.0328 15.0474 79.4249 15.0474C79.8596 15.0474 80.2459 14.975 80.584 14.8301C80.9249 14.6824 81.1919 14.4778 81.3851 14.2164C81.5811 13.9522 81.6792 13.6454 81.6792 13.296C81.6792 13.0005 81.6025 12.7534 81.449 12.5545C81.2956 12.3528 81.0811 12.1838 80.8056 12.0474C80.5328 11.911 80.2161 11.7903 79.8553 11.6852L78.8113 11.3784C78.1266 11.1738 77.5953 10.8912 77.2175 10.5304C76.8397 10.1696 76.6507 9.70934 76.6507 9.14968C76.6507 8.68093 76.7757 8.269 77.0257 7.91388C77.2786 7.55593 77.6195 7.27752 78.0485 7.07866C78.4803 6.87695 78.9647 6.7761 79.5016 6.7761C80.0442 6.7761 80.5243 6.87553 80.9419 7.0744C81.3596 7.27326 81.6905 7.54741 81.9348 7.89684C82.182 8.24343 82.3141 8.63832 82.3311 9.0815H81.5598ZM86.7544 15.7633C86.1891 15.7633 85.6891 15.6199 85.2544 15.3329C84.8226 15.046 84.4846 14.6497 84.2402 14.144C83.9959 13.6355 83.8738 13.0488 83.8738 12.3841C83.8738 11.7136 83.9959 11.1241 84.2402 10.6156C84.4846 10.1042 84.8226 9.7065 85.2544 9.42241C85.6891 9.13548 86.1891 8.99201 86.7544 8.99201C87.3198 8.99201 87.8184 9.13548 88.2502 9.42241C88.682 9.70934 89.0201 10.1071 89.2644 10.6156C89.5115 11.1241 89.6351 11.7136 89.6351 12.3841C89.6351 13.0488 89.513 13.6355 89.2686 14.144C89.0243 14.6497 88.6848 15.046 88.2502 15.3329C87.8184 15.6199 87.3198 15.7633 86.7544 15.7633ZM86.7544 15.0687C87.209 15.0687 87.5939 14.9466 87.9093 14.7022C88.2246 14.4579 88.4632 14.1326 88.6252 13.7264C88.79 13.3201 88.8723 12.8727 88.8723 12.3841C88.8723 11.8954 88.79 11.4466 88.6252 11.0375C88.4632 10.6284 88.2246 10.3002 87.9093 10.0531C87.5939 9.80593 87.209 9.68235 86.7544 9.68235C86.3027 9.68235 85.9178 9.80593 85.5996 10.0531C85.2843 10.3002 85.0442 10.6284 84.8794 11.0375C84.7175 11.4466 84.6365 11.8954 84.6365 12.3841C84.6365 12.8727 84.7175 13.3201 84.8794 13.7264C85.0442 14.1326 85.2843 14.4579 85.5996 14.7022C85.915 14.9466 86.2999 15.0687 86.7544 15.0687ZM93.8443 15.7633C93.2789 15.7633 92.7789 15.6199 92.3443 15.3329C91.9125 15.046 91.5744 14.6497 91.3301 14.144C91.0858 13.6355 90.9636 13.0488 90.9636 12.3841C90.9636 11.7136 91.0858 11.1241 91.3301 10.6156C91.5744 10.1042 91.9125 9.7065 92.3443 9.42241C92.7789 9.13548 93.2789 8.99201 93.8443 8.99201C94.4096 8.99201 94.9082 9.13548 95.34 9.42241C95.7718 9.70934 96.1099 10.1071 96.3542 10.6156C96.6014 11.1241 96.725 11.7136 96.725 12.3841C96.725 13.0488 96.6028 13.6355 96.3585 14.144C96.1142 14.6497 95.7747 15.046 95.34 15.3329C94.9082 15.6199 94.4096 15.7633 93.8443 15.7633ZM93.8443 15.0687C94.2988 15.0687 94.6838 14.9466 94.9991 14.7022C95.3145 14.4579 95.5531 14.1326 95.715 13.7264C95.8798 13.3201 95.9622 12.8727 95.9622 12.3841C95.9622 11.8954 95.8798 11.4466 95.715 11.0375C95.5531 10.6284 95.3145 10.3002 94.9991 10.0531C94.6838 9.80593 94.2988 9.68235 93.8443 9.68235C93.3926 9.68235 93.0076 9.80593 92.6895 10.0531C92.3741 10.3002 92.1341 10.6284 91.9693 11.0375C91.8074 11.4466 91.7264 11.8954 91.7264 12.3841C91.7264 12.8727 91.8074 13.3201 91.9693 13.7264C92.1341 14.1326 92.3741 14.4579 92.6895 14.7022C93.0048 14.9466 93.3897 15.0687 93.8443 15.0687ZM99.1486 11.536V15.627H98.3901V9.0815H99.1273V10.1085H99.1955C99.3489 9.77326 99.5875 9.50479 99.9114 9.30309C100.238 9.09854 100.642 8.99627 101.122 8.99627C101.562 8.99627 101.948 9.0886 102.281 9.27326C102.616 9.45508 102.876 9.72354 103.061 10.0787C103.248 10.4338 103.342 10.8699 103.342 11.3869V15.627H102.583V11.4338C102.583 10.8968 102.433 10.4721 102.132 10.1596C101.833 9.84712 101.433 9.69087 100.93 9.69087C100.586 9.69087 100.281 9.76474 100.014 9.91246C99.7466 10.0602 99.535 10.2733 99.3787 10.5517C99.2253 10.8272 99.1486 11.1554 99.1486 11.536Z" fill="#18181B"/>
</svg>
