<svg width="150" height="70" viewBox="0 0 179 80" fill="none" xmlns="http://www.w3.org/2000/svg">
<rect x="1.62668" y="10.9656" width="175.73" height="68.0689" rx="11.0344" stroke="black" stroke-opacity="0.1" stroke-width="1.9311"/>
<path d="M33.779 50.513C28.8802 50.513 24.9031 46.5358 24.9031 41.6371C24.9031 36.7384 28.8802 32.7612 33.779 32.7612C38.6777 32.7612 42.6548 36.7384 42.6548 41.6371C42.6548 46.5358 38.6777 50.513 33.779 50.513ZM33.779 35.9785C30.6587 35.9785 28.1204 38.5168 28.1204 41.6371C28.1204 44.7574 30.6587 47.2957 33.779 47.2957C36.8993 47.2957 39.4375 44.7574 39.4375 41.6371C39.4375 38.5168 36.8993 35.9785 33.779 35.9785Z" fill="#503A7D"/>
<path d="M39.4375 52.6953C39.4375 55.8156 36.8992 58.3539 33.7789 58.3539C30.6586 58.3539 28.1203 55.8156 28.1203 52.6953L24.9192 52.6953C24.9192 57.594 28.8964 61.5712 33.7951 61.5712C38.6938 61.5712 42.671 57.594 42.671 52.6953L39.4375 52.6953Z" fill="#503A7D"/>
<path d="M46.9393 35.461L46.9393 28.4282L39.9065 28.4282L39.9065 31.3545L44.013 31.3545L44.013 35.461L46.9393 35.461Z" fill="#503A7D"/>
<path d="M72.8877 34.992C71.756 33.9088 70.0585 33.2945 68.5872 33.2945C64.9657 33.2945 62.767 36.0429 62.767 39.5189C62.767 42.2997 64.3837 45.1613 68.5872 45.1613C69.913 45.1613 71.077 44.8703 72.4027 43.8032L72.4027 40.8123L68.086 40.8123L68.086 37.983L75.329 37.983L75.329 45.0966C73.6638 47.0044 71.562 48.1361 68.5872 48.1361C62.2335 48.1361 59.6628 43.9649 59.6628 39.5189C59.6628 34.7657 62.6376 30.3682 68.5872 30.3682C70.8507 30.3682 73.1303 31.2412 74.8602 32.9549L72.8877 34.992Z" fill="black"/>
<path d="M95.0855 47.7641L91.3023 47.7641L86.3713 42.1217L83.2995 42.1217L83.2995 47.7641L80.1145 47.7641L80.1145 30.853C82.7983 30.853 85.4659 30.8854 88.1497 30.8854C92.1269 30.9177 94.2286 33.5691 94.2286 36.4793C94.2286 38.7912 93.1616 41.1355 89.9604 41.7822L95.0855 47.5539L95.0855 47.7641ZM83.3156 33.844L83.3156 39.2439L88.1658 39.2439C90.1868 39.2439 91.0598 37.8858 91.0598 36.5439C91.0598 35.202 90.1706 33.844 88.1658 33.844L83.3156 33.844Z" fill="black"/>
<path d="M111.77 44.5791L102.927 44.5791L101.472 47.764L98.012 47.764L105.594 30.8691L109.07 30.8691L116.653 47.764L113.177 47.764L111.77 44.5791ZM107.357 34.426L104.22 41.6204L110.493 41.6204L107.357 34.426Z" fill="black"/>
<path d="M130.686 30.853L133.871 30.853L133.871 47.7803L131.899 47.7803L131.899 47.7964L123.007 36.3823L123.007 47.7803L119.822 47.7803L119.822 30.8692L122.409 30.8692L130.686 41.3456L130.686 30.853Z" fill="black"/>
<path d="M154.08 39.1792C154.161 43.4474 151.542 47.7802 145.625 47.7802L138.98 47.7802L138.98 30.8691L145.625 30.8691C151.413 30.8691 153.999 34.9918 154.08 39.1792ZM142.149 44.7084L145.625 44.7084C149.456 44.7084 150.992 41.9115 150.912 39.163C150.831 36.5277 149.295 33.9086 145.625 33.9086L142.149 33.9086L142.149 44.7084Z" fill="black"/>
<path d="M61.6525 54.4735L63.662 60.1714L63.7413 60.1714L65.7507 54.4735L66.6101 54.4735L64.1247 61.2422L63.2786 61.2422L60.7932 54.4735L61.6525 54.4735ZM68.484 54.4735L68.484 61.2422L67.6644 61.2422L67.6644 54.4735L68.484 54.4735ZM72.2162 61.2422L70.1274 61.2422L70.1274 54.4735L72.3087 54.4735C72.9653 54.4735 73.5272 54.609 73.9943 54.88C74.4614 55.1488 74.8194 55.5355 75.0684 56.0401C75.3174 56.5425 75.4419 57.144 75.4419 57.8446C75.4419 58.5497 75.3163 59.1567 75.0651 59.6657C74.8139 60.1725 74.4482 60.5625 73.9678 60.8357C73.4875 61.1067 72.9036 61.2422 72.2162 61.2422ZM70.9471 60.5151L72.1633 60.5151C72.723 60.5151 73.1868 60.4071 73.5547 60.1912C73.9227 59.9753 74.197 59.6679 74.3777 59.2691C74.5583 58.8703 74.6487 58.3955 74.6487 57.8446C74.6487 57.2982 74.5594 56.8278 74.381 56.4334C74.2025 56.0368 73.9359 55.7327 73.5812 55.5212C73.2264 55.3075 72.7847 55.2006 72.2558 55.2006L70.9471 55.2006L70.9471 60.5151ZM76.8168 61.2422L76.8168 54.4735L80.9018 54.4735L80.9018 55.2006L77.6364 55.2006L77.6364 57.4877L80.6903 57.4877L80.6903 58.2148L77.6364 58.2148L77.6364 60.5151L80.9547 60.5151L80.9547 61.2422L76.8168 61.2422ZM88.0902 57.8578C88.0902 58.5717 87.9613 59.1887 87.7035 59.7087C87.4457 60.2286 87.0921 60.6297 86.6426 60.9117C86.1931 61.1937 85.6797 61.3347 85.1025 61.3347C84.5252 61.3347 84.0118 61.1937 83.5623 60.9117C83.1128 60.6297 82.7592 60.2286 82.5014 59.7087C82.2436 59.1887 82.1147 58.5717 82.1147 57.8578C82.1147 57.144 82.2436 56.527 82.5014 56.007C82.7592 55.487 83.1128 55.086 83.5623 54.804C84.0118 54.522 84.5252 54.381 85.1025 54.381C85.6797 54.381 86.1931 54.522 86.6426 54.804C87.0921 55.086 87.4457 55.487 87.7035 56.007C87.9613 56.527 88.0902 57.144 88.0902 57.8578ZM87.297 57.8578C87.297 57.2718 87.1989 56.7771 87.0028 56.3739C86.8089 55.9707 86.5456 55.6655 86.2129 55.4584C85.8824 55.2513 85.5123 55.1477 85.1025 55.1477C84.6926 55.1477 84.3214 55.2513 83.9887 55.4584C83.6582 55.6655 83.3949 55.9707 83.1988 56.3739C83.0049 56.7771 82.9079 57.2718 82.9079 57.8578C82.9079 58.4439 83.0049 58.9386 83.1988 59.3418C83.3949 59.745 83.6582 60.0502 83.9887 60.2573C84.3214 60.4644 84.6926 60.568 85.1025 60.568C85.5123 60.568 85.8824 60.4644 86.2129 60.2573C86.5456 60.0502 86.8089 59.745 87.0028 59.3418C87.1989 58.9386 87.297 58.4439 87.297 57.8578ZM97.5326 56.5887L96.713 56.5887C96.6645 56.353 96.5797 56.1458 96.4585 55.9674C96.3395 55.7889 96.1941 55.6391 96.0222 55.5179C95.8526 55.3945 95.6642 55.302 95.4571 55.2403C95.25 55.1786 95.034 55.1477 94.8093 55.1477C94.3995 55.1477 94.0282 55.2513 93.6955 55.4584C93.365 55.6655 93.1017 55.9707 92.9056 56.3739C92.7117 56.7771 92.6148 57.2718 92.6148 57.8578C92.6148 58.4439 92.7117 58.9386 92.9056 59.3418C93.1017 59.745 93.365 60.0502 93.6955 60.2573C94.0282 60.4644 94.3995 60.568 94.8093 60.568C95.034 60.568 95.25 60.5371 95.4571 60.4754C95.6642 60.4137 95.8526 60.3223 96.0222 60.2011C96.1941 60.0777 96.3395 59.9268 96.4585 59.7483C96.5797 59.5676 96.6645 59.3605 96.713 59.127L97.5326 59.127C97.4709 59.4729 97.3586 59.7825 97.1955 60.0557C97.0325 60.3289 96.8298 60.5614 96.5874 60.753C96.345 60.9425 96.0729 61.0869 95.7711 61.186C95.4714 61.2852 95.1508 61.3347 94.8093 61.3347C94.232 61.3347 93.7186 61.1937 93.2692 60.9117C92.8197 60.6297 92.466 60.2286 92.2082 59.7087C91.9505 59.1887 91.8216 58.5717 91.8216 57.8578C91.8216 57.144 91.9505 56.527 92.2082 56.007C92.466 55.487 92.8197 55.086 93.2692 54.804C93.7186 54.522 94.232 54.381 94.8093 54.381C95.1508 54.381 95.4714 54.4305 95.7711 54.5297C96.0729 54.6288 96.345 54.7743 96.5874 54.966C96.8298 55.1554 97.0325 55.3868 97.1955 55.66C97.3586 55.931 97.4709 56.2406 97.5326 56.5887ZM104.568 57.8578C104.568 58.5717 104.439 59.1887 104.181 59.7087C103.924 60.2286 103.57 60.6297 103.121 60.9117C102.671 61.1937 102.158 61.3347 101.58 61.3347C101.003 61.3347 100.49 61.1937 100.04 60.9117C99.5908 60.6297 99.2372 60.2286 98.9794 59.7087C98.7216 59.1887 98.5927 58.5717 98.5927 57.8578C98.5927 57.144 98.7216 56.527 98.9794 56.007C99.2372 55.487 99.5908 55.086 100.04 54.804C100.49 54.522 101.003 54.381 101.58 54.381C102.158 54.381 102.671 54.522 103.121 54.804C103.57 55.086 103.924 55.487 104.181 56.007C104.439 56.527 104.568 57.144 104.568 57.8578ZM103.775 57.8578C103.775 57.2718 103.677 56.7771 103.481 56.3739C103.287 55.9707 103.024 55.6655 102.691 55.4584C102.36 55.2513 101.99 55.1477 101.58 55.1477C101.171 55.1477 100.799 55.2513 100.467 55.4584C100.136 55.6655 99.8729 55.9707 99.6768 56.3739C99.4829 56.7771 99.3859 57.2718 99.3859 57.8578C99.3859 58.4439 99.4829 58.9386 99.6768 59.3418C99.8729 59.745 100.136 60.0502 100.467 60.2573C100.799 60.4644 101.171 60.568 101.58 60.568C101.99 60.568 102.36 60.4644 102.691 60.2573C103.024 60.0502 103.287 59.745 103.481 59.3418C103.677 58.9386 103.775 58.4439 103.775 57.8578ZM111.314 54.4735L111.314 61.2422L110.521 61.2422L106.832 55.9277L106.766 55.9277L106.766 61.2422L105.946 61.2422L105.946 54.4735L106.74 54.4735L110.441 59.8012L110.507 59.8012L110.507 54.4735L111.314 54.4735ZM112.954 61.2422L112.954 54.4735L117.012 54.4735L117.012 55.2006L113.773 55.2006L113.773 57.4877L116.708 57.4877L116.708 58.2148L113.773 58.2148L113.773 61.2422L112.954 61.2422ZM118.416 61.2422L118.416 54.4735L122.501 54.4735L122.501 55.2006L119.236 55.2006L119.236 57.4877L122.29 57.4877L122.29 58.2148L119.236 58.2148L119.236 60.5151L122.554 60.5151L122.554 61.2422L118.416 61.2422ZM123.979 61.2422L123.979 54.4735L126.266 54.4735C126.794 54.4735 127.228 54.5638 127.568 54.7445C127.907 54.923 128.158 55.1687 128.321 55.4815C128.484 55.7944 128.566 56.1503 128.566 56.5491C128.566 56.9479 128.484 57.3015 128.321 57.61C128.158 57.9184 127.908 58.1608 127.571 58.3371C127.234 58.5111 126.803 58.5982 126.279 58.5982L124.428 58.5982L124.428 57.8578L126.252 57.8578C126.614 57.8578 126.905 57.805 127.125 57.6992C127.347 57.5934 127.508 57.4436 127.607 57.2497C127.709 57.0536 127.759 56.8201 127.759 56.5491C127.759 56.2781 127.709 56.0412 127.607 55.8385C127.506 55.6358 127.344 55.4793 127.122 55.3692C126.899 55.2568 126.605 55.2006 126.239 55.2006L124.798 55.2006L124.798 61.2422L123.979 61.2422ZM127.165 58.2016L128.83 61.2422L127.878 61.2422L126.239 58.2016L127.165 58.2016ZM129.932 61.2422L129.932 54.4735L134.017 54.4735L134.017 55.2006L130.751 55.2006L130.751 57.4877L133.805 57.4877L133.805 58.2148L130.751 58.2148L130.751 60.5151L134.07 60.5151L134.07 61.2422L129.932 61.2422ZM140.861 54.4735L140.861 61.2422L140.068 61.2422L136.38 55.9277L136.314 55.9277L136.314 61.2422L135.494 61.2422L135.494 54.4735L136.287 54.4735L139.989 59.8012L140.055 59.8012L140.055 54.4735L140.861 54.4735ZM147.948 56.5887L147.129 56.5887C147.08 56.353 146.995 56.1458 146.874 55.9674C146.755 55.7889 146.61 55.6391 146.438 55.5179C146.268 55.3945 146.08 55.302 145.873 55.2403C145.666 55.1786 145.45 55.1477 145.225 55.1477C144.815 55.1477 144.444 55.2513 144.111 55.4584C143.781 55.6655 143.517 55.9707 143.321 56.3739C143.127 56.7771 143.03 57.2718 143.03 57.8578C143.03 58.4439 143.127 58.9386 143.321 59.3418C143.517 59.745 143.781 60.0502 144.111 60.2573C144.444 60.4644 144.815 60.568 145.225 60.568C145.45 60.568 145.666 60.5371 145.873 60.4754C146.08 60.4137 146.268 60.3223 146.438 60.2011C146.61 60.0777 146.755 59.9268 146.874 59.7483C146.995 59.5676 147.08 59.3605 147.129 59.127L147.948 59.127C147.887 59.4729 147.774 59.7825 147.611 60.0557C147.448 60.3289 147.245 60.5614 147.003 60.753C146.761 60.9425 146.488 61.0869 146.187 61.186C145.887 61.2852 145.566 61.3347 145.225 61.3347C144.648 61.3347 144.134 61.1937 143.685 60.9117C143.235 60.6297 142.882 60.2286 142.624 59.7087C142.366 59.1887 142.237 58.5717 142.237 57.8578C142.237 57.144 142.366 56.527 142.624 56.007C142.882 55.487 143.235 55.086 143.685 54.804C144.134 54.522 144.648 54.381 145.225 54.381C145.566 54.381 145.887 54.4305 146.187 54.5297C146.488 54.6288 146.761 54.7743 147.003 54.966C147.245 55.1554 147.448 55.3868 147.611 55.66C147.774 55.931 147.887 56.2406 147.948 56.5887ZM149.273 61.2422L149.273 54.4735L153.358 54.4735L153.358 55.2006L150.092 55.2006L150.092 57.4877L153.146 57.4877L153.146 58.2148L150.092 58.2148L150.092 60.5151L153.411 60.5151L153.411 61.2422L149.273 61.2422Z" fill="#503A7D"/>
<rect width="49" height="21" transform="translate(65.5 0.626953)" fill="white"/>
<path d="M81.5598 9.0815C81.5115 8.5957 81.2971 8.20934 80.9164 7.92241C80.5357 7.63548 80.057 7.49201 79.4803 7.49201C79.074 7.49201 78.7161 7.56161 78.4064 7.70082C78.0996 7.84002 77.8581 8.0332 77.682 8.28036C77.5087 8.52468 77.4221 8.80309 77.4221 9.11559C77.4221 9.3457 77.4718 9.54741 77.5712 9.7207C77.6706 9.894 77.8042 10.0431 77.9718 10.1681C78.1422 10.2903 78.3297 10.3954 78.5343 10.4835C78.7417 10.5716 78.9505 10.6454 79.1607 10.7051L80.0811 10.9693C80.3596 11.046 80.638 11.144 80.9164 11.2633C81.1948 11.3826 81.449 11.5332 81.6792 11.715C81.9121 11.894 82.0982 12.1142 82.2374 12.3755C82.3794 12.6341 82.4505 12.9451 82.4505 13.3088C82.4505 13.7747 82.3297 14.1937 82.0882 14.5659C81.8468 14.938 81.5002 15.2335 81.0485 15.4522C80.5968 15.6681 80.0556 15.7761 79.4249 15.7761C78.8311 15.7761 78.3155 15.6781 77.878 15.4821C77.4405 15.2832 77.0968 15.0091 76.8468 14.6596C76.5968 14.3102 76.4561 13.9054 76.4249 13.4451H77.2431C77.2715 13.7889 77.3851 14.0801 77.584 14.3187C77.7828 14.5574 78.0414 14.7392 78.3596 14.8642C78.6777 14.9863 79.0328 15.0474 79.4249 15.0474C79.8596 15.0474 80.2459 14.975 80.584 14.8301C80.9249 14.6824 81.1919 14.4778 81.3851 14.2164C81.5811 13.9522 81.6792 13.6454 81.6792 13.296C81.6792 13.0005 81.6025 12.7534 81.449 12.5545C81.2956 12.3528 81.0811 12.1838 80.8056 12.0474C80.5328 11.911 80.2161 11.7903 79.8553 11.6852L78.8113 11.3784C78.1266 11.1738 77.5953 10.8912 77.2175 10.5304C76.8397 10.1696 76.6507 9.70934 76.6507 9.14968C76.6507 8.68093 76.7757 8.269 77.0257 7.91388C77.2786 7.55593 77.6195 7.27752 78.0485 7.07866C78.4803 6.87695 78.9647 6.7761 79.5016 6.7761C80.0442 6.7761 80.5243 6.87553 80.9419 7.0744C81.3596 7.27326 81.6905 7.54741 81.9348 7.89684C82.182 8.24343 82.3141 8.63832 82.3311 9.0815H81.5598ZM86.7544 15.7633C86.1891 15.7633 85.6891 15.6199 85.2544 15.3329C84.8226 15.046 84.4846 14.6497 84.2402 14.144C83.9959 13.6355 83.8738 13.0488 83.8738 12.3841C83.8738 11.7136 83.9959 11.1241 84.2402 10.6156C84.4846 10.1042 84.8226 9.7065 85.2544 9.42241C85.6891 9.13548 86.1891 8.99201 86.7544 8.99201C87.3198 8.99201 87.8184 9.13548 88.2502 9.42241C88.682 9.70934 89.0201 10.1071 89.2644 10.6156C89.5115 11.1241 89.6351 11.7136 89.6351 12.3841C89.6351 13.0488 89.513 13.6355 89.2686 14.144C89.0243 14.6497 88.6848 15.046 88.2502 15.3329C87.8184 15.6199 87.3198 15.7633 86.7544 15.7633ZM86.7544 15.0687C87.209 15.0687 87.5939 14.9466 87.9093 14.7022C88.2246 14.4579 88.4632 14.1326 88.6252 13.7264C88.79 13.3201 88.8723 12.8727 88.8723 12.3841C88.8723 11.8954 88.79 11.4466 88.6252 11.0375C88.4632 10.6284 88.2246 10.3002 87.9093 10.0531C87.5939 9.80593 87.209 9.68235 86.7544 9.68235C86.3027 9.68235 85.9178 9.80593 85.5996 10.0531C85.2843 10.3002 85.0442 10.6284 84.8794 11.0375C84.7175 11.4466 84.6365 11.8954 84.6365 12.3841C84.6365 12.8727 84.7175 13.3201 84.8794 13.7264C85.0442 14.1326 85.2843 14.4579 85.5996 14.7022C85.915 14.9466 86.2999 15.0687 86.7544 15.0687ZM93.8443 15.7633C93.2789 15.7633 92.7789 15.6199 92.3443 15.3329C91.9125 15.046 91.5744 14.6497 91.3301 14.144C91.0858 13.6355 90.9636 13.0488 90.9636 12.3841C90.9636 11.7136 91.0858 11.1241 91.3301 10.6156C91.5744 10.1042 91.9125 9.7065 92.3443 9.42241C92.7789 9.13548 93.2789 8.99201 93.8443 8.99201C94.4096 8.99201 94.9082 9.13548 95.34 9.42241C95.7718 9.70934 96.1099 10.1071 96.3542 10.6156C96.6014 11.1241 96.725 11.7136 96.725 12.3841C96.725 13.0488 96.6028 13.6355 96.3585 14.144C96.1142 14.6497 95.7747 15.046 95.34 15.3329C94.9082 15.6199 94.4096 15.7633 93.8443 15.7633ZM93.8443 15.0687C94.2988 15.0687 94.6838 14.9466 94.9991 14.7022C95.3145 14.4579 95.5531 14.1326 95.715 13.7264C95.8798 13.3201 95.9622 12.8727 95.9622 12.3841C95.9622 11.8954 95.8798 11.4466 95.715 11.0375C95.5531 10.6284 95.3145 10.3002 94.9991 10.0531C94.6838 9.80593 94.2988 9.68235 93.8443 9.68235C93.3926 9.68235 93.0076 9.80593 92.6895 10.0531C92.3741 10.3002 92.1341 10.6284 91.9693 11.0375C91.8074 11.4466 91.7264 11.8954 91.7264 12.3841C91.7264 12.8727 91.8074 13.3201 91.9693 13.7264C92.1341 14.1326 92.3741 14.4579 92.6895 14.7022C93.0048 14.9466 93.3897 15.0687 93.8443 15.0687ZM99.1486 11.536V15.627H98.3901V9.0815H99.1273V10.1085H99.1955C99.3489 9.77326 99.5875 9.50479 99.9114 9.30309C100.238 9.09854 100.642 8.99627 101.122 8.99627C101.562 8.99627 101.948 9.0886 102.281 9.27326C102.616 9.45508 102.876 9.72354 103.061 10.0787C103.248 10.4338 103.342 10.8699 103.342 11.3869V15.627H102.583V11.4338C102.583 10.8968 102.433 10.4721 102.132 10.1596C101.833 9.84712 101.433 9.69087 100.93 9.69087C100.586 9.69087 100.281 9.76474 100.014 9.91246C99.7466 10.0602 99.535 10.2733 99.3787 10.5517C99.2253 10.8272 99.1486 11.1554 99.1486 11.536Z" fill="#18181B"/>
</svg>