<svg width="150" height="70" viewBox="0 0 178 80" fill="none" xmlns="http://www.w3.org/2000/svg">
<rect x="0.965551" y="10.9656" width="175.73" height="68.0689" rx="11.0344" stroke="black" stroke-opacity="0.1" stroke-width="1.9311"/>
<path d="M33.0534 50.513C28.1547 50.513 24.1775 46.5358 24.1775 41.6371C24.1775 36.7384 28.1708 32.7612 33.0534 32.7612C37.9359 32.7612 41.9293 36.7384 41.9293 41.6371C41.9293 46.5358 37.9521 50.513 33.0534 50.513ZM33.0534 35.9785C29.9331 35.9785 27.3948 38.5168 27.3948 41.6371C27.3948 44.7574 29.9331 47.2957 33.0534 47.2957C36.1737 47.2957 38.712 44.7574 38.712 41.6371C38.712 38.5168 36.1737 35.9785 33.0534 35.9785Z" fill="#5B13B8"/>
<path d="M38.712 52.6953C38.712 55.8156 36.1737 58.3539 33.0534 58.3539C29.9331 58.3539 27.3948 55.8156 27.3948 52.6953L24.1775 52.6953C24.1775 57.594 28.1547 61.5712 33.0534 61.5712C37.9521 61.5712 41.9293 57.594 41.9293 52.6953L38.712 52.6953Z" fill="#5B13B8"/>
<path d="M46.2135 35.461L46.2135 28.4282L39.1807 28.4282L39.1807 31.3545L43.271 31.3545L43.271 35.461L46.2135 35.461Z" fill="#5B13B8"/>
<path d="M72.1463 34.992C71.0146 33.9088 69.317 33.2945 67.8458 33.2945C64.2243 33.2945 62.0255 36.0429 62.0255 39.5189C62.0255 42.2997 63.6423 45.1613 67.8458 45.1613C69.1715 45.1613 70.3355 44.8703 71.6613 43.8032L71.6613 40.8123L67.3446 40.8123L67.3446 37.983L74.5876 37.983L74.5876 45.0966C72.9223 47.0044 70.8206 48.1361 67.8458 48.1361C61.492 48.1361 58.9214 43.9649 58.9214 39.5189C58.9214 34.7657 61.8962 30.3682 67.8458 30.3682C70.1092 30.3682 72.3888 31.2412 74.1187 32.9549L72.1463 34.992Z" fill="black"/>
<path d="M94.3601 47.7641L90.577 47.7641L85.6459 42.1217L82.5741 42.1217L82.5741 47.7641L79.3892 47.7641L79.3892 30.853C82.0729 30.853 84.7406 30.8854 87.4243 30.8854C91.4177 30.9015 93.5194 33.553 93.5194 36.4631C93.5194 38.775 92.4524 41.1193 89.2513 41.766L94.3763 47.5378L94.3601 47.7641ZM82.5741 33.844L82.5741 39.2439L87.4243 39.2439C89.4453 39.2439 90.3183 37.8858 90.3183 36.5439C90.3183 35.202 89.4453 33.844 87.4405 33.844L82.5741 33.844Z" fill="black"/>
<path d="M111.044 44.5796L102.201 44.5796L100.746 47.7645L97.2859 47.7645L104.868 30.8696L108.344 30.8696L115.927 47.7645L112.451 47.7645L111.044 44.5796ZM106.631 34.4264L103.494 41.6209L109.767 41.6209L106.631 34.4264Z" fill="black"/>
<path d="M129.945 30.853L133.13 30.853L133.13 47.7803L131.157 47.7803L131.157 47.7964L122.265 36.3823L122.265 47.7803L119.08 47.7803L119.08 30.8692L121.667 30.8692L129.945 41.3456L129.945 30.853Z" fill="black"/>
<path d="M153.339 39.1792C153.419 43.4474 150.8 47.7802 144.883 47.7802L138.238 47.7802L138.238 30.8691L144.883 30.8691C150.687 30.8691 153.274 34.9918 153.339 39.1792ZM141.423 44.7084L144.899 44.7084C148.731 44.7084 150.267 41.9115 150.186 39.163C150.105 36.5277 148.569 33.9086 144.899 33.9086L141.423 33.9086L141.423 44.7084Z" fill="black"/>
<path d="M101.78 55.545C101.737 55.1851 101.565 54.9058 101.262 54.7069C100.959 54.508 100.587 54.4086 100.147 54.4086C99.8246 54.4086 99.5429 54.4607 99.3014 54.5649C99.0623 54.669 98.8752 54.8122 98.7403 54.9945C98.6077 55.1768 98.5414 55.384 98.5414 55.616C98.5414 55.8101 98.5876 55.977 98.6799 56.1167C98.7746 56.254 98.8954 56.3688 99.0421 56.4612C99.1889 56.5511 99.3428 56.6257 99.5038 56.6849C99.6648 56.7417 99.8127 56.7879 99.9477 56.8234L100.686 57.0222C100.876 57.072 101.086 57.1406 101.318 57.2282C101.553 57.3158 101.777 57.4354 101.99 57.5869C102.205 57.736 102.383 57.9278 102.522 58.1622C102.662 58.3965 102.732 58.6842 102.732 59.0251C102.732 59.4181 102.629 59.7732 102.423 60.0904C102.219 60.4077 101.921 60.6598 101.528 60.8468C101.137 61.0338 100.663 61.1274 100.104 61.1274C99.5831 61.1274 99.1321 61.0433 98.751 60.8752C98.3722 60.7071 98.0739 60.4728 97.8561 60.1721C97.6406 59.8714 97.5187 59.5222 97.4903 59.1245L98.3994 59.1245C98.4231 59.3991 98.5154 59.6264 98.6764 59.8063C98.8397 59.9839 99.0457 60.1165 99.2943 60.2041C99.5452 60.2893 99.8151 60.3319 100.104 60.3319C100.44 60.3319 100.742 60.2774 101.009 60.1685C101.277 60.0573 101.489 59.9034 101.645 59.7069C101.801 59.508 101.88 59.276 101.88 59.0109C101.88 58.7694 101.812 58.5729 101.677 58.4214C101.542 58.2699 101.365 58.1468 101.144 58.0521C100.924 57.9574 100.686 57.8745 100.431 57.8035L99.5358 57.5478C98.9676 57.3845 98.5178 57.1513 98.1863 56.8482C97.8549 56.5452 97.6892 56.1487 97.6892 55.6586C97.6892 55.2514 97.7992 54.8963 98.0194 54.5933C98.242 54.2879 98.5403 54.0511 98.9143 53.883C99.2907 53.7126 99.7109 53.6274 100.175 53.6274C100.644 53.6274 101.06 53.7114 101.425 53.8795C101.79 54.0452 102.078 54.2725 102.291 54.5613C102.507 54.8501 102.621 55.178 102.632 55.545L101.78 55.545ZM105.06 53.7268L105.06 60.9995L104.18 60.9995L104.18 53.7268L105.06 53.7268ZM111.798 55.9995C111.72 55.7604 111.617 55.5461 111.489 55.3568C111.363 55.165 111.213 55.0016 111.038 54.8667C110.865 54.7318 110.669 54.6288 110.448 54.5577C110.228 54.4867 109.987 54.4512 109.724 54.4512C109.293 54.4512 108.901 54.5625 108.549 54.785C108.196 55.0076 107.915 55.3354 107.707 55.7687C107.499 56.2019 107.394 56.7334 107.394 57.3631C107.394 57.9929 107.5 58.5244 107.71 58.9576C107.921 59.3908 108.206 59.7187 108.566 59.9413C108.926 60.1638 109.331 60.2751 109.781 60.2751C110.197 60.2751 110.564 60.1863 110.882 60.0087C111.201 59.8288 111.45 59.5755 111.627 59.2488C111.807 58.9197 111.897 58.5327 111.897 58.0876L112.167 58.1444L109.98 58.1444L109.98 57.3631L112.75 57.3631L112.75 58.1444C112.75 58.7434 112.622 59.2642 112.366 59.7069C112.113 60.1496 111.762 60.4929 111.315 60.7367C110.87 60.9782 110.358 61.0989 109.781 61.0989C109.137 61.0989 108.571 60.9474 108.083 60.6444C107.598 60.3414 107.219 59.9105 106.947 59.3518C106.677 58.7931 106.542 58.1302 106.542 57.3631C106.542 56.7879 106.619 56.2706 106.773 55.8113C106.929 55.3497 107.149 54.9567 107.433 54.6323C107.718 54.308 108.054 54.0594 108.442 53.8866C108.83 53.7138 109.258 53.6274 109.724 53.6274C110.107 53.6274 110.465 53.6854 110.796 53.8014C111.13 53.915 111.427 54.0772 111.688 54.2879C111.951 54.4962 112.17 54.746 112.345 55.0372C112.52 55.326 112.641 55.6468 112.707 55.9995L111.798 55.9995ZM120.025 53.7268L120.025 60.9995L119.173 60.9995L115.21 55.2893L115.139 55.2893L115.139 60.9995L114.258 60.9995L114.258 53.7268L115.11 53.7268L119.087 59.4512L119.158 59.4512L119.158 53.7268L120.025 53.7268ZM122.085 60.9995L121.162 60.9995L123.833 53.7268L124.742 53.7268L127.412 60.9995L126.489 60.9995L124.316 54.8774L124.259 54.8774L122.085 60.9995ZM122.426 58.1586L126.148 58.1586L126.148 58.9399L122.426 58.9399L122.426 58.1586ZM127.298 54.508L127.298 53.7268L132.752 53.7268L132.752 54.508L130.465 54.508L130.465 60.9995L129.585 60.9995L129.585 54.508L127.298 54.508ZM138.884 53.7268L139.765 53.7268L139.765 58.5421C139.765 59.0393 139.648 59.4832 139.413 59.8738C139.181 60.2621 138.853 60.5686 138.43 60.7935C138.006 61.0161 137.509 61.1274 136.938 61.1274C136.368 61.1274 135.87 61.0161 135.447 60.7935C135.023 60.5686 134.694 60.2621 134.459 59.8738C134.227 59.4832 134.111 59.0393 134.111 58.5421L134.111 53.7268L134.992 53.7268L134.992 58.4711C134.992 58.8262 135.07 59.1423 135.226 59.4193C135.383 59.6939 135.605 59.9105 135.894 60.0691C136.185 60.2254 136.533 60.3035 136.938 60.3035C137.343 60.3035 137.691 60.2254 137.982 60.0691C138.273 59.9105 138.496 59.6939 138.65 59.4193C138.806 59.1423 138.884 58.8262 138.884 58.4711L138.884 53.7268ZM141.524 60.9995L141.524 53.7268L143.981 53.7268C144.549 53.7268 145.015 53.8238 145.38 54.018C145.745 54.2097 146.015 54.4737 146.19 54.8099C146.365 55.1461 146.452 55.5284 146.452 55.9569C146.452 56.3854 146.365 56.7654 146.19 57.0968C146.015 57.4283 145.746 57.6887 145.384 57.8781C145.021 58.0651 144.559 58.1586 143.995 58.1586L142.006 58.1586L142.006 57.3631L143.967 57.3631C144.355 57.3631 144.667 57.3063 144.904 57.1927C145.143 57.0791 145.316 56.9181 145.423 56.7097C145.532 56.499 145.586 56.2481 145.586 55.9569C145.586 55.6657 145.532 55.4112 145.423 55.1934C145.314 54.9756 145.14 54.8075 144.901 54.6891C144.662 54.5684 144.345 54.508 143.952 54.508L142.404 54.508L142.404 60.9995L141.524 60.9995ZM144.947 57.7325L146.737 60.9995L145.714 60.9995L143.952 57.7325L144.947 57.7325ZM147.92 60.9995L147.92 53.7268L152.309 53.7268L152.309 54.508L148.801 54.508L148.801 56.9654L152.082 56.9654L152.082 57.7467L148.801 57.7467L148.801 60.2183L152.366 60.2183L152.366 60.9995L147.92 60.9995Z" fill="#5B13B8"/>
<rect width="49" height="21" transform="translate(64.5 0.626953)" fill="white"/>
<path d="M80.5598 9.0815C80.5115 8.5957 80.2971 8.20934 79.9164 7.92241C79.5357 7.63548 79.057 7.49201 78.4803 7.49201C78.074 7.49201 77.7161 7.56161 77.4064 7.70082C77.0996 7.84002 76.8581 8.0332 76.682 8.28036C76.5087 8.52468 76.4221 8.80309 76.4221 9.11559C76.4221 9.3457 76.4718 9.54741 76.5712 9.7207C76.6706 9.894 76.8042 10.0431 76.9718 10.1681C77.1422 10.2903 77.3297 10.3954 77.5343 10.4835C77.7417 10.5716 77.9505 10.6454 78.1607 10.7051L79.0811 10.9693C79.3596 11.046 79.638 11.144 79.9164 11.2633C80.1948 11.3826 80.449 11.5332 80.6792 11.715C80.9121 11.894 81.0982 12.1142 81.2374 12.3755C81.3794 12.6341 81.4505 12.9451 81.4505 13.3088C81.4505 13.7747 81.3297 14.1937 81.0882 14.5659C80.8468 14.938 80.5002 15.2335 80.0485 15.4522C79.5968 15.6681 79.0556 15.7761 78.4249 15.7761C77.8311 15.7761 77.3155 15.6781 76.878 15.4821C76.4405 15.2832 76.0968 15.0091 75.8468 14.6596C75.5968 14.3102 75.4561 13.9054 75.4249 13.4451H76.2431C76.2715 13.7889 76.3851 14.0801 76.584 14.3187C76.7828 14.5574 77.0414 14.7392 77.3596 14.8642C77.6777 14.9863 78.0328 15.0474 78.4249 15.0474C78.8596 15.0474 79.2459 14.975 79.584 14.8301C79.9249 14.6824 80.1919 14.4778 80.3851 14.2164C80.5811 13.9522 80.6792 13.6454 80.6792 13.296C80.6792 13.0005 80.6025 12.7534 80.449 12.5545C80.2956 12.3528 80.0811 12.1838 79.8056 12.0474C79.5328 11.911 79.2161 11.7903 78.8553 11.6852L77.8113 11.3784C77.1266 11.1738 76.5953 10.8912 76.2175 10.5304C75.8397 10.1696 75.6507 9.70934 75.6507 9.14968C75.6507 8.68093 75.7757 8.269 76.0257 7.91388C76.2786 7.55593 76.6195 7.27752 77.0485 7.07866C77.4803 6.87695 77.9647 6.7761 78.5016 6.7761C79.0442 6.7761 79.5243 6.87553 79.9419 7.0744C80.3596 7.27326 80.6905 7.54741 80.9348 7.89684C81.182 8.24343 81.3141 8.63832 81.3311 9.0815H80.5598ZM85.7544 15.7633C85.1891 15.7633 84.6891 15.6199 84.2544 15.3329C83.8226 15.046 83.4846 14.6497 83.2402 14.144C82.9959 13.6355 82.8738 13.0488 82.8738 12.3841C82.8738 11.7136 82.9959 11.1241 83.2402 10.6156C83.4846 10.1042 83.8226 9.7065 84.2544 9.42241C84.6891 9.13548 85.1891 8.99201 85.7544 8.99201C86.3198 8.99201 86.8184 9.13548 87.2502 9.42241C87.682 9.70934 88.0201 10.1071 88.2644 10.6156C88.5115 11.1241 88.6351 11.7136 88.6351 12.3841C88.6351 13.0488 88.513 13.6355 88.2686 14.144C88.0243 14.6497 87.6848 15.046 87.2502 15.3329C86.8184 15.6199 86.3198 15.7633 85.7544 15.7633ZM85.7544 15.0687C86.209 15.0687 86.5939 14.9466 86.9093 14.7022C87.2246 14.4579 87.4632 14.1326 87.6252 13.7264C87.79 13.3201 87.8723 12.8727 87.8723 12.3841C87.8723 11.8954 87.79 11.4466 87.6252 11.0375C87.4632 10.6284 87.2246 10.3002 86.9093 10.0531C86.5939 9.80593 86.209 9.68235 85.7544 9.68235C85.3027 9.68235 84.9178 9.80593 84.5996 10.0531C84.2843 10.3002 84.0442 10.6284 83.8794 11.0375C83.7175 11.4466 83.6365 11.8954 83.6365 12.3841C83.6365 12.8727 83.7175 13.3201 83.8794 13.7264C84.0442 14.1326 84.2843 14.4579 84.5996 14.7022C84.915 14.9466 85.2999 15.0687 85.7544 15.0687ZM92.8443 15.7633C92.2789 15.7633 91.7789 15.6199 91.3443 15.3329C90.9125 15.046 90.5744 14.6497 90.3301 14.144C90.0858 13.6355 89.9636 13.0488 89.9636 12.3841C89.9636 11.7136 90.0858 11.1241 90.3301 10.6156C90.5744 10.1042 90.9125 9.7065 91.3443 9.42241C91.7789 9.13548 92.2789 8.99201 92.8443 8.99201C93.4096 8.99201 93.9082 9.13548 94.34 9.42241C94.7718 9.70934 95.1099 10.1071 95.3542 10.6156C95.6014 11.1241 95.725 11.7136 95.725 12.3841C95.725 13.0488 95.6028 13.6355 95.3585 14.144C95.1142 14.6497 94.7747 15.046 94.34 15.3329C93.9082 15.6199 93.4096 15.7633 92.8443 15.7633ZM92.8443 15.0687C93.2988 15.0687 93.6838 14.9466 93.9991 14.7022C94.3145 14.4579 94.5531 14.1326 94.715 13.7264C94.8798 13.3201 94.9622 12.8727 94.9622 12.3841C94.9622 11.8954 94.8798 11.4466 94.715 11.0375C94.5531 10.6284 94.3145 10.3002 93.9991 10.0531C93.6838 9.80593 93.2988 9.68235 92.8443 9.68235C92.3926 9.68235 92.0076 9.80593 91.6895 10.0531C91.3741 10.3002 91.1341 10.6284 90.9693 11.0375C90.8074 11.4466 90.7264 11.8954 90.7264 12.3841C90.7264 12.8727 90.8074 13.3201 90.9693 13.7264C91.1341 14.1326 91.3741 14.4579 91.6895 14.7022C92.0048 14.9466 92.3897 15.0687 92.8443 15.0687ZM98.1486 11.536V15.627H97.3901V9.0815H98.1273V10.1085H98.1955C98.3489 9.77326 98.5875 9.50479 98.9114 9.30309C99.2381 9.09854 99.6415 8.99627 100.122 8.99627C100.562 8.99627 100.948 9.0886 101.281 9.27326C101.616 9.45508 101.876 9.72354 102.061 10.0787C102.248 10.4338 102.342 10.8699 102.342 11.3869V15.627H101.583V11.4338C101.583 10.8968 101.433 10.4721 101.132 10.1596C100.833 9.84712 100.433 9.69087 99.9299 9.69087C99.5861 9.69087 99.2807 9.76474 99.0137 9.91246C98.7466 10.0602 98.535 10.2733 98.3787 10.5517C98.2253 10.8272 98.1486 11.1554 98.1486 11.536Z" fill="#18181B"/>
</svg>
