<svg width="150" height="70" viewBox="0 0 179 80" fill="none" xmlns="http://www.w3.org/2000/svg">
<rect x="1.62668" y="10.9656" width="175.73" height="68.0689" rx="11.0344" stroke="black" stroke-opacity="0.1" stroke-width="1.9311"/>
<path d="M33.7792 50.3514C28.8805 50.3514 24.9033 46.3742 24.9033 41.4755C24.9033 36.5768 28.8805 32.5996 33.7792 32.5996C38.6779 32.5996 42.6551 36.5768 42.6551 41.4755C42.6551 46.3742 38.6779 50.3514 33.7792 50.3514ZM33.7792 35.8169C30.6589 35.8169 28.1206 38.3552 28.1206 41.4755C28.1206 44.5958 30.6589 47.1341 33.7792 47.1341C36.8995 47.1341 39.4378 44.5958 39.4378 41.4755C39.4378 38.3552 36.8995 35.8169 33.7792 35.8169Z" fill="#BF9910"/>
<path d="M39.4375 52.5176C39.4375 55.6379 36.4142 58.1762 33.2939 58.1762C30.1736 58.1762 28.1203 55.6379 28.1203 52.5176L24.9192 52.5176C24.9192 57.4163 28.4113 61.3935 33.3101 61.3935C38.2088 61.3935 42.671 57.4163 42.671 52.5176L39.4375 52.5176Z" fill="#BF9910"/>
<path d="M46.9393 35.2994L46.9393 28.2666L39.9065 28.2666L39.9065 31.1929L44.013 31.1929L44.013 35.2994L46.9393 35.2994Z" fill="#BF9910"/>
<path d="M72.888 34.8304C71.7563 33.7472 70.0587 33.1328 68.5875 33.1328C64.966 33.1328 62.7672 35.8813 62.7672 39.3573C62.7672 42.1381 64.384 44.9997 68.5875 44.9997C69.9132 44.9997 71.0772 44.7087 72.403 43.6416L72.403 40.6507L68.0863 40.6507L68.0863 37.8214L75.3293 37.8214L75.3293 44.935C73.664 46.8428 71.5623 47.9745 68.5875 47.9745C62.2337 47.9745 59.6631 43.8033 59.6631 39.3573C59.6631 34.6041 62.6379 30.2065 68.5875 30.2065C70.8509 30.2065 73.1305 31.0796 74.8604 32.7933L72.888 34.8304Z" fill="black"/>
<path d="M95.086 47.6025L91.3028 47.6025L86.3718 41.9601L83.3 41.9601L83.3 47.6025L80.115 47.6025L80.115 30.6914C82.7988 30.6914 85.4664 30.7237 88.1502 30.7237C92.1273 30.7561 94.2291 33.4075 94.2291 36.3177C94.2291 38.6296 93.1621 40.9739 89.9609 41.6205L95.086 47.3923L95.086 47.6025ZM83.3161 33.6824L83.3161 39.0823L88.1663 39.0823C90.1873 39.0823 91.0603 37.7242 91.0603 36.3823C91.0603 35.0404 90.1711 33.6824 88.1663 33.6824L83.3161 33.6824Z" fill="black"/>
<path d="M111.771 44.4174L102.927 44.4174L101.472 47.6024L98.0122 47.6024L105.595 30.7075L109.071 30.7075L116.653 47.6024L113.177 47.6024L111.771 44.4174ZM107.357 34.2643L104.22 41.4588L110.493 41.4588L107.357 34.2643Z" fill="black"/>
<path d="M130.686 30.6914L133.871 30.6914L133.871 47.6186L131.899 47.6186L131.899 47.6348L123.007 36.2206L123.007 47.6186L119.822 47.6186L119.822 30.7076L122.409 30.7076L130.686 41.184L130.686 30.6914Z" fill="black"/>
<path d="M154.081 39.0175C154.161 43.2857 151.542 47.6186 145.625 47.6186L138.98 47.6186L138.98 30.7075L145.625 30.7075C151.413 30.7075 154 34.8302 154.081 39.0175ZM142.149 44.5306L145.625 44.5306C149.457 44.5306 150.993 41.7337 150.912 38.9852C150.831 36.3499 149.295 33.7308 145.625 33.7308L142.149 33.7308L142.149 44.5306Z" fill="black"/>
<path d="M132.524 61L132.524 53.7273L133.404 53.7273L133.404 56.9659L137.282 56.9659L137.282 53.7273L138.163 53.7273L138.163 61L137.282 61L137.282 57.7472L133.404 57.7472L133.404 61L132.524 61ZM139.926 61L139.926 53.7273L142.383 53.7273C142.952 53.7273 143.418 53.8243 143.783 54.0185C144.147 54.2102 144.417 54.4742 144.592 54.8104C144.767 55.1465 144.855 55.5289 144.855 55.9574C144.855 56.3859 144.767 56.7659 144.592 57.0973C144.417 57.4287 144.148 57.6892 143.786 57.8786C143.424 58.0656 142.961 58.1591 142.398 58.1591L140.409 58.1591L140.409 57.3636L142.369 57.3636C142.758 57.3636 143.07 57.3068 143.307 57.1932C143.546 57.0795 143.719 56.9186 143.825 56.7102C143.934 56.4995 143.989 56.2486 143.989 55.9574C143.989 55.6662 143.934 55.4117 143.825 55.1939C143.716 54.9761 143.542 54.808 143.303 54.6896C143.064 54.5689 142.748 54.5085 142.355 54.5085L140.807 54.5085L140.807 61L139.926 61ZM143.349 57.733L145.139 61L144.116 61L142.355 57.733L143.349 57.733ZM146.323 53.7273L147.374 53.7273L149.845 59.7642L149.931 59.7642L152.402 53.7273L153.453 53.7273L153.453 61L152.629 61L152.629 55.4744L152.558 55.4744L150.286 61L149.49 61L147.217 55.4744L147.146 55.4744L147.146 61L146.323 61L146.323 53.7273Z" fill="#BF9910"/>
<rect width="49" height="21" transform="translate(65.5 0.626953)" fill="white"/>
<path d="M81.5598 9.0815C81.5115 8.5957 81.2971 8.20934 80.9164 7.92241C80.5357 7.63548 80.057 7.49201 79.4803 7.49201C79.074 7.49201 78.7161 7.56161 78.4064 7.70082C78.0996 7.84002 77.8581 8.0332 77.682 8.28036C77.5087 8.52468 77.4221 8.80309 77.4221 9.11559C77.4221 9.3457 77.4718 9.54741 77.5712 9.7207C77.6706 9.894 77.8042 10.0431 77.9718 10.1681C78.1422 10.2903 78.3297 10.3954 78.5343 10.4835C78.7417 10.5716 78.9505 10.6454 79.1607 10.7051L80.0811 10.9693C80.3596 11.046 80.638 11.144 80.9164 11.2633C81.1948 11.3826 81.449 11.5332 81.6792 11.715C81.9121 11.894 82.0982 12.1142 82.2374 12.3755C82.3794 12.6341 82.4505 12.9451 82.4505 13.3088C82.4505 13.7747 82.3297 14.1937 82.0882 14.5659C81.8468 14.938 81.5002 15.2335 81.0485 15.4522C80.5968 15.6681 80.0556 15.7761 79.4249 15.7761C78.8311 15.7761 78.3155 15.6781 77.878 15.4821C77.4405 15.2832 77.0968 15.0091 76.8468 14.6596C76.5968 14.3102 76.4561 13.9054 76.4249 13.4451H77.2431C77.2715 13.7889 77.3851 14.0801 77.584 14.3187C77.7828 14.5574 78.0414 14.7392 78.3596 14.8642C78.6777 14.9863 79.0328 15.0474 79.4249 15.0474C79.8596 15.0474 80.2459 14.975 80.584 14.8301C80.9249 14.6824 81.1919 14.4778 81.3851 14.2164C81.5811 13.9522 81.6792 13.6454 81.6792 13.296C81.6792 13.0005 81.6025 12.7534 81.449 12.5545C81.2956 12.3528 81.0811 12.1838 80.8056 12.0474C80.5328 11.911 80.2161 11.7903 79.8553 11.6852L78.8113 11.3784C78.1266 11.1738 77.5953 10.8912 77.2175 10.5304C76.8397 10.1696 76.6507 9.70934 76.6507 9.14968C76.6507 8.68093 76.7757 8.269 77.0257 7.91388C77.2786 7.55593 77.6195 7.27752 78.0485 7.07866C78.4803 6.87695 78.9647 6.7761 79.5016 6.7761C80.0442 6.7761 80.5243 6.87553 80.9419 7.0744C81.3596 7.27326 81.6905 7.54741 81.9348 7.89684C82.182 8.24343 82.3141 8.63832 82.3311 9.0815H81.5598ZM86.7544 15.7633C86.1891 15.7633 85.6891 15.6199 85.2544 15.3329C84.8226 15.046 84.4846 14.6497 84.2402 14.144C83.9959 13.6355 83.8738 13.0488 83.8738 12.3841C83.8738 11.7136 83.9959 11.1241 84.2402 10.6156C84.4846 10.1042 84.8226 9.7065 85.2544 9.42241C85.6891 9.13548 86.1891 8.99201 86.7544 8.99201C87.3198 8.99201 87.8184 9.13548 88.2502 9.42241C88.682 9.70934 89.0201 10.1071 89.2644 10.6156C89.5115 11.1241 89.6351 11.7136 89.6351 12.3841C89.6351 13.0488 89.513 13.6355 89.2686 14.144C89.0243 14.6497 88.6848 15.046 88.2502 15.3329C87.8184 15.6199 87.3198 15.7633 86.7544 15.7633ZM86.7544 15.0687C87.209 15.0687 87.5939 14.9466 87.9093 14.7022C88.2246 14.4579 88.4632 14.1326 88.6252 13.7264C88.79 13.3201 88.8723 12.8727 88.8723 12.3841C88.8723 11.8954 88.79 11.4466 88.6252 11.0375C88.4632 10.6284 88.2246 10.3002 87.9093 10.0531C87.5939 9.80593 87.209 9.68235 86.7544 9.68235C86.3027 9.68235 85.9178 9.80593 85.5996 10.0531C85.2843 10.3002 85.0442 10.6284 84.8794 11.0375C84.7175 11.4466 84.6365 11.8954 84.6365 12.3841C84.6365 12.8727 84.7175 13.3201 84.8794 13.7264C85.0442 14.1326 85.2843 14.4579 85.5996 14.7022C85.915 14.9466 86.2999 15.0687 86.7544 15.0687ZM93.8443 15.7633C93.2789 15.7633 92.7789 15.6199 92.3443 15.3329C91.9125 15.046 91.5744 14.6497 91.3301 14.144C91.0858 13.6355 90.9636 13.0488 90.9636 12.3841C90.9636 11.7136 91.0858 11.1241 91.3301 10.6156C91.5744 10.1042 91.9125 9.7065 92.3443 9.42241C92.7789 9.13548 93.2789 8.99201 93.8443 8.99201C94.4096 8.99201 94.9082 9.13548 95.34 9.42241C95.7718 9.70934 96.1099 10.1071 96.3542 10.6156C96.6014 11.1241 96.725 11.7136 96.725 12.3841C96.725 13.0488 96.6028 13.6355 96.3585 14.144C96.1142 14.6497 95.7747 15.046 95.34 15.3329C94.9082 15.6199 94.4096 15.7633 93.8443 15.7633ZM93.8443 15.0687C94.2988 15.0687 94.6838 14.9466 94.9991 14.7022C95.3145 14.4579 95.5531 14.1326 95.715 13.7264C95.8798 13.3201 95.9622 12.8727 95.9622 12.3841C95.9622 11.8954 95.8798 11.4466 95.715 11.0375C95.5531 10.6284 95.3145 10.3002 94.9991 10.0531C94.6838 9.80593 94.2988 9.68235 93.8443 9.68235C93.3926 9.68235 93.0076 9.80593 92.6895 10.0531C92.3741 10.3002 92.1341 10.6284 91.9693 11.0375C91.8074 11.4466 91.7264 11.8954 91.7264 12.3841C91.7264 12.8727 91.8074 13.3201 91.9693 13.7264C92.1341 14.1326 92.3741 14.4579 92.6895 14.7022C93.0048 14.9466 93.3897 15.0687 93.8443 15.0687ZM99.1486 11.536V15.627H98.3901V9.0815H99.1273V10.1085H99.1955C99.3489 9.77326 99.5875 9.50479 99.9114 9.30309C100.238 9.09854 100.642 8.99627 101.122 8.99627C101.562 8.99627 101.948 9.0886 102.281 9.27326C102.616 9.45508 102.876 9.72354 103.061 10.0787C103.248 10.4338 103.342 10.8699 103.342 11.3869V15.627H102.583V11.4338C102.583 10.8968 102.433 10.4721 102.132 10.1596C101.833 9.84712 101.433 9.69087 100.93 9.69087C100.586 9.69087 100.281 9.76474 100.014 9.91246C99.7466 10.0602 99.535 10.2733 99.3787 10.5517C99.2253 10.8272 99.1486 11.1554 99.1486 11.536Z" fill="#18181B"/>
</svg>
