<svg width="150" height="70" viewBox="0 0 178 80" fill="none" xmlns="http://www.w3.org/2000/svg">
<rect x="0.965551" y="10.9656" width="175.73" height="68.0689" rx="11.0344" stroke="black" stroke-opacity="0.1" stroke-width="1.9311"/>
<path d="M33.0534 50.513C28.1547 50.513 24.1775 46.5358 24.1775 41.6371C24.1775 36.7384 28.1708 32.7612 33.0534 32.7612C37.9359 32.7612 41.9293 36.7384 41.9293 41.6371C41.9293 46.5358 37.9521 50.513 33.0534 50.513ZM33.0534 35.9785C29.9331 35.9785 27.3948 38.5168 27.3948 41.6371C27.3948 44.7574 29.9331 47.2957 33.0534 47.2957C36.1737 47.2957 38.712 44.7574 38.712 41.6371C38.712 38.5168 36.1737 35.9785 33.0534 35.9785Z" fill="#3A717D"/>
<path d="M38.712 52.6953C38.712 55.8156 36.1737 58.3539 33.0534 58.3539C29.9331 58.3539 27.3948 55.8156 27.3948 52.6953L24.1775 52.6953C24.1775 57.594 28.1547 61.5712 33.0534 61.5712C37.9521 61.5712 41.9293 57.594 41.9293 52.6953L38.712 52.6953Z" fill="#3A717D"/>
<path d="M46.2135 35.461L46.2135 28.4282L39.1807 28.4282L39.1807 31.3545L43.271 31.3545L43.271 35.461L46.2135 35.461Z" fill="#3A717D"/>
<path d="M72.1463 34.992C71.0146 33.9088 69.317 33.2945 67.8458 33.2945C64.2243 33.2945 62.0255 36.0429 62.0255 39.5189C62.0255 42.2997 63.6423 45.1613 67.8458 45.1613C69.1715 45.1613 70.3355 44.8703 71.6613 43.8032L71.6613 40.8123L67.3446 40.8123L67.3446 37.983L74.5876 37.983L74.5876 45.0966C72.9223 47.0044 70.8206 48.1361 67.8458 48.1361C61.492 48.1361 58.9214 43.9649 58.9214 39.5189C58.9214 34.7657 61.8962 30.3682 67.8458 30.3682C70.1092 30.3682 72.3888 31.2412 74.1187 32.9549L72.1463 34.992Z" fill="black"/>
<path d="M94.3601 47.7641L90.577 47.7641L85.6459 42.1217L82.5741 42.1217L82.5741 47.7641L79.3892 47.7641L79.3892 30.853C82.0729 30.853 84.7406 30.8854 87.4243 30.8854C91.4177 30.9015 93.5194 33.553 93.5194 36.4631C93.5194 38.775 92.4524 41.1193 89.2513 41.766L94.3763 47.5378L94.3601 47.7641ZM82.5741 33.844L82.5741 39.2439L87.4243 39.2439C89.4453 39.2439 90.3183 37.8858 90.3183 36.5439C90.3183 35.202 89.4453 33.844 87.4405 33.844L82.5741 33.844Z" fill="black"/>
<path d="M111.044 44.5796L102.201 44.5796L100.746 47.7645L97.2859 47.7645L104.868 30.8696L108.344 30.8696L115.927 47.7645L112.451 47.7645L111.044 44.5796ZM106.631 34.4264L103.494 41.6209L109.767 41.6209L106.631 34.4264Z" fill="black"/>
<path d="M129.945 30.853L133.13 30.853L133.13 47.7803L131.157 47.7803L131.157 47.7964L122.265 36.3823L122.265 47.7803L119.08 47.7803L119.08 30.8692L121.667 30.8692L129.945 41.3456L129.945 30.853Z" fill="black"/>
<path d="M153.339 39.1792C153.419 43.4474 150.8 47.7802 144.883 47.7802L138.238 47.7802L138.238 30.8691L144.883 30.8691C150.687 30.8691 153.274 34.9918 153.339 39.1792ZM141.423 44.7084L144.899 44.7084C148.731 44.7084 150.267 41.9115 150.186 39.163C150.105 36.5277 148.569 33.9086 144.899 33.9086L141.423 33.9086L141.423 44.7084Z" fill="black"/>
<path d="M102.061 60.9995L102.061 53.7268L104.518 53.7268C105.089 53.7268 105.555 53.8298 105.917 54.0357C106.282 54.2393 106.552 54.5151 106.727 54.8631C106.902 55.2112 106.99 55.5994 106.99 56.0279C106.99 56.4564 106.902 56.8459 106.727 57.1962C106.554 57.5466 106.286 57.826 105.924 58.0343C105.562 58.2403 105.098 58.3433 104.532 58.3433L102.771 58.3433L102.771 57.562L104.504 57.562C104.894 57.562 105.208 57.4945 105.445 57.3596C105.682 57.2247 105.853 57.0424 105.96 56.8127C106.069 56.5807 106.123 56.3191 106.123 56.0279C106.123 55.7367 106.069 55.4763 105.96 55.2467C105.853 55.017 105.68 54.8371 105.441 54.7069C105.202 54.5743 104.885 54.508 104.49 54.508L102.941 54.508L102.941 60.9995L102.061 60.9995ZM108.408 60.9995L108.408 53.7268L110.866 53.7268C111.434 53.7268 111.9 53.8238 112.265 54.018C112.629 54.2097 112.899 54.4737 113.074 54.8099C113.25 55.1461 113.337 55.5284 113.337 55.9569C113.337 56.3854 113.25 56.7654 113.074 57.0968C112.899 57.4283 112.631 57.6887 112.268 57.8781C111.906 58.0651 111.443 58.1586 110.88 58.1586L108.891 58.1586L108.891 57.3631L110.851 57.3631C111.24 57.3631 111.552 57.3063 111.789 57.1927C112.028 57.0791 112.201 56.9181 112.307 56.7097C112.416 56.499 112.471 56.2481 112.471 55.9569C112.471 55.6657 112.416 55.4112 112.307 55.1934C112.199 54.9756 112.025 54.8075 111.785 54.6891C111.546 54.5684 111.23 54.508 110.837 54.508L109.289 54.508L109.289 60.9995L108.408 60.9995ZM111.832 57.7325L113.621 60.9995L112.599 60.9995L110.837 57.7325L111.832 57.7325ZM120.941 57.3631C120.941 58.1302 120.803 58.7931 120.526 59.3518C120.249 59.9105 119.869 60.3414 119.386 60.6444C118.903 60.9474 118.351 61.0989 117.731 61.0989C117.111 61.0989 116.559 60.9474 116.076 60.6444C115.593 60.3414 115.213 59.9105 114.936 59.3518C114.659 58.7931 114.521 58.1302 114.521 57.3631C114.521 56.5961 114.659 55.9332 114.936 55.3745C115.213 54.8158 115.593 54.3849 116.076 54.0819C116.559 53.7789 117.111 53.6274 117.731 53.6274C118.351 53.6274 118.903 53.7789 119.386 54.0819C119.869 54.3849 120.249 54.8158 120.526 55.3745C120.803 55.9332 120.941 56.5961 120.941 57.3631ZM120.089 57.3631C120.089 56.7334 119.983 56.2019 119.773 55.7687C119.564 55.3354 119.282 55.0076 118.924 54.785C118.569 54.5625 118.171 54.4512 117.731 54.4512C117.291 54.4512 116.892 54.5625 116.534 54.785C116.179 55.0076 115.896 55.3354 115.685 55.7687C115.477 56.2019 115.373 56.7334 115.373 57.3631C115.373 57.9929 115.477 58.5244 115.685 58.9576C115.896 59.3908 116.179 59.7187 116.534 59.9413C116.892 60.1638 117.291 60.2751 117.731 60.2751C118.171 60.2751 118.569 60.1638 118.924 59.9413C119.282 59.7187 119.564 59.3908 119.773 58.9576C119.983 58.5244 120.089 57.9929 120.089 57.3631ZM125.206 53.7268L126.087 53.7268L126.087 58.9256C126.087 59.3897 126.001 59.7838 125.831 60.1082C125.661 60.4325 125.42 60.6787 125.11 60.8468C124.8 61.0149 124.434 61.0989 124.013 61.0989C123.615 61.0989 123.261 61.0267 122.951 60.8823C122.641 60.7355 122.397 60.5272 122.22 60.2573C122.042 59.9874 121.953 59.6667 121.953 59.295L122.82 59.295C122.82 59.5009 122.871 59.6809 122.972 59.8347C123.077 59.9863 123.219 60.1046 123.399 60.1899C123.578 60.2751 123.783 60.3177 124.013 60.3177C124.266 60.3177 124.482 60.2644 124.659 60.1579C124.837 60.0514 124.972 59.8951 125.064 59.6891C125.159 59.4808 125.206 59.2263 125.206 58.9256L125.206 53.7268ZM127.852 60.9995L127.852 53.7268L132.241 53.7268L132.241 54.508L128.732 54.508L128.732 56.9654L132.014 56.9654L132.014 57.7467L128.732 57.7467L128.732 60.2183L132.298 60.2183L132.298 60.9995L127.852 60.9995ZM139.68 55.9995L138.8 55.9995C138.748 55.7462 138.657 55.5237 138.526 55.3319C138.399 55.1401 138.242 54.9792 138.058 54.8489C137.875 54.7164 137.673 54.6169 137.45 54.5506C137.228 54.4844 136.996 54.4512 136.754 54.4512C136.314 54.4512 135.915 54.5625 135.558 54.785C135.202 55.0076 134.92 55.3354 134.709 55.7687C134.501 56.2019 134.396 56.7334 134.396 57.3631C134.396 57.9929 134.501 58.5244 134.709 58.9576C134.92 59.3908 135.202 59.7187 135.558 59.9413C135.915 60.1638 136.314 60.2751 136.754 60.2751C136.996 60.2751 137.228 60.2419 137.45 60.1756C137.673 60.1094 137.875 60.0111 138.058 59.8809C138.242 59.7483 138.399 59.5862 138.526 59.3944C138.657 59.2003 138.748 58.9777 138.8 58.7268L139.68 58.7268C139.614 59.0985 139.493 59.4311 139.318 59.7247C139.143 60.0182 138.925 60.268 138.665 60.4739C138.404 60.6775 138.112 60.8326 137.788 60.9391C137.466 61.0457 137.121 61.0989 136.754 61.0989C136.134 61.0989 135.582 60.9474 135.099 60.6444C134.617 60.3414 134.237 59.9105 133.96 59.3518C133.683 58.7931 133.544 58.1302 133.544 57.3631C133.544 56.5961 133.683 55.9332 133.96 55.3745C134.237 54.8158 134.617 54.3849 135.099 54.0819C135.582 53.7789 136.134 53.6274 136.754 53.6274C137.121 53.6274 137.466 53.6806 137.788 53.7872C138.112 53.8937 138.404 54.0499 138.665 54.2559C138.925 54.4595 139.143 54.7081 139.318 55.0016C139.493 55.2928 139.614 55.6255 139.68 55.9995ZM140.706 54.508L140.706 53.7268L146.16 53.7268L146.16 54.508L143.873 54.508L143.873 60.9995L142.993 60.9995L142.993 54.508L140.706 54.508ZM151.497 55.545C151.454 55.1851 151.281 54.9058 150.978 54.7069C150.675 54.508 150.304 54.4086 149.863 54.4086C149.541 54.4086 149.26 54.4607 149.018 54.5649C148.779 54.669 148.592 54.8122 148.457 54.9945C148.325 55.1768 148.258 55.384 148.258 55.616C148.258 55.8101 148.304 55.977 148.397 56.1167C148.491 56.254 148.612 56.3688 148.759 56.4612C148.906 56.5511 149.06 56.6257 149.221 56.6849C149.382 56.7417 149.53 56.7879 149.664 56.8234L150.403 57.0222C150.593 57.072 150.803 57.1406 151.035 57.2282C151.27 57.3158 151.493 57.4354 151.706 57.5869C151.922 57.736 152.099 57.9278 152.239 58.1622C152.379 58.3965 152.449 58.6842 152.449 59.0251C152.449 59.4181 152.346 59.7732 152.14 60.0904C151.936 60.4077 151.638 60.6598 151.245 60.8468C150.854 61.0338 150.379 61.1274 149.821 61.1274C149.3 61.1274 148.849 61.0433 148.468 60.8752C148.089 60.7071 147.791 60.4728 147.573 60.1721C147.357 59.8714 147.236 59.5222 147.207 59.1245L148.116 59.1245C148.14 59.3991 148.232 59.6264 148.393 59.8063C148.557 59.9839 148.762 60.1165 149.011 60.2041C149.262 60.2893 149.532 60.3319 149.821 60.3319C150.157 60.3319 150.459 60.2774 150.726 60.1685C150.994 60.0573 151.206 59.9034 151.362 59.7069C151.518 59.508 151.596 59.276 151.596 59.0109C151.596 58.7694 151.529 58.5729 151.394 58.4214C151.259 58.2699 151.081 58.1468 150.861 58.0521C150.641 57.9574 150.403 57.8745 150.147 57.8035L149.253 57.5478C148.684 57.3845 148.235 57.1513 147.903 56.8482C147.572 56.5452 147.406 56.1487 147.406 55.6586C147.406 55.2514 147.516 54.8963 147.736 54.5933C147.959 54.2879 148.257 54.0511 148.631 53.883C149.008 53.7126 149.428 53.6274 149.892 53.6274C150.361 53.6274 150.777 53.7114 151.142 53.8795C151.506 54.0452 151.795 54.2725 152.008 54.5613C152.224 54.8501 152.337 55.178 152.349 55.545L151.497 55.545Z" fill="#3A717D"/>
<rect width="49" height="21" transform="translate(64.5 0.626953)" fill="white"/>
<path d="M80.5598 9.0815C80.5115 8.5957 80.2971 8.20934 79.9164 7.92241C79.5357 7.63548 79.057 7.49201 78.4803 7.49201C78.074 7.49201 77.7161 7.56161 77.4064 7.70082C77.0996 7.84002 76.8581 8.0332 76.682 8.28036C76.5087 8.52468 76.4221 8.80309 76.4221 9.11559C76.4221 9.3457 76.4718 9.54741 76.5712 9.7207C76.6706 9.894 76.8042 10.0431 76.9718 10.1681C77.1422 10.2903 77.3297 10.3954 77.5343 10.4835C77.7417 10.5716 77.9505 10.6454 78.1607 10.7051L79.0811 10.9693C79.3596 11.046 79.638 11.144 79.9164 11.2633C80.1948 11.3826 80.449 11.5332 80.6792 11.715C80.9121 11.894 81.0982 12.1142 81.2374 12.3755C81.3794 12.6341 81.4505 12.9451 81.4505 13.3088C81.4505 13.7747 81.3297 14.1937 81.0882 14.5659C80.8468 14.938 80.5002 15.2335 80.0485 15.4522C79.5968 15.6681 79.0556 15.7761 78.4249 15.7761C77.8311 15.7761 77.3155 15.6781 76.878 15.4821C76.4405 15.2832 76.0968 15.0091 75.8468 14.6596C75.5968 14.3102 75.4561 13.9054 75.4249 13.4451H76.2431C76.2715 13.7889 76.3851 14.0801 76.584 14.3187C76.7828 14.5574 77.0414 14.7392 77.3596 14.8642C77.6777 14.9863 78.0328 15.0474 78.4249 15.0474C78.8596 15.0474 79.2459 14.975 79.584 14.8301C79.9249 14.6824 80.1919 14.4778 80.3851 14.2164C80.5811 13.9522 80.6792 13.6454 80.6792 13.296C80.6792 13.0005 80.6025 12.7534 80.449 12.5545C80.2956 12.3528 80.0811 12.1838 79.8056 12.0474C79.5328 11.911 79.2161 11.7903 78.8553 11.6852L77.8113 11.3784C77.1266 11.1738 76.5953 10.8912 76.2175 10.5304C75.8397 10.1696 75.6507 9.70934 75.6507 9.14968C75.6507 8.68093 75.7757 8.269 76.0257 7.91388C76.2786 7.55593 76.6195 7.27752 77.0485 7.07866C77.4803 6.87695 77.9647 6.7761 78.5016 6.7761C79.0442 6.7761 79.5243 6.87553 79.9419 7.0744C80.3596 7.27326 80.6905 7.54741 80.9348 7.89684C81.182 8.24343 81.3141 8.63832 81.3311 9.0815H80.5598ZM85.7544 15.7633C85.1891 15.7633 84.6891 15.6199 84.2544 15.3329C83.8226 15.046 83.4846 14.6497 83.2402 14.144C82.9959 13.6355 82.8738 13.0488 82.8738 12.3841C82.8738 11.7136 82.9959 11.1241 83.2402 10.6156C83.4846 10.1042 83.8226 9.7065 84.2544 9.42241C84.6891 9.13548 85.1891 8.99201 85.7544 8.99201C86.3198 8.99201 86.8184 9.13548 87.2502 9.42241C87.682 9.70934 88.0201 10.1071 88.2644 10.6156C88.5115 11.1241 88.6351 11.7136 88.6351 12.3841C88.6351 13.0488 88.513 13.6355 88.2686 14.144C88.0243 14.6497 87.6848 15.046 87.2502 15.3329C86.8184 15.6199 86.3198 15.7633 85.7544 15.7633ZM85.7544 15.0687C86.209 15.0687 86.5939 14.9466 86.9093 14.7022C87.2246 14.4579 87.4632 14.1326 87.6252 13.7264C87.79 13.3201 87.8723 12.8727 87.8723 12.3841C87.8723 11.8954 87.79 11.4466 87.6252 11.0375C87.4632 10.6284 87.2246 10.3002 86.9093 10.0531C86.5939 9.80593 86.209 9.68235 85.7544 9.68235C85.3027 9.68235 84.9178 9.80593 84.5996 10.0531C84.2843 10.3002 84.0442 10.6284 83.8794 11.0375C83.7175 11.4466 83.6365 11.8954 83.6365 12.3841C83.6365 12.8727 83.7175 13.3201 83.8794 13.7264C84.0442 14.1326 84.2843 14.4579 84.5996 14.7022C84.915 14.9466 85.2999 15.0687 85.7544 15.0687ZM92.8443 15.7633C92.2789 15.7633 91.7789 15.6199 91.3443 15.3329C90.9125 15.046 90.5744 14.6497 90.3301 14.144C90.0858 13.6355 89.9636 13.0488 89.9636 12.3841C89.9636 11.7136 90.0858 11.1241 90.3301 10.6156C90.5744 10.1042 90.9125 9.7065 91.3443 9.42241C91.7789 9.13548 92.2789 8.99201 92.8443 8.99201C93.4096 8.99201 93.9082 9.13548 94.34 9.42241C94.7718 9.70934 95.1099 10.1071 95.3542 10.6156C95.6014 11.1241 95.725 11.7136 95.725 12.3841C95.725 13.0488 95.6028 13.6355 95.3585 14.144C95.1142 14.6497 94.7747 15.046 94.34 15.3329C93.9082 15.6199 93.4096 15.7633 92.8443 15.7633ZM92.8443 15.0687C93.2988 15.0687 93.6838 14.9466 93.9991 14.7022C94.3145 14.4579 94.5531 14.1326 94.715 13.7264C94.8798 13.3201 94.9622 12.8727 94.9622 12.3841C94.9622 11.8954 94.8798 11.4466 94.715 11.0375C94.5531 10.6284 94.3145 10.3002 93.9991 10.0531C93.6838 9.80593 93.2988 9.68235 92.8443 9.68235C92.3926 9.68235 92.0076 9.80593 91.6895 10.0531C91.3741 10.3002 91.1341 10.6284 90.9693 11.0375C90.8074 11.4466 90.7264 11.8954 90.7264 12.3841C90.7264 12.8727 90.8074 13.3201 90.9693 13.7264C91.1341 14.1326 91.3741 14.4579 91.6895 14.7022C92.0048 14.9466 92.3897 15.0687 92.8443 15.0687ZM98.1486 11.536V15.627H97.3901V9.0815H98.1273V10.1085H98.1955C98.3489 9.77326 98.5875 9.50479 98.9114 9.30309C99.2381 9.09854 99.6415 8.99627 100.122 8.99627C100.562 8.99627 100.948 9.0886 101.281 9.27326C101.616 9.45508 101.876 9.72354 102.061 10.0787C102.248 10.4338 102.342 10.8699 102.342 11.3869V15.627H101.583V11.4338C101.583 10.8968 101.433 10.4721 101.132 10.1596C100.833 9.84712 100.433 9.69087 99.9299 9.69087C99.5861 9.69087 99.2807 9.76474 99.0137 9.91246C98.7466 10.0602 98.535 10.2733 98.3787 10.5517C98.2253 10.8272 98.1486 11.1554 98.1486 11.536Z" fill="#18181B"/>
</svg>
