<svg width="150" height="70" viewBox="0 0 179 80" fill="none" xmlns="http://www.w3.org/2000/svg">
<rect x="1.62668" y="10.9656" width="175.73" height="68.0689" rx="11.0344" stroke="black" stroke-opacity="0.1" stroke-width="1.9311"/>
<path d="M29.5265 50.9348C24.258 50.9348 19.9722 46.649 19.9722 41.3805C19.9722 36.112 24.258 31.8262 29.5265 31.8262C34.795 31.8262 39.0808 36.112 39.0808 41.3805C39.0808 46.649 34.795 50.9348 29.5265 50.9348ZM29.5265 35.2967C26.171 35.2967 23.4427 38.025 23.4427 41.3805C23.4427 44.736 26.171 47.4643 29.5265 47.4643C32.882 47.4643 35.6103 44.736 35.6103 41.3805C35.6103 38.025 32.8768 35.2967 29.5265 35.2967Z" fill="#0097D7"/>
<path d="M35.6103 53.2764C35.6103 56.6319 32.882 59.3602 29.5265 59.3602C26.171 59.3602 23.4427 56.6319 23.4427 53.2764L19.9722 53.2764C19.9722 58.5448 24.258 62.8307 29.5265 62.8307C34.795 62.8307 39.0808 58.5448 39.0808 53.2764L35.6103 53.2764Z" fill="#0097D7"/>
<path d="M43.6804 34.7324L43.6804 27.1694L36.1174 27.1694L36.1174 30.3211L40.5287 30.3211L40.5287 34.7324L43.6804 34.7324Z" fill="#0097D7"/>
<path d="M71.6114 34.2358C70.3884 33.0651 68.5695 32.417 66.9858 32.417C63.0868 32.417 60.7243 35.3805 60.7243 39.1227C60.7243 42.1124 62.4648 45.2013 66.9858 45.2013C68.4127 45.2013 69.6619 44.8877 71.094 43.7483L71.094 40.5235L66.4423 40.5235L66.4423 37.4554L74.2404 37.4554L74.2404 45.1229C72.4477 47.177 70.1845 48.3948 66.9911 48.3948C60.1546 48.3948 57.374 43.8999 57.374 39.1175C57.374 34.0006 60.5727 29.2705 66.9911 29.2705C69.4319 29.2705 71.878 30.2061 73.7491 32.0511L71.6166 34.2358L71.6114 34.2358Z" fill="black"/>
<path d="M95.5182 47.982L91.4362 47.982L86.1364 41.9034L82.8383 41.9034L82.8383 47.982L79.4097 47.982L79.4097 29.7671C82.2948 29.7671 85.1799 29.7932 88.065 29.7932C92.3509 29.8194 94.614 32.6783 94.614 35.8248C94.614 38.3179 93.4694 40.8424 90.0145 41.5427L95.5234 47.752L95.5234 47.9872L95.5182 47.982ZM82.8383 32.9867L82.8383 38.8092L88.0598 38.8092C90.2445 38.8092 91.1801 37.3562 91.1801 35.898C91.1801 34.4397 90.2184 32.9867 88.0598 32.9867L82.8383 32.9867Z" fill="black"/>
<path d="M113.482 44.553L103.97 44.553L102.412 47.9817L98.696 47.9817L106.855 29.793L110.597 29.793L118.756 47.9817L115.014 47.9817L113.482 44.553ZM108.726 33.6137L105.35 41.3595L112.108 41.3595L108.731 33.6137L108.726 33.6137Z" fill="black"/>
<path d="M133.83 29.7671L137.258 29.7671L137.258 47.982L135.126 47.982L135.126 48.0081L125.561 35.715L125.561 47.982L122.133 47.982L122.133 29.7932L124.913 29.7932L133.825 41.0723L133.825 29.7671L133.83 29.7671Z" fill="black"/>
<path d="M159.012 38.7305C159.09 43.33 156.283 47.9817 149.917 47.9817L142.772 47.9817L142.772 29.793L149.917 29.793C156.153 29.793 158.933 34.2356 159.012 38.7305ZM146.175 44.6837L149.917 44.6837C154.046 44.6837 155.688 41.6679 155.609 38.7044C155.531 35.8716 153.869 33.0387 149.917 33.0387L146.175 33.0387L146.175 44.6785L146.175 44.6837Z" fill="black"/>
<path d="M102.855 62.0005L100.866 54.7278L101.761 54.7278L103.281 60.6511L103.352 60.6511L104.9 54.7278L105.895 54.7278L107.443 60.6511L107.514 60.6511L109.034 54.7278L109.929 54.7278L107.94 62.0005L107.031 62.0005L105.426 56.205L105.369 56.205L103.764 62.0005L102.855 62.0005ZM116.821 58.3641C116.821 59.1312 116.682 59.794 116.405 60.3528C116.128 60.9115 115.748 61.3423 115.265 61.6454C114.782 61.9484 114.231 62.0999 113.611 62.0999C112.99 62.0999 112.439 61.9484 111.956 61.6454C111.473 61.3423 111.093 60.9115 110.816 60.3528C110.539 59.794 110.4 59.1312 110.4 58.3641C110.4 57.5971 110.539 56.9342 110.816 56.3755C111.093 55.8168 111.473 55.3859 111.956 55.0829C112.439 54.7798 112.99 54.6283 113.611 54.6283C114.231 54.6283 114.782 54.7798 115.265 55.0829C115.748 55.3859 116.128 55.8168 116.405 56.3755C116.682 56.9342 116.821 57.5971 116.821 58.3641ZM115.968 58.3641C115.968 57.7344 115.863 57.2029 115.652 56.7697C115.444 56.3364 115.161 56.0085 114.804 55.786C114.449 55.5635 114.051 55.4522 113.611 55.4522C113.17 55.4522 112.771 55.5635 112.414 55.786C112.059 56.0085 111.776 56.3364 111.565 56.7697C111.357 57.2029 111.253 57.7344 111.253 58.3641C111.253 58.9939 111.357 59.5253 111.565 59.9586C111.776 60.3918 112.059 60.7197 112.414 60.9422C112.771 61.1648 113.17 61.2761 113.611 61.2761C114.051 61.2761 114.449 61.1648 114.804 60.9422C115.161 60.7197 115.444 60.3918 115.652 59.9586C115.863 59.5253 115.968 58.9939 115.968 58.3641ZM118.302 62.0005L118.302 54.7278L120.759 54.7278C121.327 54.7278 121.794 54.8248 122.158 55.019C122.523 55.2107 122.793 55.4747 122.968 55.8109C123.143 56.147 123.231 56.5294 123.231 56.9579C123.231 57.3864 123.143 57.7663 122.968 58.0978C122.793 58.4292 122.524 58.6896 122.162 58.879C121.799 59.0661 121.337 59.1596 120.773 59.1596L118.785 59.1596L118.785 58.3641L120.745 58.3641C121.133 58.3641 121.446 58.3073 121.682 58.1937C121.921 58.08 122.094 57.919 122.201 57.7107C122.31 57.5 122.364 57.2491 122.364 56.9579C122.364 56.6667 122.31 56.4122 122.201 56.1944C122.092 55.9766 121.918 55.8085 121.679 55.6901C121.44 55.5694 121.124 55.509 120.731 55.509L119.182 55.509L119.182 62.0005L118.302 62.0005ZM121.725 58.7334L123.515 62.0005L122.492 62.0005L120.731 58.7334L121.725 58.7334ZM124.698 62.0005L124.698 54.7278L125.579 54.7278L125.579 58.3357L125.664 58.3357L128.931 54.7278L130.082 54.7278L127.028 58.009L130.082 62.0005L129.016 62.0005L126.488 58.6198L125.579 59.6425L125.579 62.0005L124.698 62.0005ZM131.222 62.0005L131.222 54.7278L135.582 54.7278L135.582 55.509L132.102 55.509L132.102 57.9664L135.256 57.9664L135.256 58.7476L132.102 58.7476L132.102 62.0005L131.222 62.0005ZM137.091 62.0005L137.091 54.7278L137.971 54.7278L137.971 61.2192L141.352 61.2192L141.352 62.0005L137.091 62.0005ZM148.569 58.3641C148.569 59.1312 148.43 59.794 148.153 60.3528C147.876 60.9115 147.496 61.3423 147.013 61.6454C146.53 61.9484 145.979 62.0999 145.359 62.0999C144.738 62.0999 144.187 61.9484 143.704 61.6454C143.221 61.3423 142.841 60.9115 142.564 60.3528C142.287 59.794 142.148 59.1312 142.148 58.3641C142.148 57.5971 142.287 56.9342 142.564 56.3755C142.841 55.8168 143.221 55.3859 143.704 55.0829C144.187 54.7798 144.738 54.6283 145.359 54.6283C145.979 54.6283 146.53 54.7798 147.013 55.0829C147.496 55.3859 147.876 55.8168 148.153 56.3755C148.43 56.9342 148.569 57.5971 148.569 58.3641ZM147.717 58.3641C147.717 57.7344 147.611 57.2029 147.4 56.7697C147.192 56.3364 146.909 56.0085 146.552 55.786C146.197 55.5635 145.799 55.4522 145.359 55.4522C144.918 55.4522 144.519 55.5635 144.162 55.786C143.807 56.0085 143.524 56.3364 143.313 56.7697C143.105 57.2029 143.001 57.7344 143.001 58.3641C143.001 58.9939 143.105 59.5253 143.313 59.9586C143.524 60.3918 143.807 60.7197 144.162 60.9422C144.519 61.1648 144.918 61.2761 145.359 61.2761C145.799 61.2761 146.197 61.1648 146.552 60.9422C146.909 60.7197 147.192 60.3918 147.4 59.9586C147.611 59.5253 147.717 58.9939 147.717 58.3641ZM151.371 62.0005L149.382 54.7278L150.277 54.7278L151.797 60.6511L151.868 60.6511L153.416 54.7278L154.41 54.7278L155.959 60.6511L156.03 60.6511L157.55 54.7278L158.445 54.7278L156.456 62.0005L155.547 62.0005L153.942 56.205L153.885 56.205L152.28 62.0005L151.371 62.0005Z" fill="#0097D7"/>
<rect width="49" height="21" transform="translate(65.5 0.626953)" fill="white"/>
<path d="M81.5598 9.0815C81.5115 8.5957 81.2971 8.20934 80.9164 7.92241C80.5357 7.63548 80.057 7.49201 79.4803 7.49201C79.074 7.49201 78.7161 7.56161 78.4064 7.70082C78.0996 7.84002 77.8581 8.0332 77.682 8.28036C77.5087 8.52468 77.4221 8.80309 77.4221 9.11559C77.4221 9.3457 77.4718 9.54741 77.5712 9.7207C77.6706 9.894 77.8042 10.0431 77.9718 10.1681C78.1422 10.2903 78.3297 10.3954 78.5343 10.4835C78.7417 10.5716 78.9505 10.6454 79.1607 10.7051L80.0811 10.9693C80.3596 11.046 80.638 11.144 80.9164 11.2633C81.1948 11.3826 81.449 11.5332 81.6792 11.715C81.9121 11.894 82.0982 12.1142 82.2374 12.3755C82.3794 12.6341 82.4505 12.9451 82.4505 13.3088C82.4505 13.7747 82.3297 14.1937 82.0882 14.5659C81.8468 14.938 81.5002 15.2335 81.0485 15.4522C80.5968 15.6681 80.0556 15.7761 79.4249 15.7761C78.8311 15.7761 78.3155 15.6781 77.878 15.4821C77.4405 15.2832 77.0968 15.0091 76.8468 14.6596C76.5968 14.3102 76.4561 13.9054 76.4249 13.4451H77.2431C77.2715 13.7889 77.3851 14.0801 77.584 14.3187C77.7828 14.5574 78.0414 14.7392 78.3596 14.8642C78.6777 14.9863 79.0328 15.0474 79.4249 15.0474C79.8596 15.0474 80.2459 14.975 80.584 14.8301C80.9249 14.6824 81.1919 14.4778 81.3851 14.2164C81.5811 13.9522 81.6792 13.6454 81.6792 13.296C81.6792 13.0005 81.6025 12.7534 81.449 12.5545C81.2956 12.3528 81.0811 12.1838 80.8056 12.0474C80.5328 11.911 80.2161 11.7903 79.8553 11.6852L78.8113 11.3784C78.1266 11.1738 77.5953 10.8912 77.2175 10.5304C76.8397 10.1696 76.6507 9.70934 76.6507 9.14968C76.6507 8.68093 76.7757 8.269 77.0257 7.91388C77.2786 7.55593 77.6195 7.27752 78.0485 7.07866C78.4803 6.87695 78.9647 6.7761 79.5016 6.7761C80.0442 6.7761 80.5243 6.87553 80.9419 7.0744C81.3596 7.27326 81.6905 7.54741 81.9348 7.89684C82.182 8.24343 82.3141 8.63832 82.3311 9.0815H81.5598ZM86.7544 15.7633C86.1891 15.7633 85.6891 15.6199 85.2544 15.3329C84.8226 15.046 84.4846 14.6497 84.2402 14.144C83.9959 13.6355 83.8738 13.0488 83.8738 12.3841C83.8738 11.7136 83.9959 11.1241 84.2402 10.6156C84.4846 10.1042 84.8226 9.7065 85.2544 9.42241C85.6891 9.13548 86.1891 8.99201 86.7544 8.99201C87.3198 8.99201 87.8184 9.13548 88.2502 9.42241C88.682 9.70934 89.0201 10.1071 89.2644 10.6156C89.5115 11.1241 89.6351 11.7136 89.6351 12.3841C89.6351 13.0488 89.513 13.6355 89.2686 14.144C89.0243 14.6497 88.6848 15.046 88.2502 15.3329C87.8184 15.6199 87.3198 15.7633 86.7544 15.7633ZM86.7544 15.0687C87.209 15.0687 87.5939 14.9466 87.9093 14.7022C88.2246 14.4579 88.4632 14.1326 88.6252 13.7264C88.79 13.3201 88.8723 12.8727 88.8723 12.3841C88.8723 11.8954 88.79 11.4466 88.6252 11.0375C88.4632 10.6284 88.2246 10.3002 87.9093 10.0531C87.5939 9.80593 87.209 9.68235 86.7544 9.68235C86.3027 9.68235 85.9178 9.80593 85.5996 10.0531C85.2843 10.3002 85.0442 10.6284 84.8794 11.0375C84.7175 11.4466 84.6365 11.8954 84.6365 12.3841C84.6365 12.8727 84.7175 13.3201 84.8794 13.7264C85.0442 14.1326 85.2843 14.4579 85.5996 14.7022C85.915 14.9466 86.2999 15.0687 86.7544 15.0687ZM93.8443 15.7633C93.2789 15.7633 92.7789 15.6199 92.3443 15.3329C91.9125 15.046 91.5744 14.6497 91.3301 14.144C91.0858 13.6355 90.9636 13.0488 90.9636 12.3841C90.9636 11.7136 91.0858 11.1241 91.3301 10.6156C91.5744 10.1042 91.9125 9.7065 92.3443 9.42241C92.7789 9.13548 93.2789 8.99201 93.8443 8.99201C94.4096 8.99201 94.9082 9.13548 95.34 9.42241C95.7718 9.70934 96.1099 10.1071 96.3542 10.6156C96.6014 11.1241 96.725 11.7136 96.725 12.3841C96.725 13.0488 96.6028 13.6355 96.3585 14.144C96.1142 14.6497 95.7747 15.046 95.34 15.3329C94.9082 15.6199 94.4096 15.7633 93.8443 15.7633ZM93.8443 15.0687C94.2988 15.0687 94.6838 14.9466 94.9991 14.7022C95.3145 14.4579 95.5531 14.1326 95.715 13.7264C95.8798 13.3201 95.9622 12.8727 95.9622 12.3841C95.9622 11.8954 95.8798 11.4466 95.715 11.0375C95.5531 10.6284 95.3145 10.3002 94.9991 10.0531C94.6838 9.80593 94.2988 9.68235 93.8443 9.68235C93.3926 9.68235 93.0076 9.80593 92.6895 10.0531C92.3741 10.3002 92.1341 10.6284 91.9693 11.0375C91.8074 11.4466 91.7264 11.8954 91.7264 12.3841C91.7264 12.8727 91.8074 13.3201 91.9693 13.7264C92.1341 14.1326 92.3741 14.4579 92.6895 14.7022C93.0048 14.9466 93.3897 15.0687 93.8443 15.0687ZM99.1486 11.536V15.627H98.3901V9.0815H99.1273V10.1085H99.1955C99.3489 9.77326 99.5875 9.50479 99.9114 9.30309C100.238 9.09854 100.642 8.99627 101.122 8.99627C101.562 8.99627 101.948 9.0886 102.281 9.27326C102.616 9.45508 102.876 9.72354 103.061 10.0787C103.248 10.4338 103.342 10.8699 103.342 11.3869V15.627H102.583V11.4338C102.583 10.8968 102.433 10.4721 102.132 10.1596C101.833 9.84712 101.433 9.69087 100.93 9.69087C100.586 9.69087 100.281 9.76474 100.014 9.91246C99.7466 10.0602 99.535 10.2733 99.3787 10.5517C99.2253 10.8272 99.1486 11.1554 99.1486 11.536Z" fill="#18181B"/>
</svg>
