<svg width="150" height="70" viewBox="0 0 178 80" fill="none" xmlns="http://www.w3.org/2000/svg">
<rect x="0.965551" y="10.9656" width="175.73" height="68.0689" rx="11.0344" stroke="black" stroke-opacity="0.1" stroke-width="1.9311"/>
<path d="M33.1178 50.513C28.2191 50.513 24.2419 46.5358 24.2419 41.6371C24.2419 36.7384 28.2191 32.7612 33.1178 32.7612C38.0165 32.7612 41.9937 36.7384 41.9937 41.6371C41.9937 46.5358 38.0165 50.513 33.1178 50.513ZM33.1178 35.9785C29.9975 35.9785 27.4593 38.5168 27.4593 41.6371C27.4593 44.7574 29.9975 47.2957 33.1178 47.2957C36.2381 47.2957 38.7764 44.7574 38.7764 41.6371C38.7764 38.5168 36.2381 35.9785 33.1178 35.9785Z" fill="#0D9032"/>
<path d="M38.7764 52.6953C38.7764 55.8156 36.2381 58.3539 33.1178 58.3539C29.9975 58.3539 27.4592 55.8156 27.4592 52.6953L24.2581 52.6953C24.2581 57.594 28.2352 61.5712 33.1339 61.5712C38.0327 61.5712 42.0098 57.594 42.0098 52.6953L38.7764 52.6953Z" fill="#0D9032"/>
<path d="M46.2782 35.461L46.2782 28.4282L39.2454 28.4282L39.2454 31.3545L43.3519 31.3545L43.3519 35.461L46.2782 35.461Z" fill="#0D9032"/>
<path d="M72.2266 34.992C71.0949 33.9088 69.3973 33.2945 67.9261 33.2945C64.3046 33.2945 62.1058 36.0429 62.1058 39.5189C62.1058 42.2997 63.7226 45.1613 67.9261 45.1613C69.2518 45.1613 70.4159 44.8703 71.7416 43.8032L71.7416 40.8123L67.4249 40.8123L67.4249 37.983L74.6679 37.983L74.6679 45.0966C73.0027 47.0044 70.9009 48.1361 67.9261 48.1361C61.5723 48.1361 59.0017 43.9649 59.0017 39.5189C59.0017 34.7657 61.9765 30.3682 67.9261 30.3682C70.1895 30.3682 72.4691 31.2412 74.199 32.9549L72.2266 34.992Z" fill="black"/>
<path d="M94.4248 47.7641L90.6417 47.7641L85.7106 42.1217L82.6388 42.1217L82.6388 47.7641L79.4539 47.7641L79.4539 30.853C82.1376 30.853 84.8053 30.8854 87.489 30.8854C91.4662 30.9177 93.568 33.5691 93.568 36.4793C93.568 38.7912 92.5009 41.1355 89.2998 41.7822L94.4248 47.5539L94.4248 47.7641ZM82.655 33.844L82.655 39.2439L87.5052 39.2439C89.5261 39.2439 90.3992 37.8858 90.3992 36.5439C90.3992 35.202 89.51 33.844 87.5052 33.844L82.655 33.844Z" fill="black"/>
<path d="M111.109 44.5791L102.266 44.5791L100.811 47.764L97.3508 47.764L104.933 30.8691L108.409 30.8691L115.992 47.764L112.516 47.764L111.109 44.5791ZM106.696 34.426L103.559 41.6204L109.832 41.6204L106.696 34.426Z" fill="black"/>
<path d="M130.025 30.853L133.21 30.853L133.21 47.7803L131.238 47.7803L131.238 47.7964L122.346 36.3823L122.346 47.7803L119.161 47.7803L119.161 30.8692L121.747 30.8692L130.025 41.3456L130.025 30.853Z" fill="black"/>
<path d="M153.419 39.1792C153.5 43.4474 150.881 47.7802 144.964 47.7802L138.319 47.7802L138.319 30.8691L144.964 30.8691C150.752 30.8691 153.338 34.9918 153.419 39.1792ZM141.488 44.7084L144.964 44.7084C148.795 44.7084 150.331 41.9115 150.25 39.163C150.17 36.5277 148.634 33.9086 144.964 33.9086L141.488 33.9086L141.488 44.7084Z" fill="black"/>
<path d="M85.6087 56.545C85.5661 56.1851 85.3933 55.9058 85.0902 55.7069C84.7872 55.508 84.4155 55.4086 83.9752 55.4086C83.6532 55.4086 83.3715 55.4607 83.13 55.5649C82.8909 55.669 82.7039 55.8122 82.5689 55.9945C82.4363 56.1768 82.3701 56.384 82.3701 56.616C82.3701 56.8101 82.4162 56.977 82.5085 57.1167C82.6032 57.254 82.724 57.3688 82.8708 57.4612C83.0175 57.5511 83.1714 57.6257 83.3324 57.6849C83.4934 57.7417 83.6414 57.7879 83.7763 57.8234L84.5149 58.0222C84.7043 58.072 84.915 58.1406 85.147 58.2282C85.3814 58.3158 85.6051 58.4354 85.8182 58.5869C86.0336 58.736 86.2112 58.9278 86.3509 59.1622C86.4906 59.3965 86.5604 59.6842 86.5604 60.0251C86.5604 60.4181 86.4574 60.7732 86.2514 61.0904C86.0478 61.4077 85.7495 61.6598 85.3566 61.8468C84.9659 62.0338 84.4913 62.1274 83.9326 62.1274C83.4117 62.1274 82.9607 62.0433 82.5796 61.8752C82.2008 61.7071 81.9025 61.4728 81.6847 61.1721C81.4692 60.8714 81.3473 60.5222 81.3189 60.1245L82.228 60.1245C82.2517 60.3991 82.344 60.6264 82.505 60.8063C82.6683 60.9839 82.8743 61.1165 83.1229 61.2041C83.3738 61.2893 83.6437 61.3319 83.9326 61.3319C84.2687 61.3319 84.5706 61.2774 84.8381 61.1685C85.1056 61.0573 85.3175 60.9034 85.4737 60.7069C85.63 60.508 85.7081 60.276 85.7081 60.0109C85.7081 59.7694 85.6406 59.5729 85.5057 59.4214C85.3708 59.2699 85.1932 59.1468 84.973 59.0521C84.7529 58.9574 84.5149 58.8745 84.2593 58.8035L83.3644 58.5478C82.7962 58.3845 82.3464 58.1513 82.0149 57.8482C81.6835 57.5452 81.5178 57.1487 81.5178 56.6586C81.5178 56.2514 81.6279 55.8963 81.848 55.5933C82.0706 55.2879 82.3689 55.0511 82.7429 54.883C83.1193 54.7126 83.5396 54.6274 84.0036 54.6274C84.4723 54.6274 84.889 54.7114 85.2536 54.8795C85.6182 55.0452 85.907 55.2725 86.1201 55.5613C86.3355 55.8501 86.4491 56.178 86.461 56.545L85.6087 56.545ZM92.7811 54.7268L93.6618 54.7268L93.6618 59.5421C93.6618 60.0393 93.5446 60.4832 93.3102 60.8738C93.0782 61.2621 92.7503 61.5686 92.3265 61.7935C91.9028 62.0161 91.4056 62.1274 90.8351 62.1274C90.2645 62.1274 89.7674 62.0161 89.3436 61.7935C88.9198 61.5686 88.5908 61.2621 88.3564 60.8738C88.1244 60.4832 88.0084 60.0393 88.0084 59.5421L88.0084 54.7268L88.889 54.7268L88.889 59.4711C88.889 59.8262 88.9672 60.1423 89.1234 60.4193C89.2797 60.6939 89.5022 60.9105 89.791 61.0691C90.0822 61.2254 90.4302 61.3035 90.8351 61.3035C91.2399 61.3035 91.5879 61.2254 91.8791 61.0691C92.1703 60.9105 92.3928 60.6939 92.5467 60.4193C92.703 60.1423 92.7811 59.8262 92.7811 59.4711L92.7811 54.7268ZM95.4205 61.9995L95.4205 54.7268L97.8779 54.7268C98.4484 54.7268 98.9148 54.8298 99.277 55.0357C99.6416 55.2393 99.9115 55.5151 100.087 55.8631C100.262 56.2112 100.349 56.5994 100.349 57.0279C100.349 57.4564 100.262 57.8459 100.087 58.1962C99.9138 58.5466 99.6463 58.826 99.2841 59.0343C98.9219 59.2403 98.4579 59.3433 97.8921 59.3433L96.1307 59.3433L96.1307 58.562L97.8637 58.562C98.2543 58.562 98.568 58.4945 98.8047 58.3596C99.0415 58.2247 99.2131 58.0424 99.3196 57.8127C99.4285 57.5807 99.483 57.3191 99.483 57.0279C99.483 56.7367 99.4285 56.4763 99.3196 56.2467C99.2131 56.017 99.0403 55.8371 98.8012 55.7069C98.562 55.5743 98.2448 55.508 97.8495 55.508L96.3012 55.508L96.3012 61.9995L95.4205 61.9995ZM101.768 61.9995L101.768 54.7268L104.226 54.7268C104.796 54.7268 105.262 54.8298 105.625 55.0357C105.989 55.2393 106.259 55.5151 106.434 55.8631C106.61 56.2112 106.697 56.5994 106.697 57.0279C106.697 57.4564 106.61 57.8459 106.434 58.1962C106.262 58.5466 105.994 58.826 105.632 59.0343C105.27 59.2403 104.806 59.3433 104.24 59.3433L102.478 59.3433L102.478 58.562L104.211 58.562C104.602 58.562 104.916 58.4945 105.152 58.3596C105.389 58.2247 105.561 58.0424 105.667 57.8127C105.776 57.5807 105.831 57.3191 105.831 57.0279C105.831 56.7367 105.776 56.4763 105.667 56.2467C105.561 56.017 105.388 55.8371 105.149 55.7069C104.91 55.5743 104.592 55.508 104.197 55.508L102.649 55.508L102.649 61.9995L101.768 61.9995ZM114.252 58.3631C114.252 59.1302 114.114 59.7931 113.837 60.3518C113.56 60.9105 113.18 61.3414 112.697 61.6444C112.214 61.9474 111.662 62.0989 111.042 62.0989C110.422 62.0989 109.87 61.9474 109.387 61.6444C108.904 61.3414 108.524 60.9105 108.247 60.3518C107.97 59.7931 107.832 59.1302 107.832 58.3631C107.832 57.5961 107.97 56.9332 108.247 56.3745C108.524 55.8158 108.904 55.3849 109.387 55.0819C109.87 54.7789 110.422 54.6274 111.042 54.6274C111.662 54.6274 112.214 54.7789 112.697 55.0819C113.18 55.3849 113.56 55.8158 113.837 56.3745C114.114 56.9332 114.252 57.5961 114.252 58.3631ZM113.4 58.3631C113.4 57.7334 113.295 57.2019 113.084 56.7687C112.875 56.3354 112.593 56.0076 112.235 55.785C111.88 55.5625 111.482 55.4512 111.042 55.4512C110.602 55.4512 110.203 55.5625 109.845 55.785C109.49 56.0076 109.207 56.3354 108.996 56.7687C108.788 57.2019 108.684 57.7334 108.684 58.3631C108.684 58.9929 108.788 59.5244 108.996 59.9576C109.207 60.3908 109.49 60.7187 109.845 60.9413C110.203 61.1638 110.602 61.2751 111.042 61.2751C111.482 61.2751 111.88 61.1638 112.235 60.9413C112.593 60.7187 112.875 60.3908 113.084 59.9576C113.295 59.5244 113.4 58.9929 113.4 58.3631ZM115.733 61.9995L115.733 54.7268L118.19 54.7268C118.759 54.7268 119.225 54.8238 119.59 55.018C119.954 55.2097 120.224 55.4737 120.399 55.8099C120.574 56.1461 120.662 56.5284 120.662 56.9569C120.662 57.3854 120.574 57.7654 120.399 58.0968C120.224 58.4283 119.955 58.6887 119.593 58.8781C119.231 59.0651 118.768 59.1586 118.205 59.1586L116.216 59.1586L116.216 58.3631L118.176 58.3631C118.564 58.3631 118.877 58.3063 119.114 58.1927C119.353 58.0791 119.526 57.9181 119.632 57.7097C119.741 57.499 119.795 57.2481 119.795 56.9569C119.795 56.6657 119.741 56.4112 119.632 56.1934C119.523 55.9756 119.349 55.8075 119.11 55.6891C118.871 55.5684 118.555 55.508 118.162 55.508L116.614 55.508L116.614 61.9995L115.733 61.9995ZM119.156 58.7325L120.946 61.9995L119.923 61.9995L118.162 58.7325L119.156 58.7325ZM121.732 55.508L121.732 54.7268L127.186 54.7268L127.186 55.508L124.899 55.508L124.899 61.9995L124.019 61.9995L124.019 55.508L121.732 55.508ZM130.96 55.508L130.96 54.7268L136.415 54.7268L136.415 55.508L134.128 55.508L134.128 61.9995L133.247 61.9995L133.247 55.508L130.96 55.508ZM138.655 54.7268L138.655 61.9995L137.774 61.9995L137.774 54.7268L138.655 54.7268ZM146.273 56.9995L145.392 56.9995C145.34 56.7462 145.249 56.5237 145.119 56.3319C144.991 56.1401 144.835 55.9792 144.65 55.8489C144.468 55.7164 144.265 55.6169 144.043 55.5506C143.82 55.4844 143.588 55.4512 143.347 55.4512C142.906 55.4512 142.507 55.5625 142.15 55.785C141.795 56.0076 141.512 56.3354 141.301 56.7687C141.093 57.2019 140.989 57.7334 140.989 58.3631C140.989 58.9929 141.093 59.5244 141.301 59.9576C141.512 60.3908 141.795 60.7187 142.15 60.9413C142.507 61.1638 142.906 61.2751 143.347 61.2751C143.588 61.2751 143.82 61.2419 144.043 61.1756C144.265 61.1094 144.468 61.0111 144.65 60.8809C144.835 60.7483 144.991 60.5862 145.119 60.3944C145.249 60.2003 145.34 59.9777 145.392 59.7268L146.273 59.7268C146.206 60.0985 146.086 60.4311 145.911 60.7247C145.735 61.0182 145.518 61.268 145.257 61.4739C144.997 61.6775 144.704 61.8326 144.38 61.9391C144.058 62.0457 143.714 62.0989 143.347 62.0989C142.726 62.0989 142.175 61.9474 141.692 61.6444C141.209 61.3414 140.829 60.9105 140.552 60.3518C140.275 59.7931 140.136 59.1302 140.136 58.3631C140.136 57.5961 140.275 56.9332 140.552 56.3745C140.829 55.8158 141.209 55.3849 141.692 55.0819C142.175 54.7789 142.726 54.6274 143.347 54.6274C143.714 54.6274 144.058 54.6806 144.38 54.7872C144.704 54.8937 144.997 55.0499 145.257 55.2559C145.518 55.4595 145.735 55.7081 145.911 56.0016C146.086 56.2928 146.206 56.6255 146.273 56.9995ZM147.696 61.9995L147.696 54.7268L148.577 54.7268L148.577 58.3347L148.662 58.3347L151.929 54.7268L153.079 54.7268L150.025 58.008L153.079 61.9995L152.014 61.9995L149.486 58.6188L148.577 59.6416L148.577 61.9995L147.696 61.9995Z" fill="#0D9032"/>
<rect width="49" height="21" transform="translate(64.5 0.626953)" fill="white"/>
<path d="M80.5598 9.0815C80.5115 8.5957 80.2971 8.20934 79.9164 7.92241C79.5357 7.63548 79.057 7.49201 78.4803 7.49201C78.074 7.49201 77.7161 7.56161 77.4064 7.70082C77.0996 7.84002 76.8581 8.0332 76.682 8.28036C76.5087 8.52468 76.4221 8.80309 76.4221 9.11559C76.4221 9.3457 76.4718 9.54741 76.5712 9.7207C76.6706 9.894 76.8042 10.0431 76.9718 10.1681C77.1422 10.2903 77.3297 10.3954 77.5343 10.4835C77.7417 10.5716 77.9505 10.6454 78.1607 10.7051L79.0811 10.9693C79.3596 11.046 79.638 11.144 79.9164 11.2633C80.1948 11.3826 80.449 11.5332 80.6792 11.715C80.9121 11.894 81.0982 12.1142 81.2374 12.3755C81.3794 12.6341 81.4505 12.9451 81.4505 13.3088C81.4505 13.7747 81.3297 14.1937 81.0882 14.5659C80.8468 14.938 80.5002 15.2335 80.0485 15.4522C79.5968 15.6681 79.0556 15.7761 78.4249 15.7761C77.8311 15.7761 77.3155 15.6781 76.878 15.4821C76.4405 15.2832 76.0968 15.0091 75.8468 14.6596C75.5968 14.3102 75.4561 13.9054 75.4249 13.4451H76.2431C76.2715 13.7889 76.3851 14.0801 76.584 14.3187C76.7828 14.5574 77.0414 14.7392 77.3596 14.8642C77.6777 14.9863 78.0328 15.0474 78.4249 15.0474C78.8596 15.0474 79.2459 14.975 79.584 14.8301C79.9249 14.6824 80.1919 14.4778 80.3851 14.2164C80.5811 13.9522 80.6792 13.6454 80.6792 13.296C80.6792 13.0005 80.6025 12.7534 80.449 12.5545C80.2956 12.3528 80.0811 12.1838 79.8056 12.0474C79.5328 11.911 79.2161 11.7903 78.8553 11.6852L77.8113 11.3784C77.1266 11.1738 76.5953 10.8912 76.2175 10.5304C75.8397 10.1696 75.6507 9.70934 75.6507 9.14968C75.6507 8.68093 75.7757 8.269 76.0257 7.91388C76.2786 7.55593 76.6195 7.27752 77.0485 7.07866C77.4803 6.87695 77.9647 6.7761 78.5016 6.7761C79.0442 6.7761 79.5243 6.87553 79.9419 7.0744C80.3596 7.27326 80.6905 7.54741 80.9348 7.89684C81.182 8.24343 81.3141 8.63832 81.3311 9.0815H80.5598ZM85.7544 15.7633C85.1891 15.7633 84.6891 15.6199 84.2544 15.3329C83.8226 15.046 83.4846 14.6497 83.2402 14.144C82.9959 13.6355 82.8738 13.0488 82.8738 12.3841C82.8738 11.7136 82.9959 11.1241 83.2402 10.6156C83.4846 10.1042 83.8226 9.7065 84.2544 9.42241C84.6891 9.13548 85.1891 8.99201 85.7544 8.99201C86.3198 8.99201 86.8184 9.13548 87.2502 9.42241C87.682 9.70934 88.0201 10.1071 88.2644 10.6156C88.5115 11.1241 88.6351 11.7136 88.6351 12.3841C88.6351 13.0488 88.513 13.6355 88.2686 14.144C88.0243 14.6497 87.6848 15.046 87.2502 15.3329C86.8184 15.6199 86.3198 15.7633 85.7544 15.7633ZM85.7544 15.0687C86.209 15.0687 86.5939 14.9466 86.9093 14.7022C87.2246 14.4579 87.4632 14.1326 87.6252 13.7264C87.79 13.3201 87.8723 12.8727 87.8723 12.3841C87.8723 11.8954 87.79 11.4466 87.6252 11.0375C87.4632 10.6284 87.2246 10.3002 86.9093 10.0531C86.5939 9.80593 86.209 9.68235 85.7544 9.68235C85.3027 9.68235 84.9178 9.80593 84.5996 10.0531C84.2843 10.3002 84.0442 10.6284 83.8794 11.0375C83.7175 11.4466 83.6365 11.8954 83.6365 12.3841C83.6365 12.8727 83.7175 13.3201 83.8794 13.7264C84.0442 14.1326 84.2843 14.4579 84.5996 14.7022C84.915 14.9466 85.2999 15.0687 85.7544 15.0687ZM92.8443 15.7633C92.2789 15.7633 91.7789 15.6199 91.3443 15.3329C90.9125 15.046 90.5744 14.6497 90.3301 14.144C90.0858 13.6355 89.9636 13.0488 89.9636 12.3841C89.9636 11.7136 90.0858 11.1241 90.3301 10.6156C90.5744 10.1042 90.9125 9.7065 91.3443 9.42241C91.7789 9.13548 92.2789 8.99201 92.8443 8.99201C93.4096 8.99201 93.9082 9.13548 94.34 9.42241C94.7718 9.70934 95.1099 10.1071 95.3542 10.6156C95.6014 11.1241 95.725 11.7136 95.725 12.3841C95.725 13.0488 95.6028 13.6355 95.3585 14.144C95.1142 14.6497 94.7747 15.046 94.34 15.3329C93.9082 15.6199 93.4096 15.7633 92.8443 15.7633ZM92.8443 15.0687C93.2988 15.0687 93.6838 14.9466 93.9991 14.7022C94.3145 14.4579 94.5531 14.1326 94.715 13.7264C94.8798 13.3201 94.9622 12.8727 94.9622 12.3841C94.9622 11.8954 94.8798 11.4466 94.715 11.0375C94.5531 10.6284 94.3145 10.3002 93.9991 10.0531C93.6838 9.80593 93.2988 9.68235 92.8443 9.68235C92.3926 9.68235 92.0076 9.80593 91.6895 10.0531C91.3741 10.3002 91.1341 10.6284 90.9693 11.0375C90.8074 11.4466 90.7264 11.8954 90.7264 12.3841C90.7264 12.8727 90.8074 13.3201 90.9693 13.7264C91.1341 14.1326 91.3741 14.4579 91.6895 14.7022C92.0048 14.9466 92.3897 15.0687 92.8443 15.0687ZM98.1486 11.536V15.627H97.3901V9.0815H98.1273V10.1085H98.1955C98.3489 9.77326 98.5875 9.50479 98.9114 9.30309C99.2381 9.09854 99.6415 8.99627 100.122 8.99627C100.562 8.99627 100.948 9.0886 101.281 9.27326C101.616 9.45508 101.876 9.72354 102.061 10.0787C102.248 10.4338 102.342 10.8699 102.342 11.3869V15.627H101.583V11.4338C101.583 10.8968 101.433 10.4721 101.132 10.1596C100.833 9.84712 100.433 9.69087 99.9299 9.69087C99.5861 9.69087 99.2807 9.76474 99.0137 9.91246C98.7466 10.0602 98.535 10.2733 98.3787 10.5517C98.2253 10.8272 98.1486 11.1554 98.1486 11.536Z" fill="#18181B"/>
</svg>
