<svg width="150" height="70" viewBox="0 0 178 80" fill="none" xmlns="http://www.w3.org/2000/svg">
<rect x="0.965551" y="10.9656" width="175.73" height="68.0689" rx="11.0344" stroke="black" stroke-opacity="0.1" stroke-width="1.9311"/>
<path d="M33.1178 50.513C28.2191 50.513 24.2419 46.5358 24.2419 41.6371C24.2419 36.7384 28.2191 32.7612 33.1178 32.7612C38.0165 32.7612 41.9937 36.7384 41.9937 41.6371C41.9937 46.5358 38.0165 50.513 33.1178 50.513ZM33.1178 35.9785C29.9975 35.9785 27.4593 38.5168 27.4593 41.6371C27.4593 44.7574 29.9975 47.2957 33.1178 47.2957C36.2381 47.2957 38.7764 44.7574 38.7764 41.6371C38.7764 38.5168 36.2381 35.9785 33.1178 35.9785Z" fill="#C030CC"/>
<path d="M38.7764 52.6953C38.7764 55.8156 36.2381 58.3539 33.1178 58.3539C29.9975 58.3539 27.4592 55.8156 27.4592 52.6953L24.2581 52.6953C24.2581 57.594 28.2352 61.5712 33.1339 61.5712C38.0327 61.5712 42.0098 57.594 42.0098 52.6953L38.7764 52.6953Z" fill="#C030CC"/>
<path d="M46.2782 35.461L46.2782 28.4282L39.2454 28.4282L39.2454 31.3545L43.3519 31.3545L43.3519 35.461L46.2782 35.461Z" fill="#C030CC"/>
<path d="M72.2266 34.992C71.0949 33.9088 69.3973 33.2945 67.9261 33.2945C64.3046 33.2945 62.1058 36.0429 62.1058 39.5189C62.1058 42.2997 63.7226 45.1613 67.9261 45.1613C69.2518 45.1613 70.4159 44.8703 71.7416 43.8032L71.7416 40.8123L67.4249 40.8123L67.4249 37.983L74.6679 37.983L74.6679 45.0966C73.0027 47.0044 70.9009 48.1361 67.9261 48.1361C61.5723 48.1361 59.0017 43.9649 59.0017 39.5189C59.0017 34.7657 61.9765 30.3682 67.9261 30.3682C70.1895 30.3682 72.4691 31.2412 74.199 32.9549L72.2266 34.992Z" fill="black"/>
<path d="M94.4244 47.7641L90.6412 47.7641L85.7101 42.1217L82.6383 42.1217L82.6383 47.7641L79.4534 47.7641L79.4534 30.853C82.1372 30.853 84.8048 30.8854 87.4886 30.8854C91.4657 30.9177 93.5675 33.5691 93.5675 36.4793C93.5675 38.7912 92.5004 41.1355 89.2993 41.7822L94.4244 47.5539L94.4244 47.7641ZM82.6545 33.844L82.6545 39.2439L87.5047 39.2439C89.5256 39.2439 90.3987 37.8858 90.3987 36.5439C90.3987 35.202 89.5095 33.844 87.5047 33.844L82.6545 33.844Z" fill="black"/>
<path d="M111.109 44.5791L102.266 44.5791L100.811 47.764L97.3508 47.764L104.933 30.8691L108.409 30.8691L115.992 47.764L112.516 47.764L111.109 44.5791ZM106.696 34.426L103.559 41.6204L109.832 41.6204L106.696 34.426Z" fill="black"/>
<path d="M130.025 30.853L133.21 30.853L133.21 47.7803L131.238 47.7803L131.238 47.7964L122.346 36.3823L122.346 47.7803L119.161 47.7803L119.161 30.8692L121.747 30.8692L130.025 41.3456L130.025 30.853Z" fill="black"/>
<path d="M153.419 39.1792C153.5 43.4474 150.881 47.7802 144.964 47.7802L138.319 47.7802L138.319 30.8691L144.964 30.8691C150.752 30.8691 153.338 34.9918 153.419 39.1792ZM141.488 44.7084L144.964 44.7084C148.795 44.7084 150.331 41.9115 150.25 39.163C150.17 36.5277 148.634 33.9086 144.964 33.9086L141.488 33.9086L141.488 44.7084Z" fill="black"/>
<path d="M98.143 53.7268L98.143 60.9995L97.2623 60.9995L97.2623 53.7268L98.143 53.7268ZM105.676 53.7268L105.676 60.9995L104.824 60.9995L100.86 55.2893L100.789 55.2893L100.789 60.9995L99.9088 60.9995L99.9088 53.7268L100.761 53.7268L104.738 59.4512L104.809 59.4512L104.809 53.7268L105.676 53.7268ZM107.736 53.7268L109.895 59.8489L109.981 59.8489L112.14 53.7268L113.063 53.7268L110.393 60.9995L109.484 60.9995L106.813 53.7268L107.736 53.7268ZM114.196 60.9995L114.196 53.7268L118.585 53.7268L118.585 54.508L115.077 54.508L115.077 56.9654L118.358 56.9654L118.358 57.7467L115.077 57.7467L115.077 60.2183L118.642 60.2183L118.642 60.9995L114.196 60.9995ZM125.939 53.7268L125.939 60.9995L125.087 60.9995L121.124 55.2893L121.053 55.2893L121.053 60.9995L120.172 60.9995L120.172 53.7268L121.025 53.7268L125.002 59.4512L125.073 59.4512L125.073 53.7268L125.939 53.7268ZM127.304 54.508L127.304 53.7268L132.759 53.7268L132.759 54.508L130.472 54.508L130.472 60.9995L129.591 60.9995L129.591 54.508L127.304 54.508ZM139.951 57.3631C139.951 58.1302 139.813 58.7931 139.536 59.3518C139.259 59.9105 138.879 60.3414 138.396 60.6444C137.913 60.9474 137.361 61.0989 136.741 61.0989C136.121 61.0989 135.569 60.9474 135.086 60.6444C134.603 60.3414 134.223 59.9105 133.946 59.3518C133.669 58.7931 133.531 58.1302 133.531 57.3631C133.531 56.5961 133.669 55.9332 133.946 55.3745C134.223 54.8158 134.603 54.3849 135.086 54.0819C135.569 53.7789 136.121 53.6274 136.741 53.6274C137.361 53.6274 137.913 53.7789 138.396 54.0819C138.879 54.3849 139.259 54.8158 139.536 55.3745C139.813 55.9332 139.951 56.5961 139.951 57.3631ZM139.099 57.3631C139.099 56.7334 138.994 56.2019 138.783 55.7687C138.575 55.3354 138.292 55.0076 137.934 54.785C137.579 54.5625 137.181 54.4512 136.741 54.4512C136.301 54.4512 135.902 54.5625 135.544 54.785C135.189 55.0076 134.906 55.3354 134.696 55.7687C134.487 56.2019 134.383 56.7334 134.383 57.3631C134.383 57.9929 134.487 58.5244 134.696 58.9576C134.906 59.3908 135.189 59.7187 135.544 59.9413C135.902 60.1638 136.301 60.2751 136.741 60.2751C137.181 60.2751 137.579 60.1638 137.934 59.9413C138.292 59.7187 138.575 59.3908 138.783 58.9576C138.994 58.5244 139.099 57.9929 139.099 57.3631ZM141.432 60.9995L141.432 53.7268L143.89 53.7268C144.458 53.7268 144.924 53.8238 145.289 54.018C145.653 54.2097 145.923 54.4737 146.098 54.8099C146.274 55.1461 146.361 55.5284 146.361 55.9569C146.361 56.3854 146.274 56.7654 146.098 57.0968C145.923 57.4283 145.654 57.6887 145.292 57.8781C144.93 58.0651 144.467 58.1586 143.904 58.1586L141.915 58.1586L141.915 57.3631L143.875 57.3631C144.264 57.3631 144.576 57.3063 144.813 57.1927C145.052 57.0791 145.225 56.9181 145.331 56.7097C145.44 56.499 145.495 56.2481 145.495 55.9569C145.495 55.6657 145.44 55.4112 145.331 55.1934C145.222 54.9756 145.048 54.8075 144.809 54.6891C144.57 54.5684 144.254 54.508 143.861 54.508L142.313 54.508L142.313 60.9995L141.432 60.9995ZM144.855 57.7325L146.645 60.9995L145.623 60.9995L143.861 57.7325L144.855 57.7325ZM146.96 53.7268L147.968 53.7268L149.985 57.1217L150.07 57.1217L152.087 53.7268L153.096 53.7268L150.468 58.0024L150.468 60.9995L149.587 60.9995L149.587 58.0024L146.96 53.7268Z" fill="#C030CC"/>
<rect width="49" height="21" transform="translate(64.5 0.626953)" fill="white"/>
<path d="M80.5598 9.0815C80.5115 8.5957 80.2971 8.20934 79.9164 7.92241C79.5357 7.63548 79.057 7.49201 78.4803 7.49201C78.074 7.49201 77.7161 7.56161 77.4064 7.70082C77.0996 7.84002 76.8581 8.0332 76.682 8.28036C76.5087 8.52468 76.4221 8.80309 76.4221 9.11559C76.4221 9.3457 76.4718 9.54741 76.5712 9.7207C76.6706 9.894 76.8042 10.0431 76.9718 10.1681C77.1422 10.2903 77.3297 10.3954 77.5343 10.4835C77.7417 10.5716 77.9505 10.6454 78.1607 10.7051L79.0811 10.9693C79.3596 11.046 79.638 11.144 79.9164 11.2633C80.1948 11.3826 80.449 11.5332 80.6792 11.715C80.9121 11.894 81.0982 12.1142 81.2374 12.3755C81.3794 12.6341 81.4505 12.9451 81.4505 13.3088C81.4505 13.7747 81.3297 14.1937 81.0882 14.5659C80.8468 14.938 80.5002 15.2335 80.0485 15.4522C79.5968 15.6681 79.0556 15.7761 78.4249 15.7761C77.8311 15.7761 77.3155 15.6781 76.878 15.4821C76.4405 15.2832 76.0968 15.0091 75.8468 14.6596C75.5968 14.3102 75.4561 13.9054 75.4249 13.4451H76.2431C76.2715 13.7889 76.3851 14.0801 76.584 14.3187C76.7828 14.5574 77.0414 14.7392 77.3596 14.8642C77.6777 14.9863 78.0328 15.0474 78.4249 15.0474C78.8596 15.0474 79.2459 14.975 79.584 14.8301C79.9249 14.6824 80.1919 14.4778 80.3851 14.2164C80.5811 13.9522 80.6792 13.6454 80.6792 13.296C80.6792 13.0005 80.6025 12.7534 80.449 12.5545C80.2956 12.3528 80.0811 12.1838 79.8056 12.0474C79.5328 11.911 79.2161 11.7903 78.8553 11.6852L77.8113 11.3784C77.1266 11.1738 76.5953 10.8912 76.2175 10.5304C75.8397 10.1696 75.6507 9.70934 75.6507 9.14968C75.6507 8.68093 75.7757 8.269 76.0257 7.91388C76.2786 7.55593 76.6195 7.27752 77.0485 7.07866C77.4803 6.87695 77.9647 6.7761 78.5016 6.7761C79.0442 6.7761 79.5243 6.87553 79.9419 7.0744C80.3596 7.27326 80.6905 7.54741 80.9348 7.89684C81.182 8.24343 81.3141 8.63832 81.3311 9.0815H80.5598ZM85.7544 15.7633C85.1891 15.7633 84.6891 15.6199 84.2544 15.3329C83.8226 15.046 83.4846 14.6497 83.2402 14.144C82.9959 13.6355 82.8738 13.0488 82.8738 12.3841C82.8738 11.7136 82.9959 11.1241 83.2402 10.6156C83.4846 10.1042 83.8226 9.7065 84.2544 9.42241C84.6891 9.13548 85.1891 8.99201 85.7544 8.99201C86.3198 8.99201 86.8184 9.13548 87.2502 9.42241C87.682 9.70934 88.0201 10.1071 88.2644 10.6156C88.5115 11.1241 88.6351 11.7136 88.6351 12.3841C88.6351 13.0488 88.513 13.6355 88.2686 14.144C88.0243 14.6497 87.6848 15.046 87.2502 15.3329C86.8184 15.6199 86.3198 15.7633 85.7544 15.7633ZM85.7544 15.0687C86.209 15.0687 86.5939 14.9466 86.9093 14.7022C87.2246 14.4579 87.4632 14.1326 87.6252 13.7264C87.79 13.3201 87.8723 12.8727 87.8723 12.3841C87.8723 11.8954 87.79 11.4466 87.6252 11.0375C87.4632 10.6284 87.2246 10.3002 86.9093 10.0531C86.5939 9.80593 86.209 9.68235 85.7544 9.68235C85.3027 9.68235 84.9178 9.80593 84.5996 10.0531C84.2843 10.3002 84.0442 10.6284 83.8794 11.0375C83.7175 11.4466 83.6365 11.8954 83.6365 12.3841C83.6365 12.8727 83.7175 13.3201 83.8794 13.7264C84.0442 14.1326 84.2843 14.4579 84.5996 14.7022C84.915 14.9466 85.2999 15.0687 85.7544 15.0687ZM92.8443 15.7633C92.2789 15.7633 91.7789 15.6199 91.3443 15.3329C90.9125 15.046 90.5744 14.6497 90.3301 14.144C90.0858 13.6355 89.9636 13.0488 89.9636 12.3841C89.9636 11.7136 90.0858 11.1241 90.3301 10.6156C90.5744 10.1042 90.9125 9.7065 91.3443 9.42241C91.7789 9.13548 92.2789 8.99201 92.8443 8.99201C93.4096 8.99201 93.9082 9.13548 94.34 9.42241C94.7718 9.70934 95.1099 10.1071 95.3542 10.6156C95.6014 11.1241 95.725 11.7136 95.725 12.3841C95.725 13.0488 95.6028 13.6355 95.3585 14.144C95.1142 14.6497 94.7747 15.046 94.34 15.3329C93.9082 15.6199 93.4096 15.7633 92.8443 15.7633ZM92.8443 15.0687C93.2988 15.0687 93.6838 14.9466 93.9991 14.7022C94.3145 14.4579 94.5531 14.1326 94.715 13.7264C94.8798 13.3201 94.9622 12.8727 94.9622 12.3841C94.9622 11.8954 94.8798 11.4466 94.715 11.0375C94.5531 10.6284 94.3145 10.3002 93.9991 10.0531C93.6838 9.80593 93.2988 9.68235 92.8443 9.68235C92.3926 9.68235 92.0076 9.80593 91.6895 10.0531C91.3741 10.3002 91.1341 10.6284 90.9693 11.0375C90.8074 11.4466 90.7264 11.8954 90.7264 12.3841C90.7264 12.8727 90.8074 13.3201 90.9693 13.7264C91.1341 14.1326 91.3741 14.4579 91.6895 14.7022C92.0048 14.9466 92.3897 15.0687 92.8443 15.0687ZM98.1486 11.536V15.627H97.3901V9.0815H98.1273V10.1085H98.1955C98.3489 9.77326 98.5875 9.50479 98.9114 9.30309C99.2381 9.09854 99.6415 8.99627 100.122 8.99627C100.562 8.99627 100.948 9.0886 101.281 9.27326C101.616 9.45508 101.876 9.72354 102.061 10.0787C102.248 10.4338 102.342 10.8699 102.342 11.3869V15.627H101.583V11.4338C101.583 10.8968 101.433 10.4721 101.132 10.1596C100.833 9.84712 100.433 9.69087 99.9299 9.69087C99.5861 9.69087 99.2807 9.76474 99.0137 9.91246C98.7466 10.0602 98.535 10.2733 98.3787 10.5517C98.2253 10.8272 98.1486 11.1554 98.1486 11.536Z" fill="#18181B"/>
</svg>
