<svg width="155" height="62" viewBox="0 0 155 62" fill="none" xmlns="http://www.w3.org/2000/svg">
<path d="M28.8602 35.5232C24.5905 35.5232 21.124 32.0567 21.124 27.787C21.124 23.5173 24.6046 20.0508 28.8602 20.0508C33.1158 20.0508 36.5964 23.5173 36.5964 27.787C36.5964 32.0567 33.1299 35.5232 28.8602 35.5232ZM28.8602 22.855C26.1406 22.855 23.9282 25.0673 23.9282 27.787C23.9282 30.5066 26.1406 32.719 28.8602 32.719C31.5799 32.719 33.7922 30.5066 33.7922 27.787C33.7922 25.0673 31.5799 22.855 28.8602 22.855Z" fill="#712929"/>
<path d="M33.7922 37.4277C33.7922 40.1474 31.5799 42.3597 28.8602 42.3597C26.1406 42.3597 23.9282 40.1474 23.9282 37.4277L21.124 37.4277C21.124 41.6974 24.5905 45.1639 28.8602 45.1639C33.1299 45.1639 36.5964 41.6974 36.5964 37.4277L33.7922 37.4277Z" fill="#712929"/>
<path d="M40.3309 22.4052L40.3309 16.2754L34.2012 16.2754L34.2012 18.8259L37.7663 18.8259L37.7663 22.4052L40.3309 22.4052Z" fill="#712929"/>
<path d="M62.933 21.9969C61.9466 21.0528 60.467 20.5173 59.1847 20.5173C56.0282 20.5173 54.1118 22.9129 54.1118 25.9425C54.1118 28.3663 55.5209 30.8604 59.1847 30.8604C60.3402 30.8604 61.3548 30.6068 62.5103 29.6768L62.5103 27.0699L58.7479 27.0699L58.7479 24.6039L65.0608 24.6039L65.0608 30.8041C63.6094 32.4669 61.7775 33.4533 59.1847 33.4533C53.6468 33.4533 51.4062 29.8177 51.4062 25.9425C51.4062 21.7997 53.9991 17.9668 59.1847 17.9668C61.1575 17.9668 63.1444 18.7277 64.6522 20.2214L62.933 21.9969Z" fill="white"/>
<path d="M82.2947 33.1283L78.9974 33.1283L74.6995 28.2104L72.0221 28.2104L72.0221 33.1283L69.2461 33.1283L69.2461 18.3887C71.5853 18.3887 73.9104 18.4169 76.2495 18.4169C79.7301 18.4309 81.562 20.7419 81.562 23.2784C81.562 25.2935 80.632 27.3367 77.8419 27.9004L82.3088 32.931L82.2947 33.1283ZM72.0221 20.9956L72.0221 25.7021L76.2495 25.7021C78.011 25.7021 78.7719 24.5184 78.7719 23.3489C78.7719 22.1793 78.011 20.9956 76.2636 20.9956L72.0221 20.9956Z" fill="white"/>
<path d="M96.8365 30.3538L89.1285 30.3538L87.8603 33.1298L84.8447 33.1298L91.4536 18.4043L94.4833 18.4043L101.092 33.1298L98.0625 33.1298L96.8365 30.3538ZM92.9896 21.5044L90.2558 27.7751L95.7233 27.7751L92.9896 21.5044Z" fill="white"/>
<path d="M113.309 18.3887L116.085 18.3887L116.085 33.1424L114.366 33.1424L114.366 33.1565L106.616 23.2079L106.616 33.1424L103.84 33.1424L103.84 18.4028L106.094 18.4028L113.309 27.534L113.309 18.3887Z" fill="white"/>
<path d="M133.699 25.6473C133.77 29.3674 131.487 33.1439 126.33 33.1439L120.538 33.1439L120.538 18.4043L126.33 18.4043C131.388 18.4043 133.643 21.9976 133.699 25.6473ZM123.314 30.4666L126.344 30.4666C129.683 30.4666 131.022 28.0287 130.952 25.6332C130.881 23.3363 129.543 21.0535 126.344 21.0535L123.314 21.0535L123.314 30.4666Z" fill="white"/>
<path d="M75.3017 44.5625L74.4969 44.5625L76.8245 38.2236L77.6169 38.2236L79.9444 44.5625L79.1397 44.5625L77.2454 39.2264L77.1959 39.2264L75.3017 44.5625ZM75.5988 42.0864L78.8426 42.0864L78.8426 42.7673L75.5988 42.7673L75.5988 42.0864ZM85.7347 40.2045L84.9671 40.2045C84.9217 39.9837 84.8423 39.7898 84.7288 39.6226C84.6173 39.4555 84.4812 39.3152 84.3202 39.2017C84.1613 39.0861 83.9849 38.9995 83.7909 38.9417C83.597 38.8839 83.3948 38.855 83.1843 38.855C82.8005 38.855 82.4528 38.952 82.1412 39.146C81.8317 39.3399 81.5851 39.6257 81.4015 40.0033C81.2199 40.3809 81.1291 40.8442 81.1291 41.3931C81.1291 41.9419 81.2199 42.4052 81.4015 42.7828C81.5851 43.1604 81.8317 43.4462 82.1412 43.6401C82.4528 43.8341 82.8005 43.9311 83.1843 43.9311C83.3948 43.9311 83.597 43.9022 83.7909 43.8444C83.9849 43.7866 84.1613 43.701 84.3202 43.5875C84.4812 43.472 84.6173 43.3306 84.7288 43.1635C84.8423 42.9943 84.9217 42.8003 84.9671 42.5816L85.7347 42.5816C85.6769 42.9056 85.5717 43.1955 85.419 43.4513C85.2663 43.7072 85.0765 43.9249 84.8495 44.1044C84.6225 44.2819 84.3677 44.417 84.085 44.5099C83.8043 44.6027 83.5041 44.6492 83.1843 44.6492C82.6437 44.6492 82.1629 44.5171 81.7419 44.253C81.321 43.9889 80.9898 43.6133 80.7484 43.1263C80.507 42.6394 80.3863 42.0616 80.3863 41.3931C80.3863 40.7245 80.507 40.1467 80.7484 39.6598C80.9898 39.1728 81.321 38.7973 81.7419 38.5331C82.1629 38.269 82.6437 38.137 83.1843 38.137C83.5041 38.137 83.8043 38.1834 84.085 38.2762C84.3677 38.3691 84.6225 38.5053 84.8495 38.6848C85.0765 38.8623 85.2663 39.0789 85.419 39.3348C85.5717 39.5886 85.6769 39.8785 85.7347 40.2045ZM92.0759 40.2045L91.3083 40.2045C91.2629 39.9837 91.1835 39.7898 91.07 39.6226C90.9585 39.4555 90.8224 39.3152 90.6614 39.2017C90.5025 39.0861 90.3261 38.9995 90.1321 38.9417C89.9382 38.8839 89.736 38.855 89.5255 38.855C89.1417 38.855 88.794 38.952 88.4824 39.146C88.1729 39.3399 87.9263 39.6257 87.7427 40.0033C87.5611 40.3809 87.4703 40.8442 87.4703 41.3931C87.4703 41.9419 87.5611 42.4052 87.7427 42.7828C87.9263 43.1604 88.1729 43.4462 88.4824 43.6401C88.794 43.8341 89.1417 43.9311 89.5255 43.9311C89.736 43.9311 89.9382 43.9022 90.1321 43.8444C90.3261 43.7866 90.5025 43.701 90.6614 43.5875C90.8224 43.472 90.9585 43.3306 91.07 43.1635C91.1835 42.9943 91.2629 42.8003 91.3083 42.5816L92.0759 42.5816C92.0181 42.9056 91.9129 43.1955 91.7602 43.4513C91.6075 43.7072 91.4177 43.9249 91.1907 44.1044C90.9637 44.2819 90.7089 44.417 90.4262 44.5099C90.1456 44.6027 89.8453 44.6492 89.5255 44.6492C88.9849 44.6492 88.5041 44.5171 88.0831 44.253C87.6622 43.9889 87.331 43.6133 87.0896 43.1263C86.8482 42.6394 86.7275 42.0616 86.7275 41.3931C86.7275 40.7245 86.8482 40.1467 87.0896 39.6598C87.331 39.1728 87.6622 38.7973 88.0831 38.5331C88.5041 38.269 88.9849 38.137 89.5255 38.137C89.8453 38.137 90.1456 38.1834 90.4262 38.2762C90.7089 38.3691 90.9637 38.5053 91.1907 38.6848C91.4177 38.8623 91.6075 39.0789 91.7602 39.3348C91.9129 39.5886 92.0181 39.8785 92.0759 40.2045ZM98.6647 41.3931C98.6647 42.0616 98.544 42.6394 98.3026 43.1263C98.0612 43.6133 97.73 43.9889 97.309 44.253C96.8881 44.5171 96.4073 44.6492 95.8667 44.6492C95.3261 44.6492 94.8453 44.5171 94.4243 44.253C94.0034 43.9889 93.6722 43.6133 93.4308 43.1263C93.1894 42.6394 93.0687 42.0616 93.0687 41.3931C93.0687 40.7245 93.1894 40.1467 93.4308 39.6598C93.6722 39.1728 94.0034 38.7973 94.4243 38.5331C94.8453 38.269 95.3261 38.137 95.8667 38.137C96.4073 38.137 96.8881 38.269 97.309 38.5331C97.73 38.7973 98.0612 39.1728 98.3026 39.6598C98.544 40.1467 98.6647 40.7245 98.6647 41.3931ZM97.9219 41.3931C97.9219 40.8442 97.8301 40.3809 97.6464 40.0033C97.4648 39.6257 97.2182 39.3399 96.9067 39.146C96.5971 38.952 96.2505 38.855 95.8667 38.855C95.4829 38.855 95.1352 38.952 94.8236 39.146C94.5141 39.3399 94.2675 39.6257 94.0839 40.0033C93.9023 40.3809 93.8115 40.8442 93.8115 41.3931C93.8115 41.9419 93.9023 42.4052 94.0839 42.7828C94.2675 43.1604 94.5141 43.4462 94.8236 43.6401C95.1352 43.8341 95.4829 43.9311 95.8667 43.9311C96.2505 43.9311 96.5971 43.8341 96.9067 43.6401C97.2182 43.4462 97.4648 43.1604 97.6464 42.7828C97.8301 42.4052 97.9219 41.9419 97.9219 41.3931ZM104.115 38.2236L104.883 38.2236L104.883 42.4207C104.883 42.854 104.781 43.2409 104.576 43.5813C104.374 43.9197 104.088 44.187 103.719 44.383C103.35 44.5769 102.916 44.6739 102.419 44.6739C101.922 44.6739 101.489 44.5769 101.119 44.383C100.75 44.187 100.463 43.9197 100.259 43.5813C100.057 43.2409 99.9554 42.854 99.9554 42.4207L99.9554 38.2236L100.723 38.2236L100.723 42.3587C100.723 42.6683 100.791 42.9437 100.927 43.1852C101.063 43.4245 101.257 43.6133 101.509 43.7516C101.763 43.8878 102.066 43.9558 102.419 43.9558C102.772 43.9558 103.075 43.8878 103.329 43.7516C103.583 43.6133 103.777 43.4245 103.911 43.1852C104.047 42.9437 104.115 42.6683 104.115 42.3587L104.115 38.2236ZM111.442 38.2236L111.442 44.5625L110.699 44.5625L107.245 39.5855L107.183 39.5855L107.183 44.5625L106.416 44.5625L106.416 38.2236L107.159 38.2236L110.625 43.213L110.687 43.213L110.687 38.2236L111.442 38.2236ZM112.632 38.9046L112.632 38.2236L117.386 38.2236L117.386 38.9046L115.392 38.9046L115.392 44.5625L114.625 44.5625L114.625 38.9046L112.632 38.9046ZM119.338 38.2236L119.338 44.5625L118.57 44.5625L118.57 38.2236L119.338 38.2236ZM125.904 38.2236L125.904 44.5625L125.161 44.5625L121.707 39.5855L121.645 39.5855L121.645 44.5625L120.877 44.5625L120.877 38.2236L121.62 38.2236L125.087 43.213L125.148 43.213L125.148 38.2236L125.904 38.2236ZM131.773 40.2045C131.705 39.9961 131.615 39.8094 131.504 39.6443C131.394 39.4772 131.263 39.3348 131.11 39.2172C130.96 39.0995 130.789 39.0098 130.597 38.9479C130.405 38.886 130.194 38.855 129.965 38.855C129.59 38.855 129.248 38.952 128.941 39.146C128.633 39.3399 128.389 39.6257 128.207 40.0033C128.026 40.3809 127.935 40.8442 127.935 41.3931C127.935 41.9419 128.027 42.4052 128.21 42.7828C128.394 43.1604 128.643 43.4462 128.956 43.6401C129.27 43.8341 129.623 43.9311 130.015 43.9311C130.378 43.9311 130.698 43.8537 130.974 43.699C131.253 43.5421 131.47 43.3213 131.624 43.0366C131.781 42.7498 131.86 42.4124 131.86 42.0245L132.095 42.074L130.188 42.074L130.188 41.3931L132.602 41.3931L132.602 42.074C132.602 42.596 132.491 43.05 132.268 43.4359C132.047 43.8217 131.742 44.1209 131.352 44.3335C130.964 44.5439 130.518 44.6492 130.015 44.6492C129.454 44.6492 128.96 44.5171 128.535 44.253C128.112 43.9889 127.782 43.6133 127.545 43.1263C127.31 42.6394 127.192 42.0616 127.192 41.3931C127.192 40.8916 127.259 40.4408 127.393 40.0405C127.529 39.6381 127.721 39.2956 127.969 39.0129C128.217 38.7302 128.51 38.5135 128.848 38.3629C129.186 38.2123 129.559 38.137 129.965 38.137C130.3 38.137 130.611 38.1875 130.9 38.2886C131.191 38.3877 131.45 38.529 131.677 38.7127C131.906 38.8942 132.097 39.1119 132.249 39.3657C132.402 39.6175 132.507 39.8971 132.565 40.2045L131.773 40.2045Z" fill="#712929"/>
</svg>
