<svg width="155" height="62" viewBox="0 0 155 62" fill="none" xmlns="http://www.w3.org/2000/svg">
<path d="M28.9169 35.3083C24.6472 35.3083 21.1807 31.8418 21.1807 27.5721C21.1807 23.3024 24.6472 19.8359 28.9169 19.8359C33.1866 19.8359 36.653 23.3024 36.653 27.5721C36.653 31.8418 33.1866 35.3083 28.9169 35.3083ZM28.9169 22.6401C26.1972 22.6401 23.9849 24.8525 23.9849 27.5721C23.9849 30.2918 26.1972 32.5041 28.9169 32.5041C31.6365 32.5041 33.8489 30.2918 33.8489 27.5721C33.8489 24.8525 31.6365 22.6401 28.9169 22.6401Z" fill="#860D90"/>
<path d="M33.8484 37.2129C33.8484 39.9325 31.6361 42.1449 28.9164 42.1449C26.1968 42.1449 23.9844 39.9325 23.9844 37.2129L21.1943 37.2129C21.1943 41.4826 24.6608 44.9491 28.9305 44.9491C33.2002 44.9491 36.6667 41.4826 36.6667 37.2129L33.8484 37.2129Z" fill="#860D90"/>
<path d="M40.3876 22.1903L40.3876 16.0605L34.2578 16.0605L34.2578 18.6111L37.837 18.6111L37.837 22.1903L40.3876 22.1903Z" fill="#860D90"/>
<path d="M63.0043 21.7821C62.0179 20.838 60.5383 20.3025 59.256 20.3025C56.0995 20.3025 54.1831 22.698 54.1831 25.7277C54.1831 28.1514 55.5922 30.6456 59.256 30.6456C60.4115 30.6456 61.4261 30.392 62.5816 29.4619L62.5816 26.855L58.8192 26.855L58.8192 24.389L65.1321 24.389L65.1321 30.5892C63.6807 32.252 61.8488 33.2384 59.256 33.2384C53.7181 33.2384 51.4775 29.6028 51.4775 25.7277C51.4775 21.5848 54.0704 17.752 59.256 17.752C61.2288 17.752 63.2157 18.5129 64.7235 20.0066L63.0043 21.7821Z" fill="white"/>
<path d="M82.3524 32.9135L79.055 32.9135L74.7571 27.9955L72.0797 27.9955L72.0797 32.9135L69.3037 32.9135L69.3037 18.1738C71.6429 18.1738 73.968 18.202 76.3071 18.202C79.7736 18.2302 81.6055 20.5412 81.6055 23.0776C81.6055 25.0927 80.6755 27.136 77.8854 27.6996L82.3524 32.7303L82.3524 32.9135ZM72.0938 20.7807L72.0938 25.4873L76.3212 25.4873C78.0827 25.4873 78.8436 24.3036 78.8436 23.134C78.8436 21.9644 78.0686 20.7807 76.3212 20.7807L72.0938 20.7807Z" fill="white"/>
<path d="M96.8941 30.139L89.1861 30.139L87.9179 32.915L84.9023 32.915L91.5112 18.1895L94.5409 18.1895L101.15 32.915L98.1201 32.915L96.8941 30.139ZM93.0472 21.2896L90.3134 27.5602L95.7809 27.5602L93.0472 21.2896Z" fill="white"/>
<path d="M113.382 18.1738L116.158 18.1738L116.158 32.9275L114.438 32.9275L114.438 32.9416L106.688 22.9931L106.688 32.9275L103.912 32.9275L103.912 18.1879L106.167 18.1879L113.382 27.3192L113.382 18.1738Z" fill="white"/>
<path d="M133.772 25.4324C133.842 29.1526 131.559 32.9291 126.402 32.9291L120.61 32.9291L120.61 18.1895L126.402 18.1895C131.447 18.1895 133.701 21.7828 133.772 25.4324ZM123.372 30.2517L126.402 30.2517C129.742 30.2517 131.08 27.8139 131.01 25.4184C130.939 23.1215 129.601 20.8386 126.402 20.8386L123.372 20.8386L123.372 30.2517Z" fill="white"/>
<path d="M84.8042 44.8934C83.8178 44.8934 83.0569 44.5975 82.5214 44.0198C81.9859 43.4279 81.7182 42.7234 81.7041 41.8638C81.7041 41.3142 81.8027 40.821 82.0282 40.356C82.2537 39.9051 82.5919 39.5246 83.0851 39.2146C83.5642 38.9187 84.1419 38.7637 84.8042 38.7637C85.6497 38.7637 86.3684 39.0596 86.9743 39.6514L86.467 40.1305C86.0161 39.6937 85.4665 39.4682 84.8042 39.4682C84.0433 39.4682 83.4655 39.6937 83.0569 40.1587C82.6482 40.6237 82.4369 41.1874 82.4509 41.8497C82.465 42.512 82.6623 43.0616 83.071 43.5125C83.4796 43.9634 84.0574 44.1889 84.8183 44.1889C85.4806 44.1889 86.0443 43.9634 86.5093 43.4984L87.0307 44.0057C86.4247 44.5975 85.692 44.8934 84.8042 44.8934Z" fill="#860D90"/>
<path d="M91.582 38.8496L94.2453 44.7962L93.4421 44.7962L92.8502 43.4857L89.4542 43.4857L88.8765 44.7962L88.0732 44.7962L90.7365 38.8496L91.582 38.8496ZM91.1593 39.6105L89.7501 42.8234L92.5684 42.8234L91.1593 39.6105Z" fill="#860D90"/>
<path d="M96.599 44.1057L99.84 44.1057L99.84 44.7962L95.8662 44.7962L95.8662 38.8496L96.599 38.8496L96.599 44.1057Z" fill="#860D90"/>
<path d="M101.446 38.8496L105.617 38.8496L105.617 39.526L102.164 39.526L102.164 41.3861L105.462 41.3861L105.462 42.0765L102.164 42.0765L102.164 44.0916L105.744 44.0916L105.744 44.7962L101.432 44.7962L101.432 38.8496L101.446 38.8496Z" fill="#860D90"/>
<path d="M108.168 38.8496L111.803 43.4011L111.803 38.8496L112.536 38.8496L112.536 44.7962L112.029 44.7962L108.379 40.2588L108.379 44.7962L107.646 44.7962L107.646 38.8496L108.168 38.8496Z" fill="#860D90"/>
<path d="M114.805 38.8496L116.975 38.8496C117.468 38.8496 117.905 38.9342 118.286 39.1033C118.666 39.2724 118.99 39.4837 119.23 39.7656C119.469 40.0474 119.653 40.3574 119.779 40.6956C119.906 41.0338 119.963 41.4002 119.963 41.7665C119.963 42.1329 119.906 42.5275 119.779 42.8798C119.667 43.232 119.483 43.5561 119.244 43.8521C119.004 44.148 118.694 44.3734 118.3 44.5425C117.905 44.7116 117.454 44.7962 116.961 44.7962L114.791 44.7962L114.791 38.8496L114.805 38.8496ZM118.638 43.373C119.018 42.922 119.216 42.3725 119.216 41.7524C119.216 41.1324 119.018 40.6392 118.624 40.2024C118.229 39.7656 117.68 39.5542 116.961 39.5542L115.538 39.5542L115.538 44.0493L116.961 44.0493C117.708 44.0634 118.258 43.838 118.638 43.373Z" fill="#860D90"/>
<path d="M124.443 38.8496L127.107 44.7962L126.303 44.7962L125.712 43.4857L122.316 43.4857L121.738 44.7962L120.935 44.7962L123.598 38.8496L124.443 38.8496ZM124.021 39.6105L122.611 42.8234L125.43 42.8234L124.021 39.6105Z" fill="#860D90"/>
<path d="M130.898 42.6543L129.46 42.6543L129.46 44.7962L128.728 44.7962L128.728 38.8496L131.433 38.8496C132.067 38.8496 132.56 39.0328 132.913 39.4133C133.265 39.7937 133.448 40.2306 133.448 40.752C133.448 41.2311 133.321 41.6538 133.025 42.0061C132.73 42.3584 132.307 42.5557 131.729 42.5979L133.688 44.7962L132.758 44.7962L130.898 42.6543ZM132.363 41.6538C132.589 41.4283 132.701 41.1324 132.701 40.7801C132.701 40.456 132.603 40.1601 132.377 39.9065C132.152 39.6528 131.842 39.526 131.433 39.526L129.474 39.526L129.474 42.0061L131.405 42.0061C131.814 41.992 132.138 41.8793 132.363 41.6538Z" fill="#860D90"/>
</svg>
