<svg width="155" height="62" viewBox="0 0 155 62" fill="none" xmlns="http://www.w3.org/2000/svg">
<path d="M25.2611 35.6785C20.6691 35.6785 16.9336 31.9429 16.9336 27.3509C16.9336 22.759 20.6691 19.0234 25.2611 19.0234C29.8531 19.0234 33.5886 22.759 33.5886 27.3509C33.5886 31.9429 29.8531 35.6785 25.2611 35.6785ZM25.2611 22.0483C22.3365 22.0483 19.9585 24.4263 19.9585 27.3509C19.9585 30.2756 22.3365 32.6536 25.2611 32.6536C28.1858 32.6536 30.5637 30.2756 30.5637 27.3509C30.5637 24.4263 28.1812 22.0483 25.2611 22.0483Z" fill="#D75100"/>
<path d="M30.5637 37.7207C30.5637 40.6454 28.1858 43.0233 25.2611 43.0233C22.3365 43.0233 19.9585 40.6454 19.9585 37.7207L16.9336 37.7207C16.9336 42.3127 20.6691 46.0482 25.2611 46.0482C29.8531 46.0482 33.5886 42.3127 33.5886 37.7207L30.5637 37.7207Z" fill="#D75100"/>
<path d="M37.5977 21.5567L37.5977 14.9648L31.0059 14.9648L31.0059 17.7118L34.8507 17.7118L34.8507 21.5567L37.5977 21.5567Z" fill="#D75100"/>
<path d="M61.9425 21.1246C60.8765 20.1042 59.2911 19.5393 57.9108 19.5393C54.5124 19.5393 52.4533 22.1223 52.4533 25.3841C52.4533 27.9898 53.9703 30.6821 57.9108 30.6821C59.1545 30.6821 60.2433 30.4088 61.4915 29.4157L61.4915 26.6049L57.4371 26.6049L57.4371 23.9308L64.2339 23.9308L64.2339 30.6138C62.6714 32.4041 60.6988 33.4656 57.9154 33.4656C51.9567 33.4656 49.5332 29.5478 49.5332 25.3795C49.5332 20.9196 52.3212 16.7969 57.9154 16.7969C60.0428 16.7969 62.1748 17.6123 63.8057 19.2204L61.947 21.1246L61.9425 21.1246Z" fill="white"/>
<path d="M82.7794 33.1045L79.2215 33.1045L74.6022 27.8065L71.7277 27.8065L71.7277 33.1045L68.7393 33.1045L68.7393 17.2285C71.2539 17.2285 73.7686 17.2513 76.2832 17.2513C80.0187 17.2741 81.9913 19.7659 81.9913 22.5084C81.9913 24.6814 80.9936 26.8817 77.9824 27.4921L82.784 32.9041L82.784 33.1091L82.7794 33.1045ZM71.7277 20.0347L71.7277 25.1096L76.2787 25.1096C78.1829 25.1096 78.9983 23.8431 78.9983 22.5722C78.9983 21.3012 78.1601 20.0347 76.2787 20.0347L71.7277 20.0347Z" fill="white"/>
<path d="M98.4374 30.1187L90.1463 30.1187L88.7888 33.1072L85.5498 33.1072L92.661 17.2539L95.9227 17.2539L103.034 33.1072L99.7722 33.1072L98.4374 30.1187ZM94.2919 20.584L91.349 27.3353L97.2393 27.3353L94.2964 20.584L94.2919 20.584Z" fill="white"/>
<path d="M116.172 17.2285L119.16 17.2285L119.16 33.1045L117.302 33.1045L117.302 33.1273L108.965 22.4127L108.965 33.1045L105.977 33.1045L105.977 17.2513L108.4 17.2513L116.167 27.0821L116.167 17.2285L116.172 17.2285Z" fill="white"/>
<path d="M138.121 25.0439C138.189 29.0527 135.743 33.1072 130.194 33.1072L123.967 33.1072L123.967 17.2539L130.194 17.2539C135.629 17.2539 138.052 21.1261 138.121 25.0439ZM126.932 30.2326L130.194 30.2326C133.793 30.2326 135.224 27.6041 135.155 25.0211C135.087 22.552 133.638 20.0829 130.194 20.0829L126.932 20.0829L126.932 30.2281L126.932 30.2326Z" fill="white"/>
<path d="M107.562 45.2227L107.562 38.8838L111.363 38.8838L111.363 39.5647L108.33 39.5647L108.33 41.7066L111.078 41.7066L111.078 42.3875L108.33 42.3875L108.33 45.2227L107.562 45.2227ZM118.026 42.0532C118.026 42.7218 117.905 43.2995 117.664 43.7865C117.422 44.2735 117.091 44.649 116.67 44.9131C116.249 45.1773 115.769 45.3093 115.228 45.3093C114.687 45.3093 114.207 45.1773 113.786 44.9131C113.365 44.649 113.034 44.2735 112.792 43.7865C112.551 43.2995 112.43 42.7218 112.43 42.0532C112.43 41.3847 112.551 40.8069 112.792 40.3199C113.034 39.833 113.365 39.4574 113.786 39.1933C114.207 38.9292 114.687 38.7971 115.228 38.7971C115.769 38.7971 116.249 38.9292 116.67 39.1933C117.091 39.4574 117.422 39.833 117.664 40.3199C117.905 40.8069 118.026 41.3847 118.026 42.0532ZM117.283 42.0532C117.283 41.5043 117.191 41.0411 117.008 40.6635C116.826 40.2859 116.58 40.0001 116.268 39.8061C115.958 39.6122 115.612 39.5152 115.228 39.5152C114.844 39.5152 114.497 39.6122 114.185 39.8061C113.875 40.0001 113.629 40.2859 113.445 40.6635C113.264 41.0411 113.173 41.5043 113.173 42.0532C113.173 42.6021 113.264 43.0653 113.445 43.4429C113.629 43.8205 113.875 44.1063 114.185 44.3003C114.497 44.4943 114.844 44.5912 115.228 44.5912C115.612 44.5912 115.958 44.4943 116.268 44.3003C116.58 44.1063 116.826 43.8205 117.008 43.4429C117.191 43.0653 117.283 42.6021 117.283 42.0532ZM119.317 45.2227L119.317 38.8838L121.459 38.8838C121.954 38.8838 122.36 38.9684 122.678 39.1376C122.996 39.3047 123.231 39.5348 123.384 39.8278C123.536 40.1208 123.613 40.454 123.613 40.8275C123.613 41.201 123.536 41.5322 123.384 41.8211C123.231 42.11 122.997 42.3369 122.681 42.502C122.365 42.665 121.962 42.7465 121.471 42.7465L119.738 42.7465L119.738 42.0532L121.446 42.0532C121.785 42.0532 122.057 42.0037 122.263 41.9046C122.472 41.8056 122.622 41.6653 122.715 41.4837C122.81 41.3001 122.858 41.0813 122.858 40.8275C122.858 40.5737 122.81 40.3519 122.715 40.1621C122.62 39.9722 122.469 39.8257 122.26 39.7226C122.052 39.6173 121.776 39.5647 121.434 39.5647L120.084 39.5647L120.084 45.2227L119.317 45.2227ZM122.3 42.3751L123.86 45.2227L122.969 45.2227L121.434 42.3751L122.3 42.3751ZM124.892 38.8838L125.808 38.8838L127.962 44.1455L128.037 44.1455L130.191 38.8838L131.107 38.8838L131.107 45.2227L130.389 45.2227L130.389 40.4066L130.327 40.4066L128.346 45.2227L127.653 45.2227L125.672 40.4066L125.61 40.4066L125.61 45.2227L124.892 45.2227L124.892 38.8838ZM136.113 40.4685C136.075 40.1549 135.925 39.9114 135.661 39.738C135.397 39.5647 135.073 39.478 134.689 39.478C134.408 39.478 134.163 39.5234 133.952 39.6142C133.744 39.705 133.581 39.8299 133.463 39.9887C133.348 40.1476 133.29 40.3282 133.29 40.5304C133.29 40.6996 133.33 40.8451 133.41 40.9668C133.493 41.0865 133.598 41.1866 133.726 41.267C133.854 41.3455 133.988 41.4105 134.129 41.462C134.269 41.5116 134.398 41.5518 134.515 41.5828L135.159 41.7561C135.324 41.7994 135.508 41.8593 135.71 41.9356C135.914 42.0119 136.109 42.1161 136.295 42.2482C136.483 42.3782 136.638 42.5453 136.759 42.7496C136.881 42.9539 136.942 43.2046 136.942 43.5017C136.942 43.8443 136.852 44.1538 136.673 44.4303C136.495 44.7068 136.235 44.9266 135.893 45.0896C135.552 45.2526 135.139 45.3341 134.652 45.3341C134.198 45.3341 133.805 45.2608 133.472 45.1143C133.142 44.9678 132.882 44.7635 132.692 44.5015C132.505 44.2394 132.398 43.9351 132.374 43.5884L133.166 43.5884C133.187 43.8278 133.267 44.0259 133.407 44.1827C133.55 44.3374 133.729 44.453 133.946 44.5293C134.165 44.6036 134.4 44.6408 134.652 44.6408C134.945 44.6408 135.208 44.5933 135.441 44.4984C135.674 44.4014 135.859 44.2673 135.995 44.096C136.131 43.9227 136.199 43.7205 136.199 43.4894C136.199 43.2789 136.14 43.1076 136.023 42.9756C135.905 42.8435 135.75 42.7362 135.559 42.6537C135.367 42.5711 135.159 42.4989 134.936 42.437L134.156 42.2142C133.661 42.0718 133.269 41.8685 132.98 41.6044C132.691 41.3403 132.547 40.9947 132.547 40.5675C132.547 40.2126 132.643 39.9031 132.835 39.639C133.029 39.3728 133.289 39.1665 133.615 39.02C133.943 38.8714 134.309 38.7971 134.714 38.7971C135.122 38.7971 135.485 38.8704 135.803 39.0169C136.121 39.1613 136.373 39.3594 136.558 39.6111C136.746 39.8629 136.845 40.1487 136.855 40.4685L136.113 40.4685Z" fill="#D75100"/>
</svg>
