<svg width="155" height="62" viewBox="0 0 155 62" fill="none" xmlns="http://www.w3.org/2000/svg">
<path d="M29.0184 35.5232C24.7487 35.5232 21.2822 32.0567 21.2822 27.787C21.2822 23.5173 24.7487 20.0508 29.0184 20.0508C33.2881 20.0508 36.7546 23.5173 36.7546 27.787C36.7546 32.0567 33.2881 35.5232 29.0184 35.5232ZM29.0184 22.855C26.2988 22.855 24.0864 25.0673 24.0864 27.787C24.0864 30.5066 26.2988 32.719 29.0184 32.719C31.7381 32.719 33.9504 30.5066 33.9504 27.787C33.9504 25.0673 31.7381 22.855 29.0184 22.855Z" fill="#4230CC"/>
<path d="M33.95 37.4277C33.95 40.1474 31.7376 42.3597 29.018 42.3597C26.2984 42.3597 24.086 40.1474 24.086 37.4277L21.2959 37.4277C21.2959 41.6974 24.7624 45.1639 29.0321 45.1639C33.3018 45.1639 36.7683 41.6974 36.7683 37.4277L33.95 37.4277Z" fill="#4230CC"/>
<path d="M40.4882 22.4052L40.4882 16.2754L34.3584 16.2754L34.3584 18.8259L37.9376 18.8259L37.9376 22.4052L40.4882 22.4052Z" fill="#4230CC"/>
<path d="M63.1059 21.9969C62.1195 21.0528 60.6399 20.5173 59.3576 20.5173C56.2011 20.5173 54.2847 22.9129 54.2847 25.9425C54.2847 28.3663 55.6938 30.8604 59.3576 30.8604C60.5131 30.8604 61.5276 30.6068 62.6831 29.6768L62.6831 27.0699L58.9207 27.0699L58.9207 24.6039L65.2337 24.6039L65.2337 30.8041C63.7823 32.4669 61.9504 33.4533 59.3576 33.4533C53.8196 33.4533 51.5791 29.8177 51.5791 25.9425C51.5791 21.7997 54.1719 17.9668 59.3576 17.9668C61.3304 17.9668 63.3173 18.7277 64.825 20.2214L63.1059 21.9969Z" fill="white"/>
<path d="M82.453 33.1283L79.1556 33.1283L74.8577 28.2104L72.1803 28.2104L72.1803 33.1283L69.4043 33.1283L69.4043 18.3887C71.7435 18.3887 74.0686 18.4169 76.4077 18.4169C79.8742 18.445 81.7061 20.756 81.7061 23.2925C81.7061 25.3076 80.7761 27.3508 77.986 27.9145L82.453 32.9451L82.453 33.1283ZM72.1944 20.9956L72.1944 25.7021L76.4218 25.7021C78.1833 25.7021 78.9442 24.5184 78.9442 23.3489C78.9442 22.1793 78.1692 20.9956 76.4218 20.9956L72.1944 20.9956Z" fill="white"/>
<path d="M96.9967 30.3538L89.2887 30.3538L88.0204 33.1298L85.0049 33.1298L91.6138 18.4043L94.6434 18.4043L101.252 33.1298L98.2226 33.1298L96.9967 30.3538ZM93.1497 21.5044L90.416 27.7751L95.8835 27.7751L93.1497 21.5044Z" fill="white"/>
<path d="M113.483 18.3887L116.259 18.3887L116.259 33.1424L114.54 33.1424L114.54 33.1565L106.79 23.2079L106.79 33.1424L104.014 33.1424L104.014 18.4028L106.268 18.4028L113.483 27.534L113.483 18.3887Z" fill="white"/>
<path d="M133.873 25.6473C133.944 29.3674 131.661 33.1439 126.503 33.1439L120.712 33.1439L120.712 18.4043L126.503 18.4043C131.548 18.4043 133.803 21.9976 133.873 25.6473ZM123.474 30.4666L126.503 30.4666C129.843 30.4666 131.182 28.0287 131.111 25.6332C131.041 23.3363 129.702 21.0535 126.503 21.0535L123.474 21.0535L123.474 30.4666Z" fill="white"/>
<path d="M109.224 44.5625L109.224 38.2236L113.025 38.2236L113.025 38.9046L109.991 38.9046L109.991 41.0464L112.74 41.0464L112.74 41.7273L109.991 41.7273L109.991 44.5625L109.224 44.5625ZM119.688 41.3931C119.688 42.0616 119.567 42.6394 119.326 43.1263C119.084 43.6133 118.753 43.9889 118.332 44.253C117.911 44.5171 117.43 44.6492 116.89 44.6492C116.349 44.6492 115.868 44.5171 115.447 44.253C115.026 43.9889 114.695 43.6133 114.454 43.1263C114.212 42.6394 114.092 42.0616 114.092 41.3931C114.092 40.7245 114.212 40.1467 114.454 39.6598C114.695 39.1728 115.026 38.7973 115.447 38.5331C115.868 38.269 116.349 38.137 116.89 38.137C117.43 38.137 117.911 38.269 118.332 38.5331C118.753 38.7973 119.084 39.1728 119.326 39.6598C119.567 40.1467 119.688 40.7245 119.688 41.3931ZM118.945 41.3931C118.945 40.8442 118.853 40.3809 118.669 40.0033C118.488 39.6257 118.241 39.3399 117.93 39.146C117.62 38.952 117.273 38.855 116.89 38.855C116.506 38.855 116.158 38.952 115.847 39.146C115.537 39.3399 115.29 39.6257 115.107 40.0033C114.925 40.3809 114.834 40.8442 114.834 41.3931C114.834 41.9419 114.925 42.4052 115.107 42.7828C115.29 43.1604 115.537 43.4462 115.847 43.6401C116.158 43.8341 116.506 43.9311 116.89 43.9311C117.273 43.9311 117.62 43.8341 117.93 43.6401C118.241 43.4462 118.488 43.1604 118.669 42.7828C118.853 42.4052 118.945 41.9419 118.945 41.3931ZM120.978 44.5625L120.978 38.2236L123.12 38.2236C123.615 38.2236 124.022 38.3082 124.34 38.4774C124.657 38.6446 124.893 38.8746 125.045 39.1676C125.198 39.4606 125.274 39.7939 125.274 40.1674C125.274 40.5409 125.198 40.872 125.045 41.1609C124.893 41.4498 124.658 41.6768 124.343 41.8419C124.027 42.0049 123.624 42.0864 123.133 42.0864L121.399 42.0864L121.399 41.3931L123.108 41.3931C123.446 41.3931 123.719 41.3435 123.925 41.2445C124.133 41.1454 124.284 41.0051 124.377 40.8235C124.472 40.6399 124.519 40.4212 124.519 40.1674C124.519 39.9136 124.472 39.6918 124.377 39.5019C124.282 39.3121 124.13 39.1656 123.922 39.0624C123.713 38.9572 123.438 38.9046 123.095 38.9046L121.746 38.9046L121.746 44.5625L120.978 44.5625ZM123.962 41.715L125.522 44.5625L124.631 44.5625L123.095 41.715L123.962 41.715ZM126.553 38.2236L127.47 38.2236L129.624 43.4854L129.698 43.4854L131.852 38.2236L132.769 38.2236L132.769 44.5625L132.05 44.5625L132.05 39.7464L131.989 39.7464L130.008 44.5625L129.314 44.5625L127.333 39.7464L127.272 39.7464L127.272 44.5625L126.553 44.5625L126.553 38.2236Z" fill="#4230CC"/>
</svg>
