<svg width="156" height="62" viewBox="0 0 156 62" fill="none" xmlns="http://www.w3.org/2000/svg">
<path d="M29.121 35.1696C24.8513 35.1696 21.3848 31.7032 21.3848 27.4335C21.3848 23.1638 24.8513 19.6973 29.121 19.6973C33.3907 19.6973 36.8571 23.1638 36.8571 27.4335C36.8571 31.7032 33.3907 35.1696 29.121 35.1696ZM29.121 22.5015C26.4013 22.5015 24.189 24.7138 24.189 27.4335C24.189 30.1531 26.4013 32.3655 29.121 32.3655C31.8406 32.3655 34.053 30.1531 34.053 27.4335C34.053 24.7138 31.8406 22.5015 29.121 22.5015Z" fill="#BF9910"/>
<path d="M34.0525 37.0605C34.0525 39.7802 31.4174 41.9925 28.6978 41.9925C25.9782 41.9925 24.1885 39.7802 24.1885 37.0605L21.3984 37.0605C21.3984 41.3302 24.4422 44.7967 28.7119 44.7967C32.9816 44.7967 36.8708 41.3302 36.8708 37.0605L34.0525 37.0605Z" fill="#BF9910"/>
<path d="M40.5907 22.0516L40.5907 15.9219L34.4609 15.9219L34.4609 18.4724L38.0402 18.4724L38.0402 22.0516L40.5907 22.0516Z" fill="#BF9910"/>
<path d="M63.2084 21.6415C62.222 20.6973 60.7424 20.1619 59.4601 20.1619C56.3036 20.1619 54.3872 22.5574 54.3872 25.5871C54.3872 28.0108 55.7963 30.505 59.4601 30.505C60.6156 30.505 61.6302 30.2513 62.7857 29.3213L62.7857 26.7144L59.0233 26.7144L59.0233 24.2484L65.3362 24.2484L65.3362 30.4486C63.8848 32.1114 62.0529 33.0978 59.4601 33.0978C53.9222 33.0978 51.6816 29.4622 51.6816 25.5871C51.6816 21.4442 54.2745 17.6113 59.4601 17.6113C61.4329 17.6113 63.4198 18.3723 64.9276 19.866L63.2084 21.6415Z" fill="white"/>
<path d="M82.5565 32.7728L79.2591 32.7728L74.9612 27.8549L72.2838 27.8549L72.2838 32.7728L69.5078 32.7728L69.5078 18.0332C71.847 18.0332 74.1721 18.0614 76.5113 18.0614C79.9777 18.0896 81.8096 20.4006 81.8096 22.937C81.8096 24.9521 80.8796 26.9953 78.0895 27.559L82.5565 32.5896L82.5565 32.7728ZM72.2979 20.6401L72.2979 25.3467L76.5253 25.3467C78.2868 25.3467 79.0477 24.163 79.0477 22.9934C79.0477 21.8238 78.2727 20.6401 76.5253 20.6401L72.2979 20.6401Z" fill="white"/>
<path d="M97.0982 29.9984L89.3902 29.9984L88.122 32.7744L85.1064 32.7744L91.7153 18.0488L94.745 18.0488L101.354 32.7744L98.3242 32.7744L97.0982 29.9984ZM93.2513 21.1489L90.5175 27.4196L95.985 27.4196L93.2513 21.1489Z" fill="white"/>
<path d="M113.586 18.0332L116.362 18.0332L116.362 32.7869L114.643 32.7869L114.643 32.801L106.892 22.8525L106.892 32.7869L104.116 32.7869L104.116 18.0473L106.371 18.0473L113.586 27.1785L113.586 18.0332Z" fill="white"/>
<path d="M133.976 25.2918C134.046 29.012 131.763 32.7885 126.606 32.7885L120.814 32.7885L120.814 18.0488L126.606 18.0488C131.651 18.0488 133.905 21.6421 133.976 25.2918ZM123.576 30.097L126.606 30.097C129.946 30.097 131.284 27.6592 131.214 25.2636C131.143 22.9667 129.805 20.6839 126.606 20.6839L123.576 20.6839L123.576 30.097Z" fill="white"/>
<path d="M115.14 44.3496L115.14 38.0107L115.907 38.0107L115.907 40.8335L119.287 40.8335L119.287 38.0107L120.055 38.0107L120.055 44.3496L119.287 44.3496L119.287 41.5144L115.907 41.5144L115.907 44.3496L115.14 44.3496ZM121.592 44.3496L121.592 38.0107L123.733 38.0107C124.229 38.0107 124.635 38.0953 124.953 38.2645C125.271 38.4317 125.506 38.6617 125.659 38.9547C125.811 39.2478 125.888 39.581 125.888 39.9545C125.888 40.328 125.811 40.6591 125.659 40.948C125.506 41.2369 125.272 41.4639 124.956 41.629C124.64 41.792 124.237 41.8735 123.746 41.8735L122.013 41.8735L122.013 41.1802L123.721 41.1802C124.059 41.1802 124.332 41.1306 124.538 41.0316C124.747 40.9326 124.897 40.7922 124.99 40.6107C125.085 40.427 125.132 40.2083 125.132 39.9545C125.132 39.7007 125.085 39.4789 124.99 39.289C124.895 39.0992 124.744 38.9527 124.535 38.8495C124.327 38.7443 124.051 38.6917 123.709 38.6917L122.359 38.6917L122.359 44.3496L121.592 44.3496ZM124.575 41.5021L126.135 44.3496L125.244 44.3496L123.709 41.5021L124.575 41.5021ZM127.167 38.0107L128.083 38.0107L130.237 43.2725L130.311 43.2725L132.466 38.0107L133.382 38.0107L133.382 44.3496L132.664 44.3496L132.664 39.5335L132.602 39.5335L130.621 44.3496L129.928 44.3496L127.947 39.5335L127.885 39.5335L127.885 44.3496L127.167 44.3496L127.167 38.0107Z" fill="#BF9910"/>
</svg>
