<svg width="156" height="62" viewBox="0 0 156 62" fill="none" xmlns="http://www.w3.org/2000/svg">
<path d="M29.0702 35.5232C24.8005 35.5232 21.334 32.0567 21.334 27.787C21.334 23.5173 24.8005 20.0508 29.0702 20.0508C33.3399 20.0508 36.8064 23.5173 36.8064 27.787C36.8064 32.0567 33.3399 35.5232 29.0702 35.5232ZM29.0702 22.855C26.3505 22.855 24.1382 25.0673 24.1382 27.787C24.1382 30.5066 26.3505 32.719 29.0702 32.719C31.7898 32.719 34.0022 30.5066 34.0022 27.787C34.0022 25.0673 31.7898 22.855 29.0702 22.855Z" fill="#C030CC"/>
<path d="M34.0018 37.4277C34.0018 40.1474 31.7894 42.3597 29.0698 42.3597C26.3501 42.3597 24.1378 40.1474 24.1378 37.4277L21.3477 37.4277C21.3477 41.6974 24.8141 45.1639 29.0838 45.1639C33.3535 45.1639 36.82 41.6974 36.82 37.4277L34.0018 37.4277Z" fill="#C030CC"/>
<path d="M40.5399 22.4052L40.5399 16.2754L34.4102 16.2754L34.4102 18.8259L37.9894 18.8259L37.9894 22.4052L40.5399 22.4052Z" fill="#C030CC"/>
<path d="M63.1576 21.9969C62.1712 21.0528 60.6916 20.5173 59.4093 20.5173C56.2528 20.5173 54.3364 22.9129 54.3364 25.9425C54.3364 28.3663 55.7456 30.8604 59.4093 30.8604C60.5648 30.8604 61.5794 30.6068 62.7349 29.6768L62.7349 27.0699L58.9725 27.0699L58.9725 24.6039L65.2854 24.6039L65.2854 30.8041C63.834 32.4669 62.0021 33.4533 59.4093 33.4533C53.8714 33.4533 51.6309 29.8177 51.6309 25.9425C51.6309 21.7997 54.2237 17.9668 59.4093 17.9668C61.3821 17.9668 63.369 18.7277 64.8768 20.2214L63.1576 21.9969Z" fill="white"/>
<path d="M82.5047 33.1283L79.2073 33.1283L74.9094 28.2104L72.2321 28.2104L72.2321 33.1283L69.4561 33.1283L69.4561 18.3887C71.7952 18.3887 74.1203 18.4169 76.4595 18.4169C79.926 18.445 81.7579 20.756 81.7579 23.2925C81.7579 25.3076 80.8278 27.3508 78.0377 27.9145L82.5047 32.9451L82.5047 33.1283ZM72.2462 20.9956L72.2462 25.7021L76.4736 25.7021C78.235 25.7021 78.9959 24.5184 78.9959 23.3489C78.9959 22.1793 78.2209 20.9956 76.4736 20.9956L72.2462 20.9956Z" fill="white"/>
<path d="M97.0484 30.3538L89.3404 30.3538L88.0722 33.1298L85.0566 33.1298L91.6655 18.4043L94.6952 18.4043L101.304 33.1298L98.2744 33.1298L97.0484 30.3538ZM93.2015 21.5044L90.4677 27.7751L95.9352 27.7751L93.2015 21.5044Z" fill="white"/>
<path d="M113.535 18.3887L116.311 18.3887L116.311 33.1424L114.592 33.1424L114.592 33.1565L106.841 23.2079L106.841 33.1424L104.065 33.1424L104.065 18.4028L106.32 18.4028L113.535 27.534L113.535 18.3887Z" fill="white"/>
<path d="M133.925 25.6473C133.996 29.3674 131.713 33.1439 126.555 33.1439L120.764 33.1439L120.764 18.4043L126.555 18.4043C131.6 18.4043 133.855 21.9976 133.925 25.6473ZM123.526 30.4666L126.555 30.4666C129.895 30.4666 131.234 28.0287 131.163 25.6332C131.093 23.3363 129.754 21.0535 126.555 21.0535L123.526 21.0535L123.526 30.4666Z" fill="white"/>
<path d="M85.0655 38.2236L85.0655 44.5625L84.2979 44.5625L84.2979 38.2236L85.0655 38.2236ZM91.6311 38.2236L91.6311 44.5625L90.8883 44.5625L87.4341 39.5855L87.3722 39.5855L87.3722 44.5625L86.6046 44.5625L86.6046 38.2236L87.3474 38.2236L90.814 43.213L90.8759 43.213L90.8759 38.2236L91.6311 38.2236ZM93.4271 38.2236L95.309 43.5597L95.3832 43.5597L97.2651 38.2236L98.0698 38.2236L95.7423 44.5625L94.9499 44.5625L92.6224 38.2236L93.4271 38.2236ZM99.0572 44.5625L99.0572 38.2236L102.883 38.2236L102.883 38.9046L99.8248 38.9046L99.8248 41.0464L102.685 41.0464L102.685 41.7273L99.8248 41.7273L99.8248 43.8816L102.932 43.8816L102.932 44.5625L99.0572 44.5625ZM109.293 38.2236L109.293 44.5625L108.55 44.5625L105.096 39.5855L105.034 39.5855L105.034 44.5625L104.266 44.5625L104.266 38.2236L105.009 38.2236L108.476 43.213L108.538 43.213L108.538 38.2236L109.293 38.2236ZM110.482 38.9046L110.482 38.2236L115.236 38.2236L115.236 38.9046L113.243 38.9046L113.243 44.5625L112.475 44.5625L112.475 38.9046L110.482 38.9046ZM121.506 41.3931C121.506 42.0616 121.385 42.6394 121.143 43.1263C120.902 43.6133 120.571 43.9889 120.15 44.253C119.729 44.5171 119.248 44.6492 118.708 44.6492C118.167 44.6492 117.686 44.5171 117.265 44.253C116.844 43.9889 116.513 43.6133 116.272 43.1263C116.03 42.6394 115.91 42.0616 115.91 41.3931C115.91 40.7245 116.03 40.1467 116.272 39.6598C116.513 39.1728 116.844 38.7973 117.265 38.5331C117.686 38.269 118.167 38.137 118.708 38.137C119.248 38.137 119.729 38.269 120.15 38.5331C120.571 38.7973 120.902 39.1728 121.143 39.6598C121.385 40.1467 121.506 40.7245 121.506 41.3931ZM120.763 41.3931C120.763 40.8442 120.671 40.3809 120.487 40.0033C120.306 39.6257 120.059 39.3399 119.748 39.146C119.438 38.952 119.091 38.855 118.708 38.855C118.324 38.855 117.976 38.952 117.665 39.146C117.355 39.3399 117.108 39.6257 116.925 40.0033C116.743 40.3809 116.652 40.8442 116.652 41.3931C116.652 41.9419 116.743 42.4052 116.925 42.7828C117.108 43.1604 117.355 43.4462 117.665 43.6401C117.976 43.8341 118.324 43.9311 118.708 43.9311C119.091 43.9311 119.438 43.8341 119.748 43.6401C120.059 43.4462 120.306 43.1604 120.487 42.7828C120.671 42.4052 120.763 41.9419 120.763 41.3931ZM122.796 44.5625L122.796 38.2236L124.938 38.2236C125.433 38.2236 125.84 38.3082 126.158 38.4774C126.475 38.6446 126.711 38.8746 126.863 39.1676C127.016 39.4606 127.092 39.7939 127.092 40.1674C127.092 40.5409 127.016 40.872 126.863 41.1609C126.711 41.4498 126.476 41.6768 126.161 41.8419C125.845 42.0049 125.442 42.0864 124.951 42.0864L123.217 42.0864L123.217 41.3931L124.926 41.3931C125.264 41.3931 125.537 41.3435 125.743 41.2445C125.951 41.1454 126.102 41.0051 126.195 40.8235C126.29 40.6399 126.337 40.4212 126.337 40.1674C126.337 39.9136 126.29 39.6918 126.195 39.5019C126.1 39.3121 125.948 39.1656 125.74 39.0624C125.531 38.9572 125.256 38.9046 124.913 38.9046L123.564 38.9046L123.564 44.5625L122.796 44.5625ZM125.78 41.715L127.34 44.5625L126.449 44.5625L124.913 41.715L125.78 41.715ZM127.614 38.2236L128.493 38.2236L130.251 41.1826L130.325 41.1826L132.083 38.2236L132.962 38.2236L130.672 41.9502L130.672 44.5625L129.904 44.5625L129.904 41.9502L127.614 38.2236Z" fill="#C030CC"/>
</svg>
