<svg width="155" height="62" viewBox="0 0 155 62" fill="none" xmlns="http://www.w3.org/2000/svg">
<path d="M28.911 35.5232C24.6413 35.5232 21.1748 32.0567 21.1748 27.787C21.1748 23.5173 24.6554 20.0508 28.911 20.0508C33.1666 20.0508 36.6472 23.5173 36.6472 27.787C36.6472 32.0567 33.1807 35.5232 28.911 35.5232ZM28.911 22.855C26.1914 22.855 23.979 25.0673 23.979 27.787C23.979 30.5066 26.1914 32.719 28.911 32.719C31.6306 32.719 33.843 30.5066 33.843 27.787C33.843 25.0673 31.6306 22.855 28.911 22.855Z" fill="#3A717D"/>
<path d="M33.843 37.4277C33.843 40.1474 31.6306 42.3597 28.911 42.3597C26.1914 42.3597 23.979 40.1474 23.979 37.4277L21.1748 37.4277C21.1748 41.6974 24.6413 45.1639 28.911 45.1639C33.1807 45.1639 36.6472 41.6974 36.6472 37.4277L33.843 37.4277Z" fill="#3A717D"/>
<path d="M40.3817 22.4052L40.3817 16.2754L34.252 16.2754L34.252 18.8259L37.8171 18.8259L37.8171 22.4052L40.3817 22.4052Z" fill="#3A717D"/>
<path d="M62.9838 21.9969C61.9974 21.0528 60.5178 20.5173 59.2355 20.5173C56.079 20.5173 54.1626 22.9129 54.1626 25.9425C54.1626 28.3663 55.5717 30.8604 59.2355 30.8604C60.391 30.8604 61.4056 30.6068 62.5611 29.6768L62.5611 27.0699L58.7987 27.0699L58.7987 24.6039L65.1116 24.6039L65.1116 30.8041C63.6602 32.4669 61.8283 33.4533 59.2355 33.4533C53.6976 33.4533 51.457 29.8177 51.457 25.9425C51.457 21.7997 54.0499 17.9668 59.2355 17.9668C61.2083 17.9668 63.1952 18.7277 64.703 20.2214L62.9838 21.9969Z" fill="white"/>
<path d="M82.3455 33.1283L79.0481 33.1283L74.7503 28.2104L72.0729 28.2104L72.0729 33.1283L69.2969 33.1283L69.2969 18.3887C71.6361 18.3887 73.9611 18.4169 76.3003 18.4169C79.7809 18.4309 81.6128 20.7419 81.6128 23.2784C81.6128 25.2935 80.6827 27.3367 77.8926 27.9004L82.3596 32.931L82.3455 33.1283ZM72.0729 20.9956L72.0729 25.7021L76.3003 25.7021C78.0617 25.7021 78.8227 24.5184 78.8227 23.3489C78.8227 22.1793 78.0617 20.9956 76.3144 20.9956L72.0729 20.9956Z" fill="white"/>
<path d="M96.8873 30.3538L89.1793 30.3538L87.9111 33.1298L84.8955 33.1298L91.5044 18.4043L94.534 18.4043L101.143 33.1298L98.1133 33.1298L96.8873 30.3538ZM93.0403 21.5044L90.3066 27.7751L95.7741 27.7751L93.0403 21.5044Z" fill="white"/>
<path d="M113.36 18.3887L116.136 18.3887L116.136 33.1424L114.417 33.1424L114.417 33.1565L106.667 23.2079L106.667 33.1424L103.891 33.1424L103.891 18.4028L106.145 18.4028L113.36 27.534L113.36 18.3887Z" fill="white"/>
<path d="M133.75 25.6473C133.821 29.3674 131.538 33.1439 126.38 33.1439L120.589 33.1439L120.589 18.4043L126.38 18.4043C131.439 18.4043 133.694 21.9976 133.75 25.6473ZM123.365 30.4666L126.395 30.4666C129.734 30.4666 131.073 28.0287 131.002 25.6332C130.932 23.3363 129.593 21.0535 126.395 21.0535L123.365 21.0535L123.365 30.4666Z" fill="white"/>
<path d="M88.7331 44.5625L88.7331 38.2236L90.8749 38.2236C91.3722 38.2236 91.7787 38.3134 92.0944 38.4929C92.4122 38.6704 92.6474 38.9107 92.8001 39.2141C92.9528 39.5174 93.0292 39.8558 93.0292 40.2293C93.0292 40.6028 92.9528 40.9422 92.8001 41.2476C92.6495 41.553 92.4163 41.7965 92.1006 41.978C91.7849 42.1576 91.3805 42.2473 90.8873 42.2473L89.3521 42.2473L89.3521 41.5664L90.8626 41.5664C91.203 41.5664 91.4764 41.5076 91.6828 41.39C91.8891 41.2723 92.0387 41.1135 92.1316 40.9133C92.2265 40.7111 92.2739 40.4831 92.2739 40.2293C92.2739 39.9755 92.2265 39.7485 92.1316 39.5483C92.0387 39.3482 91.8881 39.1914 91.6797 39.0779C91.4713 38.9623 91.1948 38.9046 90.8502 38.9046L89.5007 38.9046L89.5007 44.5625L88.7331 44.5625ZM94.2657 44.5625L94.2657 38.2236L96.4075 38.2236C96.9028 38.2236 97.3093 38.3082 97.627 38.4774C97.9448 38.6446 98.18 38.8746 98.3327 39.1676C98.4854 39.4606 98.5618 39.7939 98.5618 40.1674C98.5618 40.5409 98.4854 40.872 98.3327 41.1609C98.18 41.4498 97.9458 41.6768 97.6301 41.8419C97.3144 42.0049 96.911 42.0864 96.4199 42.0864L94.6866 42.0864L94.6866 41.3931L96.3952 41.3931C96.7336 41.3931 97.0059 41.3435 97.2123 41.2445C97.4207 41.1454 97.5713 41.0051 97.6642 40.8235C97.7591 40.6399 97.8065 40.4212 97.8065 40.1674C97.8065 39.9136 97.7591 39.6918 97.6642 39.5019C97.5692 39.3121 97.4176 39.1656 97.2092 39.0624C97.0008 38.9572 96.7253 38.9046 96.3828 38.9046L95.0333 38.9046L95.0333 44.5625L94.2657 44.5625ZM97.2494 41.715L98.8094 44.5625L97.918 44.5625L96.3828 41.715L97.2494 41.715ZM105.189 41.3931C105.189 42.0616 105.069 42.6394 104.827 43.1263C104.586 43.6133 104.255 43.9889 103.834 44.253C103.413 44.5171 102.932 44.6492 102.391 44.6492C101.851 44.6492 101.37 44.5171 100.949 44.253C100.528 43.9889 100.197 43.6133 99.9554 43.1263C99.7139 42.6394 99.5932 42.0616 99.5932 41.3931C99.5932 40.7245 99.7139 40.1467 99.9554 39.6598C100.197 39.1728 100.528 38.7973 100.949 38.5331C101.37 38.269 101.851 38.137 102.391 38.137C102.932 38.137 103.413 38.269 103.834 38.5331C104.255 38.7973 104.586 39.1728 104.827 39.6598C105.069 40.1467 105.189 40.7245 105.189 41.3931ZM104.446 41.3931C104.446 40.8442 104.355 40.3809 104.171 40.0033C103.989 39.6257 103.743 39.3399 103.431 39.146C103.122 38.952 102.775 38.855 102.391 38.855C102.007 38.855 101.66 38.952 101.348 39.146C101.039 39.3399 100.792 39.6257 100.608 40.0033C100.427 40.3809 100.336 40.8442 100.336 41.3931C100.336 41.9419 100.427 42.4052 100.608 42.7828C100.792 43.1604 101.039 43.4462 101.348 43.6401C101.66 43.8341 102.007 43.9311 102.391 43.9311C102.775 43.9311 103.122 43.8341 103.431 43.6401C103.743 43.4462 103.989 43.1604 104.171 42.7828C104.355 42.4052 104.446 41.9419 104.446 41.3931ZM108.907 38.2236L109.674 38.2236L109.674 42.7549C109.674 43.1594 109.6 43.5029 109.451 43.7856C109.303 44.0683 109.093 44.2829 108.823 44.4294C108.553 44.5759 108.234 44.6492 107.867 44.6492C107.52 44.6492 107.211 44.5862 106.941 44.4604C106.671 44.3324 106.458 44.1508 106.304 43.9156C106.149 43.6804 106.071 43.4008 106.071 43.0768L106.827 43.0768C106.827 43.2563 106.871 43.4132 106.96 43.5473C107.05 43.6793 107.174 43.7825 107.331 43.8568C107.488 43.9311 107.666 43.9682 107.867 43.9682C108.087 43.9682 108.275 43.9218 108.43 43.8289C108.585 43.7361 108.702 43.5999 108.783 43.4204C108.865 43.2388 108.907 43.017 108.907 42.7549L108.907 38.2236ZM111.212 44.5625L111.212 38.2236L115.038 38.2236L115.038 38.9046L111.98 38.9046L111.98 41.0464L114.84 41.0464L114.84 41.7273L111.98 41.7273L111.98 43.8816L115.088 43.8816L115.088 44.5625L111.212 44.5625ZM121.522 40.2045L120.755 40.2045C120.709 39.9837 120.63 39.7898 120.516 39.6226C120.405 39.4555 120.269 39.3152 120.108 39.2017C119.949 39.0861 119.773 38.9995 119.579 38.9417C119.385 38.8839 119.182 38.855 118.972 38.855C118.588 38.855 118.241 38.952 117.929 39.146C117.619 39.3399 117.373 39.6257 117.189 40.0033C117.008 40.3809 116.917 40.8442 116.917 41.3931C116.917 41.9419 117.008 42.4052 117.189 42.7828C117.373 43.1604 117.619 43.4462 117.929 43.6401C118.241 43.8341 118.588 43.9311 118.972 43.9311C119.182 43.9311 119.385 43.9022 119.579 43.8444C119.773 43.7866 119.949 43.701 120.108 43.5875C120.269 43.472 120.405 43.3306 120.516 43.1635C120.63 42.9943 120.709 42.8003 120.755 42.5816L121.522 42.5816C121.465 42.9056 121.359 43.1955 121.207 43.4513C121.054 43.7072 120.864 43.9249 120.637 44.1044C120.41 44.2819 120.155 44.417 119.873 44.5099C119.592 44.6027 119.292 44.6492 118.972 44.6492C118.431 44.6492 117.951 44.5171 117.53 44.253C117.109 43.9889 116.778 43.6133 116.536 43.1263C116.295 42.6394 116.174 42.0616 116.174 41.3931C116.174 40.7245 116.295 40.1467 116.536 39.6598C116.778 39.1728 117.109 38.7973 117.53 38.5331C117.951 38.269 118.431 38.137 118.972 38.137C119.292 38.137 119.592 38.1834 119.873 38.2762C120.155 38.3691 120.41 38.5053 120.637 38.6848C120.864 38.8623 121.054 39.0789 121.207 39.3348C121.359 39.5886 121.465 39.8785 121.522 40.2045ZM122.416 38.9046L122.416 38.2236L127.17 38.2236L127.17 38.9046L125.177 38.9046L125.177 44.5625L124.409 44.5625L124.409 38.9046L122.416 38.9046ZM131.822 39.8083C131.784 39.4947 131.634 39.2512 131.37 39.0779C131.106 38.9046 130.782 38.8179 130.398 38.8179C130.117 38.8179 129.872 38.8633 129.661 38.9541C129.453 39.0449 129.29 39.1697 129.172 39.3286C129.057 39.4875 128.999 39.668 128.999 39.8702C128.999 40.0394 129.039 40.1849 129.119 40.3067C129.202 40.4263 129.307 40.5264 129.435 40.6069C129.563 40.6853 129.697 40.7503 129.838 40.8019C129.978 40.8514 130.107 40.8916 130.224 40.9226L130.868 41.0959C131.033 41.1393 131.217 41.1991 131.419 41.2754C131.623 41.3518 131.818 41.456 132.004 41.5881C132.192 41.718 132.347 41.8852 132.468 42.0895C132.59 42.2937 132.651 42.5445 132.651 42.8416C132.651 43.1841 132.561 43.4936 132.382 43.7701C132.204 44.0466 131.944 44.2664 131.602 44.4294C131.261 44.5924 130.848 44.6739 130.361 44.6739C129.907 44.6739 129.514 44.6007 129.181 44.4542C128.851 44.3077 128.591 44.1034 128.401 43.8413C128.214 43.5793 128.107 43.2749 128.083 42.9283L128.875 42.9283C128.896 43.1676 128.976 43.3657 129.116 43.5225C129.259 43.6773 129.438 43.7928 129.655 43.8692C129.874 43.9435 130.109 43.9806 130.361 43.9806C130.654 43.9806 130.917 43.9332 131.15 43.8382C131.383 43.7413 131.568 43.6071 131.704 43.4359C131.84 43.2625 131.908 43.0603 131.908 42.8292C131.908 42.6187 131.849 42.4475 131.732 42.3154C131.614 42.1834 131.459 42.0761 131.268 41.9935C131.076 41.911 130.868 41.8388 130.645 41.7769L129.865 41.554C129.37 41.4116 128.978 41.2084 128.689 40.9443C128.4 40.6801 128.256 40.3345 128.256 39.9074C128.256 39.5525 128.352 39.243 128.544 38.9788C128.738 38.7127 128.998 38.5063 129.324 38.3598C129.652 38.2112 130.018 38.137 130.423 38.137C130.831 38.137 131.194 38.2102 131.512 38.3567C131.83 38.5011 132.082 38.6992 132.267 38.951C132.455 39.2027 132.554 39.4885 132.564 39.8083L131.822 39.8083Z" fill="#3A717D"/>
</svg>
