<svg width="155" height="62" viewBox="0 0 155 62" fill="none" xmlns="http://www.w3.org/2000/svg">
<path d="M28.8085 35.5232C24.5388 35.5232 21.0723 32.0567 21.0723 27.787C21.0723 23.5173 24.5528 20.0508 28.8085 20.0508C33.0641 20.0508 36.5446 23.5173 36.5446 27.787C36.5446 32.0567 33.0782 35.5232 28.8085 35.5232ZM28.8085 22.855C26.0888 22.855 23.8765 25.0673 23.8765 27.787C23.8765 30.5066 26.0888 32.719 28.8085 32.719C31.5281 32.719 33.7405 30.5066 33.7405 27.787C33.7405 25.0673 31.5281 22.855 28.8085 22.855Z" fill="#5B13B8"/>
<path d="M33.7405 37.4277C33.7405 40.1474 31.5281 42.3597 28.8085 42.3597C26.0888 42.3597 23.8765 40.1474 23.8765 37.4277L21.0723 37.4277C21.0723 41.6974 24.5388 45.1639 28.8085 45.1639C33.0782 45.1639 36.5446 41.6974 36.5446 37.4277L33.7405 37.4277Z" fill="#5B13B8"/>
<path d="M40.2792 22.4052L40.2792 16.2754L34.1494 16.2754L34.1494 18.8259L37.7145 18.8259L37.7145 22.4052L40.2792 22.4052Z" fill="#5B13B8"/>
<path d="M62.8813 21.9969C61.8949 21.0528 60.4153 20.5173 59.133 20.5173C55.9765 20.5173 54.06 22.9129 54.06 25.9425C54.06 28.3663 55.4692 30.8604 59.133 30.8604C60.2885 30.8604 61.303 30.6068 62.4585 29.6768L62.4585 27.0699L58.6961 27.0699L58.6961 24.6039L65.0091 24.6039L65.0091 30.8041C63.5577 32.4669 61.7258 33.4533 59.133 33.4533C53.595 33.4533 51.3545 29.8177 51.3545 25.9425C51.3545 21.7997 53.9473 17.9668 59.133 17.9668C61.1058 17.9668 63.0926 18.7277 64.6004 20.2214L62.8813 21.9969Z" fill="white"/>
<path d="M82.243 33.1283L78.9456 33.1283L74.6477 28.2104L71.9703 28.2104L71.9703 33.1283L69.1943 33.1283L69.1943 18.3887C71.5335 18.3887 73.8586 18.4169 76.1978 18.4169C79.6784 18.4309 81.5102 20.7419 81.5102 23.2784C81.5102 25.2935 80.5802 27.3367 77.7901 27.9004L82.2571 32.931L82.243 33.1283ZM71.9703 20.9956L71.9703 25.7021L76.1978 25.7021C77.9592 25.7021 78.7201 24.5184 78.7201 23.3489C78.7201 22.1793 77.9592 20.9956 76.2119 20.9956L71.9703 20.9956Z" fill="white"/>
<path d="M96.7848 30.3538L89.0768 30.3538L87.8085 33.1298L84.793 33.1298L91.4018 18.4043L94.4315 18.4043L101.04 33.1298L98.0107 33.1298L96.7848 30.3538ZM92.9378 21.5044L90.2041 27.7751L95.6715 27.7751L92.9378 21.5044Z" fill="white"/>
<path d="M113.258 18.3887L116.034 18.3887L116.034 33.1424L114.314 33.1424L114.314 33.1565L106.564 23.2079L106.564 33.1424L103.788 33.1424L103.788 18.4028L106.043 18.4028L113.258 27.534L113.258 18.3887Z" fill="white"/>
<path d="M133.648 25.6473C133.718 29.3674 131.435 33.1439 126.278 33.1439L120.486 33.1439L120.486 18.4043L126.278 18.4043C131.337 18.4043 133.591 21.9976 133.648 25.6473ZM123.262 30.4666L126.292 30.4666C129.632 30.4666 130.97 28.0287 130.9 25.6332C130.829 23.3363 129.491 21.0535 126.292 21.0535L123.262 21.0535L123.262 30.4666Z" fill="white"/>
<path d="M88.0286 39.8083C87.9915 39.4947 87.8408 39.2512 87.5767 39.0779C87.3126 38.9046 86.9886 38.8179 86.6048 38.8179C86.3242 38.8179 86.0787 38.8633 85.8682 38.9541C85.6598 39.0449 85.4968 39.1697 85.3792 39.3286C85.2636 39.4875 85.2058 39.668 85.2058 39.8702C85.2058 40.0394 85.2461 40.1849 85.3265 40.3067C85.4091 40.4263 85.5143 40.5264 85.6422 40.6069C85.7702 40.6853 85.9043 40.7503 86.0446 40.8019C86.1849 40.8514 86.3139 40.8916 86.4315 40.9226L87.0753 41.0959C87.2404 41.1393 87.424 41.1991 87.6262 41.2754C87.8305 41.3518 88.0255 41.456 88.2112 41.5881C88.399 41.718 88.5538 41.8852 88.6755 42.0895C88.7972 42.2937 88.8581 42.5445 88.8581 42.8416C88.8581 43.1841 88.7684 43.4936 88.5888 43.7701C88.4114 44.0466 88.1514 44.2664 87.8089 44.4294C87.4684 44.5924 87.0547 44.6739 86.5677 44.6739C86.1137 44.6739 85.7207 44.6007 85.3884 44.4542C85.0583 44.3077 84.7983 44.1034 84.6085 43.8413C84.4207 43.5793 84.3144 43.2749 84.2897 42.9283L85.082 42.9283C85.1027 43.1676 85.1831 43.3657 85.3234 43.5225C85.4658 43.6773 85.6453 43.7928 85.862 43.8692C86.0807 43.9435 86.316 43.9806 86.5677 43.9806C86.8607 43.9806 87.1238 43.9332 87.357 43.8382C87.5901 43.7413 87.7748 43.6071 87.911 43.4359C88.0472 43.2625 88.1153 43.0603 88.1153 42.8292C88.1153 42.6187 88.0565 42.4475 87.9389 42.3154C87.8212 42.1834 87.6665 42.0761 87.4746 41.9935C87.2827 41.911 87.0753 41.8388 86.8524 41.7769L86.0725 41.554C85.5772 41.4116 85.1852 41.2084 84.8963 40.9443C84.6074 40.6801 84.463 40.3345 84.463 39.9074C84.463 39.5525 84.5589 39.243 84.7508 38.9788C84.9448 38.7127 85.2048 38.5063 85.5308 38.3598C85.8589 38.2112 86.2252 38.137 86.6296 38.137C87.0382 38.137 87.4013 38.2102 87.7191 38.3567C88.0369 38.5011 88.2886 38.6992 88.4743 38.951C88.6621 39.2027 88.7611 39.4885 88.7714 39.8083L88.0286 39.8083ZM90.8878 38.2236L90.8878 44.5625L90.1202 44.5625L90.1202 38.2236L90.8878 38.2236ZM96.7601 40.2045C96.692 39.9961 96.6022 39.8094 96.4908 39.6443C96.3814 39.4772 96.2504 39.3348 96.0977 39.2172C95.9471 39.0995 95.7758 39.0098 95.5839 38.9479C95.392 38.886 95.1815 38.855 94.9525 38.855C94.5769 38.855 94.2354 38.952 93.928 39.146C93.6205 39.3399 93.376 39.6257 93.1944 40.0033C93.0128 40.3809 92.9221 40.8442 92.9221 41.3931C92.9221 41.9419 93.0139 42.4052 93.1975 42.7828C93.3812 43.1604 93.6298 43.4462 93.9435 43.6401C94.2571 43.8341 94.6099 43.9311 95.002 43.9311C95.3652 43.9311 95.685 43.8537 95.9615 43.699C96.2401 43.5421 96.4567 43.3213 96.6115 43.0366C96.7683 42.7498 96.8467 42.4124 96.8467 42.0245L97.0819 42.074L95.1753 42.074L95.1753 41.3931L97.5896 41.3931L97.5896 42.074C97.5896 42.596 97.4781 43.05 97.2553 43.4359C97.0345 43.8217 96.7291 44.1209 96.3391 44.3335C95.9512 44.5439 95.5055 44.6492 95.002 44.6492C94.4407 44.6492 93.9476 44.5171 93.5225 44.253C93.0995 43.9889 92.7694 43.6133 92.5321 43.1263C92.2968 42.6394 92.1792 42.0616 92.1792 41.3931C92.1792 40.8916 92.2463 40.4408 92.3804 40.0405C92.5166 39.6381 92.7085 39.2956 92.9561 39.0129C93.2037 38.7302 93.4967 38.5135 93.8351 38.3629C94.1735 38.2123 94.546 38.137 94.9525 38.137C95.2868 38.137 95.5983 38.1875 95.8872 38.2886C96.1782 38.3877 96.4371 38.529 96.6641 38.7127C96.8931 38.8942 97.084 39.1119 97.2367 39.3657C97.3894 39.6175 97.4946 39.8971 97.5524 40.2045L96.7601 40.2045ZM103.931 38.2236L103.931 44.5625L103.188 44.5625L99.7337 39.5855L99.6718 39.5855L99.6718 44.5625L98.9042 44.5625L98.9042 38.2236L99.6471 38.2236L103.114 43.213L103.176 43.213L103.176 38.2236L103.931 38.2236ZM105.727 44.5625L104.922 44.5625L107.25 38.2236L108.042 38.2236L110.369 44.5625L109.565 44.5625L107.67 39.2264L107.621 39.2264L105.727 44.5625ZM106.024 42.0864L109.268 42.0864L109.268 42.7673L106.024 42.7673L106.024 42.0864ZM110.27 38.9046L110.27 38.2236L115.024 38.2236L115.024 38.9046L113.031 38.9046L113.031 44.5625L112.263 44.5625L112.263 38.9046L110.27 38.9046ZM120.368 38.2236L121.136 38.2236L121.136 42.4207C121.136 42.854 121.034 43.2409 120.83 43.5813C120.627 43.9197 120.342 44.187 119.972 44.383C119.603 44.5769 119.17 44.6739 118.672 44.6739C118.175 44.6739 117.742 44.5769 117.372 44.383C117.003 44.187 116.716 43.9197 116.512 43.5813C116.31 43.2409 116.208 42.854 116.208 42.4207L116.208 38.2236L116.976 38.2236L116.976 42.3587C116.976 42.6683 117.044 42.9437 117.18 43.1852C117.317 43.4245 117.511 43.6133 117.762 43.7516C118.016 43.8878 118.319 43.9558 118.672 43.9558C119.025 43.9558 119.328 43.8878 119.582 43.7516C119.836 43.6133 120.03 43.4245 120.164 43.1852C120.3 42.9437 120.368 42.6683 120.368 42.3587L120.368 38.2236ZM122.669 44.5625L122.669 38.2236L124.811 38.2236C125.306 38.2236 125.712 38.3082 126.03 38.4774C126.348 38.6446 126.583 38.8746 126.736 39.1676C126.889 39.4606 126.965 39.7939 126.965 40.1674C126.965 40.5409 126.889 40.872 126.736 41.1609C126.583 41.4498 126.349 41.6768 126.033 41.8419C125.718 42.0049 125.314 42.0864 124.823 42.0864L123.09 42.0864L123.09 41.3931L124.798 41.3931C125.137 41.3931 125.409 41.3435 125.615 41.2445C125.824 41.1454 125.974 41.0051 126.067 40.8235C126.162 40.6399 126.21 40.4212 126.21 40.1674C126.21 39.9136 126.162 39.6918 126.067 39.5019C125.972 39.3121 125.821 39.1656 125.612 39.0624C125.404 38.9572 125.128 38.9046 124.786 38.9046L123.436 38.9046L123.436 44.5625L122.669 44.5625ZM125.653 41.715L127.213 44.5625L126.321 44.5625L124.786 41.715L125.653 41.715ZM128.244 44.5625L128.244 38.2236L132.07 38.2236L132.07 38.9046L129.012 38.9046L129.012 41.0464L131.872 41.0464L131.872 41.7273L129.012 41.7273L129.012 43.8816L132.119 43.8816L132.119 44.5625L128.244 44.5625Z" fill="#5B13B8"/>
</svg>
