<svg width="156" height="62" viewBox="0 0 156 62" fill="none" xmlns="http://www.w3.org/2000/svg">
<path d="M29.0702 35.3083C24.8005 35.3083 21.334 31.8418 21.334 27.5721C21.334 23.3024 24.8005 19.8359 29.0702 19.8359C33.3399 19.8359 36.8064 23.3024 36.8064 27.5721C36.8064 31.8418 33.3399 35.3083 29.0702 35.3083ZM29.0702 22.6401C26.3505 22.6401 24.1382 24.8525 24.1382 27.5721C24.1382 30.2918 26.3505 32.5041 29.0702 32.5041C31.7898 32.5041 34.0022 30.2918 34.0022 27.5721C34.0022 24.8525 31.7898 22.6401 29.0702 22.6401Z" fill="#0D9032"/>
<path d="M34.0018 37.2129C34.0018 39.9325 31.7894 42.1449 29.0698 42.1449C26.3501 42.1449 24.1378 39.9325 24.1378 37.2129L21.3477 37.2129C21.3477 41.4826 24.8141 44.9491 29.0838 44.9491C33.3535 44.9491 36.82 41.4826 36.82 37.2129L34.0018 37.2129Z" fill="#0D9032"/>
<path d="M40.5399 22.1903L40.5399 16.0605L34.4102 16.0605L34.4102 18.6111L37.9894 18.6111L37.9894 22.1903L40.5399 22.1903Z" fill="#0D9032"/>
<path d="M63.1576 21.7821C62.1712 20.838 60.6916 20.3025 59.4093 20.3025C56.2528 20.3025 54.3364 22.698 54.3364 25.7277C54.3364 28.1514 55.7456 30.6456 59.4093 30.6456C60.5648 30.6456 61.5794 30.392 62.7349 29.4619L62.7349 26.855L58.9725 26.855L58.9725 24.389L65.2854 24.389L65.2854 30.5892C63.834 32.252 62.0021 33.2384 59.4093 33.2384C53.8714 33.2384 51.6309 29.6028 51.6309 25.7277C51.6309 21.5848 54.2237 17.752 59.4093 17.752C61.3821 17.752 63.369 18.5129 64.8768 20.0066L63.1576 21.7821Z" fill="white"/>
<path d="M82.5057 32.9135L79.2083 32.9135L74.9104 27.9955L72.233 27.9955L72.233 32.9135L69.457 32.9135L69.457 18.1738C71.7962 18.1738 74.1213 18.202 76.4605 18.202C79.927 18.2302 81.7588 20.5412 81.7588 23.0776C81.7588 25.0927 80.8288 27.136 78.0387 27.6996L82.5057 32.7303L82.5057 32.9135ZM72.2471 20.7807L72.2471 25.4873L76.4746 25.4873C78.236 25.4873 78.9969 24.3036 78.9969 23.134C78.9969 21.9644 78.2219 20.7807 76.4746 20.7807L72.2471 20.7807Z" fill="white"/>
<path d="M97.0484 30.139L89.3404 30.139L88.0722 32.915L85.0566 32.915L91.6655 18.1895L94.6952 18.1895L101.304 32.915L98.2744 32.915L97.0484 30.139ZM93.2015 21.2896L90.4677 27.5602L95.9352 27.5602L93.2015 21.2896Z" fill="white"/>
<path d="M113.535 18.1738L116.311 18.1738L116.311 32.9275L114.592 32.9275L114.592 32.9416L106.841 22.9931L106.841 32.9275L104.065 32.9275L104.065 18.1879L106.32 18.1879L113.535 27.3192L113.535 18.1738Z" fill="white"/>
<path d="M133.925 25.4324C133.996 29.1526 131.713 32.9291 126.555 32.9291L120.764 32.9291L120.764 18.1895L126.555 18.1895C131.6 18.1895 133.855 21.7828 133.925 25.4324ZM123.526 30.2517L126.555 30.2517C129.895 30.2517 131.234 27.8139 131.163 25.4184C131.093 23.1215 129.754 20.8386 126.555 20.8386L123.526 20.8386L123.526 30.2517Z" fill="white"/>
<path d="M74.1953 40.4665C74.1582 40.1529 74.0076 39.9094 73.7434 39.7361C73.4793 39.5628 73.1554 39.4761 72.7716 39.4761C72.4909 39.4761 72.2454 39.5215 72.0349 39.6123C71.8265 39.7031 71.6635 39.8279 71.5459 39.9868C71.4303 40.1457 71.3726 40.3262 71.3726 40.5284C71.3726 40.6976 71.4128 40.8431 71.4933 40.9649C71.5758 41.0845 71.681 41.1846 71.809 41.2651C71.9369 41.3435 72.071 41.4085 72.2113 41.4601C72.3517 41.5096 72.4806 41.5498 72.5982 41.5808L73.242 41.7541C73.4071 41.7975 73.5908 41.8573 73.793 41.9336C73.9973 42.01 74.1922 42.1142 74.378 42.2463C74.5657 42.3763 74.7205 42.5434 74.8422 42.7477C74.964 42.952 75.0248 43.2027 75.0248 43.4998C75.0248 43.8423 74.9351 44.1518 74.7556 44.4283C74.5781 44.7048 74.3181 44.9246 73.9756 45.0876C73.6351 45.2506 73.2214 45.3321 72.7344 45.3321C72.2805 45.3321 71.8874 45.2589 71.5552 45.1124C71.225 44.9659 70.965 44.7616 70.7752 44.4995C70.5874 44.2375 70.4812 43.9331 70.4564 43.5865L71.2488 43.5865C71.2694 43.8258 71.3499 44.0239 71.4902 44.1807C71.6326 44.3355 71.8121 44.451 72.0287 44.5274C72.2475 44.6017 72.4827 44.6388 72.7344 44.6388C73.0274 44.6388 73.2905 44.5914 73.5237 44.4964C73.7569 44.3995 73.9415 44.2653 74.0777 44.0941C74.2139 43.9207 74.282 43.7185 74.282 43.4874C74.282 43.2769 74.2232 43.1057 74.1056 42.9736C73.988 42.8416 73.8332 42.7343 73.6413 42.6517C73.4494 42.5692 73.242 42.497 73.0192 42.4351L72.2392 42.2122C71.744 42.0698 71.3519 41.8666 71.063 41.6025C70.7742 41.3383 70.6297 40.9927 70.6297 40.5656C70.6297 40.2107 70.7257 39.9012 70.9176 39.637C71.1115 39.3709 71.3715 39.1645 71.6975 39.018C72.0256 38.8694 72.3919 38.7952 72.7963 38.7952C73.2049 38.7952 73.5681 38.8684 73.8858 39.0149C74.2036 39.1594 74.4553 39.3574 74.641 39.6092C74.8288 39.8609 74.9279 40.1467 74.9382 40.4665L74.1953 40.4665ZM80.4468 38.8818L81.2144 38.8818L81.2144 43.0789C81.2144 43.5122 81.1122 43.8991 80.908 44.2395C80.7057 44.5779 80.42 44.8452 80.0506 45.0412C79.6813 45.2351 79.2479 45.3321 78.7506 45.3321C78.2534 45.3321 77.82 45.2351 77.4507 45.0412C77.0813 44.8452 76.7945 44.5779 76.5902 44.2395C76.388 43.8991 76.2869 43.5122 76.2869 43.0789L76.2869 38.8818L77.0545 38.8818L77.0545 43.017C77.0545 43.3265 77.1226 43.6019 77.2588 43.8434C77.395 44.0827 77.5889 44.2715 77.8407 44.4098C78.0945 44.546 78.3978 44.6141 78.7506 44.6141C79.1035 44.6141 79.4068 44.546 79.6606 44.4098C79.9144 44.2715 80.1084 44.0827 80.2425 43.8434C80.3787 43.6019 80.4468 43.3265 80.4468 43.017L80.4468 38.8818ZM82.7473 45.2207L82.7473 38.8818L84.8891 38.8818C85.3864 38.8818 85.7929 38.9716 86.1086 39.1511C86.4264 39.3286 86.6616 39.5689 86.8143 39.8723C86.967 40.1756 87.0433 40.514 87.0433 40.8875C87.0433 41.261 86.967 41.6004 86.8143 41.9058C86.6637 42.2112 86.4305 42.4547 86.1148 42.6362C85.7991 42.8158 85.3947 42.9055 84.9015 42.9055L83.3663 42.9055L83.3663 42.2246L84.8767 42.2246C85.2172 42.2246 85.4906 42.1658 85.6969 42.0482C85.9033 41.9306 86.0529 41.7717 86.1457 41.5715C86.2407 41.3693 86.2881 41.1413 86.2881 40.8875C86.2881 40.6337 86.2407 40.4067 86.1457 40.2065C86.0529 40.0064 85.9023 39.8496 85.6939 39.7361C85.4854 39.6205 85.2089 39.5628 84.8644 39.5628L83.5149 39.5628L83.5149 45.2207L82.7473 45.2207ZM88.2799 45.2207L88.2799 38.8818L90.4217 38.8818C90.919 38.8818 91.3255 38.9716 91.6412 39.1511C91.959 39.3286 92.1942 39.5689 92.3469 39.8723C92.4996 40.1756 92.5759 40.514 92.5759 40.8875C92.5759 41.261 92.4996 41.6004 92.3469 41.9058C92.1963 42.2112 91.9631 42.4547 91.6474 42.6362C91.3317 42.8158 90.9272 42.9055 90.4341 42.9055L88.8989 42.9055L88.8989 42.2246L90.4093 42.2246C90.7498 42.2246 91.0232 42.1658 91.2295 42.0482C91.4359 41.9306 91.5855 41.7717 91.6783 41.5715C91.7733 41.3693 91.8207 41.1413 91.8207 40.8875C91.8207 40.6337 91.7733 40.4067 91.6783 40.2065C91.5855 40.0064 91.4349 39.8496 91.2264 39.7361C91.018 39.6205 90.7415 39.5628 90.3969 39.5628L89.0475 39.5628L89.0475 45.2207L88.2799 45.2207ZM99.1609 42.0513C99.1609 42.7198 99.0402 43.2976 98.7988 43.7845C98.5573 44.2715 98.2261 44.6471 97.8052 44.9112C97.3843 45.1753 96.9035 45.3074 96.3629 45.3074C95.8222 45.3074 95.3415 45.1753 94.9205 44.9112C94.4996 44.6471 94.1684 44.2715 93.927 43.7845C93.6856 43.2976 93.5648 42.7198 93.5648 42.0513C93.5648 41.3827 93.6856 40.8049 93.927 40.318C94.1684 39.831 94.4996 39.4555 94.9205 39.1913C95.3415 38.9272 95.8222 38.7952 96.3629 38.7952C96.9035 38.7952 97.3843 38.9272 97.8052 39.1913C98.2261 39.4555 98.5573 39.831 98.7988 40.318C99.0402 40.8049 99.1609 41.3827 99.1609 42.0513ZM98.418 42.0513C98.418 41.5024 98.3262 41.0391 98.1426 40.6615C97.961 40.2839 97.7144 39.9981 97.4028 39.8042C97.0933 39.6102 96.7467 39.5132 96.3629 39.5132C95.9791 39.5132 95.6314 39.6102 95.3198 39.8042C95.0103 39.9981 94.7637 40.2839 94.5801 40.6615C94.3985 41.0391 94.3077 41.5024 94.3077 42.0513C94.3077 42.6001 94.3985 43.0634 94.5801 43.441C94.7637 43.8186 95.0103 44.1044 95.3198 44.2983C95.6314 44.4923 95.9791 44.5893 96.3629 44.5893C96.7467 44.5893 97.0933 44.4923 97.4028 44.2983C97.7144 44.1044 97.961 43.8186 98.1426 43.441C98.3262 43.0634 98.418 42.6001 98.418 42.0513ZM100.452 45.2207L100.452 38.8818L102.593 38.8818C103.089 38.8818 103.495 38.9664 103.813 39.1356C104.131 39.3028 104.366 39.5328 104.519 39.8258C104.671 40.1189 104.748 40.4521 104.748 40.8256C104.748 41.1991 104.671 41.5302 104.519 41.8191C104.366 42.108 104.132 42.335 103.816 42.5001C103.5 42.6631 103.097 42.7446 102.606 42.7446L100.873 42.7446L100.873 42.0513L102.581 42.0513C102.919 42.0513 103.192 42.0017 103.398 41.9027C103.607 41.8036 103.757 41.6633 103.85 41.4818C103.945 41.2981 103.992 41.0794 103.992 40.8256C103.992 40.5718 103.945 40.35 103.85 40.1601C103.755 39.9703 103.603 39.8238 103.395 39.7206C103.187 39.6154 102.911 39.5628 102.569 39.5628L101.219 39.5628L101.219 45.2207L100.452 45.2207ZM103.435 42.3732L104.995 45.2207L104.104 45.2207L102.569 42.3732L103.435 42.3732ZM105.68 39.5628L105.68 38.8818L110.434 38.8818L110.434 39.5628L108.441 39.5628L108.441 45.2207L107.673 45.2207L107.673 39.5628L105.68 39.5628ZM113.724 39.5628L113.724 38.8818L118.478 38.8818L118.478 39.5628L116.484 39.5628L116.484 45.2207L115.717 45.2207L115.717 39.5628L113.724 39.5628ZM120.43 38.8818L120.43 45.2207L119.662 45.2207L119.662 38.8818L120.43 38.8818ZM127.07 40.8627L126.302 40.8627C126.257 40.6419 126.177 40.448 126.064 40.2808C125.953 40.1137 125.816 39.9734 125.655 39.8599C125.497 39.7443 125.32 39.6577 125.126 39.5999C124.932 39.5421 124.73 39.5132 124.52 39.5132C124.136 39.5132 123.788 39.6102 123.476 39.8042C123.167 39.9981 122.92 40.2839 122.737 40.6615C122.555 41.0391 122.464 41.5024 122.464 42.0513C122.464 42.6001 122.555 43.0634 122.737 43.441C122.92 43.8186 123.167 44.1044 123.476 44.2983C123.788 44.4923 124.136 44.5893 124.52 44.5893C124.73 44.5893 124.932 44.5604 125.126 44.5026C125.32 44.4449 125.497 44.3592 125.655 44.2457C125.816 44.1302 125.953 43.9888 126.064 43.8217C126.177 43.6525 126.257 43.4585 126.302 43.2398L127.07 43.2398C127.012 43.5638 126.907 43.8537 126.754 44.1095C126.602 44.3654 126.412 44.5831 126.185 44.7626C125.958 44.9401 125.703 45.0752 125.42 45.1681C125.14 45.2609 124.839 45.3074 124.52 45.3074C123.979 45.3074 123.498 45.1753 123.077 44.9112C122.656 44.6471 122.325 44.2715 122.084 43.7845C121.842 43.2976 121.721 42.7198 121.721 42.0513C121.721 41.3827 121.842 40.8049 122.084 40.318C122.325 39.831 122.656 39.4555 123.077 39.1913C123.498 38.9272 123.979 38.7952 124.52 38.7952C124.839 38.7952 125.14 38.8416 125.42 38.9344C125.703 39.0273 125.958 39.1635 126.185 39.343C126.412 39.5205 126.602 39.7371 126.754 39.993C126.907 40.2468 127.012 40.5367 127.07 40.8627ZM128.31 45.2207L128.31 38.8818L129.078 38.8818L129.078 42.0265L129.152 42.0265L132 38.8818L133.003 38.8818L130.341 41.7417L133.003 45.2207L132.074 45.2207L129.87 42.2741L129.078 43.1655L129.078 45.2207L128.31 45.2207Z" fill="#0D9032"/>
</svg>
