<svg width="155" height="62" viewBox="0 0 155 62" fill="none" xmlns="http://www.w3.org/2000/svg">
<path d="M28.8651 35.1696C24.5954 35.1696 21.1289 31.7032 21.1289 27.4335C21.1289 23.1638 24.5954 19.6973 28.8651 19.6973C33.1348 19.6973 36.6013 23.1638 36.6013 27.4335C36.6013 31.7032 33.1348 35.1696 28.8651 35.1696ZM28.8651 22.5015C26.1455 22.5015 23.9331 24.7138 23.9331 27.4335C23.9331 30.1531 26.1455 32.3655 28.8651 32.3655C31.5847 32.3655 33.7971 30.1531 33.7971 27.4335C33.7971 24.7138 31.5847 22.5015 28.8651 22.5015Z" fill="#BF105C"/>
<path d="M33.7967 37.0605C33.7967 39.7802 31.1616 41.9925 28.4419 41.9925C25.7223 41.9925 23.9327 39.7802 23.9327 37.0605L21.1426 37.0605C21.1426 41.3302 24.1863 44.7967 28.456 44.7967C32.7257 44.7967 36.615 41.3302 36.615 37.0605L33.7967 37.0605Z" fill="#BF105C"/>
<path d="M40.3358 22.0516L40.3358 15.9219L34.2061 15.9219L34.2061 18.4724L37.7853 18.4724L37.7853 22.0516L40.3358 22.0516Z" fill="#BF105C"/>
<path d="M62.9526 21.6415C61.9662 20.6973 60.4866 20.1619 59.2042 20.1619C56.0478 20.1619 54.1313 22.5574 54.1313 25.5871C54.1313 28.0108 55.5405 30.505 59.2042 30.505C60.3597 30.505 61.3743 30.2513 62.5298 29.3213L62.5298 26.7144L58.7674 26.7144L58.7674 24.2484L65.0804 24.2484L65.0804 30.4486C63.629 32.1114 61.7971 33.0978 59.2042 33.0978C53.6663 33.0978 51.4258 29.4622 51.4258 25.5871C51.4258 21.4442 54.0186 17.6113 59.2042 17.6113C61.177 17.6113 63.1639 18.3723 64.6717 19.866L62.9526 21.6415Z" fill="white"/>
<path d="M82.3006 32.7728L79.0032 32.7728L74.7053 27.8549L72.028 27.8549L72.028 32.7728L69.252 32.7728L69.252 18.0332C71.5911 18.0332 73.9162 18.0614 76.2554 18.0614C79.7219 18.0896 81.5538 20.4006 81.5538 22.937C81.5538 24.9521 80.6237 26.9953 77.8336 27.559L82.3006 32.5896L82.3006 32.7728ZM72.0421 20.6401L72.0421 25.3467L76.2695 25.3467C78.0309 25.3467 78.7918 24.163 78.7918 22.9934C78.7918 21.8238 78.0168 20.6401 76.2695 20.6401L72.0421 20.6401Z" fill="white"/>
<path d="M96.8424 29.9984L89.1344 29.9984L87.8661 32.7744L84.8506 32.7744L91.4595 18.0488L94.4891 18.0488L101.098 32.7744L98.0683 32.7744L96.8424 29.9984ZM92.9954 21.1489L90.2617 27.4196L95.7292 27.4196L92.9954 21.1489Z" fill="white"/>
<path d="M113.33 18.0332L116.106 18.0332L116.106 32.7869L114.387 32.7869L114.387 32.801L106.636 22.8525L106.636 32.7869L103.86 32.7869L103.86 18.0473L106.115 18.0473L113.33 27.1785L113.33 18.0332Z" fill="white"/>
<path d="M133.719 25.2918C133.789 29.012 131.507 32.7885 126.349 32.7885L120.558 32.7885L120.558 18.0488L126.349 18.0488C131.394 18.0488 133.649 21.6421 133.719 25.2918ZM123.32 30.097L126.349 30.097C129.689 30.097 131.028 27.6592 130.957 25.2636C130.887 22.9667 129.548 20.6839 126.349 20.6839L123.32 20.6839L123.32 30.097Z" fill="white"/>
<path d="M88.9642 38.6917L88.9642 38.0107L93.7183 38.0107L93.7183 38.6917L91.725 38.6917L91.725 44.3496L90.9574 44.3496L90.9574 38.6917L88.9642 38.6917ZM94.903 44.3496L94.903 38.0107L97.0448 38.0107C97.5401 38.0107 97.9466 38.0953 98.2643 38.2645C98.5821 38.4317 98.8173 38.6617 98.97 38.9547C99.1227 39.2478 99.1991 39.581 99.1991 39.9545C99.1991 40.328 99.1227 40.6591 98.97 40.948C98.8173 41.2369 98.5831 41.4639 98.2674 41.629C97.9517 41.792 97.5483 41.8735 97.0572 41.8735L95.3239 41.8735L95.3239 41.1802L97.0325 41.1802C97.3709 41.1802 97.6432 41.1306 97.8496 41.0316C98.058 40.9326 98.2086 40.7922 98.3015 40.6107C98.3964 40.427 98.4439 40.2083 98.4439 39.9545C98.4439 39.7007 98.3964 39.4789 98.3015 39.289C98.2066 39.0992 98.0549 38.9527 97.8465 38.8495C97.6381 38.7443 97.3626 38.6917 97.0201 38.6917L95.6706 38.6917L95.6706 44.3496L94.903 44.3496ZM97.8867 41.5021L99.4467 44.3496L98.5553 44.3496L97.0201 41.5021L97.8867 41.5021ZM100.738 44.3496L99.9334 44.3496L102.261 38.0107L103.053 38.0107L105.381 44.3496L104.576 44.3496L102.682 39.0136L102.632 39.0136L100.738 44.3496ZM101.035 41.8735L104.279 41.8735L104.279 42.5544L101.035 42.5544L101.035 41.8735ZM111.395 38.0107L111.395 44.3496L110.652 44.3496L107.198 39.3726L107.136 39.3726L107.136 44.3496L106.368 44.3496L106.368 38.0107L107.111 38.0107L110.578 43.0001L110.64 43.0001L110.64 38.0107L111.395 38.0107ZM116.397 39.5954C116.36 39.2818 116.21 39.0383 115.945 38.865C115.681 38.6917 115.357 38.605 114.974 38.605C114.693 38.605 114.447 38.6504 114.237 38.7412C114.028 38.832 113.865 38.9568 113.748 39.1157C113.632 39.2746 113.575 39.4551 113.575 39.6573C113.575 39.8266 113.615 39.972 113.695 40.0938C113.778 40.2134 113.883 40.3135 114.011 40.394C114.139 40.4724 114.273 40.5374 114.413 40.589C114.554 40.6385 114.683 40.6788 114.8 40.7097L115.444 40.883C115.609 40.9264 115.793 40.9862 115.995 41.0626C116.199 41.1389 116.394 41.2431 116.58 41.3752C116.768 41.5052 116.922 41.6723 117.044 41.8766C117.166 42.0809 117.227 42.3316 117.227 42.6287C117.227 42.9712 117.137 43.2807 116.958 43.5572C116.78 43.8337 116.52 44.0535 116.178 44.2165C115.837 44.3795 115.423 44.461 114.936 44.461C114.482 44.461 114.089 44.3878 113.757 44.2413C113.427 44.0948 113.167 43.8905 112.977 43.6284C112.789 43.3664 112.683 43.062 112.658 42.7154L113.451 42.7154C113.471 42.9547 113.552 43.1528 113.692 43.3096C113.835 43.4644 114.014 43.5799 114.231 43.6563C114.449 43.7306 114.685 43.7677 114.936 43.7677C115.229 43.7677 115.492 43.7203 115.726 43.6253C115.959 43.5284 116.144 43.3942 116.28 43.223C116.416 43.0496 116.484 42.8474 116.484 42.6163C116.484 42.4059 116.425 42.2346 116.308 42.1025C116.19 41.9705 116.035 41.8632 115.843 41.7806C115.651 41.6981 115.444 41.6259 115.221 41.564L114.441 41.3411C113.946 41.1987 113.554 40.9955 113.265 40.7314C112.976 40.4672 112.832 40.1216 112.832 39.6945C112.832 39.3396 112.928 39.0301 113.12 38.7659C113.314 38.4998 113.573 38.2934 113.9 38.1469C114.228 37.9983 114.594 37.9241 114.998 37.9241C115.407 37.9241 115.77 37.9973 116.088 38.1438C116.406 38.2883 116.657 38.4863 116.843 38.7381C117.031 38.9898 117.13 39.2756 117.14 39.5954L116.397 39.5954ZM118.489 44.3496L118.489 38.0107L122.29 38.0107L122.29 38.6917L119.256 38.6917L119.256 40.8335L122.005 40.8335L122.005 41.5144L119.256 41.5144L119.256 44.3496L118.489 44.3496ZM123.604 44.3496L123.604 38.0107L127.43 38.0107L127.43 38.6917L124.372 38.6917L124.372 40.8335L127.232 40.8335L127.232 41.5144L124.372 41.5144L124.372 43.6687L127.48 43.6687L127.48 44.3496L123.604 44.3496ZM128.814 44.3496L128.814 38.0107L130.955 38.0107C131.451 38.0107 131.857 38.0953 132.175 38.2645C132.493 38.4317 132.728 38.6617 132.881 38.9547C133.033 39.2478 133.11 39.581 133.11 39.9545C133.11 40.328 133.033 40.6591 132.881 40.948C132.728 41.2369 132.494 41.4639 132.178 41.629C131.862 41.792 131.459 41.8735 130.968 41.8735L129.234 41.8735L129.234 41.1802L130.943 41.1802C131.281 41.1802 131.554 41.1306 131.76 41.0316C131.969 40.9326 132.119 40.7922 132.212 40.6107C132.307 40.427 132.354 40.2083 132.354 39.9545C132.354 39.7007 132.307 39.4789 132.212 39.289C132.117 39.0992 131.965 38.9527 131.757 38.8495C131.549 38.7443 131.273 38.6917 130.931 38.6917L129.581 38.6917L129.581 44.3496L128.814 44.3496ZM131.797 41.5021L133.357 44.3496L132.466 44.3496L130.931 41.5021L131.797 41.5021Z" fill="#BF105C"/>
</svg>
