<svg width="156" height="62" viewBox="0 0 156 62" fill="none" xmlns="http://www.w3.org/2000/svg">
<path d="M29.121 35.5232C24.8513 35.5232 21.3848 32.0567 21.3848 27.787C21.3848 23.5173 24.8513 20.0508 29.121 20.0508C33.3907 20.0508 36.8571 23.5173 36.8571 27.787C36.8571 32.0567 33.3907 35.5232 29.121 35.5232ZM29.121 22.855C26.4013 22.855 24.189 25.0673 24.189 27.787C24.189 30.5066 26.4013 32.719 29.121 32.719C31.8406 32.719 34.053 30.5066 34.053 27.787C34.053 25.0673 31.8406 22.855 29.121 22.855Z" fill="#503A7D"/>
<path d="M34.0525 37.4277C34.0525 40.1474 31.8402 42.3597 29.1205 42.3597C26.4009 42.3597 24.1885 40.1474 24.1885 37.4277L21.3984 37.4277C21.3984 41.6974 24.8649 45.1639 29.1346 45.1639C33.4043 45.1639 36.8708 41.6974 36.8708 37.4277L34.0525 37.4277Z" fill="#503A7D"/>
<path d="M40.5907 22.4052L40.5907 16.2754L34.4609 16.2754L34.4609 18.8259L38.0402 18.8259L38.0402 22.4052L40.5907 22.4052Z" fill="#503A7D"/>
<path d="M63.2084 21.9969C62.222 21.0528 60.7424 20.5173 59.4601 20.5173C56.3036 20.5173 54.3872 22.9129 54.3872 25.9425C54.3872 28.3663 55.7963 30.8604 59.4601 30.8604C60.6156 30.8604 61.6302 30.6068 62.7857 29.6768L62.7857 27.0699L59.0233 27.0699L59.0233 24.6039L65.3362 24.6039L65.3362 30.8041C63.8848 32.4669 62.0529 33.4533 59.4601 33.4533C53.9222 33.4533 51.6816 29.8177 51.6816 25.9425C51.6816 21.7997 54.2745 17.9668 59.4601 17.9668C61.4329 17.9668 63.4198 18.7277 64.9276 20.2214L63.2084 21.9969Z" fill="white"/>
<path d="M82.5555 33.1283L79.2581 33.1283L74.9602 28.2104L72.2828 28.2104L72.2828 33.1283L69.5068 33.1283L69.5068 18.3887C71.846 18.3887 74.1711 18.4169 76.5103 18.4169C79.9768 18.445 81.8086 20.756 81.8086 23.2925C81.8086 25.3076 80.8786 27.3508 78.0885 27.9145L82.5555 32.9451L82.5555 33.1283ZM72.2969 20.9956L72.2969 25.7021L76.5244 25.7021C78.2858 25.7021 79.0467 24.5184 79.0467 23.3489C79.0467 22.1793 78.2717 20.9956 76.5244 20.9956L72.2969 20.9956Z" fill="white"/>
<path d="M97.0992 30.3538L89.3912 30.3538L88.123 33.1298L85.1074 33.1298L91.7163 18.4043L94.7459 18.4043L101.355 33.1298L98.3252 33.1298L97.0992 30.3538ZM93.2523 21.5044L90.5185 27.7751L95.986 27.7751L93.2523 21.5044Z" fill="white"/>
<path d="M113.586 18.3887L116.362 18.3887L116.362 33.1424L114.643 33.1424L114.643 33.1565L106.892 23.2079L106.892 33.1424L104.116 33.1424L104.116 18.4028L106.371 18.4028L113.586 27.534L113.586 18.3887Z" fill="white"/>
<path d="M133.976 25.6473C134.046 29.3674 131.763 33.1439 126.606 33.1439L120.814 33.1439L120.814 18.4043L126.606 18.4043C131.651 18.4043 133.905 21.9976 133.976 25.6473ZM123.576 30.4666L126.606 30.4666C129.946 30.4666 131.284 28.0287 131.214 25.6332C131.143 23.3363 129.805 21.0535 126.606 21.0535L123.576 21.0535L123.576 30.4666Z" fill="white"/>
<path d="M52.4861 38.8758L54.2375 43.8421L54.3067 43.8421L56.0581 38.8758L56.8071 38.8758L54.6408 44.7754L53.9034 44.7754L51.7371 38.8758L52.4861 38.8758ZM58.4404 38.8758L58.4404 44.7754L57.726 44.7754L57.726 38.8758L58.4404 38.8758ZM61.6934 44.7754L59.8728 44.7754L59.8728 38.8758L61.774 38.8758C62.3463 38.8758 62.836 38.9939 63.2431 39.2302C63.6503 39.4644 63.9624 39.8015 64.1794 40.2413C64.3964 40.6791 64.5049 41.2034 64.5049 41.8141C64.5049 42.4286 64.3954 42.9577 64.1765 43.4013C63.9575 43.843 63.6388 44.1829 63.2201 44.4211C62.8015 44.6573 62.2925 44.7754 61.6934 44.7754ZM60.5872 44.1416L61.6473 44.1416C62.1351 44.1416 62.5393 44.0475 62.86 43.8593C63.1807 43.6711 63.4198 43.4032 63.5773 43.0556C63.7348 42.708 63.8135 42.2942 63.8135 41.8141C63.8135 41.3378 63.7357 40.9278 63.5802 40.5841C63.4246 40.2384 63.1923 39.9734 62.8831 39.789C62.5739 39.6027 62.1888 39.5096 61.7279 39.5096L60.5872 39.5096L60.5872 44.1416ZM65.7032 44.7754L65.7032 38.8758L69.2637 38.8758L69.2637 39.5096L66.4176 39.5096L66.4176 41.503L69.0793 41.503L69.0793 42.1367L66.4176 42.1367L66.4176 44.1416L69.3098 44.1416L69.3098 44.7754L65.7032 44.7754ZM75.5291 41.8256C75.5291 42.4478 75.4167 42.9856 75.1921 43.4388C74.9674 43.892 74.6591 44.2415 74.2674 44.4873C73.8756 44.7331 73.4281 44.856 72.925 44.856C72.4218 44.856 71.9744 44.7331 71.5826 44.4873C71.1908 44.2415 70.8826 43.892 70.6579 43.4388C70.4332 42.9856 70.3209 42.4478 70.3209 41.8256C70.3209 41.2034 70.4332 40.6657 70.6579 40.2125C70.8826 39.7592 71.1908 39.4097 71.5826 39.1639C71.9744 38.9181 72.4218 38.7952 72.925 38.7952C73.4281 38.7952 73.8756 38.9181 74.2674 39.1639C74.6591 39.4097 74.9674 39.7592 75.1921 40.2125C75.4167 40.6657 75.5291 41.2034 75.5291 41.8256ZM74.8377 41.8256C74.8377 41.3148 74.7523 40.8836 74.5814 40.5322C74.4124 40.1808 74.1829 39.9148 73.8929 39.7343C73.6048 39.5537 73.2822 39.4635 72.925 39.4635C72.5678 39.4635 72.2442 39.5537 71.9542 39.7343C71.6661 39.9148 71.4367 40.1808 71.2657 40.5322C71.0967 40.8836 71.0122 41.3148 71.0122 41.8256C71.0122 42.3364 71.0967 42.7676 71.2657 43.119C71.4367 43.4705 71.6661 43.7364 71.9542 43.917C72.2442 44.0975 72.5678 44.1877 72.925 44.1877C73.2822 44.1877 73.6048 44.0975 73.8929 43.917C74.1829 43.7364 74.4124 43.4705 74.5814 43.119C74.7523 42.7676 74.8377 42.3364 74.8377 41.8256ZM83.7591 40.7194L83.0447 40.7194C83.0024 40.514 82.9285 40.3334 82.8229 40.1779C82.7192 40.0223 82.5924 39.8917 82.4426 39.7861C82.2948 39.6786 82.1306 39.5979 81.95 39.5441C81.7695 39.4904 81.5813 39.4635 81.3854 39.4635C81.0282 39.4635 80.7046 39.5537 80.4147 39.7343C80.1266 39.9148 79.8971 40.1808 79.7262 40.5322C79.5572 40.8836 79.4727 41.3148 79.4727 41.8256C79.4727 42.3364 79.5572 42.7676 79.7262 43.119C79.8971 43.4705 80.1266 43.7364 80.4147 43.917C80.7046 44.0975 81.0282 44.1877 81.3854 44.1877C81.5813 44.1877 81.7695 44.1609 81.95 44.1071C82.1306 44.0533 82.2948 43.9736 82.4426 43.868C82.5924 43.7604 82.7192 43.6289 82.8229 43.4733C82.9285 43.3159 83.0024 43.1353 83.0447 42.9318L83.7591 42.9318C83.7053 43.2333 83.6074 43.5031 83.4653 43.7412C83.3231 43.9794 83.1465 44.182 82.9352 44.3491C82.724 44.5142 82.4868 44.64 82.2237 44.7264C81.9625 44.8128 81.6831 44.856 81.3854 44.856C80.8823 44.856 80.4348 44.7331 80.0431 44.4873C79.6513 44.2415 79.3431 43.892 79.1184 43.4388C78.8937 42.9856 78.7813 42.4478 78.7813 41.8256C78.7813 41.2034 78.8937 40.6657 79.1184 40.2125C79.3431 39.7592 79.6513 39.4097 80.0431 39.1639C80.4348 38.9181 80.8823 38.7952 81.3854 38.7952C81.6831 38.7952 81.9625 38.8384 82.2237 38.9248C82.4868 39.0112 82.724 39.138 82.9352 39.3051C83.1465 39.4702 83.3231 39.6719 83.4653 39.91C83.6074 40.1462 83.7053 40.416 83.7591 40.7194ZM89.8912 41.8256C89.8912 42.4478 89.7789 42.9856 89.5542 43.4388C89.3295 43.892 89.0213 44.2415 88.6295 44.4873C88.2378 44.7331 87.7903 44.856 87.2871 44.856C86.784 44.856 86.3365 44.7331 85.9448 44.4873C85.553 44.2415 85.2448 43.892 85.0201 43.4388C84.7954 42.9856 84.683 42.4478 84.683 41.8256C84.683 41.2034 84.7954 40.6657 85.0201 40.2125C85.2448 39.7592 85.553 39.4097 85.9448 39.1639C86.3365 38.9181 86.784 38.7952 87.2871 38.7952C87.7903 38.7952 88.2378 38.9181 88.6295 39.1639C89.0213 39.4097 89.3295 39.7592 89.5542 40.2125C89.7789 40.6657 89.8912 41.2034 89.8912 41.8256ZM89.1999 41.8256C89.1999 41.3148 89.1144 40.8836 88.9435 40.5322C88.7745 40.1808 88.545 39.9148 88.255 39.7343C87.967 39.5537 87.6443 39.4635 87.2871 39.4635C86.9299 39.4635 86.6064 39.5537 86.3164 39.7343C86.0283 39.9148 85.7988 40.1808 85.6279 40.5322C85.4589 40.8836 85.3744 41.3148 85.3744 41.8256C85.3744 42.3364 85.4589 42.7676 85.6279 43.119C85.7988 43.4705 86.0283 43.7364 86.3164 43.917C86.6064 44.0975 86.9299 44.1877 87.2871 44.1877C87.6443 44.1877 87.967 44.0975 88.255 43.917C88.545 43.7364 88.7745 43.4705 88.9435 43.119C89.1144 42.7676 89.1999 42.3364 89.1999 41.8256ZM95.7706 38.8758L95.7706 44.7754L95.0793 44.7754L91.8645 40.1433L91.8069 40.1433L91.8069 44.7754L91.0925 44.7754L91.0925 38.8758L91.7838 38.8758L95.0102 43.5194L95.0678 43.5194L95.0678 38.8758L95.7706 38.8758ZM97.2002 44.7754L97.2002 38.8758L100.738 38.8758L100.738 39.5096L97.9146 39.5096L97.9146 41.503L100.473 41.503L100.473 42.1367L97.9146 42.1367L97.9146 44.7754L97.2002 44.7754ZM101.961 44.7754L101.961 38.8758L105.522 38.8758L105.522 39.5096L102.676 39.5096L102.676 41.503L105.337 41.503L105.337 42.1367L102.676 42.1367L102.676 44.1416L105.568 44.1416L105.568 44.7754L101.961 44.7754ZM106.809 44.7754L106.809 38.8758L108.803 38.8758C109.264 38.8758 109.642 38.9546 109.938 39.112C110.233 39.2676 110.452 39.4817 110.594 39.7544C110.737 40.0271 110.808 40.3373 110.808 40.6849C110.808 41.0325 110.737 41.3407 110.594 41.6096C110.452 41.8784 110.234 42.0897 109.941 42.2433C109.647 42.395 109.271 42.4709 108.814 42.4709L107.201 42.4709L107.201 41.8256L108.791 41.8256C109.106 41.8256 109.36 41.7795 109.552 41.6873C109.746 41.5952 109.886 41.4646 109.972 41.2956C110.061 41.1247 110.105 40.9211 110.105 40.6849C110.105 40.4487 110.061 40.2422 109.972 40.0655C109.884 39.8889 109.743 39.7525 109.549 39.6565C109.355 39.5585 109.098 39.5096 108.78 39.5096L107.524 39.5096L107.524 44.7754L106.809 44.7754ZM109.586 42.1252L111.038 44.7754L110.208 44.7754L108.78 42.1252L109.586 42.1252ZM111.998 44.7754L111.998 38.8758L115.558 38.8758L115.558 39.5096L112.712 39.5096L112.712 41.503L115.374 41.503L115.374 42.1367L112.712 42.1367L112.712 44.1416L115.605 44.1416L115.605 44.7754L111.998 44.7754ZM121.524 38.8758L121.524 44.7754L120.833 44.7754L117.618 40.1433L117.561 40.1433L117.561 44.7754L116.846 44.7754L116.846 38.8758L117.537 38.8758L120.764 43.5194L120.821 43.5194L120.821 38.8758L121.524 38.8758ZM127.701 40.7194L126.987 40.7194C126.944 40.514 126.871 40.3334 126.765 40.1779C126.661 40.0223 126.534 39.8917 126.385 39.7861C126.237 39.6786 126.073 39.5979 125.892 39.5441C125.712 39.4904 125.523 39.4635 125.327 39.4635C124.97 39.4635 124.647 39.5537 124.357 39.7343C124.069 39.9148 123.839 40.1808 123.668 40.5322C123.499 40.8836 123.415 41.3148 123.415 41.8256C123.415 42.3364 123.499 42.7676 123.668 43.119C123.839 43.4705 124.069 43.7364 124.357 43.917C124.647 44.0975 124.97 44.1877 125.327 44.1877C125.523 44.1877 125.712 44.1609 125.892 44.1071C126.073 44.0533 126.237 43.9736 126.385 43.868C126.534 43.7604 126.661 43.6289 126.765 43.4733C126.871 43.3159 126.944 43.1353 126.987 42.9318L127.701 42.9318C127.647 43.2333 127.549 43.5031 127.407 43.7412C127.265 43.9794 127.088 44.182 126.877 44.3491C126.666 44.5142 126.429 44.64 126.166 44.7264C125.905 44.8128 125.625 44.856 125.327 44.856C124.824 44.856 124.377 44.7331 123.985 44.4873C123.593 44.2415 123.285 43.892 123.06 43.4388C122.836 42.9856 122.723 42.4478 122.723 41.8256C122.723 41.2034 122.836 40.6657 123.06 40.2125C123.285 39.7592 123.593 39.4097 123.985 39.1639C124.377 38.9181 124.824 38.7952 125.327 38.7952C125.625 38.7952 125.905 38.8384 126.166 38.9248C126.429 39.0112 126.666 39.138 126.877 39.3051C127.088 39.4702 127.265 39.6719 127.407 39.91C127.549 40.1462 127.647 40.416 127.701 40.7194ZM128.856 44.7754L128.856 38.8758L132.416 38.8758L132.416 39.5096L129.57 39.5096L129.57 41.503L132.232 41.503L132.232 42.1367L129.57 42.1367L129.57 44.1416L132.462 44.1416L132.462 44.7754L128.856 44.7754Z" fill="#503A7D"/>
</svg>
