<svg width="155" height="62" viewBox="0 0 155 62" fill="none" xmlns="http://www.w3.org/2000/svg">
<path d="M25.3129 35.6785C20.7209 35.6785 16.9854 31.9429 16.9854 27.3509C16.9854 22.759 20.7209 19.0234 25.3129 19.0234C29.9048 19.0234 33.6404 22.759 33.6404 27.3509C33.6404 31.9429 29.9048 35.6785 25.3129 35.6785ZM25.3129 22.0483C22.3882 22.0483 20.0102 24.4263 20.0102 27.3509C20.0102 30.2756 22.3882 32.6536 25.3129 32.6536C28.2375 32.6536 30.6155 30.2756 30.6155 27.3509C30.6155 24.4263 28.233 22.0483 25.3129 22.0483Z" fill="#0097D7"/>
<path d="M30.6155 37.7207C30.6155 40.6454 28.2375 43.0233 25.3129 43.0233C22.3882 43.0233 20.0102 40.6454 20.0102 37.7207L16.9854 37.7207C16.9854 42.3127 20.7209 46.0482 25.3129 46.0482C29.9048 46.0482 33.6404 42.3127 33.6404 37.7207L30.6155 37.7207Z" fill="#0097D7"/>
<path d="M37.6495 21.5567L37.6495 14.9648L31.0576 14.9648L31.0576 17.7118L34.9025 17.7118L34.9025 21.5567L37.6495 21.5567Z" fill="#0097D7"/>
<path d="M61.9942 21.1246C60.9282 20.1042 59.3429 19.5393 57.9626 19.5393C54.5642 19.5393 52.5051 22.1223 52.5051 25.3841C52.5051 27.9898 54.022 30.6821 57.9626 30.6821C59.2062 30.6821 60.295 30.4088 61.5432 29.4157L61.5432 26.6049L57.4888 26.6049L57.4888 23.9308L64.2857 23.9308L64.2857 30.6138C62.7231 32.4041 60.7506 33.4656 57.9671 33.4656C52.0085 33.4656 49.585 29.5478 49.585 25.3795C49.585 20.9196 52.3729 16.7969 57.9671 16.7969C60.0946 16.7969 62.2266 17.6123 63.8574 19.2204L61.9988 21.1246L61.9942 21.1246Z" fill="white"/>
<path d="M82.8312 33.1045L79.2733 33.1045L74.654 27.8065L71.7794 27.8065L71.7794 33.1045L68.791 33.1045L68.791 17.2285C71.3057 17.2285 73.8203 17.2513 76.335 17.2513C80.0705 17.2741 82.0431 19.7659 82.0431 22.5084C82.0431 24.6814 81.0454 26.8817 78.0342 27.4921L82.8357 32.9041L82.8357 33.1091L82.8312 33.1045ZM71.7794 20.0347L71.7794 25.1096L76.3304 25.1096C78.2346 25.1096 79.0501 23.8431 79.0501 22.5722C79.0501 21.3012 78.2119 20.0347 76.3304 20.0347L71.7794 20.0347Z" fill="white"/>
<path d="M98.4892 30.1187L90.1981 30.1187L88.8405 33.1072L85.6016 33.1072L92.7127 17.2539L95.9745 17.2539L103.086 33.1072L99.8239 33.1072L98.4892 30.1187ZM94.3436 20.584L91.4008 27.3353L97.2911 27.3353L94.3482 20.584L94.3436 20.584Z" fill="white"/>
<path d="M116.224 17.2285L119.212 17.2285L119.212 33.1045L117.353 33.1045L117.353 33.1273L109.017 22.4127L109.017 33.1045L106.028 33.1045L106.028 17.2513L108.452 17.2513L116.219 27.0821L116.219 17.2285L116.224 17.2285Z" fill="white"/>
<path d="M138.172 25.0439C138.24 29.0527 135.794 33.1072 130.245 33.1072L124.018 33.1072L124.018 17.2539L130.245 17.2539C135.68 17.2539 138.103 21.1261 138.172 25.0439ZM126.983 30.2326L130.245 30.2326C133.844 30.2326 135.274 27.6041 135.206 25.0211C135.138 22.552 133.689 20.0829 130.245 20.0829L126.983 20.0829L126.983 30.2281L126.983 30.2326Z" fill="white"/>
<path d="M88.802 45.2227L87.0687 38.8838L87.8487 38.8838L89.1734 44.0465L89.2353 44.0465L90.5848 38.8838L91.4514 38.8838L92.8009 44.0465L92.8628 44.0465L94.1876 38.8838L94.9675 38.8838L93.2342 45.2227L92.4419 45.2227L91.0429 40.1714L90.9934 40.1714L89.5943 45.2227L88.802 45.2227ZM100.974 42.0532C100.974 42.7218 100.854 43.2995 100.612 43.7865C100.371 44.2735 100.04 44.649 99.6188 44.9131C99.1978 45.1773 98.7171 45.3093 98.1764 45.3093C97.6358 45.3093 97.155 45.1773 96.7341 44.9131C96.3132 44.649 95.982 44.2735 95.7405 43.7865C95.4991 43.2995 95.3784 42.7218 95.3784 42.0532C95.3784 41.3847 95.4991 40.8069 95.7405 40.3199C95.982 39.833 96.3132 39.4574 96.7341 39.1933C97.155 38.9292 97.6358 38.7971 98.1764 38.7971C98.7171 38.7971 99.1978 38.9292 99.6188 39.1933C100.04 39.4574 100.371 39.833 100.612 40.3199C100.854 40.8069 100.974 41.3847 100.974 42.0532ZM100.232 42.0532C100.232 41.5043 100.14 41.0411 99.9562 40.6635C99.7746 40.2859 99.528 40.0001 99.2164 39.8061C98.9069 39.6122 98.5602 39.5152 98.1764 39.5152C97.7926 39.5152 97.4449 39.6122 97.1334 39.8061C96.8239 40.0001 96.5773 40.2859 96.3936 40.6635C96.212 41.0411 96.1213 41.5043 96.1213 42.0532C96.1213 42.6021 96.212 43.0653 96.3936 43.4429C96.5773 43.8205 96.8239 44.1063 97.1334 44.3003C97.4449 44.4943 97.7926 44.5912 98.1764 44.5912C98.5602 44.5912 98.9069 44.4943 99.2164 44.3003C99.528 44.1063 99.7746 43.8205 99.9562 43.4429C100.14 43.0653 100.232 42.6021 100.232 42.0532ZM102.265 45.2227L102.265 38.8838L104.407 38.8838C104.902 38.8838 105.309 38.9684 105.626 39.1376C105.944 39.3047 106.179 39.5348 106.332 39.8278C106.485 40.1208 106.561 40.454 106.561 40.8275C106.561 41.201 106.485 41.5322 106.332 41.8211C106.179 42.11 105.945 42.3369 105.63 42.502C105.314 42.665 104.91 42.7465 104.419 42.7465L102.686 42.7465L102.686 42.0532L104.395 42.0532C104.733 42.0532 105.005 42.0037 105.212 41.9046C105.42 41.8056 105.571 41.6653 105.664 41.4837C105.759 41.3001 105.806 41.0813 105.806 40.8275C105.806 40.5737 105.759 40.3519 105.664 40.1621C105.569 39.9722 105.417 39.8257 105.209 39.7226C105 39.6173 104.725 39.5647 104.382 39.5647L103.033 39.5647L103.033 45.2227L102.265 45.2227ZM105.249 42.3751L106.809 45.2227L105.917 45.2227L104.382 42.3751L105.249 42.3751ZM107.84 45.2227L107.84 38.8838L108.608 38.8838L108.608 42.0285L108.682 42.0285L111.53 38.8838L112.533 38.8838L109.871 41.7437L112.533 45.2227L111.604 45.2227L109.4 42.2761L108.608 43.1675L108.608 45.2227L107.84 45.2227ZM113.526 45.2227L113.526 38.8838L117.327 38.8838L117.327 39.5647L114.294 39.5647L114.294 41.7066L117.042 41.7066L117.042 42.3875L114.294 42.3875L114.294 45.2227L113.526 45.2227ZM118.642 45.2227L118.642 38.8838L119.409 38.8838L119.409 44.5417L122.356 44.5417L122.356 45.2227L118.642 45.2227ZM128.646 42.0532C128.646 42.7218 128.525 43.2995 128.284 43.7865C128.042 44.2735 127.711 44.649 127.29 44.9131C126.869 45.1773 126.389 45.3093 125.848 45.3093C125.307 45.3093 124.827 45.1773 124.406 44.9131C123.985 44.649 123.653 44.2735 123.412 43.7865C123.171 43.2995 123.05 42.7218 123.05 42.0532C123.05 41.3847 123.171 40.8069 123.412 40.3199C123.653 39.833 123.985 39.4574 124.406 39.1933C124.827 38.9292 125.307 38.7971 125.848 38.7971C126.389 38.7971 126.869 38.9292 127.29 39.1933C127.711 39.4574 128.042 39.833 128.284 40.3199C128.525 40.8069 128.646 41.3847 128.646 42.0532ZM127.903 42.0532C127.903 41.5043 127.811 41.0411 127.628 40.6635C127.446 40.2859 127.199 40.0001 126.888 39.8061C126.578 39.6122 126.232 39.5152 125.848 39.5152C125.464 39.5152 125.116 39.6122 124.805 39.8061C124.495 40.0001 124.249 40.2859 124.065 40.6635C123.884 41.0411 123.793 41.5043 123.793 42.0532C123.793 42.6021 123.884 43.0653 124.065 43.4429C124.249 43.8205 124.495 44.1063 124.805 44.3003C125.116 44.4943 125.464 44.5912 125.848 44.5912C126.232 44.5912 126.578 44.4943 126.888 44.3003C127.199 44.1063 127.446 43.8205 127.628 43.4429C127.811 43.0653 127.903 42.6021 127.903 42.0532ZM131.088 45.2227L129.355 38.8838L130.135 38.8838L131.459 44.0465L131.521 44.0465L132.871 38.8838L133.737 38.8838L135.087 44.0465L135.149 44.0465L136.474 38.8838L137.254 38.8838L135.52 45.2227L134.728 45.2227L133.329 40.1714L133.279 40.1714L131.88 45.2227L131.088 45.2227Z" fill="#0097D7"/>
</svg>
